<svg id="Layer_1" data-name="Layer 1" xmlns="http://www.w3.org/2000/svg" viewBox="0 0 40 19.09"><defs><style>.cls-1{fill:#a3b9c9;}.cls-2,.cls-3{fill:#4a7233;}.cls-3{isolation:isolate;font-size:3.79px;font-family:Viga-Regular, Viga;}</style></defs><path class="cls-1" d="M22.25,5.78V11.3a.63.63,0,0,1-.64.61h0A.62.62,0,0,1,21,11.3V5.78a.62.62,0,0,0-.64-.6h-.71a.62.62,0,0,0-.64.6V11.3a.62.62,0,0,1-.63.61h0a.63.63,0,0,1-.64-.61V5.78a.62.62,0,0,0-.63-.6H15.36a.61.61,0,0,0-.63.71L16,12.62A1.73,1.73,0,0,0,17.73,14H22.2a1.74,1.74,0,0,0,1.73-1.37L25.25,5.9a.62.62,0,0,0-.62-.72H22.87A.61.61,0,0,0,22.25,5.78Z"/><circle class="cls-1" cx="33.06" cy="6.94" r="6.94"/><path class="cls-2" d="M36.25,10.85a5.07,5.07,0,0,1-1.1.69l-.1-.64L33.7,12.63,35.53,14l-.07-.48a6.82,6.82,0,0,0,2-1.17,6.94,6.94,0,0,0,1.47-9L37.46,4.6A5,5,0,0,1,36.25,10.85Z"/><path class="cls-2" d="M29.86,3.13a5,5,0,0,1,6.31-.06l-.35.29L38,3.62l.22-2.26-.54.45a6.93,6.93,0,0,0-9-.16,6.75,6.75,0,0,0-1.63,2l1.84.68A5.06,5.06,0,0,1,29.86,3.13Z"/><path class="cls-2" d="M29.2,10.19a5,5,0,0,1-1.1-3.92l.45.21-.67-2.09-2.14.75.59.28h0a6.94,6.94,0,0,0,7.21,8.51L33.18,12A5,5,0,0,1,29.2,10.19Z"/><circle class="cls-1" cx="6.94" cy="6.94" r="6.94"/><path class="cls-2" d="M10.86,1.26l-.11-.08Z"/><path class="cls-2" d="M11.36,1.63l-.06,0Z"/><path class="cls-2" d="M7.94.12l.13,0Z"/><path class="cls-2" d="M11.12,1.44,11,1.37Z"/><path class="cls-2" d="M10.59,1.08,10.47,1Z"/><path class="cls-2" d="M9.33.47l0,0Z"/><path class="cls-2" d="M9.73.63,9.62.58Z"/><path class="cls-2" d="M10,.77,9.91.72Z"/><path class="cls-2" d="M10.32.92,10.2.86Z"/><path class="cls-2" d="M7.61.08h0Z"/><path class="cls-2" d="M9,.37l-.11,0Z"/><path class="cls-2" d="M6,.11l.21,0Z"/><path class="cls-2" d="M5.26.25,5.55.18Z"/><path class="cls-2" d="M6.41.07h0Z"/><path class="cls-2" d="M5.64.17l.25,0Z"/><path class="cls-2" d="M7.28.06h0Z"/><path class="cls-2" d="M4.9.35,5.22.26Z"/><path class="cls-2" d="M0,6.35c0,.1,0,.21,0,.32a3,3,0,0,1,0-.31L.31,7.65l.6.89L.73,9.2c.05,3,4.16,4.41,4.33,4.47a6.66,6.66,0,0,1-1.3-.52,6.5,6.5,0,0,0,1.31.52l.08-.54L5,12.44a3.31,3.31,0,0,1,.37-1,1,1,0,0,0,0-.83s-.55-.55-1.29-1.44a1.46,1.46,0,0,0-1.48-.66s-1.29,0-1.42-1.08S2.3,6.36,2.3,6.36L3,7.65a.91.91,0,0,0,.27-.83c0-.6-.09-.92-.09-.92s.74-.65.83-1a3.27,3.27,0,0,1,.69-1l.65-.69S5,2.68,4.78,2.64s-.6.59-.6.59a1.66,1.66,0,0,1-1.06-.42,5.09,5.09,0,0,0-1.06-.76h0A8.65,8.65,0,0,0,0,6.35Z"/><path class="cls-2" d="M2.06,2.06h0A6.9,6.9,0,0,1,4.89.35,7,7,0,0,0,1.66,2.49,5.36,5.36,0,0,1,2.06,2.06Z"/><path class="cls-2" d="M13.78,5.79c0,.11,0,.23.05.34C13.81,6,13.8,5.9,13.78,5.79Z"/><path class="cls-2" d="M13.88,7c0,.12,0,.25,0,.37C13.88,7.24,13.88,7.11,13.88,7Z"/><path class="cls-2" d="M13.84,6.19c0,.11,0,.21,0,.32C13.86,6.41,13.85,6.3,13.84,6.19Z"/><path class="cls-2" d="M13.86,7.47a2.45,2.45,0,0,1,0,.27A2.45,2.45,0,0,0,13.86,7.47Z"/><path class="cls-2" d="M10.68,1.61a8.11,8.11,0,0,1-1.15.79s-1,.46-.92.83c0,0,.55.73,1,.55a.79.79,0,0,1-.25.83s-1.06-.28-.79.51c0,0,.28,1.29,1,.92,0,0,.69-1.11,1.06-.92,0,0,1.06-.19,1.33.27a.69.69,0,0,1-.65.46l-1.07.25a5.79,5.79,0,0,0-1.45.44,1.32,1.32,0,0,0-.56.74s-.46.23,0,1.06c0,0,0,1,1.25.86,0,0,.69-.24.69.46a12.84,12.84,0,0,0-.65,2.73l.14.47s2.78-1.67,3.41-2.71a5.45,5.45,0,0,0,.25-.55c0,.11-.09.22-.14.33a7.88,7.88,0,0,0,.46-4.55v0l0-.06A9.66,9.66,0,0,0,13,3.56a7,7,0,0,0-1.62-1.93Z"/><path class="cls-2" d="M13,3.56a6.94,6.94,0,0,1,.69,1.74l0,.07A6.63,6.63,0,0,0,13,3.56Z"/><path class="cls-2" d="M13.69,5.38c0,.13.06.25.08.38C13.75,5.63,13.72,5.51,13.69,5.38Z"/><path class="cls-2" d="M13.87,6.6c0,.13,0,.26,0,.39C13.88,6.85,13.88,6.73,13.87,6.6Z"/><path class="cls-2" d="M13.79,8.11a2.17,2.17,0,0,0,0-.25A2.17,2.17,0,0,1,13.79,8.11Z"/><path class="cls-2" d="M13.72,8.48c0-.09,0-.17,0-.26A2.38,2.38,0,0,1,13.72,8.48Z"/><path class="cls-2" d="M8.59.24l.13,0Z"/><path class="cls-2" d="M8.39,13.78,8,13.85Z"/><path class="cls-2" d="M9.74,13.34a5.73,5.73,0,0,1-.82.3A5.73,5.73,0,0,0,9.74,13.34Z"/><path class="cls-2" d="M8.27.17,8.4.2Z"/><path class="cls-2" d="M8.82,13.67l-.34.09Z"/><path class="cls-2" d="M13.63,8.84c0-.09,0-.17.07-.26C13.68,8.67,13.65,8.75,13.63,8.84Z"/><path class="cls-2" d="M13.52,9.2l.09-.28Z"/><path class="cls-2" d="M13.39,9.57l.11-.3Z"/><path class="cls-2" d="M6.4,13.91l-.38,0Z"/><path class="cls-2" d="M3.51,13l.24.13Z"/><path class="cls-2" d="M2,11.84l.17.17Z"/><path class="cls-2" d="M0,7.32v0Z"/><path class="cls-2" d="M2.41,12.24a7.06,7.06,0,0,0,1.1.78A6.62,6.62,0,0,1,2.41,12.24Z"/><path class="cls-2" d="M1.28,3c-.06.07-.11.15-.16.22S1.22,3.05,1.28,3Z"/><path class="cls-2" d="M1.65,2.49l-.18.22Z"/><path class="cls-2" d="M2.19,12.05a1.29,1.29,0,0,1,.17.16A1.29,1.29,0,0,0,2.19,12.05Z"/><path class="cls-2" d="M1.11,3.22a6.71,6.71,0,0,0-.76,1.6A6.71,6.71,0,0,1,1.11,3.22Z"/><path class="cls-2" d="M1.46,2.73,1.29,3Z"/><path class="cls-2" d="M.34,4.84.26,5.1Z"/><path class="cls-2" d="M11.71,12c-.22.2-.45.4-.69.58C11.26,12.43,11.49,12.23,11.71,12Z"/><path class="cls-2" d="M11,12.63l-.35.23Z"/><path class="cls-2" d="M11.73,12a6.9,6.9,0,0,0,1.39-1.87A6.9,6.9,0,0,1,11.73,12Z"/><path class="cls-2" d="M10.6,12.88l-.39.23A4,4,0,0,0,10.6,12.88Z"/><path class="cls-2" d="M6.94,13.93l-.44,0Z"/><path class="cls-2" d="M6.94,13.93l.45,0Z"/><path class="cls-2" d="M10.19,13.13l-.37.17Z"/><path class="cls-2" d="M7.51,13.9l.36,0Z"/><path class="cls-2" d="M0,7.65v.12S0,7.69,0,7.65Z"/><path class="cls-2" d="M.4,9.32l0,.12Z"/><path class="cls-2" d="M.79,10.21l.12.2Z"/><path class="cls-2" d="M1,10.55l.09.14Z"/><path class="cls-2" d="M.51,9.61l.06.13Z"/><path class="cls-2" d="M.64,9.9.7,10Z"/><path class="cls-2" d="M1.48,11.27a6.3,6.3,0,0,0,.48.55A6.3,6.3,0,0,1,1.48,11.27Z"/><path class="cls-2" d="M1.31,11l.11.16Z"/><path class="cls-2" d="M1.14,10.8l.1.15Z"/><path class="cls-2" d="M6,13.86a6.53,6.53,0,0,1-.9-.19A6.53,6.53,0,0,0,6,13.86Z"/><path class="cls-2" d="M.25,5.15a2.17,2.17,0,0,1-.07.24C.2,5.31.23,5.23.25,5.15Z"/><path class="cls-2" d="M.34,9.14.3,9Z"/><path class="cls-2" d="M.06,6.07l0,.28Z"/><path class="cls-2" d="M.17,5.45c0,.09,0,.17-.05.25Z"/><path class="cls-2" d="M.11,5.77A2.17,2.17,0,0,0,.07,6,2.17,2.17,0,0,1,.11,5.77Z"/><path class="cls-2" d="M.22,8.72s0,0,0,0S.22,8.74.22,8.72Z"/><path class="cls-2" d="M.13,8.31v.1S.13,8.34.13,8.31Z"/><path class="cls-2" d="M.07,8s0,.08,0,.12S.08,8,.07,8Z"/><path class="cls-2" d="M21.6,3.64h0a.42.42,0,0,0-.4-.43H18.7a.42.42,0,0,0-.4.43h0a.42.42,0,0,1-.4.44H14.61a.41.41,0,0,0-.4.43v0a.42.42,0,0,0,.4.43H25.29a.42.42,0,0,0,.4-.43v0a.41.41,0,0,0-.4-.43H22A.42.42,0,0,1,21.6,3.64ZM21,4.05H18.82a.22.22,0,0,1-.21-.23h0a.23.23,0,0,1,.21-.24H21a.23.23,0,0,1,.22.24h0A.22.22,0,0,1,21,4.05Z"/><text class="cls-3" transform="translate(1.14 17.85) scale(0.8 1)">Orlando Waste Organization</text></svg>