<svg id="Layer_1" data-name="Layer 1" xmlns="http://www.w3.org/2000/svg" viewBox="0 0 188.25 89.85"><defs><style>.cls-1{fill:#a3b9c9;}.cls-2,.cls-3{fill:#4a7233;}.cls-3{isolation:isolate;font-size:17.81px;font-family:Viga-Regular, Viga;}</style></defs><path class="cls-1" d="M104.7,27.22v26a2.92,2.92,0,0,1-3,2.84h0a2.92,2.92,0,0,1-3-2.84v-26a2.92,2.92,0,0,0-3-2.84H92.37a2.92,2.92,0,0,0-3,2.84v26a2.92,2.92,0,0,1-3,2.84h0a2.92,2.92,0,0,1-3-2.84v-26a2.92,2.92,0,0,0-3-2.84H72.28a2.89,2.89,0,0,0-2.94,3.34l5.94,31.66a8.17,8.17,0,0,0,8.14,6.49H104.5a8.17,8.17,0,0,0,8.13-6.43l6.2-31.69a2.88,2.88,0,0,0-2.93-3.36h-8.25A2.89,2.89,0,0,0,104.7,27.22Z"/><circle class="cls-1" cx="155.58" cy="32.67" r="32.67"/><path class="cls-2" d="M170.62,51.05a23.56,23.56,0,0,1-5.2,3.26l-.48-3-6.34,8.15,8.62,6.34-.35-2.22a32.68,32.68,0,0,0,16.5-47.8l-7.09,5.88A23.58,23.58,0,0,1,170.62,51.05Z"/><path class="cls-2" d="M140.52,14.75a23.57,23.57,0,0,1,29.72-.3l-1.64,1.37,10.26,1.23,1-10.65-2.53,2.12A32.66,32.66,0,0,0,127.05,17l8.67,3.21A23.24,23.24,0,0,1,140.52,14.75Z"/><path class="cls-2" d="M137.42,48a23.5,23.5,0,0,1-5.17-18.44l2.12,1-3.14-9.84-10.1,3.53,2.77,1.32-.14-.05a32.66,32.66,0,0,0,33.93,40l-1.54-9A23.55,23.55,0,0,1,137.42,48Z"/><circle class="cls-1" cx="32.67" cy="32.67" r="32.67"/><path class="cls-2" d="M51.1,5.92l-.53-.35Z"/><path class="cls-2" d="M53.47,7.69l-.27-.22A2.88,2.88,0,0,0,53.47,7.69Z"/><path class="cls-2" d="M37.37.56l.63.1Z"/><path class="cls-2" d="M52.31,6.78l-.48-.35Z"/><path class="cls-2" d="M49.85,5.1l-.56-.34Z"/><path class="cls-2" d="M43.91,2.2l-.18-.06Z"/><path class="cls-2" d="M45.78,3l-.49-.22Z"/><path class="cls-2" d="M47.22,3.64c-.19-.09-.37-.19-.56-.27C46.85,3.45,47,3.54,47.22,3.64Z"/><path class="cls-2" d="M48.56,4.35,48,4C48.18,4.13,48.37,4.24,48.56,4.35Z"/><path class="cls-2" d="M35.82.37l.6.07Z"/><path class="cls-2" d="M42.48,1.72,42,1.57C42.14,1.62,42.31,1.66,42.48,1.72Z"/><path class="cls-2" d="M28.31.51c.34,0,.69-.1,1-.13Z"/><path class="cls-2" d="M24.77,1.18c.45-.11.9-.22,1.35-.31C25.67,1,25.22,1.07,24.77,1.18Z"/><path class="cls-2" d="M30.19.32c.27,0,.53,0,.8-.06C30.72.27,30.46.3,30.19.32Z"/><path class="cls-2" d="M26.54.8,27.72.59C27.32.65,26.93.72,26.54.8Z"/><path class="cls-2" d="M34.25.26l.52,0C34.6.28,34.43.26,34.25.26Z"/><path class="cls-2" d="M23.06,1.65q.75-.22,1.5-.42Q23.8,1.43,23.06,1.65Z"/><path class="cls-2" d="M.14,29.87c-.05.5-.08,1-.11,1.51,0-.49.06-1,.1-1.46L1.48,36,4.3,40.19l-.86,3.1c.21,13.93,19.58,20.77,20.39,21a32.77,32.77,0,0,1-6.15-2.42,32.24,32.24,0,0,0,6.19,2.43l.39-2.55-.87-3.25A15.63,15.63,0,0,1,25.12,54c1.08-1.52,0-3.9,0-3.9s-2.6-2.6-6.07-6.8-6.94-3.1-6.94-3.1S6,40.11,5.39,35.13s5.42-5.2,5.42-5.2L14.06,36s1.52-1.08,1.3-3.9-.43-4.34-.43-4.34,3.47-3,3.9-4.77,3.25-4.55,3.25-4.55l3-3.26s-1.73-2.59-2.6-2.77-2.82,2.77-2.82,2.77a7.81,7.81,0,0,1-5-1.94,25.13,25.13,0,0,0-5-3.59l0,0C1.93,18,.24,29.17.14,29.87Z"/><path class="cls-2" d="M9.68,9.68l0,0h0A32.7,32.7,0,0,1,23,1.66,32.72,32.72,0,0,0,7.79,11.72Q8.69,10.67,9.68,9.68Z"/><path class="cls-2" d="M64.84,27.24c.09.53.17,1.07.24,1.61C65,28.31,64.93,27.77,64.84,27.24Z"/><path class="cls-2" d="M65.34,32.89c0,.59,0,1.19,0,1.77C65.32,34.07,65.34,33.48,65.34,32.89Z"/><path class="cls-2" d="M65.12,29.15c.06.49.1,1,.13,1.49C65.22,30.15,65.17,29.65,65.12,29.15Z"/><path class="cls-2" d="M65.25,35.17c0,.42-.06.83-.1,1.25C65.19,36,65.22,35.59,65.25,35.17Z"/><path class="cls-2" d="M50.26,7.6a35.78,35.78,0,0,1-5.42,3.69s-4.55,2.15-4.34,3.9c0,0,2.59,3.47,4.87,2.61,0,0,.76,2.6-1.19,3.9,0,0-5-1.3-3.69,2.38,0,0,1.3,6.07,4.77,4.34,0,0,3.26-5.2,5-4.34,0,0,5-.87,6.29,1.3a3.31,3.31,0,0,1-3.08,2.17l-5.05,1.18s-6.17,1.21-6.82,2.07A6,6,0,0,0,39,34.27s-2.17,1.08,0,5c0,0-.22,4.61,5.85,4,0,0,3.25-1.13,3.25,2.18,0,0-3.25,9.6-3,12.85l.65,2.17s13.07-7.82,16-12.75c.43-.83.82-1.69,1.17-2.56-.21.52-.44,1-.67,1.54.63-1.45,4.63-11.32,2.19-21.4,0,0,0-.06,0-.09l-.09-.32a46.43,46.43,0,0,0-3.27-8.17,32.83,32.83,0,0,0-7.6-9.06Z"/><path class="cls-2" d="M61.07,16.76a32.55,32.55,0,0,1,3.27,8.17l.09.32A32,32,0,0,0,61.07,16.76Z"/><path class="cls-2" d="M64.45,25.33c.14.58.26,1.17.36,1.76C64.71,26.5,64.59,25.91,64.45,25.33Z"/><path class="cls-2" d="M65.28,31c0,.61.06,1.23.06,1.85C65.34,32.26,65.31,31.65,65.28,31Z"/><path class="cls-2" d="M64.91,38.16c.06-.39.12-.79.17-1.19C65,37.37,65,37.77,64.91,38.16Z"/><path class="cls-2" d="M64.57,39.89c.09-.4.16-.8.24-1.2Q64.7,39.29,64.57,39.89Z"/><path class="cls-2" d="M40.43,1.15c.2.05.4.09.59.15Z"/><path class="cls-2" d="M39.47,64.84c-.67.14-1.34.26-2,.36C38.13,65.1,38.81,65,39.47,64.84Z"/><path class="cls-2" d="M45.85,62.78A33.36,33.36,0,0,1,42,64.2,34.79,34.79,0,0,0,45.85,62.78Z"/><path class="cls-2" d="M38.9.82l.62.12Z"/><path class="cls-2" d="M41.53,64.33c-.54.15-1.09.29-1.64.41C40.44,64.62,41,64.48,41.53,64.33Z"/><path class="cls-2" d="M64.15,41.61c.11-.41.22-.83.32-1.25C64.37,40.78,64.26,41.2,64.15,41.61Z"/><path class="cls-2" d="M63.62,43.32c.15-.44.28-.87.41-1.32C63.91,42.44,63.77,42.88,63.62,43.32Z"/><path class="cls-2" d="M63,45c.19-.46.36-.93.53-1.41C63.36,44.08,63.19,44.55,63,45Z"/><path class="cls-2" d="M30.11,65.45q-.88-.08-1.77-.18Q29.23,65.38,30.11,65.45Z"/><path class="cls-2" d="M16.53,61.29c.37.21.75.42,1.14.62Z"/><path class="cls-2" d="M9.33,55.74l.78.77Z"/><path class="cls-2" d="M0,34.44l0,.5C.06,34.77,0,34.61,0,34.44Z"/><path class="cls-2" d="M11.32,57.6a32.63,32.63,0,0,0,5.19,3.67A32.18,32.18,0,0,1,11.32,57.6Z"/><path class="cls-2" d="M6,14c-.25.35-.49.71-.73,1.07C5.52,14.72,5.76,14.36,6,14Z"/><path class="cls-2" d="M7.77,11.74c-.28.33-.56.68-.83,1C7.21,12.42,7.48,12.08,7.77,11.74Z"/><path class="cls-2" d="M10.32,56.71l.81.74Z"/><path class="cls-2" d="M5.23,15.16a32.29,32.29,0,0,0-3.6,7.54A32.09,32.09,0,0,1,5.23,15.16Z"/><path class="cls-2" d="M6.86,12.87c-.26.34-.52.68-.77,1C6.34,13.55,6.6,13.2,6.86,12.87Z"/><path class="cls-2" d="M1.6,22.78c-.13.4-.25.81-.37,1.21C1.35,23.59,1.47,23.18,1.6,22.78Z"/><path class="cls-2" d="M55.12,56.6a33,33,0,0,1-3.28,2.73A33,33,0,0,0,55.12,56.6Z"/><path class="cls-2" d="M51.67,59.45c-.53.38-1.07.75-1.63,1.09C50.6,60.19,51.14,59.83,51.67,59.45Z"/><path class="cls-2" d="M55.22,56.51a32.67,32.67,0,0,0,6.54-8.77A32.67,32.67,0,0,1,55.22,56.51Z"/><path class="cls-2" d="M49.89,60.64c-.6.37-1.21.73-1.84,1.06C48.68,61.37,49.29,61,49.89,60.64Z"/><path class="cls-2" d="M32.67,65.55c-.7,0-1.39,0-2.07-.07C31.28,65.53,32,65.55,32.67,65.55Z"/><path class="cls-2" d="M32.67,65.55c.71,0,1.41,0,2.11-.08C34.08,65.52,33.38,65.55,32.67,65.55Z"/><path class="cls-2" d="M47.94,61.77q-.84.45-1.71.84Q47.08,62.21,47.94,61.77Z"/><path class="cls-2" d="M35.35,65.44c.57,0,1.13-.11,1.69-.18C36.48,65.33,35.91,65.39,35.35,65.44Z"/><path class="cls-2" d="M.15,36l.06.57C.19,36.36.16,36.17.15,36Z"/><path class="cls-2" d="M1.89,43.85l.22.6C2,44.25,2,44.05,1.89,43.85Z"/><path class="cls-2" d="M3.73,48.05c.17.32.35.65.53,1C4.08,48.7,3.9,48.38,3.73,48.05Z"/><path class="cls-2" d="M4.61,49.63l.42.68Z"/><path class="cls-2" d="M2.42,45.23l.25.61C2.58,45.64,2.5,45.43,2.42,45.23Z"/><path class="cls-2" d="M3,46.59c.09.2.18.4.28.59C3.19,47,3.1,46.78,3,46.59Z"/><path class="cls-2" d="M7,53c.71.9,1.47,1.77,2.27,2.6A29.54,29.54,0,0,1,7,53Z"/><path class="cls-2" d="M6.17,52c.17.24.35.48.53.71C6.51,52.46,6.34,52.22,6.17,52Z"/><path class="cls-2" d="M5.37,50.83l.47.7Z"/><path class="cls-2" d="M28.09,65.23a32.55,32.55,0,0,1-4.22-.88A32.55,32.55,0,0,0,28.09,65.23Z"/><path class="cls-2" d="M1.17,24.22c-.11.39-.2.78-.3,1.17C1,25,1.06,24.6,1.17,24.22Z"/><path class="cls-2" d="M1.6,43l-.18-.55Z"/><path class="cls-2" d="M.29,28.57c-.06.43-.11.86-.15,1.3C.18,29.43.23,29,.29,28.57Z"/><path class="cls-2" d="M.8,25.67q-.14.58-.24,1.17Z"/><path class="cls-2" d="M.51,27.14c-.07.4-.14.8-.19,1.2C.37,27.94.44,27.53.51,27.14Z"/><path class="cls-2" d="M1,41c0,.09.05.17.07.26C1.07,41.2,1,41.11,1,41Z"/><path class="cls-2" d="M.59,39.1l.09.49Z"/><path class="cls-2" d="M.33,37.52c0,.19,0,.38.08.57C.38,37.9.36,37.71.33,37.52Z"/><path class="cls-2" d="M101.66,17.15h0a2,2,0,0,0-1.89-2H88a2,2,0,0,0-1.89,2h0a2,2,0,0,1-1.89,2H68.78a2,2,0,0,0-1.89,2v.23a2,2,0,0,0,1.89,2H119a2,2,0,0,0,1.89-2v-.23a2,2,0,0,0-1.89-2H103.55A2,2,0,0,1,101.66,17.15Zm-3.07,1.93h-10a1.07,1.07,0,0,1-1-1.11h0a1.07,1.07,0,0,1,1-1.11h10a1.07,1.07,0,0,1,1,1.11h0A1.07,1.07,0,0,1,98.59,19.08Z"/><text class="cls-3" transform="translate(5.37 83.99) scale(0.8 1)">Orlando Waste Organization</text></svg>