<svg xmlns="http://www.w3.org/2000/svg" viewBox="0 0 1080 380"><defs><style>.cls-1{fill:#fff;}.cls-2{opacity:0.46;}.cls-3{fill:#e7ebe1;}.cls-4{opacity:0.75;}.cls-5,.cls-6{fill:#52713b;}.cls-6{font-size:83.15px;font-family:Viga-Regular, Viga;letter-spacing:-0.01em;}.cls-7,.cls-8{fill:#000;}.cls-8{letter-spacing:-0.02em;}</style></defs><g id="graphic"><rect class="cls-1" x="1" width="1079" height="380"/><g class="cls-2"><path class="cls-3" d="M-42.81,170.82q28.38.47,56.75-.17t56.7-2.36c15.08-.92,31.56-1.92,44-11.62,5.84-4.58,10-10.81,14.92-16.29a39.07,39.07,0,0,1,8.3-7.31,48.56,48.56,0,0,1,11.73-4.85c17.72-5.32,35.75-9.72,53.86-13.46,2.26-.47,4.52-.92,6.77-1.37,1.9-.37,1.1-3.26-.79-2.89q-27.23,5.35-54,12.9c-8.06,2.27-16.35,4.39-22.92,9.85-5.63,4.68-9.69,10.87-14.62,16.22a42,42,0,0,1-18.74,11.78c-7.37,2.3-15.08,3.12-22.75,3.67-18.52,1.31-37.11,2.06-55.67,2.56q-28.24.77-56.5.44l-7-.1c-1.93,0-1.93,3,0,3Z"/><path class="cls-3" d="M108,160.93a42.06,42.06,0,0,1,25.41-.16A50.62,50.62,0,0,1,145.29,166a47.83,47.83,0,0,1,5.41,3.75c1.81,1.44,3.53,3,5.46,4.28,4.57,3,10.07,3.45,15.38,3.75,1.93.11,1.92-2.89,0-3-4.8-.27-9.74-.61-13.87-3.34-2-1.32-3.74-3-5.63-4.43a55.33,55.33,0,0,0-5.24-3.61,51.65,51.65,0,0,0-25-7.54A41.91,41.91,0,0,0,107.23,158c-1.82.61-1,3.51.8,2.89Z"/><path class="cls-3" d="M127,143.31a48.41,48.41,0,0,0,11.83-18.8,50.29,50.29,0,0,0,2.44-11.05c.46-4.34,0-8.76.65-13.07.73-4.6,2.8-8.87,2.86-13.58a1.5,1.5,0,0,0-3,0c-.05,4-1.67,7.63-2.5,11.45-.91,4.22-.58,8.51-.82,12.78a46.44,46.44,0,0,1-6,20.41,44.22,44.22,0,0,1-7.53,9.74c-1.38,1.35.74,3.47,2.12,2.12Z"/><path class="cls-3" d="M169.43,122.82c8.44-2.18,10.6-11.36,14.45-17.95,2.22-3.81,5.58-6,9-8.68,3.25-2.52,6-5.66,6.48-9.9.2-1.92-2.81-1.91-3,0-.4,3.81-3.8,6.46-6.66,8.56-3.21,2.36-6.11,4.7-8.19,8.15-3.49,5.79-5.36,15-12.86,16.92a1.5,1.5,0,0,0,.79,2.9Z"/><path class="cls-3" d="M150.21,128.27c3.26.09,6.73.15,9.74,1.57s5.19,3.91,8,5.5A27.6,27.6,0,0,0,177,138.5c3,.46,6.27.2,8.82,2,1.57,1.12,3.07-1.48,1.51-2.59-2.67-1.93-6-1.86-9.1-2.27a24.67,24.67,0,0,1-9.51-3.35c-2.91-1.75-5.23-4.3-8.43-5.56s-6.72-1.39-10.12-1.49c-1.93-.06-1.93,2.94,0,3Z"/><path class="cls-3" d="M126.92,159a61.29,61.29,0,0,0,11.7,1.14,33.84,33.84,0,0,0,10.62-2.43,32.16,32.16,0,0,1,5.16-1.53,19.11,19.11,0,0,1,5.6,0c3.44.39,7.17.7,10.11-1.5,1.53-1.14,0-3.74-1.51-2.59-2.8,2.09-6.35,1.3-9.57,1a22.88,22.88,0,0,0-10.18,1.56c-3.29,1.18-6.47,2.32-10,2.46a55.66,55.66,0,0,1-11.14-1c-1.88-.3-2.7,2.59-.79,2.9Z"/><path class="cls-3" d="M75,167.86c5,1.22,8.14,5.8,11.73,9.13a42.91,42.91,0,0,0,14.13,8.66c1.81.68,2.59-2.22.8-2.89a39.54,39.54,0,0,1-14-9c-3.51-3.49-6.87-7.56-11.9-8.79-1.88-.46-2.68,2.43-.8,2.89Z"/><path class="cls-3" d="M33.56,170c9.46.83,14.11-8.9,19.91-14.45,3.11-3,7.44-4.17,10.08-7.69,2.44-3.26,3.35-7.35,4.15-11.26.38-1.89-2.51-2.69-2.89-.8-.72,3.52-1.46,7.3-3.63,10.25a13.85,13.85,0,0,1-4.66,3.68,25,25,0,0,0-4.87,3.42C46.37,158.06,42,167.77,33.56,167c-1.92-.17-1.91,2.83,0,3Z"/><path class="cls-3" d="M59.74,150.66l15.32,1.65a41.11,41.11,0,0,0,7.58.56,13.32,13.32,0,0,0,6.06-2.18c4.06-2.56,7.93-5.49,11.77-8.37s7.85-6,11.67-9.16c1.5-1.23-.64-3.34-2.12-2.12a252,252,0,0,1-22.48,16.83,10.5,10.5,0,0,1-5.81,2,63.68,63.68,0,0,1-7.16-.64l-14.83-1.6c-1.92-.2-1.9,2.8,0,3Z"/><path class="cls-3" d="M85.61,151.43a16.76,16.76,0,0,0,2.23-7.19,22.47,22.47,0,0,0-1.15-7.75,18.35,18.35,0,0,1-.48-8.07,51.69,51.69,0,0,1,2.4-8.35c.64-1.82-2.26-2.61-2.89-.79-1.78,5.08-3.47,10.38-2.45,15.81.47,2.5,1.51,4.88,1.61,7.45A13.62,13.62,0,0,1,83,149.91a1.5,1.5,0,0,0,2.59,1.52Z"/><path class="cls-3" d="M107.5,136.35a19.14,19.14,0,0,0,2.76-5.65c.61-2.08.55-4.26,1.08-6.35,1-4.19,4.55-7.62,3.11-12.23-.58-1.84-3.48-1.05-2.9.8,1.21,3.85-2.43,7.41-3.2,11-.39,1.85-.39,3.74-.88,5.57a16.47,16.47,0,0,1-2.56,5.32c-1.12,1.58,1.48,3.08,2.59,1.51Z"/></g><path class="cls-3" d="M13.15,168.26C-.78,171.64.84,184.47,3,193.34s6.35,18.19,20.29,14.81,29.43-18.84,27.28-27.71S27.08,164.88,13.15,168.26Z"/><polygon class="cls-3" points="-4.26 192.22 -4.28 194.04 3.64 192.27 3.36 191.73 -4.26 192.22"/><path class="cls-1" d="M4.47,191.92c0,.31,10.53.33,22.85-3.42,11.36-3.45,19.51-8.67,19.38-8.94s-7.76,4.7-20.13,8.37C13.73,191.74,4.43,191.63,4.47,191.92Z"/><path class="cls-1" d="M39.39,169.57c-.16-.16-5.06,2.91-9,8.6-3.66,5.24-5,10.51-4.8,10.62S27,183.92,31,178.26C35.17,172.39,39.55,169.72,39.39,169.57Z"/><path class="cls-1" d="M33.25,168.11c-.2-.18-5.69,3.4-10,10-3.95,6.05-5.22,12.1-5,12.23s1.36-5.6,5.71-12.13C28.52,171.39,33.43,168.28,33.25,168.11Z"/><path class="cls-1" d="M25.5,166.39c-.2-.14-5.33,4.42-9.18,11.8C12.76,185,11.79,191.34,12,191.43s1.08-5.9,5-13.26C21.09,170.53,25.69,166.53,25.5,166.39Z"/><path class="cls-1" d="M8.78,191.74c-.21.15,1.64,5.75,6.45,10.85,4.44,4.71,9.54,7,9.71,6.84s-4.68-2.3-9.44-7.46C10.55,196.61,9,191.61,8.78,191.74Z"/><path class="cls-1" d="M15.07,190.94c-.16.15,3,5.46,8.81,10.09,5.39,4.28,10.83,6.18,11,6s-5-1.93-10.84-6.62C18,195.54,15.23,190.8,15.07,190.94Z"/><path class="cls-1" d="M21.31,189.57c-.13.14,3,4.29,8.24,7.64,4.87,3.1,9.57,4.21,9.65,4a47.62,47.62,0,0,1-9.62-4.57A45.16,45.16,0,0,1,21.31,189.57Z"/><path class="cls-1" d="M30,187.4c-.11.14,2.78,3.69,7.59,6.42,4.45,2.52,8.67,3.28,8.73,3.13a42.11,42.11,0,0,1-8.71-3.6A38.8,38.8,0,0,1,30,187.4Z"/><path class="cls-1" d="M36.85,184.69c-.12.16,1.67,3.25,5.3,5.11,3.34,1.71,6.84,1.65,6.93,1.48a21.37,21.37,0,0,1-6.83-2A18.57,18.57,0,0,1,36.85,184.69Z"/><path class="cls-1" d="M17.2,166.82c-.23-.13-5,4.58-8,12-2.8,6.84-3,13.12-2.73,13.2s.34-5.85,3.45-13.25C13.16,171.08,17.41,167,17.2,166.82Z"/><path class="cls-1" d="M44.38,172c-.14-.14-4.05,1.91-7.15,6.12-2.85,3.89-3.81,8-3.65,8.09a33.13,33.13,0,0,1,4.16-8A30.57,30.57,0,0,1,44.38,172Z"/><g class="cls-2"><path class="cls-3" d="M1112.26-26.06q-33.84,2.77-67.56,6.84t-67.06,9.4C959.94-7,940.49-4,926.91,8.83c-6.51,6.13-10.79,14.09-16,21.25A48.13,48.13,0,0,1,902,39.73,56.05,56.05,0,0,1,888.53,47c-20.48,8.42-41.46,15.76-62.61,22.34Q822,70.57,818,71.76c-1.85.56-1.06,3.45.79,2.9q32-9.61,63.14-21.82c9.08-3.56,18.51-7,25.53-14,6.28-6.31,10.46-14.29,15.78-21.35a50.48,50.48,0,0,1,21-16.16c8.34-3.53,17.3-5.4,26.19-6.93,22-3.79,44.11-6.84,66.23-9.62q33.54-4.2,67.23-7.13l8.39-.7c1.91-.16,1.92-3.16,0-3Z"/><path class="cls-3" d="M933.64,3.42c-9.35,4.24-20,5-30,3.1a61.08,61.08,0,0,1-14.54-4.73A61.94,61.94,0,0,1,882.21-2c-2.32-1.46-4.51-3.13-6.92-4.45-5.85-3.19-12.42-3.16-18.91-2.89-1.92.08-1.93,3.08,0,3,5.84-.24,11.9-.46,17.2,2.38,2.55,1.36,4.84,3.13,7.28,4.66a63,63,0,0,0,6.89,3.76,61.24,61.24,0,0,0,30.57,5.87A50.68,50.68,0,0,0,935.16,6c1.75-.8.23-3.38-1.52-2.59Z"/><path class="cls-3" d="M913.57,26.3A57.34,57.34,0,0,0,901.66,50a59.09,59.09,0,0,0-1.61,13.11c-.06,5.1.93,10.17.77,15.27-.18,5.71-2.35,11.2-1.84,17,.17,1.91,3.17,1.92,3,0-.43-4.86,1.08-9.55,1.64-14.33.6-5.08-.35-10.13-.54-15.2a56,56,0,0,1,4.84-25,53.29,53.29,0,0,1,7.78-12.41c1.23-1.47-.88-3.6-2.13-2.12Z"/><path class="cls-3" d="M865.38,55.79c-7,2.54-10.17,9.59-12.47,16.14-1.3,3.67-2.52,7.41-4.75,10.64s-5.73,5.7-8.57,8.55c-3,3-5.48,6.83-5.49,11.23a1.5,1.5,0,0,0,3,0c0-7.64,8.46-11.67,12.66-16.94,4.54-5.71,5.42-13.11,8.85-19.39,1.72-3.13,4.11-6.08,7.57-7.33,1.8-.65,1-3.55-.8-2.9Z"/><path class="cls-3" d="M887.55,47.12c-3.87.26-7.88.56-11.63-.62s-6.8-4-10.4-5.62a33.29,33.29,0,0,0-11.27-2.8c-3.54-.24-7.51.54-10.71-1.34A1.5,1.5,0,0,0,842,39.33c3.36,2,7.19,1.59,10.93,1.69a29.68,29.68,0,0,1,11.85,2.81c3.67,1.74,6.77,4.56,10.73,5.69s8,.87,12,.6c1.92-.13,1.93-3.13,0-3Z"/><path class="cls-3" d="M911.2,7.84a71.57,71.57,0,0,0-13.73,0c-4.5.59-8.42,2.26-12.47,4.2a35.77,35.77,0,0,1-5.87,2.35,24,24,0,0,1-6.86.6c-4.14-.07-8.46.11-11.67,3.07-1.43,1.32.7,3.43,2.12,2.13,3.12-2.88,7.83-2.13,11.7-2.19,4.22-.05,7.94-1.4,11.71-3.19s7.54-3.49,11.79-4a71,71,0,0,1,13.28,0c1.93.12,1.92-2.88,0-3Z"/><path class="cls-3" d="M1021.48-16.2c-8.34.05-13.59,7.31-17.73,13.59-2.26,3.42-4.58,6.84-7.94,9.28s-6.32,4.48-8.11,8.23c-1.89,4-2.41,8.34-2.85,12.65-.2,1.92,2.8,1.91,3,0a38.47,38.47,0,0,1,2.07-10.3A13.68,13.68,0,0,1,992.54,13a29.88,29.88,0,0,1,4.61-3.62,32,32,0,0,0,7.59-8.11c2.11-3,4-6.31,6.49-9,2.69-2.92,6.13-5.4,10.25-5.43a1.5,1.5,0,0,0,0-3Z"/><path class="cls-3" d="M992.59,9.9l-14.24-.13L971,9.7a32.8,32.8,0,0,0-6.42.33c-4.13.77-7.28,3.81-10.36,6.44q-5.33,4.56-10.48,9.31-5.76,5.31-11.3,10.86a1.5,1.5,0,0,0,2.12,2.12Q944,29.36,954,20.61c1.64-1.43,3.29-2.85,5-4.24a15.89,15.89,0,0,1,4.93-3.07,18.51,18.51,0,0,1,6.11-.6c2.3,0,4.59,0,6.88.06l15.71.14a1.5,1.5,0,0,0,0-3Z"/><path class="cls-3" d="M961.87,11.72A19.78,19.78,0,0,0,960,20.51c.1,3.26,1.19,6.16,2.33,9.17a22.39,22.39,0,0,1,1.46,9.55A58.51,58.51,0,0,1,962,49.3c-.45,1.87,2.44,2.67,2.9.79,1.51-6.19,3-12.78,1.12-19.07-.88-2.94-2.37-5.68-2.82-8.74a16.42,16.42,0,0,1,1.31-9c.79-1.75-1.79-3.27-2.59-1.52Z"/><path class="cls-3" d="M937.59,32.21a22.67,22.67,0,0,0-2.64,7c-.5,2.68-.12,5.43-.61,8.1-.47,2.52-1.72,4.81-2.41,7.26A10.79,10.79,0,0,0,932.2,62c.76,1.77,3.34.25,2.59-1.51-.93-2.18-.18-4.67.59-6.78a30.86,30.86,0,0,0,2-6.43c.31-2.34,0-4.71.44-7a20,20,0,0,1,2.38-6.49,1.5,1.5,0,0,0-2.59-1.52Z"/></g><g class="cls-2"><path class="cls-3" d="M963.85-60c-1.33,7.32-5.63,13.52-11.33,18.18-6.32,5.16-14.08,8-22.07,9.35-19,3.16-38.19-1.93-57.27-.59a72.5,72.5,0,0,0-24.81,6.22,95.72,95.72,0,0,0-20.45,12.85A159.69,159.69,0,0,0,810.2,2.93c-5.88,6.45-11.27,13.31-17,19.89-11.27,13-25.57,26.08-43.72,26.9a37.88,37.88,0,0,1-6.3-.27c-1.91-.24-1.9,2.76,0,3,18.15,2.28,34.5-8.77,46.48-21.27,6.26-6.53,11.82-13.68,17.71-20.54a190.23,190.23,0,0,1,17.43-18c12.37-11.06,27.11-20,43.82-22.18,19.51-2.55,39.07,2.82,58.6.59,8.43-1,16.74-3.3,23.86-8a36.9,36.9,0,0,0,14.14-16.79,28.37,28.37,0,0,0,1.51-5.35c.34-1.88-2.55-2.69-2.89-.79Z"/><path class="cls-3" d="M816.6-3.51c-2.86,2.84-7.21,3.1-11,2.48-4.5-.74-8.79-2.35-13.36-2.59-9-.48-18,3.28-26.89.83a1.5,1.5,0,0,0-.8,2.89c7.34,2,14.76.07,22.14-.58a35,35,0,0,1,11.41.81c3.5.83,7,1.89,10.65,1.91a13.8,13.8,0,0,0,10-3.63,1.5,1.5,0,0,0-2.12-2.12Z"/><path class="cls-3" d="M789.9,27a25,25,0,0,0-3,10.55c-.23,3.83.36,7.67.37,11.5A59.61,59.61,0,0,1,783,71.21c-.71,1.79,2.19,2.57,2.9.8a62.06,62.06,0,0,0,4.36-21.57c.08-3.76-.42-7.48-.41-11.23a22.17,22.17,0,0,1,2.68-10.69c.93-1.7-1.66-3.21-2.59-1.51Z"/><path class="cls-3" d="M837.89-20.38A30.16,30.16,0,0,0,831-8.5a33.42,33.42,0,0,0-.71,14.35,33.06,33.06,0,0,1,.36,8,37.52,37.52,0,0,1-1.75,7.54c-1.56,4.85-3.67,9.51-4.85,14.48-1.29,5.4-1.48,11,.85,16.16.8,1.76,3.38.24,2.59-1.51-4.07-9,1.17-19,4-27.46a34.68,34.68,0,0,0,2.14-14.29c-.45-4.8-1.36-9.34-.35-14.14A26.85,26.85,0,0,1,840-18.26c1.31-1.41-.8-3.53-2.13-2.12Z"/></g><g class="cls-2"><path class="cls-3" d="M1045.72,35c-12.24,8-26.73,10.82-40.75,14-15,3.35-29.62,7.81-43,15.42a79.69,79.69,0,0,0-17.77,13.47A130.85,130.85,0,0,0,930.54,95.1c-4.18,6.05-8.26,12.17-12.78,18s-9.22,11.24-14.23,16.5a215,215,0,0,1-33.1,28.32c-1.47,1-2.94,2-4.43,3s-.11,3.65,1.51,2.59a219.42,219.42,0,0,0,33.8-27.36A229.22,229.22,0,0,0,929,102.71c4.18-6.09,8.27-12.28,13-17.95a75.33,75.33,0,0,1,16.59-14.83c13-8.47,27.81-13.6,42.82-17.11,14-3.27,28.51-5.68,41.31-12.56,1.55-.83,3.07-1.74,4.54-2.7s.11-3.64-1.51-2.59Z"/><path class="cls-3" d="M950,72.89C939.18,76,930.57,83.66,920.06,87.37c-5.2,1.84-10.85,2.69-16.2,1-5.05-1.6-9.33-5-14.22-6.92a23.4,23.4,0,0,0-18,.33c-1.77.76-.25,3.34,1.51,2.59a20.51,20.51,0,0,1,16.1.14c4.72,2,8.88,5.2,13.81,6.76,10.87,3.44,21.79-2.15,31-7.47,5.37-3.1,10.74-6.3,16.74-8a1.5,1.5,0,0,0-.79-2.89Z"/><path class="cls-3" d="M914,117.11a37.25,37.25,0,0,0-4.2,32.44c1.8,5.58,4.08,10.93,4,16.9-.12,5.68-1.84,11.18-3.52,16.56-1.91,6.11-3.85,12.28-4.09,18.73-.07,1.93,2.93,1.93,3,0,.41-11.22,6.25-21.34,7.42-32.44.62-5.85-.67-11.25-2.58-16.74s-3.45-10.78-3.18-16.63a34,34,0,0,1,5.78-17.31c1.08-1.6-1.51-3.11-2.59-1.51Z"/><path class="cls-3" d="M913.28,160.51a21.6,21.6,0,0,0,5.2,6.14c2.2,1.78,4.82,2.87,6.92,4.78s3.87,3.74,6.37,4.88a16.37,16.37,0,0,0,8.07,1.45c1.91-.16,1.93-3.16,0-3a13.3,13.3,0,0,1-7.1-1.31c-2.29-1.16-3.93-3-5.85-4.7s-4.16-2.59-6.12-4.09a19,19,0,0,1-4.9-5.66,1.5,1.5,0,0,0-2.59,1.51Z"/><path class="cls-3" d="M913.53,170a24.82,24.82,0,0,1-8.31,6.35c-2.73,1.28-6.33,2.26-7.07,5.64-.42,1.88,2.47,2.68,2.89.8.27-1.22,1.32-1.85,2.41-2.4,1.36-.68,2.81-1.18,4.16-1.88a27.08,27.08,0,0,0,8-6.39,1.55,1.55,0,0,0,0-2.12,1.51,1.51,0,0,0-2.12,0Z"/><path class="cls-3" d="M894.45,137.94c-5.4,4.85-13.4,2.8-19.3.18-7-3.1-14-7.42-22-6.54-1.9.21-1.92,3.21,0,3,8.48-.94,15.76,4.41,23.32,7.33,6.53,2.52,14.51,3.15,20.07-1.84,1.44-1.3-.68-3.41-2.12-2.13Z"/><path class="cls-3" d="M911.1,89.49C904.78,91,898,93,894.92,99.28c-.82,1.68-1.44,3.45-2.33,5.09a23,23,0,0,1-3.2,4.51,31.78,31.78,0,0,1-8.23,6c-3.3,1.85-6.5,3.8-8.72,6.94-1.12,1.58,1.48,3.08,2.59,1.52,1.82-2.58,4.62-4.17,7.31-5.69a38.46,38.46,0,0,0,8-5.51,26.32,26.32,0,0,0,5.89-8.55c1.37-3.16,2.68-5.9,5.71-7.76s6.51-2.68,9.91-3.47c1.88-.43,1.09-3.33-.79-2.89Z"/><path class="cls-3" d="M925.55,102.26c-5.12,3.23-10,7.3-15.84,9.11-2.68.83-5.54,1.1-7.74,3s-3.06,4.5-3.94,7c-.64,1.83,2.25,2.61,2.89.8.78-2.24,1.65-4.83,3.79-6.14a13,13,0,0,1,3.81-1.27,29.55,29.55,0,0,0,4-1.24c5.29-2.13,9.78-5.69,14.57-8.71,1.63-1,.12-3.62-1.52-2.59Z"/><path class="cls-3" d="M934.07,90.46a20.8,20.8,0,0,0-1,16c.6,1.73,2,3.51,2.11,5.35s-.49,3.77-.46,5.67a21.31,21.31,0,0,0,5.71,14.21c1.31,1.42,3.43-.71,2.12-2.12a18.4,18.4,0,0,1-4.35-8.22,18.2,18.2,0,0,1-.48-4.65c0-1.78.58-3.56.43-5.34s-1.13-3.14-1.81-4.72a17.41,17.41,0,0,1-1.29-4.8,18,18,0,0,1,1.65-9.9c.84-1.73-1.75-3.25-2.6-1.51Z"/></g><g class="cls-2"><path class="cls-3" d="M341.83-47.65a57.11,57.11,0,0,1,29.72,23.82c7.31,11.84,9,25.83,13.06,38.9,2,6.46,4.6,12.82,8.62,18.29a53.57,53.57,0,0,0,13.61,12.78c10.77,7.2,23.27,11.3,35.33,15.75a48,48,0,0,1,9.53,4.21,15.34,15.34,0,0,1,5.88,7c2.37,5.61,1.87,12.17,1,18-.24,1.57-.52,3.13-.82,4.69-.37,1.88,2.52,2.69,2.89.79,1.22-6.29,2.2-12.79,1.22-19.19a19.61,19.61,0,0,0-10.43-14.93,82.64,82.64,0,0,0-9.86-4c-3.1-1.13-6.21-2.26-9.3-3.42a142.66,142.66,0,0,1-18-8,59.2,59.2,0,0,1-15.34-11.55A50.31,50.31,0,0,1,388.69,17.9C384,4.66,382.6-9.68,375.94-22.21a60,60,0,0,0-28.69-26.53q-2.28-1-4.62-1.8c-1.83-.63-2.62,2.26-.8,2.89Z"/><path class="cls-3" d="M380.85,1.34a93,93,0,0,1-9.21,39.29c-.83,1.74,1.75,3.26,2.59,1.52a96.38,96.38,0,0,0,9.62-40.81c0-1.93-3-1.93-3,0Z"/><path class="cls-3" d="M410.44,48.08c3.27,1.42,6.35.1,9.33-1.41a38.77,38.77,0,0,1,9.51-3.43,36.9,36.9,0,0,1,20,1.35c1.83.65,2.61-2.25.8-2.89A40.08,40.08,0,0,0,430.56,40a38.83,38.83,0,0,0-9.26,2.68c-1.56.66-3,1.5-4.59,2.2s-3.22,1.32-4.76.65c-1.75-.77-3.28,1.82-1.51,2.59Z"/><path class="cls-3" d="M445.74,63.34c5.15,1.44,10.41.48,15.52-.68,5.28-1.19,10.38-2.18,15.82-1.79,10.72.76,20.68,5.48,29.58,11.23,5.15,3.32,10,7,14.93,10.73,1.54,1.17,3-1.44,1.51-2.59-8.63-6.54-17.38-13.18-27.36-17.53a58.34,58.34,0,0,0-15.35-4.49,46,46,0,0,0-15.86.63c-5.88,1.25-12,3.27-18,1.6a1.5,1.5,0,0,0-.79,2.89Z"/><path class="cls-3" d="M375.21-17.89C381-12.74,386.8-7.55,393.77-4.11a51.94,51.94,0,0,0,21.6,5.33c1.93.06,1.93-2.94,0-3A48.32,48.32,0,0,1,394.89-6.9c-6.59-3.32-12.11-8.22-17.56-13.12-1.43-1.28-3.56.83-2.12,2.13Z"/><path class="cls-3" d="M397.68,38.21a31.24,31.24,0,0,1,7.11,7.62,32.57,32.57,0,0,1,2.51,4.56c.72,1.59,1.18,3.26,1.82,4.88,1.39,3.51,4.2,5.61,7.15,7.8a112,112,0,0,0,10,6.59,1.5,1.5,0,0,0,1.51-2.6,111.13,111.13,0,0,1-10-6.58,27.25,27.25,0,0,1-4.32-3.63,13.72,13.72,0,0,1-2.3-4.81,35,35,0,0,0-12-16.42c-1.54-1.16-3,1.44-1.51,2.59Z"/></g><g class="cls-2"><path class="cls-3" d="M-45.73-55.56q30.64,16.43,61.86,31.74t63,29.48c19.69,8.78,41.31,19.89,63.55,16.21,10-1.66,19-6.73,28.39-10.26a49,49,0,0,1,14.8-3.42c5.89-.28,11.73.75,17.49,1.87q34.23,6.67,67.86,16.09c2.85.79,5.7,1.61,8.54,2.43a1.5,1.5,0,0,0,.8-2.89Q247,16,212.83,8.91c-10.78-2.22-22-5.1-33-3-9.87,1.88-18.7,7-28.07,10.39A56.42,56.42,0,0,1,119.88,18c-11-2.45-21.47-7-31.78-11.57q-31.66-14-62.82-29.06t-62-31.47q-3.75-2-7.49-4c-1.7-.91-3.22,1.67-1.52,2.59Z"/><path class="cls-3" d="M133.81,22.65a54.73,54.73,0,0,1,29.31,14.71,66.26,66.26,0,0,1,10.57,12.86,68.8,68.8,0,0,1,3.92,7.15c1.39,2.91,2.46,6,4,8.81,3.43,6.32,9.46,10.13,15.48,13.67a1.5,1.5,0,0,0,1.51-2.59c-5.43-3.2-11-6.56-14.19-12.21-1.59-2.84-2.67-5.92-4-8.86a68.94,68.94,0,0,0-4-7.32,66.32,66.32,0,0,0-24-23.07,53.56,53.56,0,0,0-17.76-6c-1.89-.29-2.7,2.6-.79,2.89Z"/><path class="cls-3" d="M165.93,13.67a62.2,62.2,0,0,0,25.19-15,64.66,64.66,0,0,0,9.21-11.33c3-4.7,5.06-10,8.41-14.46,3.48-4.66,8.27-8.22,11-13.45.9-1.71-1.69-3.22-2.59-1.51-2.35,4.49-6.3,7.73-9.52,11.55-3.52,4.2-5.69,9.17-8.4,13.89A61.07,61.07,0,0,1,179.7,4a58,58,0,0,1-14.57,6.81c-1.84.56-1,3.45.8,2.89Z"/><path class="cls-3" d="M227.21,15.23c8.64,2,16-3.73,22.39-8.67,3.23-2.49,6.6-4.94,10.54-6.16C264.3-.88,268.71-1,272.91-2.15c4-1.08,7.75-3.08,10-6.61,1.05-1.63-1.54-3.14-2.59-1.52-4.2,6.5-13.56,5.75-20.14,7.54-7.68,2.08-12.92,8.08-19.52,12.09-3.78,2.29-8.22,4-12.69,3-1.88-.43-2.68,2.46-.79,2.9Z"/><path class="cls-3" d="M202,10.11c3.66,2,7.48,4.11,10.2,7.38a23.89,23.89,0,0,1,3.17,5.64A40.85,40.85,0,0,0,218.48,29a36.1,36.1,0,0,0,8.63,9c3.08,2.28,7,3.9,8.84,7.5.86,1.73,3.45.21,2.59-1.51-1.42-2.84-4-4.69-6.61-6.36a39.81,39.81,0,0,1-7.7-6.17,33.22,33.22,0,0,1-5.76-8.68c-1.51-3.25-2.91-6.36-5.53-8.9a43.35,43.35,0,0,0-9.48-6.42c-1.69-.94-3.2,1.65-1.51,2.59Z"/><path class="cls-3" d="M157.29,31.94c5.88,4.35,12,8.8,19.28,10.44,3.62.81,7.34,1,11,1.71a20.69,20.69,0,0,1,5.16,1.64,41.87,41.87,0,0,1,4.87,3c3.55,2.36,7.39,4.34,11.77,3.59,1.9-.32,1.09-3.22-.8-2.89-4.69.8-8.71-3-12.4-5.23-4-2.43-8.36-3.2-12.93-3.79a38.39,38.39,0,0,1-13-3.54,81.65,81.65,0,0,1-11.46-7.52c-1.55-1.15-3.05,1.46-1.51,2.59Z"/><path class="cls-3" d="M91.94,11.12c5,4.33,6,11.3,8.08,17.24A55.18,55.18,0,0,0,111.16,47c1.3,1.43,3.42-.69,2.12-2.12a51.76,51.76,0,0,1-10.87-18.81C100.47,20,99.07,13.32,94.06,9c-1.46-1.26-3.59.86-2.12,2.12Z"/></g><g class="cls-2"><path class="cls-3" d="M83.47-47.57q25.16,21.33,51.08,41.76,25.75,20.27,52.21,39.61c15.71,11.47,32.42,25,52.47,27.13,10.34,1.07,20.31-2,30.42-3.59a45.84,45.84,0,0,1,15.5-.16,72.67,72.67,0,0,1,15,5q30.3,13,59.49,28.32,3.61,1.9,7.21,3.84c1.7.91,3.22-1.68,1.52-2.59q-28.92-15.56-59-28.8c-9.44-4.16-19.18-9.09-29.7-9.39s-20.43,3.32-30.73,4.32c-20.35,2-37.68-10.07-53.37-21.42q-26.7-19.29-52.67-39.56t-51-41.36c-2.08-1.75-4.17-3.51-6.25-5.28-1.46-1.24-3.59.87-2.12,2.13Z"/><path class="cls-3" d="M233.84,60.2A51.21,51.21,0,0,1,257.6,79.36a62.54,62.54,0,0,1,7.13,13.75,65.39,65.39,0,0,1,2.24,7.42c.7,2.92,1.09,5.91,1.91,8.8,1.88,6.63,6.69,11.4,11.62,15.93,1.41,1.31,3.54-.81,2.12-2.12-4.4-4-8.94-8.29-10.72-14.18-.92-3-1.31-6.17-2-9.23a63.45,63.45,0,0,0-2.25-7.42A62.29,62.29,0,0,0,250,66.39a51.57,51.57,0,0,0-15.32-9.09c-1.81-.68-2.59,2.22-.8,2.9Z"/><path class="cls-3" d="M264.89,58.17a58.79,58.79,0,0,0,26.56-9,61,61,0,0,0,10.95-8.94c3.54-3.66,6.42-7.95,10.28-11.3,4.09-3.54,9.13-5.86,12.65-10.08,1.23-1.47-.88-3.6-2.12-2.12-3,3.63-7.23,5.86-10.93,8.69-4,3.05-6.92,7-10.21,10.75A57.38,57.38,0,0,1,280,51.62a54.5,54.5,0,0,1-15.09,3.55c-1.91.16-1.93,3.16,0,3Z"/><path class="cls-3" d="M321,71.68c7.42,3.46,15.15,0,21.95-3.26,3.49-1.68,7.11-3.39,11-3.81,4.19-.46,8.38.36,12.57.14,3.92-.2,7.86-1.26,10.71-4.1a1.5,1.5,0,0,0-2.12-2.12c-3.11,3.09-7.72,3.38-11.86,3.22-5-.19-9.79-.59-14.63,1-4.44,1.47-8.45,3.95-12.81,5.62-4.17,1.61-9.06,2.68-13.31.71-1.73-.81-3.26,1.77-1.51,2.59Z"/><path class="cls-3" d="M298.77,61.94c2.93,2.55,6,5.19,7.86,8.66,2,3.65,2.09,8.05,3.6,11.91a34.12,34.12,0,0,0,6.14,10.11c2.39,2.7,5.78,5,6.73,8.66a1.5,1.5,0,0,0,2.89-.8c-1-3.83-4.05-6.32-6.66-9.08a30.16,30.16,0,0,1-6.49-10.46c-1.46-4-1.65-8.43-3.81-12.21-2-3.53-5.11-6.27-8.14-8.91-1.45-1.27-3.58.85-2.12,2.12Z"/><path class="cls-3" d="M253.29,73.23c4.6,5.23,9.44,10.61,15.9,13.54,3.18,1.45,6.57,2.34,9.77,3.74a19.86,19.86,0,0,1,4.41,2.57,44.3,44.3,0,0,1,3.94,3.81c2.73,2.79,5.88,5.32,9.95,5.49,1.93.08,1.92-2.92,0-3-4.45-.18-7.34-4.29-10.28-7.11-3.18-3-7-4.67-11.07-6.11s-8-3-11.38-5.81a75.82,75.82,0,0,1-9.12-9.24c-1.28-1.45-3.39.68-2.12,2.12Z"/><path class="cls-3" d="M197.17,41.09c3.81,5,3.32,11.73,4.1,17.7A51.5,51.5,0,0,0,207.8,78a1.5,1.5,0,0,0,2.59-1.51,48.76,48.76,0,0,1-6.32-19.33c-.61-6-.53-12.51-4.31-17.54-1.15-1.52-3.76,0-2.59,1.52Z"/><path class="cls-3" d="M156.21,10.9c5.51,5.46,13.78,4.77,20.76,3.37,4.49-.9,9.05-2,13.65-1.45,2.11.27,4.17.81,6.3.93a16.06,16.06,0,0,0,5.92-.83c4.31-1.46,7.93-4.33,11.42-7.16,1.5-1.22-.64-3.33-2.12-2.12-2.86,2.32-5.86,4.74-9.33,6.1a13.67,13.67,0,0,1-5.21,1,43.58,43.58,0,0,1-5.9-.81c-8-1.18-15.39,2.38-23.29,2.34-3.66,0-7.4-.87-10.08-3.52a1.5,1.5,0,0,0-2.12,2.12Z"/><path class="cls-3" d="M196,12.92l10.15,10.34,5,5.08a41.28,41.28,0,0,0,4.74,4.42c3.46,2.55,7.75,2.76,11.89,3.09q7.25.57,14.51.88c5.49.23,11,.34,16.5.34a1.5,1.5,0,0,0,0-3q-13.92,0-27.82-1c-2.21-.16-4.43-.31-6.64-.54a14.33,14.33,0,0,1-5.7-1.58,22.82,22.82,0,0,1-4.67-4q-2.41-2.45-4.82-4.91l-11-11.21c-1.36-1.38-3.48.74-2.12,2.12Z"/><path class="cls-3" d="M219.46,33.79a20,20,0,0,0,7.87-5.22c2.37-2.59,3.59-5.68,5.06-8.8,2.92-6.17,8.51-9.76,14.16-13.19,1.64-1,.14-3.6-1.52-2.59-5.36,3.26-11,6.77-14.22,12.33-1.72,2.95-2.62,6.34-4.72,9.08a16.71,16.71,0,0,1-7.43,5.5c-1.79.67-1,3.57.8,2.89Z"/><path class="cls-3" d="M251.82,36.53a22.71,22.71,0,0,0,7.31-3.4c2.18-1.55,3.85-3.76,6.07-5.24s4.78-2.23,7.07-3.55A10.76,10.76,0,0,0,277.18,19c.71-1.8-2.19-2.58-2.89-.8-.8,2-2.83,3.29-4.71,4.21-2.22,1.09-4.57,1.91-6.57,3.41s-3.43,3.36-5.4,4.76a20.13,20.13,0,0,1-6.59,3.1,1.5,1.5,0,0,0,.8,2.89Z"/></g><g class="cls-2"><path class="cls-3" d="M1131.18,226.5q-34.89,23-68,48.53c-9,7-19,14.23-23.56,25.11-2.39,5.76-2.46,12-3.16,18.07a29.91,29.91,0,0,1-2.33,9.31,38.85,38.85,0,0,1-5.33,7.94c-9.82,12-20.26,23.54-31.15,34.59-1.36,1.38.76,3.5,2.12,2.13q14.52-14.74,27.85-30.62c4.13-4.92,8.61-9.86,10.49-16.14,1.82-6,1.45-12.43,2.64-18.57,2.25-11.63,11.51-19.53,20.39-26.48q16.29-12.72,33.08-24.78,19-13.65,38.46-26.5c1.61-1.06.11-3.66-1.51-2.59Z"/><path class="cls-3" d="M1040.94,297.21a31.09,31.09,0,0,1-15.23,10.51,38,38,0,0,1-9.31,1.81c-3.52.23-6.95-.4-10.45-.37-4.27,0-8,2.08-11.52,4.22A1.5,1.5,0,0,0,996,316c3.34-2,6.68-3.91,10.7-3.8,3.53.11,7,.6,10.49.3a39,39,0,0,0,18.38-6.17,32.94,32.94,0,0,0,8-7.57c1.16-1.55-1.44-3-2.59-1.52Z"/><path class="cls-3" d="M1036.7,316.12a37.58,37.58,0,0,0,2.49,22.34c1.58,3.64,4,6.69,6,10.14s2.34,7.39,4.49,10.65c1.06,1.61,3.66.11,2.59-1.51-2-3.06-2.5-6.82-4.17-10.06s-4.13-6.2-5.75-9.59a34.14,34.14,0,0,1-2.7-21.18c.37-1.88-2.52-2.69-2.9-.79Z"/><path class="cls-3" d="M1019.07,346.83c-4.35,5-2.07,11.42-1.57,17.29a14.42,14.42,0,0,1-.4,5.11c-.45,1.63-1.11,3.19-1.61,4.81-.89,2.91-1.15,6,.3,8.77.9,1.71,3.49.2,2.59-1.51-1.33-2.54-.36-5.48.52-8a21.62,21.62,0,0,0,1.63-8.72c-.3-4.85-3-11.41.66-15.63,1.26-1.46-.85-3.59-2.12-2.13Z"/><path class="cls-3" d="M1028.83,335.22a19.07,19.07,0,0,1-6.52,3.12c-2.44.47-5-.21-7.49,0a21.83,21.83,0,0,0-6.73,1.73c-2.11.92-4.13,2.66-6.53,2.63-1.93,0-1.93,3,0,3,2.5,0,4.53-1.25,6.66-2.37a18.15,18.15,0,0,1,7.48-2.06c2.56-.12,5.09.45,7.62-.11a22,22,0,0,0,7-3.38c1.62-1,.12-3.64-1.51-2.59Z"/><path class="cls-3" d="M1030,306.27a45,45,0,0,0-7.46,4.09,26.19,26.19,0,0,0-5.78,6.15,22.31,22.31,0,0,1-2.57,3.16,14.47,14.47,0,0,1-3.62,2.41c-2.47,1.31-4.77,2.81-5.74,5.56-.64,1.83,2.26,2.61,2.9.8.89-2.52,4-3.44,6-4.69a18.67,18.67,0,0,0,5.36-5.41,22.64,22.64,0,0,1,5.25-5.62,48.19,48.19,0,0,1,7.14-3.86c1.75-.81.22-3.4-1.52-2.59Z"/><path class="cls-3" d="M1059,278.49c-3.75,1.38-7.69-.2-11.45-.72a32.92,32.92,0,0,0-12.27.63c-1.87.45-1.08,3.35.8,2.89a29.53,29.53,0,0,1,12.38-.35c3.74.7,7.61,1.81,11.33.45,1.8-.66,1-3.56-.79-2.9Z"/><path class="cls-3" d="M1083.86,259.5c-5.72,3.23-5.49,10.24-6.2,15.9a15.72,15.72,0,0,1-1.34,4.9,18.9,18.9,0,0,0-1.84,4.61c-.66,3.59.66,7.09,2,10.36a1.57,1.57,0,0,0,1.85,1.05,1.51,1.51,0,0,0,1-1.85c-1.18-2.83-2.63-6.07-1.94-9.2a24.79,24.79,0,0,1,1.81-4.25,17.39,17.39,0,0,0,1.22-4.35c.73-4.75,0-11.8,4.88-14.58a1.5,1.5,0,0,0-1.51-2.59Z"/><path class="cls-3" d="M1075.76,282.73l-10.41,5.57c-3.06,1.64-6,3-7.6,6.33a98.46,98.46,0,0,0-3.92,10.39q-1.9,5.5-3.54,11.11a1.5,1.5,0,0,0,2.89.8,168.46,168.46,0,0,1,7-20.43,7.46,7.46,0,0,1,2.71-3.41c1.4-.92,2.94-1.64,4.42-2.43l10-5.34c1.7-.91.18-3.5-1.52-2.59Z"/><path class="cls-3" d="M1059,293.55a13,13,0,0,0,1.79,5.82,20.22,20.22,0,0,0,4.38,4.62c3.13,2.76,4.25,6.61,5.3,10.51a1.5,1.5,0,0,0,2.89-.8c-1-3.75-2.13-7.62-4.79-10.58-1.36-1.53-3.16-2.61-4.46-4.2a9.76,9.76,0,0,1-2.11-5.37c-.15-1.92-3.15-1.93-3,0Z"/><path class="cls-3" d="M1051.79,312.27a14.65,14.65,0,0,0,.81,5.17c.57,1.6,1.62,3,2.09,4.65.84,2.94.43,6.43,3.12,8.54a1.57,1.57,0,0,0,2.13,0,1.52,1.52,0,0,0,0-2.12c-2.23-1.74-1.65-5.09-2.45-7.51-.48-1.49-1.4-2.75-2-4.21a12.2,12.2,0,0,1-.75-4.52c0-1.93-3-1.93-3,0Z"/></g><g class="cls-2"><path class="cls-3" d="M714.94-47.72c3,8.57-2.83,16.86-9.59,21.6-7.46,5.23-16.36,7.91-23.78,13.2C674.6-8,670-.87,666.93,7c-3.17,8.28-4.25,17-5.93,25.62-1.81,9.27-5.37,19.54-14.74,23.58-1.77.76-.25,3.35,1.51,2.59,8.14-3.51,12.68-11.85,14.9-20,2.44-9,3-18.33,5.85-27.24,2.58-8.15,6.77-16,13.7-21.26,7.55-5.73,16.9-8.4,24.64-13.83s14.49-15.1,11-25c-.64-1.8-3.54-1-2.9.8Z"/><path class="cls-3" d="M664.63,14.52c-.59,2.09-2.72,3.11-4.64,3.73a31.91,31.91,0,0,0-6.75,2.59c-3.52,2.12-6.38,5.54-10.46,6.64a1.5,1.5,0,0,0,.79,2.9c4.63-1.25,7.69-5,11.77-7.29,2.35-1.3,5.07-1.61,7.5-2.73a8.21,8.21,0,0,0,4.69-5,1.51,1.51,0,0,0-2.9-.8Z"/><path class="cls-3" d="M660.69,35a13.72,13.72,0,0,0,1.53,5.91c.85,1.65,2,3.11,3,4.71A30.18,30.18,0,0,1,669,56.44a1.5,1.5,0,1,0,2.89-.8,32.12,32.12,0,0,0-3.56-10.55c-1.82-3.35-4.51-6.07-4.65-10.08-.07-1.93-3.07-1.94-3,0Z"/><path class="cls-3" d="M669.67,1.63a16.19,16.19,0,0,0,.87,9.84c1.35,3.19,4.12,5.45,5.24,8.75,2.05,6.05,1.36,13.28,7.11,17.44,1.57,1.13,3.07-1.47,1.52-2.59-4.86-3.51-4-11-5.88-16a15.66,15.66,0,0,0-2.17-4,28.59,28.59,0,0,1-2.63-3.74,12.87,12.87,0,0,1-1.16-8.81c.41-1.88-2.48-2.68-2.9-.79Z"/></g><g class="cls-2"><path class="cls-3" d="M283.08-23.45c7.62-4.62,16.82-.67,22.77,4.82,6.53,6,10.92,14,17.27,20.14,6.16,6,14,9.4,22.42,10.84,8.89,1.52,17.75.9,26.7.75,9.34-.15,20.47,1.06,26.32,9.39,1.1,1.57,3.7.07,2.59-1.51-5.11-7.29-13.9-10.16-22.44-10.75-5.1-.35-10.22,0-15.32.16A98,98,0,0,1,350,10C341.33,9,332.72,6.28,326.18.28,319.37-6,314.89-14.31,308.12-20.61c-6.95-6.48-17.66-10.83-26.56-5.43a1.5,1.5,0,0,0,1.52,2.59Z"/><path class="cls-3" d="M321.8.33c3.49,2.9,7.07,5.93,9.64,9.72a20.14,20.14,0,0,1,2.84,6c.66,2.47,1,5,2.11,7.31.82,1.75,3.41.23,2.59-1.51-1.09-2.32-1.28-4.94-2-7.38a22.79,22.79,0,0,0-3.13-6.28,53.07,53.07,0,0,0-9.9-10C322.44-3,320.31-.91,321.8.33Z"/><path class="cls-3" d="M354.26,13.22c2.24.15,3.69,2.32,4.68,4.1a28.45,28.45,0,0,0,3.85,5.91c2.8,3,6.66,5.08,8.54,8.83.87,1.72,3.46.21,2.59-1.52-2.11-4.2-6.38-6.43-9.39-9.86-1.73-2-2.56-4.51-4.09-6.62a8.4,8.4,0,0,0-6.18-3.84c-1.93-.13-1.92,2.87,0,3Z"/><path class="cls-3" d="M375.12,12.9a13.53,13.53,0,0,0,5.14-2.5c1.52-1.2,2.77-2.69,4.18-4A29.19,29.19,0,0,1,394,.53c1.79-.67,1-3.57-.8-2.9a33.09,33.09,0,0,0-10,5.81c-1.44,1.21-2.67,2.62-4,3.9A10.82,10.82,0,0,1,374.32,10c-1.88.45-1.08,3.35.8,2.9Z"/><path class="cls-3" d="M340.61,10.9A16,16,0,0,0,350.06,8c2.78-2,4.43-5.08,7.38-6.84C362.75-2,370.16-2.79,373-9.08c.79-1.75-1.8-3.28-2.59-1.52C367.87-5,360.7-4.27,355.93-1.43a15.78,15.78,0,0,0-3.49,2.81,37.33,37.33,0,0,1-3.25,3.52,13,13,0,0,1-8.58,3c-1.93,0-1.93,3,0,3Z"/><path class="cls-3" d="M310.34-14a23.93,23.93,0,0,1,4.26,16.4,14.62,14.62,0,0,0,0,4.33,15.89,15.89,0,0,0,1.68,4,9.4,9.4,0,0,1,.16,8.32c-.83,1.74,1.76,3.26,2.59,1.52a12.61,12.61,0,0,0,.86-8.87,44.16,44.16,0,0,0-2-4.43,9.76,9.76,0,0,1-.3-4.83,26.45,26.45,0,0,0-4.67-17.92c-1.11-1.56-3.71-.06-2.59,1.52Z"/></g><g class="cls-2"><path class="cls-3" d="M39.73,169.46c8.79-.43,15,7.22,17.68,14.81,3.08,8.84,3,18.41,6,27.27,2.73,8,8.13,14.46,14.76,19.58,6.89,5.32,14.71,8.88,22.4,12.87,8.31,4.31,17.65,10.68,18.84,20.83.22,1.89,3.22,1.91,3,0-1.06-9.06-7.62-15.86-15.07-20.47-7.83-4.85-16.5-8.09-24.15-13.28-7-4.76-13.37-11-16.43-19.06-3.46-9.12-3.26-19.13-6.42-28.33-3-8.89-10.37-17.72-20.64-17.22-1.93.1-1.94,3.1,0,3Z"/><path class="cls-3" d="M62.49,208.79c1.76,4.41,3.56,9,3.91,13.81a20.22,20.22,0,0,1-.65,6.84A32.76,32.76,0,0,0,64.33,236c-.11,1.93,2.89,1.92,3,0,.14-2.36,1.06-4.55,1.58-6.84a22.15,22.15,0,0,0,.45-7c-.45-4.93-2.16-9.59-4-14.15-.71-1.77-3.61-1-2.89.8Z"/><path class="cls-3" d="M84.85,235.59c1.67,1.06,2.1,3.18,2.19,5,.11,2.47-.1,4.89.46,7.31,1,4.16,3.55,8,3.44,12.34,0,1.93,3,1.93,3,0,.12-5-2.89-9.13-3.71-13.92-.45-2.63.06-5.33-.44-8A7.93,7.93,0,0,0,86.37,233c-1.63-1.05-3.14,1.55-1.52,2.59Z"/><path class="cls-3" d="M103.33,245.25a13.77,13.77,0,0,0,5.75.27c1.8-.29,3.51-1,5.26-1.43a29.26,29.26,0,0,1,11.52-.71,1.55,1.55,0,0,0,1.84-1,1.5,1.5,0,0,0-1-1.84,33.29,33.29,0,0,0-11.48.32c-3.76.78-7.14,2.56-11.05,1.54a1.51,1.51,0,0,0-.8,2.9Z"/><path class="cls-3" d="M74,227.05a16,16,0,0,0,9.18,2c3.48-.31,6.49-2.33,10-2.54,6.28-.37,13.28,2.64,18.86-1.61,1.52-1.15,0-3.76-1.51-2.59-5,3.8-11.71.88-17.35,1.2a15.72,15.72,0,0,0-4.45.9,30.71,30.71,0,0,1-4.46,1.49,13,13,0,0,1-8.72-1.47A1.5,1.5,0,0,0,74,227.05Z"/><path class="cls-3" d="M60.44,197a8.6,8.6,0,0,0,6.16,6.77c.81.21,1.68.26,2.47.54a11,11,0,0,1,2,1.2,9.56,9.56,0,0,0,5.42,1.34c1.92-.1,1.93-3.1,0-3a6.71,6.71,0,0,1-4.11-1.06,12.49,12.49,0,0,0-2-1.18,11.31,11.31,0,0,0-2.29-.58,5.75,5.75,0,0,1-4.77-4.82,1.5,1.5,0,1,0-2.89.79Z"/><path class="cls-3" d="M59.23,190.74a24.34,24.34,0,0,1-4.34,16.9A12.45,12.45,0,0,0,53,211.41a25.49,25.49,0,0,0-.32,4.54,9.29,9.29,0,0,1-3.78,6.77c-1.55,1.12,0,3.72,1.51,2.59a12.58,12.58,0,0,0,4.88-6.91,22.7,22.7,0,0,0,.44-4.87,8.29,8.29,0,0,1,1.74-4.37,27,27,0,0,0,4.75-18.42c-.23-1.9-3.23-1.92-3,0Z"/></g><g class="cls-2"><path class="cls-3" d="M789.79.7C783.56,5.42,776,7.54,768.66,9.78c-7.84,2.38-15.5,5.32-22.36,9.85a44.49,44.49,0,0,0-9,7.63,64,64,0,0,0-6.84,9.81c-4.1,6.91-8.13,13.72-13.21,20a115.85,115.85,0,0,1-19.07,18.62,1.56,1.56,0,0,0-.54,2.06,1.5,1.5,0,0,0,2.05.53,121.72,121.72,0,0,0,30.92-35.48c4.07-7,8.1-13.87,14.7-18.82s14.26-8.22,22.09-10.66c8.23-2.57,16.88-4.7,23.87-10,1.51-1.15,0-3.76-1.52-2.59Z"/><path class="cls-3" d="M740,24.89c-3.69,1.38-6.83,3.63-10.07,5.81s-6.5,4.21-10.3,4.6-7-1.69-10.45-3a13.6,13.6,0,0,0-11.13.6c-1.72.88-.2,3.47,1.52,2.59,3.65-1.85,7.23-1.07,10.78.56s6.69,2.74,10.53,2.1c7.69-1.26,12.84-7.71,19.92-10.34,1.79-.67,1-3.57-.8-2.9Z"/><path class="cls-3" d="M722,50.4a20.7,20.7,0,0,0-2.67,11.2c.22,4.14,2,7.53,3.44,11.34,2.89,7.89-2,15.65-1.7,23.64.06,1.92,3.06,1.93,3,0-.25-7.69,4.18-15,2.13-22.75-1-3.76-3.25-7.06-3.76-11a17.65,17.65,0,0,1,2.15-10.93A1.5,1.5,0,0,0,722,50.4Z"/><path class="cls-3" d="M723.3,74.48a13.12,13.12,0,0,0,3.21,3.31c1.23.89,2.7,1.35,3.91,2.28a15.67,15.67,0,0,0,4,2.54,9.4,9.4,0,0,0,4.87.41,1.5,1.5,0,0,0,1-1.84,1.52,1.52,0,0,0-1.84-1.05,6.3,6.3,0,0,1-3.43-.47,17.88,17.88,0,0,1-3.17-2.25c-1.07-.79-2.34-1.22-3.45-2a9.05,9.05,0,0,1-2.51-2.5,1.54,1.54,0,0,0-2-.54,1.51,1.51,0,0,0-.54,2.06Z"/><path class="cls-3" d="M723.76,79.05s-.28.37-.07.1c-.07.1-.15.19-.23.29L723,80c-.33.35-.67.68-1,1l-.52.44c-.14.12.19-.13,0,0l-.31.22a11.77,11.77,0,0,1-1.21.77c-1.54.87-3.61,1.68-3.9,3.69a1.65,1.65,0,0,0,.15,1.15,1.55,1.55,0,0,0,.9.69,1.53,1.53,0,0,0,1.85-1c0-.1,0-.19.05-.29,0-.27-.16.25,0,0a1.32,1.32,0,0,0,.12-.2c.07-.15-.21.22,0,0a2.08,2.08,0,0,1,.21-.21.52.52,0,0,1,.11-.1c.09-.07,0,0-.1.07.06-.11.33-.22.44-.29.73-.44,1.52-.77,2.24-1.23a15.85,15.85,0,0,0,4.4-4.12,1.49,1.49,0,0,0-.54-2,1.54,1.54,0,0,0-2,.53Z"/><path class="cls-3" d="M712.45,62.27c-2.7,2.75-6.89,1.77-10.09.61-4-1.45-7.87-3.25-12.26-2.48-1.9.34-1.09,3.23.8,2.9,4.57-.81,8.82,2.15,13.09,3.24,3.64.93,7.81.67,10.58-2.15,1.35-1.38-.77-3.5-2.12-2.12Z"/><path class="cls-3" d="M719.76,35.39a19,19,0,0,0-6.26,2.91,8.14,8.14,0,0,0-2.19,2.62c-.61,1.21-.89,2.56-1.48,3.79a13,13,0,0,1-4.71,5.2c-2,1.34-4,2.62-5.28,4.72-1,1.65,1.58,3.16,2.59,1.51,1.11-1.83,3.09-2.85,4.8-4A15.66,15.66,0,0,0,712,47c1.12-1.95,1.35-4.5,3-6.09,1.5-1.43,3.63-2.06,5.56-2.67s1.05-3.47-.8-2.89Z"/><path class="cls-3" d="M727.88,41.73c-2.56,1.89-5,4.25-8,5.47-1.5.62-3.11.87-4.33,2a8.85,8.85,0,0,0-2.1,4.28,1.5,1.5,0,0,0,2.89.8c.3-1.11.59-2.51,1.61-3.18a7,7,0,0,1,1.75-.7,18.2,18.2,0,0,0,2.25-.9c2.73-1.32,5-3.43,7.4-5.22a1.54,1.54,0,0,0,.53-2,1.51,1.51,0,0,0-2-.54Z"/><path class="cls-3" d="M731.57,35.62a11.84,11.84,0,0,0-.66,6,11.09,11.09,0,0,0,.77,2.83c.36.88,1.21,1.82,1.36,2.75s-.11,2,0,3a12.83,12.83,0,0,0,.57,2.82,12.41,12.41,0,0,0,3.24,5.08c1.4,1.33,3.53-.79,2.12-2.12a9.37,9.37,0,0,1-2.66-4.39,9.22,9.22,0,0,1-.31-2.22,14.05,14.05,0,0,0,0-2.9,11.2,11.2,0,0,0-1.24-2.53,8.76,8.76,0,0,1-.76-2.21,9.19,9.19,0,0,1,.51-5.26c.7-1.8-2.2-2.58-2.89-.8Z"/></g><g class="cls-2"><path class="cls-3" d="M-58.86,418.67C-50,410.48-38.63,406-27.64,401.49-15.69,396.57-4.19,391,6,382.93a71,71,0,0,0,13.52-13.74A98.7,98.7,0,0,0,29,352.38c2.72-5.81,5.3-11.68,8.29-17.36a183.78,183.78,0,0,1,37.2-48.73c1.42-1.32-.71-3.44-2.12-2.12a187.82,187.82,0,0,0-24.83,28.45,201.1,201.1,0,0,0-18.73,33,164.25,164.25,0,0,1-8.7,17.28A64.14,64.14,0,0,1,7.64,377.7c-9.79,8.64-21.43,14.8-33.42,19.8C-38.12,402.64-51,407.31-61,416.55c-1.42,1.32.7,3.43,2.12,2.12Z"/><path class="cls-3" d="M16.39,372.82c8.51-4.1,14.59-11.65,22.71-16.33,4-2.29,8.51-3.91,13.17-3.43s9.1,3,13.79,3.9a20.23,20.23,0,0,0,14.87-2.85c1.62-1,.12-3.64-1.51-2.59A17.33,17.33,0,0,1,66,353.89c-4.58-1.06-8.81-3.29-13.52-3.81-9.56-1-17.83,5.3-24.73,11.05-4.05,3.38-8.1,6.79-12.89,9.1-1.74.83-.22,3.42,1.52,2.59Z"/><path class="cls-3" d="M40.18,330.45a32,32,0,0,0-.76-27.78c-2.25-4.45-5.05-8.56-6-13.55-.89-4.77-.27-9.72.35-14.48.73-5.58,1.6-11.21.85-16.84a1.56,1.56,0,0,0-1.5-1.5c-.73,0-1.61.7-1.5,1.5,1.28,9.65-2.26,19.11-1.53,28.75.38,5,2.15,9.27,4.52,13.58s4.45,8.37,5.14,13.2a28.64,28.64,0,0,1-2.19,15.61c-.78,1.75,1.8,3.27,2.59,1.51Z"/><path class="cls-3" d="M34.49,293.18a18.63,18.63,0,0,0-5-4.26c-2.11-1.22-4.51-1.75-6.58-3s-3.94-2.67-6.3-3.32a14.26,14.26,0,0,0-7.28,0c-1.87.47-1.08,3.37.79,2.89a11.1,11.1,0,0,1,6.48.27c2,.71,3.65,2.15,5.5,3.19s3.88,1.49,5.71,2.52a16.58,16.58,0,0,1,4.57,3.89c1.24,1.49,3.35-.65,2.12-2.12Z"/><path class="cls-3" d="M33.07,285.44a20.48,20.48,0,0,1,5.83-6.32c2.3-1.59,5.24-3,5.38-6.18a1.51,1.51,0,0,0-1.5-1.5,1.53,1.53,0,0,0-1.5,1.5c0,.41.09-.15,0,.23,0,0-.15.44,0,.21a3.65,3.65,0,0,1-.18.34s-.19.29-.08.14a6,6,0,0,1-1.15,1.08c-1.12.81-2.33,1.49-3.43,2.34a24,24,0,0,0-5.89,6.64,1.5,1.5,0,0,0,2.59,1.52Z"/><path class="cls-3" d="M53.6,310c3.88-4.89,10.63-4.44,16.08-3.09,6.5,1.62,13.09,4.25,19.84,2.32a1.5,1.5,0,0,0-.8-2.89c-7.08,2-14-1.66-20.92-2.91-5.71-1-12.45-.43-16.33,4.44-1.18,1.5.92,3.64,2.13,2.13Z"/><path class="cls-3" d="M46.43,353.31c3.26-1.37,6.58-2.82,9.18-5.28a12.34,12.34,0,0,0,3-4.48c.74-1.9,1-3.93,1.64-5.85a21.11,21.11,0,0,1,6.91-9.42C70,326,73,323.77,74.59,320.41c.84-1.73-1.75-3.25-2.59-1.51-1.55,3.23-4.55,5.26-7.22,7.5A23.73,23.73,0,0,0,58.15,335c-1.45,3.3-1.45,7.38-3.92,10.16-2.25,2.54-5.53,4-8.59,5.26a1.55,1.55,0,0,0-1,1.85,1.51,1.51,0,0,0,1.84,1.05Z"/><path class="cls-3" d="M32.76,344.42c3.71-3.33,7.07-7.24,11.5-9.66,2.17-1.18,4.73-1.78,6.4-3.73s2.09-4.24,2.48-6.57c.32-1.89-2.57-2.7-2.89-.8s-.67,4.5-2.36,5.91a12.59,12.59,0,0,1-3.08,1.62,22.87,22.87,0,0,0-3.19,1.64c-4.13,2.57-7.39,6.25-11,9.47-1.44,1.3.69,3.41,2.12,2.12Z"/><path class="cls-3" d="M27.29,355.5a18.18,18.18,0,0,0,.21-9.32,18.37,18.37,0,0,0-1.64-4.28c-.71-1.33-2-2.49-2.52-3.91s-.22-3.26-.46-4.77a17.34,17.34,0,0,0-1.24-4.28,18.29,18.29,0,0,0-5.61-7.3,1.55,1.55,0,0,0-2.12,0,1.51,1.51,0,0,0,0,2.12A15.89,15.89,0,0,1,19,330.28a15.17,15.17,0,0,1,1,3.91c.19,1.53,0,3.11.44,4.6a13.91,13.91,0,0,0,2.11,3.42,14.82,14.82,0,0,1,1.78,3.8,15.21,15.21,0,0,1,.06,8.69,1.5,1.5,0,0,0,2.89.8Z"/></g><g class="cls-2"><path class="cls-3" d="M335.52-44.33C346.85-40.21,356.66-33,366.32-26c10.24,7.45,20.7,14.46,32.22,19.81A100.43,100.43,0,0,0,416.81.42a102.18,102.18,0,0,0,19.94,2.52c6.63.28,13.27.3,19.89.74s13,1.16,19.51,2.18A237.82,237.82,0,0,1,519.45,17c1.82.65,2.6-2.25.8-2.9A238.45,238.45,0,0,0,481.59,3.75,261.5,261.5,0,0,0,442.49.13a136.77,136.77,0,0,1-20.21-1.62,86.15,86.15,0,0,1-18.81-5.77c-11.75-5-22.52-11.83-32.85-19.3-10.83-7.85-21.6-16-34.3-20.66-1.81-.67-2.6,2.23-.8,2.89Z"/><path class="cls-3" d="M415.53-.09c8.14,5.36,17.78,7.67,26.18,12.51,3.68,2.13,7.31,4.77,9.7,8.34,2.7,4,3.21,9,5.22,13.35a23.51,23.51,0,0,0,10.52,10.62c1.71.9,3.22-1.69,1.51-2.59a20.84,20.84,0,0,1-9.34-9.34c-2.09-4.42-2.56-9.41-5.32-13.55C449,11.77,440.19,8,432.19,4.66,427,2.53,421.76.43,417.05-2.68c-1.62-1.06-3.12,1.53-1.52,2.59Z"/><path class="cls-3" d="M463.82,4.57c9.08.18,17.75-3.27,23-10.83A58.11,58.11,0,0,1,491-12a16.69,16.69,0,0,1,4.66-3.56c3.68-1.94,7.83-2.88,11.83-3.89,4.51-1.15,9.11-2.33,13.15-4.7a1.5,1.5,0,0,0-1.51-2.59C512-22.58,503.44-22.25,496-19a21.63,21.63,0,0,0-9.34,7.75c-2.49,3.55-4.64,7-8.45,9.3a26.54,26.54,0,0,1-14.37,3.54c-1.94,0-1.94,3,0,3Z"/><path class="cls-3" d="M488.15,8.4c6.17,1.44,9.81,6.94,12,12.5S504.2,32.43,509,36.57c1.45,1.27,3.58-.85,2.12-2.12C506,30,504.63,23.56,502,17.66,499.53,12.07,495.13,7,489,5.51c-1.88-.44-2.68,2.46-.8,2.89Z"/><path class="cls-3" d="M448.79,17.41c3,2.16,6.17,4.33,9.75,5.45a14,14,0,0,0,5.42.63c1.85-.16,3.67-.58,5.54-.63a26.88,26.88,0,0,1,11.19,2.37c3.47,1.43,6.89,3.05,10.7,3.21,1.93.09,1.93-2.91,0-3-3.64-.16-7-1.93-10.31-3.28a29.23,29.23,0,0,0-10.7-2.31c-3.6,0-7.08,1.25-10.64.24s-6.53-3.19-9.43-5.27c-1.57-1.13-3.07,1.47-1.52,2.59Z"/><path class="cls-3" d="M448.12,3.39c4.74,1.78,9.71,3.12,14.1,5.7,2,1.18,3.79,2.81,6,3.67,2.54,1,5.24.57,7.82,0,1.89-.41,1.09-3.31-.8-2.9-2.48.55-4.85.84-7.14-.49-2-1.17-3.79-2.64-5.87-3.71C458,3.49,453.37,2.17,448.91.49c-1.8-.68-2.59,2.22-.79,2.9Z"/><path class="cls-3" d="M435.56,2.72a15.8,15.8,0,0,0,7.79-2.8,12.87,12.87,0,0,0,2.9-2.9,9.74,9.74,0,0,0,1-1.64,5.93,5.93,0,0,1,.83-1.67c.85-.9,2.45-1.2,3.5-1.84a13.1,13.1,0,0,0,3.09-2.6,12.71,12.71,0,0,0,3-7.45c.14-1.92-2.86-1.91-3,0A9.32,9.32,0,0,1,452-12.32a10.5,10.5,0,0,1-2.78,2,11.67,11.67,0,0,0-3.35,1.9,14.8,14.8,0,0,0-1.72,3.09,9.52,9.52,0,0,1-2.1,2.42,12.28,12.28,0,0,1-6.53,2.59,1.55,1.55,0,0,0-1.5,1.5,1.5,1.5,0,0,0,1.5,1.5Z"/></g><g class="cls-2"><path class="cls-3" d="M707.08-41.83c-11.55,5.71-20.57,15.09-29.28,24.36-4.47,4.76-8.92,9.53-13.74,13.94A126.82,126.82,0,0,1,646.84,9.79,80.7,80.7,0,0,1,627.7,19,96.86,96.86,0,0,1,606,22.7c-7.3.57-14.62.88-21.89,1.74a206.63,206.63,0,0,0-67.24,19.74c-1.74.84-.22,3.43,1.51,2.59a205.62,205.62,0,0,1,62-18.87c7.4-1,14.84-1.46,22.29-2A127.56,127.56,0,0,0,624.46,23,76,76,0,0,0,644.1,15c12.15-7,22.6-16.31,32.19-26.44,9.76-10.32,19.35-21.36,32.3-27.76,1.73-.85.21-3.44-1.51-2.59Z"/><path class="cls-3" d="M629,18.58c-7.57,7.18-17.81,10.52-25.87,17.06a29.2,29.2,0,0,0-8.87,11.23c-2.18,5.21-1.66,10.82-2.09,16.32a19.79,19.79,0,0,1-7.84,14.75c-1.54,1.13-.05,3.73,1.51,2.59a22.34,22.34,0,0,0,8.43-11.9c1.6-5.59.54-11.48,1.69-17.13,2.07-10.2,11.78-16,20.16-20.68,5.27-3,10.58-5.93,15-10.12,1.4-1.33-.72-3.45-2.12-2.12Z"/><path class="cls-3" d="M577.44,25.72a32.12,32.12,0,0,1-15.62-3c-5.16-2.46-9-6.2-12.68-10.52S542,4.14,537,1.66c-4.64-2.33-9.7-3.57-14.72-4.76C516.68-4.43,511-5.71,505.85-8.5c-1.7-.92-3.22,1.67-1.52,2.59,9.38,5.1,20.37,5.23,30,9.59A27.18,27.18,0,0,1,541,7.82a57.24,57.24,0,0,1,5.91,6.34c3.66,4.34,7.58,8.2,12.71,10.8a35.17,35.17,0,0,0,17.85,3.76c1.92-.11,1.93-3.11,0-3Z"/><path class="cls-3" d="M544.09,6.76A18.08,18.08,0,0,1,541.85.07c-.28-2.42,0-4.83-.42-7.25s-1.16-4.59-.95-7a12.65,12.65,0,0,1,2.36-6.22c1.12-1.58-1.48-3.08-2.59-1.51a15.29,15.29,0,0,0-2.68,6.9,22.85,22.85,0,0,0,.78,7.75c.57,2.65.22,5.3.58,8a21.29,21.29,0,0,0,2.57,7.58,1.5,1.5,0,0,0,2.59-1.52Z"/><path class="cls-3" d="M533.13.57a26.09,26.09,0,0,0-8.51,3.11c-1.28.75-2.43,1.66-3.64,2.5-1.05.74-2.27,1.58-3.59,1.16-1.85-.58-2.64,2.32-.8,2.9,3.37,1.06,6-1.7,8.57-3.37a23.54,23.54,0,0,1,8.77-3.41A1.52,1.52,0,0,0,535,1.61a1.54,1.54,0,0,0-1.85-1Z"/><path class="cls-3" d="M550.13,31.74c-7,2.2-10.3,9.34-11.35,16.09-1.17,7.44-.45,15.78-5.23,22.12-1.16,1.54,1.44,3,2.59,1.51,4.44-5.89,4.47-13.49,5.23-20.5.68-6.28,2.73-14.18,9.56-16.33,1.83-.58,1.05-3.48-.8-2.89Z"/><path class="cls-3" d="M596.56,42.36c-2.59,2.7-5.38,5.65-8.95,7-4,1.52-8.22-.15-12.36.09A26.68,26.68,0,0,0,563.83,53c-3.29,1.82-6.57,4.2-10.44,4.52-1.91.15-1.93,3.15,0,3,4.06-.34,7.45-2.36,10.9-4.34a24.53,24.53,0,0,1,12.3-3.7c2.38,0,4.7.58,7.08.63a13.5,13.5,0,0,0,5.8-1.23c3.62-1.62,6.51-4.53,9.21-7.35,1.34-1.4-.78-3.52-2.12-2.12Z"/><path class="cls-3" d="M593.72,23.88c-4.59,2.35-9.52,4.2-13.68,7.32-2,1.47-3.47,3.42-5.4,4.91-2.27,1.76-5.1,1.25-7.72.73-1.88-.38-2.69,2.51-.8,2.89,2.75.55,5.68,1.06,8.35-.07,2.51-1.06,4.1-3.36,6.11-5.08,4.26-3.65,9.72-5.58,14.66-8.11,1.71-.88.2-3.47-1.52-2.59Z"/><path class="cls-3" d="M609,22.24A17,17,0,0,1,600.34,19,16.48,16.48,0,0,1,597,15.67c-1-1.31-1.64-2.85-3-3.88a25.57,25.57,0,0,0-4.13-2A17.12,17.12,0,0,1,586,7,17.54,17.54,0,0,1,581.1-.77c-.56-1.85-3.45-1.06-2.9.8a20.54,20.54,0,0,0,5.36,8.84,20.76,20.76,0,0,0,3.85,2.94c1.51.88,3.41,1.28,4.8,2.34a8.75,8.75,0,0,1,1.68,2.27,21.3,21.3,0,0,0,1.47,2,20.27,20.27,0,0,0,3.77,3.39A20,20,0,0,0,609,25.24c1.93.16,1.92-2.84,0-3Z"/></g><g class="cls-2"><path class="cls-3" d="M1098.29,203.67q-34.45,2.82-68.64,8.29c-8.91,1.43-18.53,3-25.45,9.33-3.35,3.05-5.57,7.05-8.17,10.71a25.56,25.56,0,0,1-4.44,5,26,26,0,0,1-6.49,3.61,366.74,366.74,0,0,1-36,12.66c-1.85.56-1.06,3.45.8,2.89q16.15-4.86,31.9-11c4.62-1.81,9.42-3.52,13.05-7,3.24-3.14,5.39-7.16,8-10.76a24.9,24.9,0,0,1,10.44-8.27,58.37,58.37,0,0,1,13.14-3.52c11.1-1.93,22.28-3.46,33.46-4.86q19.14-2.42,38.37-4c1.91-.16,1.93-3.16,0-3Z"/><path class="cls-3" d="M1007.47,218.7c-6.13,2.74-13.18,2.43-19.4.18-3.28-1.19-6-3.14-8.92-4.9-3.23-1.91-6.79-2-10.43-1.84-1.92.08-1.93,3.08,0,3a24.28,24.28,0,0,1,5.65.17,13.91,13.91,0,0,1,5.12,2.47,34.75,34.75,0,0,0,9.32,4.5,28.73,28.73,0,0,0,20.17-1c1.76-.79.24-3.38-1.51-2.59Z"/><path class="cls-3" d="M997.16,230.4a30.4,30.4,0,0,0-6.88,16.18c-.37,3.21.09,6.3.2,9.5s-1.19,6.5-.93,9.81c.15,1.92,3.15,1.93,3,0-.24-3.08.94-6,.94-9.11s-.54-6-.33-9a27.06,27.06,0,0,1,6.12-15.28c1.23-1.47-.88-3.6-2.12-2.12Z"/><path class="cls-3" d="M973.08,245.14c-5,1.89-6,7.09-7.87,11.5-1.09,2.58-3,4.16-5,6s-3.51,4-3.57,6.76c0,1.93,3,1.93,3,0,0-2.34,2-4,3.57-5.44a16.76,16.76,0,0,0,4.39-5.51c1.54-3.38,2.24-9,6.23-10.45,1.79-.67,1-3.58-.8-2.9Z"/><path class="cls-3" d="M984.5,240.73a15,15,0,0,1-5.78-.32c-1.78-.6-3.25-2-5-2.73a17.91,17.91,0,0,0-5.62-1.49c-1.81-.18-3.91.3-5.55-.62s-3.21,1.65-1.52,2.59c1.87,1,3.85.9,5.91,1a14.12,14.12,0,0,1,6,1.49c1.81.91,3.35,2.25,5.34,2.8a18.26,18.26,0,0,0,6.21.32c1.92-.13,1.93-3.14,0-3Z"/><path class="cls-3" d="M996.48,220.83a36.21,36.21,0,0,0-7.36.08,22.1,22.1,0,0,0-6.38,2.22,15.44,15.44,0,0,1-3,1.15,15.72,15.72,0,0,1-3.63.19,8.28,8.28,0,0,0-5.77,1.78c-1.45,1.28.67,3.39,2.12,2.12s3.72-.85,5.48-.89a14.46,14.46,0,0,0,5.93-1.58,20.46,20.46,0,0,1,5.86-2.06,33.93,33.93,0,0,1,6.76,0c1.93.13,1.92-2.87,0-3Z"/><path class="cls-3" d="M1027.61,212.47c-3.08-.45-5.24-3-7.6-4.8a26.31,26.31,0,0,0-9-4.4,1.5,1.5,0,0,0-.79,2.9,23.19,23.19,0,0,1,8.65,4.36c2.41,2,4.77,4.36,8,4.83a1.56,1.56,0,0,0,1.85-1.05,1.51,1.51,0,0,0-1.05-1.84Z"/><path class="cls-3" d="M1052.32,208.66a9.57,9.57,0,0,0-6.77,3.4c-1.86,2-3,4.53-4.82,6.59s-4.3,3-5.73,5.35-1.7,5-2,7.56c-.2,1.92,2.81,1.9,3,0,.22-2.09.46-4.38,1.64-6.18a8.62,8.62,0,0,1,2.41-2.17,15,15,0,0,0,2.77-2.43c2.62-3,4.74-9,9.47-9.12,1.93,0,1.94-3,0-3Z"/><path class="cls-3" d="M1037.69,221.88l-9.69-.09c-2.93,0-5.53-.08-8,1.75a128.12,128.12,0,0,0-13.32,12.1,1.5,1.5,0,0,0,2.13,2.12,165.55,165.55,0,0,1,12.35-11.34,6.28,6.28,0,0,1,3.19-1.59,31.47,31.47,0,0,1,4.12,0l9.2.09a1.5,1.5,0,0,0,0-3Z"/><path class="cls-3" d="M1021.5,223.17a10.88,10.88,0,0,0-1,4.86,14.11,14.11,0,0,0,1.12,4.59,11.18,11.18,0,0,1,.81,4.64,28.52,28.52,0,0,1-.92,5.11c-.46,1.88,2.43,2.68,2.89.8.77-3.16,1.51-6.5.66-9.73-.4-1.53-1.22-2.94-1.48-4.52a7.52,7.52,0,0,1,.55-4.24,1.55,1.55,0,0,0-.54-2.05,1.51,1.51,0,0,0-2,.54Z"/><path class="cls-3" d="M1009.2,233.54a12.25,12.25,0,0,0-1.44,3.89c-.23,1.31-.07,2.66-.29,4a38.11,38.11,0,0,1-1.22,3.7,6.33,6.33,0,0,0,.22,4.27,1.52,1.52,0,0,0,2,.54,1.54,1.54,0,0,0,.54-2.06c-.38-.89.09-2.08.4-2.92a15,15,0,0,0,1-3.39c.14-1.1,0-2.22.2-3.32a9.42,9.42,0,0,1,1.13-3.16,1.5,1.5,0,0,0-2.59-1.52Z"/></g><g class="cls-2"><path class="cls-3" d="M1106.92-56.84a94,94,0,0,1-22.81,62.06c-13.95,16-33.14,25.86-50,38.34-8.34,6.17-16.18,13.07-22.36,21.46a84.21,84.21,0,0,0-13.42,29.5c-5.52,21.9-4.52,44.77-5,67.16-.11,6-.37,12.32-3,17.85a27,27,0,0,1-8.5,10.07c-7.58,5.52-17,8-26.08,9.68-2.34.44-4.7.82-7,1.17-1.91.28-1.1,3.17.8,2.89,18.24-2.73,41.41-8.27,45.76-29.3,1.21-5.86,1.11-11.92,1.18-17.88.06-5.68.09-11.36.19-17,.21-11.45.69-23,2.6-34.27,1.84-10.95,5-21.75,10.6-31.42,5.32-9.24,12.71-16.92,21-23.58,16.53-13.3,36-22.77,51.11-37.88a97.15,97.15,0,0,0,27.72-60.38q.33-4.22.28-8.43a1.5,1.5,0,0,0-3,0Z"/><path class="cls-3" d="M1052.45,30.81a152.73,152.73,0,0,1-51.35,8.24q-7.46-.11-14.88-.93c-1.91-.21-1.9,2.79,0,3a154.92,154.92,0,0,0,52.48-3.21q7.38-1.74,14.55-4.21c1.81-.62,1-3.52-.8-2.89Z"/><path class="cls-3" d="M997.3,101.3c-.36,4.09,2.12,7.53,4.83,10.32,3,3.06,6.09,5.85,8.74,9.2A61.13,61.13,0,0,1,1022.11,144a59.31,59.31,0,0,1,1.73,14.41,1.5,1.5,0,0,0,3,0,64.08,64.08,0,0,0-19.84-46.2c-3-2.87-7.11-6.25-6.7-10.87.17-1.92-2.83-1.91-3,0Z"/><path class="cls-3" d="M993.13,163.19c.51,8,4.29,15,8.45,21.67,4.42,7.08,8.89,13.95,11.49,22,5.56,17.15,4.21,35.61.3,52.95-2.35,10.4-5.57,20.58-8.79,30.74-.59,1.85,2.31,2.63,2.89.8,5.67-17.9,11.43-36.11,12.23-55a89.47,89.47,0,0,0-2.47-25.88c-2.12-8.32-5.89-15.75-10.46-23-4.71-7.44-10.06-15.2-10.64-24.27-.12-1.92-3.12-1.93-3,0Z"/><path class="cls-3" d="M1079.25,11.46c-3.67,8.91-7.37,17.9-9.48,27.34a82.45,82.45,0,0,0-1.37,28,83.48,83.48,0,0,0,3.48,15.69c.6,1.83,3.5,1.05,2.89-.8a80.36,80.36,0,0,1-4-27.1,89.51,89.51,0,0,1,5.43-27.25c1.79-5.09,3.84-10.07,5.89-15.06.74-1.78-2.16-2.56-2.89-.79Z"/><path class="cls-3" d="M1005.54,75.94A52.28,52.28,0,0,1,992,97.78c-3.17,3-7.19,5.35-9.8,8.94-2.73,3.75-3.9,8.67-5.2,13q-2.49,8.46-4.16,17.13c-.36,1.88,2.53,2.69,2.9.79q1.46-7.59,3.55-15c.7-2.48,1.46-4.94,2.26-7.39a27.3,27.3,0,0,1,2.77-6.34,20.45,20.45,0,0,1,4.83-4.77,64.93,64.93,0,0,0,5-4.25,55.73,55.73,0,0,0,8.13-9.92,55,55,0,0,0,6.19-13.25c.59-1.84-2.31-2.63-2.89-.79Z"/></g><g class="cls-2"><path class="cls-3" d="M-22.21,94.36a49.45,49.45,0,0,1,33.47-5.21c11.13,2.26,20.63,8.7,30.75,13.48a57.77,57.77,0,0,0,15.5,5.19,45.19,45.19,0,0,0,17.18-.76c11.67-2.68,22.19-8.84,32.68-14.36,3-1.58,6.11-3.36,9.54-3.77a13.62,13.62,0,0,1,7.89,1.54c5.19,2.69,9.08,7.46,12.55,12,1.15,1.52,3.75,0,2.59-1.51-6.15-8.13-14.87-17.85-26.23-14.44a47.5,47.5,0,0,0-8.43,3.85c-2.73,1.44-5.44,2.9-8.18,4.33a124,124,0,0,1-16.83,7.59,49.34,49.34,0,0,1-17.54,3,45.59,45.59,0,0,1-16.64-4.13c-10.47-4.56-20-11.29-31.16-14.27a52.54,52.54,0,0,0-38.66,4.84c-1.68.94-.17,3.53,1.52,2.59Z"/><path class="cls-3" d="M31.8,97.45a80.44,80.44,0,0,1,20,28.64c.73,1.76,3.63,1,2.9-.8a84,84,0,0,0-20.8-30c-1.42-1.3-3.54.81-2.12,2.12Z"/><path class="cls-3" d="M79.68,105.4c2.52-1.14,3.52-3.85,4.2-6.33a36.3,36.3,0,0,1,3.17-8.18A31.93,31.93,0,0,1,99.63,78.46c1.69-.93.18-3.52-1.52-2.59A34.85,34.85,0,0,0,85.24,88.06a34.23,34.23,0,0,0-3.63,8c-.71,2.3-1,5.65-3.44,6.77-1.76.79-.23,3.38,1.51,2.59Z"/><path class="cls-3" d="M109.7,91.6C117,87,119,77.84,124.59,71.68c6.37-7,15.17-11.18,24.14-13.82,5.73-1.68,11.61-2.82,17.47-4,1.89-.37,1.09-3.26-.8-2.89-10.15,2-20.45,4-29.74,8.72a47.83,47.83,0,0,0-11.11,7.69,43.19,43.19,0,0,0-7.93,10.62c-2.24,4-4.43,8.41-8.44,11-1.62,1-.12,3.63,1.52,2.59Z"/><path class="cls-3" d="M16.23,90.05c6.94-.75,13.92-1.56,20.42-4.27A45.08,45.08,0,0,0,52,75.19c1.33-1.4-.78-3.52-2.12-2.12a41.94,41.94,0,0,1-14.42,10c-6.12,2.52-12.71,3.3-19.24,4-1.9.21-1.92,3.21,0,3Z"/><path class="cls-3" d="M65.56,108.08a27,27,0,0,1,9.31-.16A30.12,30.12,0,0,1,79.25,109c1.51.51,2.92,1.24,4.43,1.75,3,1,6.1.27,9.08-.35q4.89-1,9.65-2.53c1.83-.59,1-3.48-.8-2.9-3.09,1-6.23,1.82-9.41,2.49a33,33,0,0,1-4.72.79,10.2,10.2,0,0,1-4.75-1.1,30.92,30.92,0,0,0-18-2c-1.89.36-1.09,3.25.8,2.9Z"/></g><g id="leaf" class="cls-4"><path class="cls-5" d="M4.8,22C-14.62,5.14-1.48-14,9.25-26.34s25.09-23.77,44.52-6.92S85.17,21,74.45,33.35,24.23,38.84,4.8,22Z"/><path class="cls-1" d="M10.43-22.87c.32-.46,17.06,8.14,33.61,24.25C59.3,16.24,68,31.26,67.57,31.59s-8.5-13.88-25.2-29.9C25-14.95,10.13-22.43,10.43-22.87Z"/><path class="cls-1" d="M47.7,41.5c-.39.11-5.66-8.81-7.31-21.13C38.87,9,41.08-.5,41.47-.53s-1.78,8.92,0,21.25C43.3,33.52,48.07,41.39,47.7,41.5Z"/><path class="cls-1" d="M36.71,38.77c-.46.12-6.27-10.1-7.7-24.08C27.69,1.79,30.65-8.9,31.11-8.92s-2.44,10-.87,24C31.87,29.64,37.15,38.65,36.71,38.77Z"/><path class="cls-1" d="M23,35.13C22.52,35.2,18.09,23.7,18,8.77,18-5,21.62-15.91,22.05-15.87S18.92-5.58,19.12,9.37C19.32,24.9,23.36,35.06,23,35.13Z"/><path class="cls-1" d="M47.45,5.37c-.06-.3,7.47-3.6,17.39-4C74,1,81.35,3.29,81.33,3.59S74.41,1.67,64.47,2.15C54.16,2.65,47.51,5.65,47.45,5.37Z"/><path class="cls-1" d="M56.1,15.3C56,15,61.44,11.5,68.74,11.52c6.73,0,12.26,3,12.27,3.34s-5.2-2.54-12.51-2.47C60.91,12.47,56.15,15.63,56.1,15.3Z"/><path class="cls-1" d="M10.07,27.61c-.47,0-4.14-11.37-2.86-25.69,1.17-13.21,6.05-23.36,6.51-23.29s-4.26,9.61-5.4,24C7.14,17.5,10.51,27.58,10.07,27.61Z"/><path class="cls-1" d="M57.68,41.69c-.34.11-4.89-6.37-6.36-15.63-1.35-8.54.49-15.86.83-15.9s-1.48,6.85.09,16.11C53.87,35.88,58,41.59,57.68,41.69Z"/></g><g id="leaf-2" data-name="leaf" class="cls-4"><path class="cls-5" d="M51.67,84.86C35.21,88.39,36.18,75.79,38.05,66.6S44.14,46.81,60.6,43.28,96.2,46.6,94.33,55.8,68.12,81.32,51.67,84.86Z"/><polygon class="cls-5" points="29.68 71.09 29.54 69.42 38.88 67.27 38.59 67.9 29.68 71.09"/><path class="cls-1" d="M39.87,67.2c0-.3,12.23-5.33,26.83-7.75,13.47-2.23,23.33-1.31,23.2-1s-9.37-.63-24,1.89C50.66,63,39.84,67.49,39.87,67.2Z"/><path class="cls-1" d="M82.11,71.14c-.18.22-6.09-.27-11.12-3.62-4.63-3.08-6.57-7.3-6.35-7.49s2,3.82,7.07,7.11C77,70.55,82.28,70.93,82.11,71.14Z"/><path class="cls-1" d="M75.07,75.41c-.22.26-6.87-.41-12.32-4.41-5-3.69-6.94-8.67-6.69-8.89s2,4.51,7.52,8.45C69.33,74.64,75.27,75.17,75.07,75.41Z"/><path class="cls-1" d="M66.17,80.69c-.22.23-6.52-1.53-11.53-6.49-4.62-4.57-6.21-10-6-10.14s1.68,4.92,6.77,9.82C60.74,79,66.38,80.47,66.17,80.69Z"/><path class="cls-1" d="M44.9,65.31c-.25,0,1.49-6.08,6.73-13.07,4.83-6.45,10.6-11,10.81-10.93A88.8,88.8,0,0,0,52,52.68C46.61,60,45.14,65.34,44.9,65.31Z"/><path class="cls-1" d="M52.28,63.05c-.2-.06,3.06-6.45,9.53-13.5C67.78,43,74,38.69,74.12,38.8A115.12,115.12,0,0,0,62,50.07,93.62,93.62,0,0,0,52.28,63.05Z"/><path class="cls-1" d="M59.63,61.34c-.15-.07,3.14-5.37,9.05-11,5.45-5.17,10.84-8.44,10.95-8.33a97.36,97.36,0,0,0-10.87,8.8A84.41,84.41,0,0,0,59.63,61.34Z"/><path class="cls-1" d="M69.94,59.17c-.14-.07,3-4.72,8.38-9.53a47.76,47.76,0,0,1,9.94-7,84.94,84.94,0,0,0-9.89,7.48A73.85,73.85,0,0,0,69.94,59.17Z"/><path class="cls-1" d="M78.07,58.42c-.15-.09,1.72-3.8,5.8-7.23a25,25,0,0,1,8-4.68A43.39,43.39,0,0,0,84,51.59,34.23,34.23,0,0,0,78.07,58.42Z"/><path class="cls-1" d="M56.48,84.25c-.25.24-6.1-1.85-10.16-7.24-3.74-5-4.4-10.67-4.12-10.86s.82,5.23,5,10.56C51.47,82.26,56.72,84,56.48,84.25Z"/><path class="cls-1" d="M87.74,66.5c-.15.19-4.85.17-8.75-2.23-3.6-2.22-5-5.54-4.84-5.71s1.46,3,5.42,5.35C83.68,66.35,87.89,66.31,87.74,66.5Z"/></g><path class="cls-3" d="M1053.11,73.43c-8.09-7.53-2.15-15.54,2.65-20.68s11.14-9.82,19.22-2.29,12.65,23.78,7.85,28.93S1061.19,81,1053.11,73.43Z"/><polygon class="cls-3" points="1050.46 50.76 1051.14 49.53 1055.79 53.71 1055.4 53.97 1050.46 50.76"/><path class="cls-1" d="M1056.21,54.26c.15-.19,7.2,3.75,14.06,10.93,6.33,6.61,9.83,13.2,9.64,13.33s-3.44-6.09-10.36-13.23C1062.36,57.88,1056.08,54.44,1056.21,54.26Z"/><path class="cls-1" d="M1071.23,82.47c-.17,0-2.3-3.87-2.82-9.19-.47-4.9.62-9,.79-9a37.52,37.52,0,0,0-.33,9.12A35.28,35.28,0,0,0,1071.23,82.47Z"/><path class="cls-1" d="M1066.55,81.13c-.2,0-2.54-4.43-2.94-10.46-.37-5.56,1.07-10.1,1.27-10.1a41.26,41.26,0,0,0-.74,10.3A38.3,38.3,0,0,0,1066.55,81.13Z"/><path class="cls-1" d="M1060.7,79.35c-.19,0-1.91-5-1.71-11.39.18-5.92,1.92-10.54,2.1-10.52a49.89,49.89,0,0,0-1.64,10.79A46.6,46.6,0,0,0,1060.7,79.35Z"/><path class="cls-1" d="M1059.05,56c-.09-.18,3.27-3.25,8.43-4.85,4.75-1.49,9-1.11,9.1-.92a34.62,34.62,0,0,0-9.16,1.44A32.29,32.29,0,0,0,1059.05,56Z"/><path class="cls-1" d="M1063,58.93c-.06-.17,4-2.55,9.73-3.46,5.24-.83,9.61,0,9.62.11a45,45,0,0,0-9.78.35A40.89,40.89,0,0,0,1063,58.93Z"/><path class="cls-1" d="M1066.64,62.2a24,24,0,0,1,16.44-1.09,36.69,36.69,0,0,0-8.2-.56A34.76,34.76,0,0,0,1066.64,62.2Z"/><path class="cls-1" d="M1071.67,67a20.83,20.83,0,0,1,14.58-.24,32,32,0,0,0-7.22-.88A30.76,30.76,0,0,0,1071.67,67Z"/><path class="cls-1" d="M1075.23,71.35a8.89,8.89,0,0,1,5.49-1.43,9.83,9.83,0,0,1,5.22,1.63,16.44,16.44,0,0,0-5.33-1.26A14.46,14.46,0,0,0,1075.23,71.35Z"/><path class="cls-1" d="M1055.28,75.93c-.2,0-1.6-5-.83-11.08.71-5.65,3-9.94,3.15-9.9a44,44,0,0,0-2.69,10.21A41.29,41.29,0,0,0,1055.28,75.93Z"/><path class="cls-1" d="M1075.51,82.71A13.94,13.94,0,0,1,1073,75.9a14.55,14.55,0,0,1,.6-6.82,25.52,25.52,0,0,0-.21,6.92A23.12,23.12,0,0,0,1075.51,82.71Z"/><path class="cls-3" d="M108.76-20.65c14-3.05,18.14,9.2,20.08,18.11s2.23,19.12-11.77,22.17-34.68-4.09-36.62-13S94.76-17.61,108.76-20.65Z"/><path class="cls-1" d="M126.89-3.17c.1.29-9.32,4.89-22,6.9-11.72,1.85-21.33.72-21.33.42s9,.84,21.75-1.26C118.49.7,126.8-3.45,126.89-3.17Z"/><path class="cls-1" d="M86.81-7.53c.08-.21,5.57.3,11.31,3.53,5.29,3,8.57,7,8.45,7.22s-3.18-3.67-8.95-6.85C91.62-6.94,86.73-7.33,86.81-7.53Z"/><path class="cls-1" d="M90.62-12c.1-.25,6.6.56,13.32,4.59,6.19,3.72,10,8.61,9.83,8.82S110.1-3,103.34-7C96.31-11.13,90.53-11.78,90.62-12Z"/><path class="cls-1" d="M122.94-1.45c.25,0,1,5.88-1.06,12.57-1.93,6.17-5.51,10.47-5.74,10.38s3.19-4.1,5.22-10.82C123.47,3.7,122.7-1.48,122.94-1.45Z"/><path class="cls-1" d="M116.93.57c.22.07-.28,6.21-3.51,12.93-3,6.19-7,10.28-7.23,10.17s3.68-3.93,6.86-10.69C116.35,6,116.73.51,116.93.57Z"/><path class="cls-1" d="M110.73,2.06c.17.08-.79,5.15-4.07,10.48-3,4.9-6.77,8-6.91,7.85a47.85,47.85,0,0,0,6.65-8.31A45,45,0,0,0,110.73,2.06Z"/><path class="cls-1" d="M102,3.92c.15.08-.89,4.54-4,9.09-2.9,4.21-6.36,6.73-6.49,6.63a41.71,41.71,0,0,0,6.27-7A39.83,39.83,0,0,0,102,3.92Z"/><path class="cls-1" d="M94.63,4.47c.17.09-.09,3.65-2.54,6.9a12.66,12.66,0,0,1-5.58,4.36A21.48,21.48,0,0,0,91.79,11,18.92,18.92,0,0,0,94.63,4.47Z"/><path class="cls-1" d="M82.32-3.64c.07-.18,4.48,0,9.1,2.39C95.68,1,98.33,4.26,98.24,4.42A33.21,33.21,0,0,0,91-.92,30.53,30.53,0,0,0,82.32-3.64Z"/><g id="leaf-3" data-name="leaf" class="cls-4"><path class="cls-5" d="M1028-29.74c15.41-10.73,26.59,2,33.42,11.81s12.32,22-3.09,32.76-44,12.5-50.86,2.69S1012.63-19,1028-29.74Z"/><path class="cls-1" d="M1058.78-17.71c.27.31-8.81,10.61-23.18,19.44C1022.34,9.87,1010.15,13.33,1010,13S1021.34,9.44,1035.68.5C1050.56-8.79,1058.53-18,1058.78-17.71Z"/><path class="cls-1" d="M1006.54-2.87c0-.3,7.25-2.43,16.27-1.39,8.32,1,14.65,4.23,14.59,4.51s-6-2.85-15-3.81C1013-4.56,1006.55-2.59,1006.54-2.87Z"/><path class="cls-1" d="M1054.86-13.64c.32-.08,4.22,6.6,5.05,15.75.76,8.43-1.41,15.44-1.73,15.45s1.8-6.58.88-15.73C1058.1-7.67,1054.56-13.56,1054.86-13.64Z"/><path class="cls-1" d="M1048.61-8.16c.29,0,2.78,7.65,2.25,17.4-.49,9-3.34,16-3.62,15.94s2.47-6.6,2.92-16.37C1050.62-1.34,1048.34-8.13,1048.61-8.16Z"/><path class="cls-1" d="M1041.86-3.24c.24,0,1.64,6.63.34,14.72-1.2,7.46-4.18,13-4.41,13s2.63-5.29,3.86-13.41C1042.93,2.62,1041.63-3.24,1041.86-3.24Z"/><path class="cls-1" d="M1032.16,3.43c.23,0,1.21,5.93-.3,13-1.39,6.55-4.31,11.34-4.51,11.28s2.59-4.56,4-11.68C1032.89,8.66,1032,3.42,1032.16,3.43Z"/><path class="cls-1" d="M1023.58,7.77c.26,0,1.74,4.46.41,9.62-1.23,4.77-4.32,8.15-4.56,8.09s2.73-3.22,4-8.41C1024.72,11.69,1023.34,7.75,1023.58,7.77Z"/><path class="cls-1" d="M1004.62,4.16c0-.26,5.39-2.32,12.2-1.7,6.29.57,11.14,3.19,11.11,3.43s-4.59-2.27-11.42-2.82C1009.41,2.5,1004.63,4.4,1004.62,4.16Z"/></g><path class="cls-3" d="M21.41,103.24c-11.24-2.84-9.82-13.21-8-20.36s5.29-14.66,16.53-11.81S53.57,86.55,51.76,93.71,32.65,106.09,21.41,103.24Z"/><polygon class="cls-3" points="7.52 83.73 7.53 82.25 13.92 83.75 13.68 84.18 7.52 83.73"/><path class="cls-1" d="M14.58,84c0-.25,8.52-.18,18.45,2.95,9.16,2.89,15.71,7.18,15.6,7.4s-6.24-3.87-16.21-6.94C22.07,84.27,14.55,84.28,14.58,84Z"/><path class="cls-1" d="M42.64,102.41c-.14.12-4.07-2.4-7.23-7-2.92-4.27-3.95-8.54-3.8-8.63a39.64,39.64,0,0,0,4.3,8.55A37,37,0,0,0,42.64,102.41Z"/><path class="cls-1" d="M37.66,103.53c-.17.15-4.58-2.79-8-8.13-3.14-4.93-4.12-9.83-3.93-9.93a43.12,43.12,0,0,0,4.52,9.85A40,40,0,0,0,37.66,103.53Z"/><path class="cls-1" d="M31.38,104.86c-.16.11-4.28-3.62-7.33-9.62-2.82-5.53-3.55-10.67-3.37-10.74a51.72,51.72,0,0,0,3.93,10.76A49.31,49.31,0,0,0,31.38,104.86Z"/><path class="cls-1" d="M18.07,84.22c-.17-.12,1.37-4.63,5.3-8.72,3.63-3.77,7.77-5.59,7.91-5.45a36.84,36.84,0,0,0-7.69,6A34.19,34.19,0,0,0,18.07,84.22Z"/><path class="cls-1" d="M23.15,84.92c-.13-.12,2.44-4.39,7.21-8.09,4.39-3.41,8.81-4.9,8.9-4.75a45.51,45.51,0,0,0-8.82,5.26A44.24,44.24,0,0,0,23.15,84.92Z"/><path class="cls-1" d="M28.18,86.08A21.83,21.83,0,0,1,34.91,80a21.76,21.76,0,0,1,7.84-3.2,39.23,39.23,0,0,0-7.82,3.63A36.53,36.53,0,0,0,28.18,86.08Z"/><path class="cls-1" d="M35.21,87.91a18.91,18.91,0,0,1,6.2-5.13,18.93,18.93,0,0,1,7.09-2.46,34.45,34.45,0,0,0-7.09,2.84A31.77,31.77,0,0,0,35.21,87.91Z"/><path class="cls-1" d="M40.71,90.15A9.26,9.26,0,0,1,45,86.07a10.29,10.29,0,0,1,5.62-1.14,17.3,17.3,0,0,0-5.54,1.54A15,15,0,0,0,40.71,90.15Z"/><path class="cls-1" d="M24.67,104.44c-.19.11-4-3.74-6.36-9.76C16.1,89.12,16,84,16.21,84a45.94,45.94,0,0,0,2.68,10.74A43.07,43.07,0,0,0,24.67,104.44Z"/><path class="cls-1" d="M46.69,100.46c-.11.12-3.26-1.57-5.73-5a15.49,15.49,0,0,1-2.89-6.57,27.18,27.18,0,0,0,3.31,6.47A24.48,24.48,0,0,0,46.69,100.46Z"/><g id="leaf-4" data-name="leaf" class="cls-4"><path class="cls-5" d="M51.11,158c-12.9,13.65-26.43,3.47-35.12-4.74s-16.56-19-3.66-32.69,40.55-21.22,49.24-13S64,144.31,51.11,158Z"/><polygon class="cls-5" points="12.56 162.2 10.47 161.03 17.63 153.17 18.06 153.84 12.56 162.2"/><path class="cls-1" d="M18.57,152.46c-.33-.24,6.46-12.19,18.73-23.76C48.61,118,59.84,112.15,60.07,112.48s-10.39,5.77-22.6,17.45C24.79,142.05,18.87,152.7,18.57,152.46Z"/><path class="cls-1" d="M66.68,127.27c.07.3-6.6,3.86-15.64,4.68-8.35.76-15.21-1.15-15.21-1.44s6.45,1.58,15.5.67C60.72,130.24,66.61,127,66.68,127.27Z"/><path class="cls-1" d="M64.34,135.21c.08.34-7.56,4.26-17.8,4.87-9.45.56-17.16-1.93-17.16-2.27s7.25,2.09,17.51,1.38C57.54,138.45,64.27,134.89,64.34,135.21Z"/><path class="cls-1" d="M61.26,145.13c0,.32-8.49,3.19-19.38,2.78-10.05-.38-17.89-3.39-17.85-3.7s7.41,2.6,18.32,2.92C53.68,147.46,61.22,144.83,61.26,145.13Z"/><path class="cls-1" d="M21.57,147.67c-.3.15-5.47-5.59-8.15-14.38-2.47-8.1-1.77-15.4-1.46-15.48s-.42,6.81,2.35,15.58C17.19,142.5,21.85,147.54,21.57,147.67Z"/><path class="cls-1" d="M26.57,141c-.28.09-4.28-6.92-5.75-16.58-1.36-8.9,0-16.32.3-16.34s-1.08,7,.48,16.62C23.21,134.78,26.84,141,26.57,141Z"/><path class="cls-1" d="M32.18,134.84c-.24,0-3-6.15-3.34-14.34-.35-7.55,1.44-13.62,1.67-13.61s-1.5,5.72-1.05,13.92C29.94,129.32,32.41,134.8,32.18,134.84Z"/><path class="cls-1" d="M40.31,126.34c-.22,0-2.39-5.57-2.36-12.82,0-6.68,1.9-12,2.12-12a54.66,54.66,0,0,0-1.58,12.26C38.53,121.36,40.52,126.3,40.31,126.34Z"/><path class="cls-1" d="M47.83,120.34c-.26,0-2.61-4-2.37-9.34.23-4.92,2.57-8.86,2.82-8.85s-2,3.71-2.19,9C45.91,116.74,48.07,120.31,47.83,120.34Z"/><path class="cls-1" d="M55.38,154.3c0,.34-8.42,2.66-18.83,1.29-9.6-1.27-16.86-5.15-16.79-5.47s6.88,3.4,17.31,4.68C47.91,156.12,55.37,154,55.38,154.3Z"/><path class="cls-1" d="M67.13,120c.07.24-4.8,3.36-11.6,4.15-6.28.72-11.56-.85-11.58-1.1s5,1.29,11.76.43C62.77,122.6,67.06,119.77,67.13,120Z"/></g><g id="leaf-5" data-name="leaf" class="cls-4"><path class="cls-5" d="M2.39,60.11c-11.62-6-5.27-14,.07-19.24s12.74-10.26,24.36-4.3S46.94,56.88,41.61,62.14,14,66.07,2.39,60.11Z"/><polygon class="cls-5" points="-4.68 39.67 -4 38.46 2.66 41.75 2.19 42.03 -4.68 39.67"/><path class="cls-1" d="M3.29,42.21c.15-.2,9.87,2.6,19.85,8.38,9.21,5.32,14.79,10.95,14.56,11.09S32.29,56.5,22.23,50.77C11.79,44.81,3.14,42.39,3.29,42.21Z"/><path class="cls-1" d="M27.17,66.29c-.21.06-3.58-3.27-5.11-8.08-1.41-4.43-.65-8.26-.44-8.28s-.54,3.58,1.05,8.38A28.59,28.59,0,0,0,27.17,66.29Z"/><path class="cls-1" d="M20.93,65.61c-.25.06-4-3.77-5.47-9.24-1.37-5-.26-9.37,0-9.39s-.86,4.05.71,9.52C17.8,62.17,21.17,65.54,20.93,65.61Z"/><path class="cls-1" d="M13.12,64.66c-.24,0-3.27-4.35-4-10.24-.72-5.43.77-9.86,1-9.86s-1.23,4.17-.37,10.06C10.6,60.75,13.34,64.61,13.12,64.66Z"/><path class="cls-1" d="M7.21,43.48c-.14-.15,3.68-3.34,10.06-5.41,5.89-1.91,11.48-2,11.57-1.89a60.94,60.94,0,0,0-11.55,2.37A45.34,45.34,0,0,0,7.21,43.48Z"/><path class="cls-1" d="M12.73,45.7c-.09-.15,4.81-2.8,12-4.28a44.24,44.24,0,0,1,12.39-1,79.22,79.22,0,0,0-12.53,1.45A65.21,65.21,0,0,0,12.73,45.7Z"/><path class="cls-1" d="M18,48.27c-.06-.12,4.36-2,10.52-2.82A37.73,37.73,0,0,1,39,45.38a68,68,0,0,0-10.63.43A59.09,59.09,0,0,0,18,48.27Z"/><path class="cls-1" d="M25.23,52a30.16,30.16,0,0,1,9.46-2.18,32.34,32.34,0,0,1,9.26.28,58.22,58.22,0,0,0-9.43,0A52.31,52.31,0,0,0,25.23,52Z"/><path class="cls-1" d="M30.53,55.66c-.05-.14,2.77-1.69,6.83-1.94a17.21,17.21,0,0,1,7,.88,29.5,29.5,0,0,0-7.06-.53A23.39,23.39,0,0,0,30.53,55.66Z"/><path class="cls-1" d="M5.6,62.14c-.26,0-2.87-4.34-2.87-10,0-5.25,2.2-9.43,2.45-9.42s-1.88,3.94-1.8,9.65C3.46,58.26,5.84,62.12,5.6,62.14Z"/><path class="cls-1" d="M32.71,66a12.63,12.63,0,0,1-4.3-5.95c-1.17-3.32-.52-6.28-.33-6.3a17,17,0,0,0,.85,6.35A19.81,19.81,0,0,0,32.71,66Z"/></g><g id="leaf-6" data-name="leaf" class="cls-4"><path class="cls-5" d="M1088,108c22.93,11.64,14.81,33.37,7.41,48s-18.59,29.14-41.52,17.51-43.62-45-36.21-59.62S1065.05,96.32,1088,108Z"/><path class="cls-1" d="M1093.4,152.84c-.2.52-18.52-3.76-38.48-15.38-18.41-10.71-30.49-23.18-30.15-23.6s11.61,11.4,31.69,22.9C1077.31,148.7,1093.59,152.34,1093.4,152.84Z"/><path class="cls-1" d="M1041.64,99.43c.35-.21,7.63,7.17,12.22,18.73,4.23,10.66,4.39,20.41,4,20.53s-.43-9.08-5.14-20.62C1047.85,106.1,1041.31,99.63,1041.64,99.43Z"/><path class="cls-1" d="M1053,99.41c.43-.23,8.54,8.28,13.32,21.5,4.4,12.19,4.12,23.28,3.68,23.41s-.07-10.34-5-23.53C1059.87,107.09,1052.57,99.63,1053,99.41Z"/><path class="cls-1" d="M1067.19,99.61c.41-.18,7.49,9.91,11.18,24.38,3.4,13.34,2.49,24.81,2.07,24.88s.54-10.74-3.28-25.2C1073.2,108.66,1066.81,99.77,1067.19,99.61Z"/><path class="cls-1" d="M1085.94,150.75c.31.34-5.22,9.36-15.72,16.29-9.69,6.38-19.54,8.31-19.76,7.93s9.1-2.09,19.54-9.14C1080.85,158.52,1085.65,150.43,1085.94,150.75Z"/><path class="cls-1" d="M1075.29,146.76c.23.33-7.43,8.31-19.54,14-11.17,5.24-21.45,6.32-21.58,6s9.57-1.3,21.65-7.09C1068.37,153.6,1075.08,146.44,1075.29,146.76Z"/><path class="cls-1" d="M1065,141.8c.15.29-6.94,6.27-17.54,9.95-9.78,3.39-18.45,3.41-18.53,3.09s8.1-.25,18.68-4C1058.59,146.89,1064.83,141.52,1065,141.8Z"/><path class="cls-1" d="M1050.64,134.42c.13.28-6.37,5.3-15.91,8.08-8.79,2.57-16.47,2.15-16.53,1.86s7.19.18,16.71-2.69C1044.8,138.69,1050.52,134.16,1050.64,134.42Z"/><path class="cls-1" d="M1039.85,126.88c.14.33-4.26,5-11.35,6.73-6.54,1.61-12.63.06-12.71-.26s5.66,1.21,12.73-.64C1035.86,130.79,1039.71,126.58,1039.85,126.88Z"/><path class="cls-1" d="M1031.92,101.66c.3-.19,6.29,5,9.95,13.63,3.39,8,3.37,15.5,3.06,15.62s-.23-7-4-15.61C1037,106.37,1031.64,101.83,1031.92,101.66Z"/></g><g id="leaf-7" data-name="leaf" class="cls-4"><path class="cls-5" d="M1086.2,224.27c11.11,15.43,1.42,29.72-6.26,38.77s-17.58,17-28.69,1.54-16-46.82-8.35-55.87S1075.09,208.84,1086.2,224.27Z"/><path class="cls-1" d="M1079.44,260.11c-.23.34-10.23-8.15-19.56-22.71-8.61-13.44-13.05-26.4-12.75-26.63s4.39,12,13.83,26.53C1070.75,252.37,1079.66,259.78,1079.44,260.11Z"/><path class="cls-1" d="M1060.41,204.55c.26-.06,3,7.65,3.13,17.79.15,9.35-1.92,16.85-2.17,16.83s1.76-7.06,1.52-17.21C1062.64,211.41,1060.17,204.6,1060.41,204.55Z"/><path class="cls-1" d="M1067.18,207.76c.31-.06,3.26,8.75,3.17,20.22-.08,10.57-2.72,19-3,18.94s2.27-7.92,2.27-19.4C1069.6,215.6,1066.9,207.82,1067.18,207.76Z"/><path class="cls-1" d="M1075.64,212c.28,0,2.26,9.71,1.25,21.82-.94,11.17-4,19.67-4.31,19.6s2.72-8,3.65-20.19C1077.21,220.59,1075.37,212,1075.64,212Z"/><path class="cls-1" d="M1075.45,256.39c.11.34-5.2,5.67-13,8-7.2,2.12-13.52.78-13.57.43s5.91,1,13.71-1.41C1070.68,260.87,1075.35,256.06,1075.45,256.39Z"/><path class="cls-1" d="M1070,250.3c.06.32-6.29,4.24-14.79,5.13-7.84.82-14.22-1.28-14.21-1.6s6,1.74,14.5.75C1064.32,253.56,1069.92,250,1070,250.3Z"/><path class="cls-1" d="M1064.92,243.57c0,.28-5.54,2.82-12.69,2.61-6.6-.19-11.78-2.65-11.75-2.91s4.89,2.11,12,2.24C1060,245.65,1064.89,243.32,1064.92,243.57Z"/><path class="cls-1" d="M1058,233.86c0,.24-5,2.23-11.3,1.64-5.82-.55-10.32-3.05-10.29-3.29s4.25,2.18,10.58,2.7C1053.56,235.45,1058,233.62,1058,233.86Z"/><path class="cls-1" d="M1053.23,225c0,.28-3.65,2.59-8.27,1.91-4.27-.64-7.56-3.55-7.54-3.83s3.11,2.54,7.75,3.14C1050,226.87,1053.22,224.75,1053.23,225Z"/><path class="cls-1" d="M1083.26,219.23c.3,0,1.81,9.59,0,21.08-1.69,10.6-5.5,18.38-5.78,18.28s3.38-7.39,5.12-18.92C1084.4,227.69,1083,219.21,1083.26,219.23Z"/><path class="cls-1" d="M1054.11,203.48c.22-.06,2.64,5.61,2.91,13.25.25,7.05-1.43,12.81-1.65,12.81s1.42-5.42,1.09-13.06C1056.11,208.54,1053.9,203.54,1054.11,203.48Z"/></g><path class="cls-3" d="M897.2,22.53C872.91,14.08,878-8.55,883.41-24s14.5-31.37,38.79-22.92,49.27,38.75,43.9,54.2S921.49,31,897.2,22.53Z"/><path class="cls-1" d="M885.8-21.22c.13-.54,18.86,1.23,40.2,10.06C945.69-3,959.33,7.72,959.06,8.19s-13-9.75-34.49-18.44C902.3-19.28,885.69-20.7,885.8-21.22Z"/><path class="cls-1" d="M944.28,24.75c-.33.25-8.53-6.08-14.63-16.92-5.62-10-7.1-19.63-6.74-19.8S924.57-3,930.78,7.76C937.23,19,944.58,24.51,944.28,24.75Z"/><path class="cls-1" d="M933.06,26.28c-.39.29-9.57-7-16.08-19.5-6-11.49-7.22-22.52-6.8-22.71s1.46,10.23,8.1,22.64C925.18,19.6,933.42,26,933.06,26.28Z"/><path class="cls-1" d="M918.93,28c-.38.23-8.75-8.81-14.35-22.65-5.17-12.77-5.81-24.26-5.4-24.38s.91,10.72,6.64,24.53C911.77,19.85,919.29,27.79,918.93,28Z"/><path class="cls-1" d="M904.18,25.8c-.43.2-8.06-9-12.18-22.8-3.81-12.7-3-23.94-2.59-24s-.4,10.5,3.87,24.25C897.7,17.49,904.58,25.61,904.18,25.8Z"/><path class="cls-1" d="M953.61,21.23c-.27.23-6.9-4.11-11.7-12.16C937.49,1.63,936.49-5.84,936.79-6S938,.91,942.84,8.92C947.92,17.24,953.87,21,953.61,21.23Z"/><g id="leaf-8" data-name="leaf" class="cls-4"><path class="cls-5" d="M163.27-44.85C181.55-65.6,202-51.3,215.19-39.67s25.34,27.18,7.06,47.92-58.59,33.3-71.79,21.67S145-24.11,163.27-44.85Z"/><path class="cls-1" d="M211.44-38.43c.49.35-8.89,18.28-26.35,35.93C169,13.78,152.76,23,152.41,22.54s15-9,32.36-26.83C202.81-22.79,211-38.75,211.44-38.43Z"/><path class="cls-1" d="M141.93,1.1c-.12-.42,9.51-6,22.78-7.68,12.23-1.54,22.43.91,22.45,1.34s-9.57-2-22.84-.2C150.54-3.57,142.05,1.5,141.93,1.1Z"/><path class="cls-1" d="M207.26-31.22c.43-.23,8.34,8,12.73,20.74,4,11.8,3.39,22.58,2.94,22.71s.27-10-4.25-22.8C214-23.83,206.85-31,207.26-31.22Z"/><path class="cls-1" d="M200.24-21.21c.41-.14,6.66,10,9.31,24.1,2.45,13,.82,24,.4,24.07s1.23-10.31-1.56-24.44C205.5-12.16,199.86-21.07,200.24-21.21Z"/><path class="cls-1" d="M192.3-11.8c.36-.09,4.67,8.9,5.65,20.93.9,11.09-1.41,20.12-1.76,20.11s1.91-8.49.83-20.53C195.89-3.79,192-11.72,192.3-11.8Z"/><path class="cls-1" d="M180.78,1.13c.32-.06,3.8,8.07,4.13,18.74.31,9.84-2.19,17.72-2.51,17.7s2.12-7.42,1.69-18.11C183.64,8.36,180.47,1.19,180.78,1.13Z"/><path class="cls-1" d="M170,10.35c.38-.06,4,5.77,4,13.62-.09,7.24-3.33,13.16-3.7,13.16s2.79-5.57,2.76-13.42C173,15.55,169.67,10.4,170,10.35Z"/><path class="cls-1" d="M141.64,11.82c-.12-.36,6.89-5.2,16.86-6.7,9.19-1.38,17,.66,17.08,1s-7.35-1.65-17.32,0C147.92,7.77,141.74,12.16,141.64,11.82Z"/></g><g id="leaf-9" data-name="leaf" class="cls-4"><path class="cls-5" d="M630.68-37.55c15.41-10.73,26.58,2,33.41,11.8S676.42-3.72,661,7s-44,12.5-50.86,2.69S615.27-26.82,630.68-37.55Z"/><path class="cls-1" d="M661.42-25.53c.26.31-8.82,10.62-23.19,19.44C625,2.05,612.79,5.52,612.63,5.15S624,1.62,638.31-7.32C653.2-16.61,661.16-25.82,661.42-25.53Z"/><path class="cls-1" d="M657.5-21.45c.32-.08,4.22,6.59,5,15.74.76,8.44-1.41,15.44-1.73,15.45s1.81-6.58.88-15.73C660.73-15.49,657.19-21.38,657.5-21.45Z"/><path class="cls-1" d="M651.25-16c.29,0,2.78,7.65,2.25,17.4-.49,9-3.34,16-3.63,15.94s2.48-6.6,2.92-16.37C653.26-9.16,651-15.95,651.25-16Z"/><path class="cls-1" d="M644.49-11.06c.25,0,1.64,6.63.35,14.72-1.2,7.47-4.19,13-4.42,13s2.64-5.3,3.87-13.41C645.56-5.19,644.26-11.06,644.49-11.06Z"/><path class="cls-1" d="M634.8-4.39c.22,0,1.2,5.93-.3,13C633.11,15.18,630.19,20,630,19.91a53.64,53.64,0,0,0,4-11.67C635.52.85,634.59-4.4,634.8-4.39Z"/><path class="cls-1" d="M626.22,0c.25,0,1.73,4.46.4,9.63-1.22,4.76-4.32,8.14-4.56,8.08s2.74-3.22,4-8.41C627.36,3.87,626-.07,626.22,0Z"/></g><path class="cls-3" d="M1067.3,156.53c17.11-2.71,19.26,10.28,19.57,19.7s-1.62,20.15-18.74,22.87-39.82-5.49-40.12-14.91S1050.18,159.25,1067.3,156.53Z"/><path class="cls-1" d="M1084.72,175.5c0,.31-12,4.82-27.4,6.49-14.18,1.54-25.2,0-25.14-.3s10.42,1.19,25.82-.58C1074,179.28,1084.67,175.2,1084.72,175.5Z"/><path class="cls-1" d="M1037.47,169c.14-.23,6.74.62,13.1,4.38,5.86,3.46,9,7.94,8.87,8.13s-3.14-4.07-9.56-7.77C1043.22,169.9,1037.34,169.2,1037.47,169Z"/><path class="cls-1" d="M1044.09,165c.17-.26,7.62.82,14.62,5.28,6.45,4.12,9.8,9.38,9.59,9.6s-3.33-4.79-10.39-9.19C1050.57,166.1,1043.93,165.21,1044.09,165Z"/><path class="cls-1" d="M1052.48,160c.18-.23,7.53,2,14.28,7.38,6.23,5,9.34,10.67,9.11,10.85s-3.09-5.19-9.92-10.57C1058.86,162.1,1052.31,160.23,1052.48,160Z"/><path class="cls-1" d="M1079.69,177.17c.29.05-.08,6.21-4,13.16-3.64,6.41-8.8,10.79-9.05,10.7s4.66-4.2,8.54-11.18C1079.18,182.6,1079.42,177.13,1079.69,177.17Z"/><path class="cls-1" d="M1072.19,179.09c.24.08-1.71,6.5-7,13.44-4.87,6.4-10.54,10.55-10.73,10.43s5.18-4,10.41-11C1070.31,184.73,1072,179,1072.19,179.09Z"/><path class="cls-1" d="M1064.58,180.44c.19.08-2.07,5.38-7.1,10.85-4.65,5.05-9.71,8.13-9.86,8a68.73,68.73,0,0,0,9.65-8.5A57.55,57.55,0,0,0,1064.58,180.44Z"/><path class="cls-1" d="M1053.85,182.09c.17.08-2,4.73-6.74,9.4-4.33,4.31-9,6.84-9.08,6.73A60.76,60.76,0,0,0,1047,191,50.06,50.06,0,0,0,1053.85,182.09Z"/><path class="cls-1" d="M1045.14,182.41c.18.1-.91,3.83-4.5,7.15-3.32,3.07-7.37,4.51-7.53,4.39a31.69,31.69,0,0,0,7.25-4.81A23.5,23.5,0,0,0,1045.14,182.41Z"/><path class="cls-1" d="M1062.18,156.88c.22-.23,7.15,2.27,13,8.08,5.36,5.37,7.54,11.31,7.28,11.49s-2.23-5.46-8.13-11.22C1068.17,159.24,1062,157.09,1062.18,156.88Z"/><path class="cls-1" d="M1032.49,173.48c.11-.2,5.27.1,10.15,2.81,4.51,2.51,6.9,6,6.75,6.19s-2.36-3.18-7.29-5.85A33.78,33.78,0,0,0,1032.49,173.48Z"/><g id="leaf-10" data-name="leaf" class="cls-4"><path class="cls-5" d="M722.57-40.53c23.11-16.1,39.87,3,50.11,17.71s18.49,33-4.62,49.12-66,18.76-76.28,4.05S699.46-24.44,722.57-40.53Z"/><path class="cls-1" d="M768.67-22.5c.41.46-13.22,15.93-34.77,29.16C714,18.87,695.73,24.07,695.5,23.52s17-5.3,38.52-18.71C756.35-9.12,768.29-22.93,768.67-22.5Z"/><path class="cls-1" d="M690.32-.23c0-.45,10.87-3.65,24.4-2.09,12.48,1.45,22,6.34,21.89,6.77s-9-4.29-22.55-5.73C700-2.77,690.34.19,690.32-.23Z"/><path class="cls-1" d="M762.79-16.38c.49-.13,6.33,9.88,7.57,23.61,1.14,12.65-2.11,23.16-2.59,23.17s2.7-9.86,1.32-23.59C767.65-7.44,762.34-16.27,762.79-16.38Z"/><path class="cls-1" d="M753.42-8.18c.44,0,4.17,11.48,3.38,26.11-.74,13.49-5,24-5.44,23.91s3.71-9.91,4.38-24.56C756.43,2.05,753-8.13,753.42-8.18Z"/><path class="cls-1" d="M743.29-.79c.37,0,2.46,9.94.51,22.08-1.79,11.19-6.27,19.56-6.61,19.47s3.95-7.94,5.79-20.11C744.9,8,742.94-.79,743.29-.79Z"/><path class="cls-1" d="M728.75,9.21c.33,0,1.8,8.9-.45,19.54-2.08,9.81-6.46,17-6.77,16.91s3.89-6.84,6.06-17.51C729.83,17.06,728.44,9.2,728.75,9.21Z"/><path class="cls-1" d="M715.88,15.72c.38,0,2.6,6.69.61,14.44-1.84,7.14-6.48,12.21-6.84,12.13s4.1-4.84,6-12.62C717.59,21.6,715.51,15.69,715.88,15.72Z"/><path class="cls-1" d="M687.43,10.3c0-.38,8.09-3.47,18.31-2.54,9.43.86,16.71,4.78,16.66,5.15s-6.88-3.41-17.13-4.24C694.63,7.82,687.46,10.66,687.43,10.3Z"/></g><g id="leaf-11" data-name="leaf" class="cls-4"><path class="cls-5" d="M222.55,10.26c-11.37-14.94.89-26.64,10.4-33.87s21.48-13.24,32.85,1.71,14.34,43.46,4.82,50.7S233.92,25.21,222.55,10.26Z"/><path class="cls-1" d="M233.27-20.95c.3-.28,11,8.36,20.4,22.35,8.69,12.9,12.66,24.94,12.3,25.11s-4-11.19-13.54-25.14C242.53-13.11,233-20.69,233.27-20.95Z"/><path class="cls-1" d="M250.29,30.62c-.29,0-2.73-7.14-2.06-16.19.61-8.36,3.6-14.82,3.89-14.78s-2.6,6.11-3.18,15.19C248.34,24.26,250.58,30.6,250.29,30.62Z"/><path class="cls-1" d="M242.85,27c-.36,0-3-8.16-1.91-18.36,1-9.42,4.7-16.62,5-16.56s-3.24,6.81-4.21,17C240.75,19.78,243.18,27,242.85,27Z"/><path class="cls-1" d="M233.56,22.37c-.33,0-1.77-8.9.41-19.58,2-9.85,6.26-17.1,6.56-17s-3.77,6.89-5.87,17.6C232.49,14.51,233.86,22.38,233.56,22.37Z"/><path class="cls-1" d="M255.51,4.76c0-.22,5.88-1.45,13-.25,6.59,1.12,11.51,3.83,11.45,4S275.33,6.15,268.16,5C260.71,3.82,255.51,5,255.51,4.76Z"/><path class="cls-1" d="M260.21,13.15c0-.26,4.38-1.92,9.6-.81,4.81,1,8.32,4,8.27,4.22s-3.34-2.6-8.57-3.63C264.07,11.85,260.2,13.39,260.21,13.15Z"/><path class="cls-1" d="M225.47,15.07c-.34-.05-1.26-8.74,1.8-18.79,2.81-9.26,7.82-15.79,8.13-15.67S230.92-13.16,228-3.07C224.89,7.41,225.79,15.12,225.47,15.07Z"/><path class="cls-1" d="M257.39,32.25c-.25,0-2.54-5.29-2.2-12.13.31-6.3,2.72-11.26,3-11.23s-2.08,4.67-2.34,11.52C255.54,27.53,257.63,32.22,257.39,32.25Z"/></g><g id="leaf-12" data-name="leaf" class="cls-4"><path class="cls-5" d="M866.57-34.21C882-44.94,893.15-32.21,900-22.4s12.33,22-3.08,32.75-44,12.51-50.86,2.7S851.16-23.48,866.57-34.21Z"/><path class="cls-1" d="M897.31-22.18c.27.31-8.82,10.61-23.19,19.44C860.87,5.4,848.68,8.86,848.52,8.5S859.87,5,874.21-4C889.09-13.26,897.06-22.47,897.31-22.18Z"/><path class="cls-1" d="M893.39-18.11c.32-.08,4.22,6.6,5,15.74.77,8.44-1.4,15.44-1.72,15.46s1.8-6.58.87-15.73C896.63-12.14,893.09-18,893.39-18.11Z"/><path class="cls-1" d="M887.14-12.63c.29,0,2.78,7.65,2.25,17.4-.49,9-3.34,16-3.63,15.94s2.48-6.6,2.93-16.38C889.15-5.82,886.86-12.61,887.14-12.63Z"/><path class="cls-1" d="M880.38-7.71c.25,0,1.65,6.62.35,14.72-1.2,7.46-4.18,13-4.41,13S879,14.7,880.18,6.58C881.46-1.85,880.15-7.71,880.38-7.71Z"/><path class="cls-1" d="M870.69-1c.22,0,1.2,5.93-.3,13-1.39,6.55-4.31,11.34-4.51,11.28s2.59-4.56,4-11.68C871.41,4.19,870.48-1,870.69-1Z"/><path class="cls-1" d="M862.11,3.3c.26,0,1.73,4.46.41,9.62-1.23,4.77-4.32,8.15-4.57,8.09s2.74-3.22,4-8.41C863.25,7.21,861.87,3.28,862.11,3.3Z"/><path class="cls-1" d="M843.14-.32c0-.25,5.39-2.31,12.21-1.69,6.29.57,11.14,3.19,11.11,3.43S861.87-.85,855-1.4C847.94-2,843.16-.07,843.14-.32Z"/></g><path class="cls-3" d="M257.23,7.4c-17.54-18.81-2.44-36.43,9.53-47.59s27.46-21,45-2.17,25.49,57.27,13.52,68.43S274.77,26.21,257.23,7.4Z"/><path class="cls-1" d="M267.57-36.6c.36-.43,16.1,9.89,30.85,27.66C312,7.45,319.09,23.3,318.63,23.59s-7-14.71-21.9-32.4C281.26-27.19,267.22-36.2,267.57-36.6Z"/><path class="cls-1" d="M297.83,31.34c-.41.07-4.71-9.35-5-21.79-.31-11.46,2.88-20.68,3.28-20.66S293.36-2.43,293.81,10C294.29,22.94,298.21,31.27,297.83,31.34Z"/><path class="cls-1" d="M287.18,27.46c-.47.07-5.17-10.7-5.11-24.76.05-13,4.12-23.28,4.59-23.25s-3.49,9.73-3.41,23.81C283.34,17.88,287.63,27.39,287.18,27.46Z"/><path class="cls-1" d="M273.53,20c-.44,0-3.27-9.5-1.76-24.36,1.39-13.7,6.19-24.16,6.61-24.07s-4.2,9.9-5.58,24.79C271.36,11.83,274,20,273.53,20Z"/><path class="cls-1" d="M308.94,6.18c0-.36,5.71-3.22,13-2.42,6.7.73,11.88,4.27,11.85,4.61s-4.9-3.08-12.17-3.78C314,3.87,309,6.51,308.94,6.18Z"/><path class="cls-1" d="M261.82,11.64c-.47,0-2.86-9.83-.08-23.93,2.56-13,8.49-22.6,8.93-22.48s-5.25,9.1-7.9,23.26C260,3.19,262.26,11.66,261.82,11.64Z"/><path class="cls-1" d="M307.72,32.59c-.34.07-4.19-6.86-4.67-16.22C302.61,7.73,305.22.65,305.56.64s-2.2,6.66-1.62,16C304.55,26.4,308.05,32.52,307.72,32.59Z"/><path class="cls-1" d="M681.6.34c-.18,0-2.3-3.87-2.82-9.18-.48-4.91.62-8.95.79-9a37.78,37.78,0,0,0-.34,9.12A35,35,0,0,0,681.6.34Z"/><path class="cls-1" d="M685.87.58a14,14,0,0,1-2.48-6.81A14.58,14.58,0,0,1,684-13a25,25,0,0,0-.21,6.92A23.7,23.7,0,0,0,685.87.58Z"/><path class="cls-3" d="M809.56-36.41c17.11-2.72,19.26,10.28,19.56,19.7S827.51,3.44,810.39,6.15,770.57.66,770.27-8.75,792.44-33.7,809.56-36.41Z"/><path class="cls-1" d="M822-15.77c.29,0-.08,6.21-4,13.16-3.64,6.4-8.79,10.79-9,10.69s4.66-4.2,8.53-11.18C821.43-10.35,821.68-15.81,822-15.77Z"/><path class="cls-1" d="M814.45-13.85c.24.07-1.71,6.5-7,13.44C802.59,6,796.92,10.14,796.72,10s5.19-4,10.42-11C812.57-8.21,814.22-13.92,814.45-13.85Z"/><path class="cls-1" d="M806.84-12.5c.18.08-2.07,5.38-7.1,10.85-4.65,5-9.72,8.12-9.86,8a67.4,67.4,0,0,0,9.65-8.49A57.55,57.55,0,0,0,806.84-12.5Z"/><path class="cls-1" d="M796.11-10.85c.16.08-2.05,4.72-6.74,9.4-4.33,4.31-5.45,4.84-5.58,4.73s.75-.47,5.41-5.18A50.91,50.91,0,0,0,796.11-10.85Z"/><g class="cls-2"><path class="cls-3" d="M-12.8,140.48a49.56,49.56,0,0,1,21.94,24c4.83,11.29,4.32,23.78,6,35.73a53,53,0,0,0,5.05,17.3,46.15,46.15,0,0,0,9.65,12.4c8,7.5,17.87,12.7,27.38,18.07a45.93,45.93,0,0,1,8.08,5.15,13.46,13.46,0,0,1,4.39,7.8c1.15,6.25-1.18,12.86-3.31,18.65-.67,1.81,2.22,2.59,2.89.8,2-5.43,3.88-11.22,3.66-17.08a17.93,17.93,0,0,0-2.07-8,18.33,18.33,0,0,0-6-6.25c-4.67-3.19-9.84-5.69-14.73-8.52a118.71,118.71,0,0,1-13.93-9.12A51.06,51.06,0,0,1,25,219.8a43.68,43.68,0,0,1-6.4-16.59c-2.31-12.42-1.31-25.42-5.74-37.42a52.57,52.57,0,0,0-24.15-27.9c-1.7-.92-3.22,1.67-1.52,2.59Z"/><path class="cls-3" d="M13.82,187.59A81.2,81.2,0,0,1,.3,220.22c-1.11,1.58,1.49,3.08,2.6,1.51a83.32,83.32,0,0,0,13.81-33.34c.34-1.89-2.55-2.7-2.89-.8Z"/><path class="cls-3" d="M32.85,232.24c2.48,1.58,5.37.89,8,.07a33.29,33.29,0,0,1,8.55-1.66,31.83,31.83,0,0,1,16.91,3.86c1.69.93,3.21-1.66,1.51-2.59a34.89,34.89,0,0,0-16.75-4.31,34.37,34.37,0,0,0-8.45,1c-2.46.63-5.83,2.54-8.24,1-1.63-1-3.14,1.55-1.52,2.59Z"/><path class="cls-3" d="M60.66,250.07c4.16,1.92,8.61,2,13.1,1.71s9.06-.52,13.59.48c9.13,2,17.07,7.33,23.94,13.5,4.06,3.65,7.83,7.6,11.6,11.56,1.33,1.4,3.45-.72,2.12-2.12-6.62-7-13.35-14-21.49-19.21-7.85-5-16.69-7.9-26-7.44-5,.25-10.53,1.13-15.29-1.07-1.74-.8-3.27,1.78-1.52,2.59Z"/><path class="cls-3" d="M11.84,170.82c4.22,5.25,8.51,10.44,14,14.38a44.59,44.59,0,0,0,17.5,7.47c1.89.36,2.69-2.53.8-2.89a42.53,42.53,0,0,1-16.79-7.17C22.1,178.84,18,173.72,14,168.7c-1.21-1.51-3.32.63-2.12,2.12Z"/><path class="cls-3" d="M23,221.77a27.61,27.61,0,0,1,5,7.41C29.35,232,29.81,235,30.46,238c.7,3.25,2.95,5.54,5.19,7.83a95.32,95.32,0,0,0,7.4,6.82c1.47,1.23,3.61-.88,2.12-2.12a99.44,99.44,0,0,1-7.4-6.82,28.68,28.68,0,0,1-3.24-3.64A11.25,11.25,0,0,1,33,235.45a30.35,30.35,0,0,0-7.92-15.8c-1.33-1.4-3.45.72-2.12,2.12Z"/></g><g class="cls-2"><path class="cls-3" d="M75.27,410.91c2.58-1.71,3.18-4.61,3.5-7.49a39.51,39.51,0,0,1,1.94-9.13A34.21,34.21,0,0,1,92,378.91c1.52-1.19-.62-3.29-2.12-2.12a36.74,36.74,0,0,0-11.32,14.88,36.15,36.15,0,0,0-2.46,9c-.32,2.37,0,6.14-2.31,7.64-1.61,1.06-.1,3.66,1.51,2.59Z"/><path class="cls-3" d="M104.81,391c3.41-3,5.27-7.22,6.83-11.41,1.61-4.35,3.09-8.63,5.67-12.52,5.51-8.27,14-14,22.86-18.22,5.63-2.7,11.51-4.85,17.37-7,1.79-.66,1-3.56-.8-2.89-10.23,3.76-20.68,7.57-29.58,14a51.22,51.22,0,0,0-10.57,10,45.46,45.46,0,0,0-6.67,12.57c-1.74,4.77-3.32,9.84-7.23,13.33-1.44,1.28.68,3.4,2.12,2.12Z"/></g><g class="cls-2"><path class="cls-3" d="M1141.22,496.15q-24.24-33.81-50.94-65.77c-7.31-8.75-14.91-18.42-25.86-22.7-6-2.35-12.48-2.12-18.81-2.62a30.09,30.09,0,0,1-9.09-1.9,38.05,38.05,0,0,1-8.32-5.11c-12.37-9.29-24.24-19.26-35.67-29.67-1.43-1.3-3.56.82-2.12,2.12q15.21,13.86,31.49,26.48c5,3.89,10.09,8.2,16.34,9.92s12.69,1.05,19,2c11.74,1.75,20,10.7,27.32,19.32q13.34,15.74,26,32,14.43,18.42,28.06,37.46c1.11,1.55,3.72.06,2.59-1.52Z"/><path class="cls-3" d="M1067,408.75A31,31,0,0,1,1055.89,394a38.08,38.08,0,0,1-2.19-9.23c-.36-3.51.12-7,0-10.46-.21-4.27-2.35-7.86-4.64-11.35-1.06-1.6-3.66-.1-2.59,1.52,2.13,3.24,4.2,6.53,4.24,10.53,0,3.54-.32,7,.12,10.5a39,39,0,0,0,6.86,18.13,33,33,0,0,0,7.86,7.73c1.59,1.1,3.09-1.5,1.52-2.59Z"/><path class="cls-3" d="M1028.55,398.16a20.62,20.62,0,0,1-3.3-6c-.68-2.45-.1-5.1-.4-7.61a21.58,21.58,0,0,0-2-6.89c-1-2.06-2.84-4-2.91-6.41-.05-1.93-3.05-1.93-3,0,.07,2.51,1.4,4.47,2.61,6.57a18.25,18.25,0,0,1,2.39,7.61c.2,2.59-.29,5.19.47,7.73a23.66,23.66,0,0,0,3.55,6.55c1.1,1.57,3.7.07,2.59-1.52Z"/><path class="cls-3" d="M1057.52,398.22a46.76,46.76,0,0,0-4.44-7.38,25.54,25.54,0,0,0-6.32-5.49,23.13,23.13,0,0,1-3.28-2.45,15.09,15.09,0,0,1-2.5-3.43c-1.4-2.41-3-4.73-5.78-5.6-1.84-.57-2.63,2.33-.79,2.9,2.55.78,3.57,3.69,4.9,5.73a18.47,18.47,0,0,0,5.62,5.23,23.53,23.53,0,0,1,5.79,4.92,45.1,45.1,0,0,1,4.21,7.08c.89,1.72,3.48.2,2.59-1.51Z"/></g><g id="leaf-13" data-name="leaf" class="cls-4"><path class="cls-5" d="M-8.92,229.88c-11.59-19,4.75-25,17.18-27.9s27.64-3.6,39.23,15.38,11.21,47.38-1.21,50.29S2.67,248.87-8.92,229.88Z"/><polygon class="cls-5" points="-1.04 193.89 1.01 192.74 7.77 203.43 6.85 203.43 -1.04 193.89"/><path class="cls-1" d="M8.28,204.65c.4-.14,12,12.56,21.42,29.82,8.65,15.92,11.76,29,11.3,29s-3.26-12.33-12.78-29.6C18.32,216,7.91,204.79,8.28,204.65Z"/><path class="cls-1" d="M21.6,260.87c-.36-.1-2.3-7.94-.24-16.28,1.89-7.7,6.38-12.59,6.72-12.43s-4,4.72-5.93,13.12C20.13,254,21.94,261,21.6,260.87Z"/><path class="cls-1" d="M13.15,254.33c-.42-.13-2.45-9,.25-18.27,2.48-8.56,7.94-13.85,8.33-13.66s-4.84,5.13-7.42,14.46C11.64,246.56,13.55,254.45,13.15,254.33Z"/><path class="cls-1" d="M2.64,246c-.39-.15-.9-9.21,3.2-18.46,3.78-8.54,9.88-13.66,10.23-13.45s-5.49,5-9.48,14.3C2.44,238.09,3,246.15,2.64,246Z"/><path class="cls-1" d="M12.86,210c-.07-.34,8.32-1.59,19.42,1.07,10.25,2.46,18.5,7.21,18.49,7.52s-7.77-4.23-18.89-6.8C20.33,209.11,12.92,210.31,12.86,210Z"/><path class="cls-1" d="M18.91,218.12c0-.3,9.47.2,21.19,4.4,10.8,3.88,19,9.29,18.9,9.55s-7.74-4.9-19.49-9C27.31,218.75,18.92,218.4,18.91,218.12Z"/><path class="cls-1" d="M24.25,226.52c0-.24,8.14.92,17.78,5.24,8.9,4,15.37,9,15.28,9.19s-6.15-4.56-15.84-8.82C31.42,227.7,24.23,226.75,24.25,226.52Z"/><path class="cls-1" d="M31.45,238.44c0-.21,7.26,1.08,15.68,5.22,7.77,3.82,13.3,8.46,13.2,8.64A99.59,99.59,0,0,0,46.6,244,87.79,87.79,0,0,0,31.45,238.44Z"/><path class="cls-1" d="M35.93,248.39c0-.24,5.53,0,11.64,3.25,5.64,3,9.44,7.27,9.35,7.48s-3.65-3.87-9.79-7.05C40.75,248.77,35.88,248.62,35.93,248.39Z"/><path class="cls-1" d="M-6.07,235.68c-.4-.19-.3-8.85,4.75-17.14C3.34,210.9,10.26,206.78,10.62,207S4.38,211.08-.57,219.45C-5.71,228.14-5.69,235.86-6.07,235.68Z"/><path class="cls-1" d="M29.9,265.4c-.31-.09-2.32-6.1-1-12.47,1.24-5.87,4.82-9.58,5.12-9.46s-3.15,3.58-4.41,10C28.33,260.12,30.2,265.47,29.9,265.4Z"/></g><g id="leaf-14" data-name="leaf" class="cls-4"><path class="cls-5" d="M45.22,345.74c4-6.57-1.69-8.6-6-9.58s-9.53-1.18-13.49,5.38-3.76,16.35.53,17.32S41.27,352.3,45.22,345.74Z"/><polygon class="cls-5" points="42.43 333.36 41.72 332.96 39.42 336.66 39.74 336.66 42.43 333.36"/><path class="cls-1" d="M39.24,337.08a46.28,46.28,0,0,0-7.31,10.32c-2.95,5.5-4,10-3.84,10a65.34,65.34,0,0,1,4.35-10.22A77.36,77.36,0,0,1,39.24,337.08Z"/><path class="cls-1" d="M34.77,356.48a10.39,10.39,0,0,0,0-5.61,8.18,8.18,0,0,0-2.34-4.27,14.58,14.58,0,0,1,2.07,4.51A16.71,16.71,0,0,1,34.77,356.48Z"/><path class="cls-1" d="M37.67,354.21a11.29,11.29,0,0,0-.12-6.3,9.18,9.18,0,0,0-2.9-4.68,15.74,15.74,0,0,1,2.58,5A18.17,18.17,0,0,1,37.67,354.21Z"/><path class="cls-1" d="M41.27,351.32A12.1,12.1,0,0,0,40.13,345a10.83,10.83,0,0,0-3.55-4.61,19.12,19.12,0,0,1,3.3,4.9A19.86,19.86,0,0,1,41.27,351.32Z"/><path class="cls-1" d="M37.68,338.93c0-.12-2.87-.53-6.69.41A20.79,20.79,0,0,0,24.64,342a36.51,36.51,0,0,1,6.49-2.38A26.71,26.71,0,0,1,37.68,338.93Z"/><path class="cls-1" d="M35.61,341.74a21.9,21.9,0,0,0-7.29,1.57,25.7,25.7,0,0,0-6.49,3.32,47,47,0,0,1,6.69-3.15A39.46,39.46,0,0,1,35.61,341.74Z"/><path class="cls-1" d="M33.79,344.65a19.72,19.72,0,0,0-6.12,1.84,22.07,22.07,0,0,0-5.24,3.2,40,40,0,0,1,5.44-3.07A34.3,34.3,0,0,1,33.79,344.65Z"/><path class="cls-1" d="M31.33,348.77a17.82,17.82,0,0,0-5.39,1.83,19.11,19.11,0,0,0-4.53,3,34.45,34.45,0,0,1,4.71-2.89A30.48,30.48,0,0,1,31.33,348.77Z"/><path class="cls-1" d="M29.81,352.21a8.16,8.16,0,0,0-4,1.14A9.91,9.91,0,0,0,22.6,356,17.37,17.37,0,0,1,26,353.5,14.12,14.12,0,0,1,29.81,352.21Z"/><path class="cls-1" d="M44.25,347.74a11.22,11.22,0,0,0-5.81-9.83,17.15,17.15,0,0,1,3.88,4.25A16.56,16.56,0,0,1,44.25,347.74Z"/><path class="cls-1" d="M31.92,358.05a7.33,7.33,0,0,0,.31-4.29,5.75,5.75,0,0,0-1.78-3.25A10,10,0,0,1,32,353.94,11.69,11.69,0,0,1,31.92,358.05Z"/></g><g id="leaf-15" data-name="leaf" class="cls-4"><path class="cls-5" d="M1074.23,358c2.58-6.64-2.91-7.62-7-7.83s-8.92.42-11.51,7.06-.86,15.57,3.22,15.79S1071.64,364.61,1074.23,358Z"/><polygon class="cls-5" points="1069.72 347.06 1069 346.81 1067.47 350.57 1067.77 350.51 1069.72 347.06"/><path class="cls-1" d="M1067.38,351a43.21,43.21,0,0,0-5.07,10.61c-1.83,5.51-2.07,9.82-1.93,9.8a60.25,60.25,0,0,1,2.37-10.06A72.13,72.13,0,0,1,1067.38,351Z"/><path class="cls-1" d="M1066.35,369.46a9.73,9.73,0,0,0-.84-5.15,7.69,7.69,0,0,0-2.82-3.54,13.74,13.74,0,0,1,2.61,3.8A15.54,15.54,0,0,1,1066.35,369.46Z"/><path class="cls-1" d="M1068.65,366.92a10.57,10.57,0,0,0-1.11-5.75,8.44,8.44,0,0,0-3.4-3.83,14.82,14.82,0,0,1,3.16,4.14A16.65,16.65,0,0,1,1068.65,366.92Z"/><path class="cls-1" d="M1071.49,363.7a11.22,11.22,0,0,0-2-5.64,10.07,10.07,0,0,0-4-3.66,17.93,17.93,0,0,1,3.79,4A18.12,18.12,0,0,1,1071.49,363.7Z"/><path class="cls-1" d="M1066.24,352.92a14.06,14.06,0,0,0-6.07,1.43,19.46,19.46,0,0,0-5.4,3.42,32.24,32.24,0,0,1,5.57-3.21A25.15,25.15,0,0,1,1066.24,352.92Z"/><path class="cls-1" d="M1064.79,355.83a20.07,20.07,0,0,0-6.43,2.58,24.76,24.76,0,0,0-5.43,4.07,44,44,0,0,1,5.64-3.94A34.84,34.84,0,0,1,1064.79,355.83Z"/><path class="cls-1" d="M1063.58,358.78a18.26,18.26,0,0,0-5.31,2.65,20.54,20.54,0,0,0-4.3,3.76,37.36,37.36,0,0,1,4.49-3.67A31.66,31.66,0,0,1,1063.58,358.78Z"/><path class="cls-1" d="M1062,362.94a16.47,16.47,0,0,0-4.65,2.53,18.2,18.2,0,0,0-3.68,3.47,32.31,32.31,0,0,1,3.86-3.4A27.8,27.8,0,0,1,1062,362.94Z"/><path class="cls-1" d="M1061.13,366.33a7.74,7.74,0,0,0-3.49,1.68,9.37,9.37,0,0,0-2.53,2.89,16.49,16.49,0,0,1,2.69-2.78A13.15,13.15,0,0,1,1061.13,366.33Z"/><path class="cls-1" d="M1073.66,360a9.58,9.58,0,0,0-2.47-5.14,9.45,9.45,0,0,0-4.41-3,16.52,16.52,0,0,1,4.23,3.29A15.39,15.39,0,0,1,1073.66,360Z"/><path class="cls-1" d="M1064,371.35a6.88,6.88,0,0,0-.4-4,5.4,5.4,0,0,0-2.14-2.7,9.65,9.65,0,0,1,2,2.91A10.8,10.8,0,0,1,1064,371.35Z"/></g><g id="leaf-16" data-name="leaf" class="cls-4"><path class="cls-5" d="M1034.94,302.43c-4.61-8.18,2.37-10.48,7.66-11.53s11.73-1.12,16.35,7.07,4,20.17-1.25,21.22S1039.56,310.62,1034.94,302.43Z"/><polygon class="cls-5" points="1038.79 287.35 1039.68 286.9 1042.38 291.51 1041.98 291.49 1038.79 287.35"/><path class="cls-1" d="M1042.57,292c.17,0,4.9,5.48,8.61,12.91,3.43,6.84,4.55,12.43,4.35,12.43a77.18,77.18,0,0,0-5-12.69A92.86,92.86,0,0,0,1042.57,292Z"/><path class="cls-1" d="M1047.38,316a13,13,0,0,1,.13-6.88c.91-3.22,2.88-5.23,3-5.15a18.19,18.19,0,0,0-2.69,5.45A20.62,20.62,0,0,0,1047.38,316Z"/><path class="cls-1" d="M1043.91,313.08c-.18-.06-.91-3.84.37-7.71,1.17-3.58,3.55-5.73,3.72-5.65a19.71,19.71,0,0,0-3.35,6A21.73,21.73,0,0,0,1043.91,313.08Z"/><path class="cls-1" d="M1039.59,309.41c-.16-.06-.25-3.9,1.62-7.75,1.72-3.55,4.37-5.62,4.51-5.52a23.85,23.85,0,0,0-4.21,5.9A24.32,24.32,0,0,0,1039.59,309.41Z"/><path class="cls-1" d="M1044.43,294.35c0-.14,3.54-.55,8.19.74a25.41,25.41,0,0,1,7.69,3.44,43.85,43.85,0,0,0-7.88-3.14A32.51,32.51,0,0,0,1044.43,294.35Z"/><path class="cls-1" d="M1046.87,297.87a27.3,27.3,0,0,1,8.88,2.17,31.87,31.87,0,0,1,7.84,4.31,56.24,56.24,0,0,0-8.1-4.1A47.42,47.42,0,0,0,1046.87,297.87Z"/><path class="cls-1" d="M1049,301.5a24.33,24.33,0,0,1,7.43,2.47,27.2,27.2,0,0,1,6.32,4.1,48.35,48.35,0,0,0-6.56-3.95A41.17,41.17,0,0,0,1049,301.5Z"/><path class="cls-1" d="M1051.86,306.64a21.46,21.46,0,0,1,6.55,2.43,23.25,23.25,0,0,1,5.45,3.84,41.43,41.43,0,0,0-5.68-3.72A36.41,36.41,0,0,0,1051.86,306.64Z"/><path class="cls-1" d="M1053.61,310.91a9.86,9.86,0,0,1,4.87,1.54,12.23,12.23,0,0,1,3.84,3.29,20.74,20.74,0,0,0-4-3.12A17.08,17.08,0,0,0,1053.61,310.91Z"/><path class="cls-1" d="M1036.06,304.93c-.17-.09,0-3.75,2.26-7.17,2.08-3.16,5.06-4.8,5.21-4.69a21.19,21.19,0,0,0-4.91,5.08A20.42,20.42,0,0,0,1036.06,304.93Z"/><path class="cls-1" d="M1050.82,318a9.13,9.13,0,0,1-.23-5.28,7,7,0,0,1,2.3-3.92,12.27,12.27,0,0,0-2,4.16A14.18,14.18,0,0,0,1050.82,318Z"/></g><g id="leaf-17" data-name="leaf" class="cls-4"><path class="cls-5" d="M42.11,282.77c1.34-9.45,8.39-7,13.29-4.56s10.14,6.35,8.81,15.8S55,312.76,50.09,310.33,40.77,292.22,42.11,282.77Z"/><polygon class="cls-5" points="54.53 273 55.52 273.18 54.84 278.56 54.54 278.31 54.53 273"/><path class="cls-1" d="M54.68,279.11c.17.06.57,7.44-1,15.71-1.48,7.63-4,12.83-4.18,12.71a80.64,80.64,0,0,0,3.84-13.29A94.83,94.83,0,0,0,54.68,279.11Z"/><path class="cls-1" d="M43.77,301.36a13,13,0,0,1,4.36-5.46,10.41,10.41,0,0,1,5.61-2.29,18.57,18.57,0,0,0-5.54,2.74A20.42,20.42,0,0,0,43.77,301.36Z"/><path class="cls-1" d="M42.75,296.89a14.1,14.1,0,0,1,5.07-6c3.15-2.15,6.4-2.42,6.48-2.25a20.07,20.07,0,0,0-6.4,2.77A22.37,22.37,0,0,0,42.75,296.89Z"/><path class="cls-1" d="M41.54,291.27c-.09-.16,2.21-3.3,6.09-5.25,3.58-1.79,7-1.83,7.06-1.66a23.86,23.86,0,0,0-7,2.15A24.43,24.43,0,0,0,41.54,291.27Z"/><path class="cls-1" d="M54.74,282.12c.07-.13,3.19,1.74,6.15,5.65A26,26,0,0,1,65,295.3a45,45,0,0,0-4.4-7.4A33,33,0,0,0,54.74,282.12Z"/><path class="cls-1" d="M54.53,286.46c.08-.1,3.08,2.65,5.82,7.24A32.31,32.31,0,0,1,64,302a57.49,57.49,0,0,0-4-8.3A47.88,47.88,0,0,0,54.53,286.46Z"/><path class="cls-1" d="M54,290.7a24.62,24.62,0,0,1,4.46,6.59,27.78,27.78,0,0,1,2.56,7.2,49.57,49.57,0,0,0-2.84-7.23A43.62,43.62,0,0,0,54,290.7Z"/><path class="cls-1" d="M53.15,296.61a22.13,22.13,0,0,1,3.77,6,24.3,24.3,0,0,1,2,6.46,43,43,0,0,0-2.28-6.5A38.53,38.53,0,0,0,53.15,296.61Z"/><path class="cls-1" d="M51.92,301.13a10.24,10.24,0,0,1,3,4.25,12.74,12.74,0,0,1,1.06,5,21.92,21.92,0,0,0-1.33-5A17.46,17.46,0,0,0,51.92,301.13Z"/><path class="cls-1" d="M41.47,285.47c-.08-.17,2.31-3,6.25-4.38,3.62-1.26,7-.74,7.09-.56a21.68,21.68,0,0,0-7.09,1.06A20.62,20.62,0,0,0,41.47,285.47Z"/><path class="cls-1" d="M45.28,305.12a9.29,9.29,0,0,1,3.08-4.39A7.1,7.1,0,0,1,52.63,299a12.6,12.6,0,0,0-4.18,2.11A14.77,14.77,0,0,0,45.28,305.12Z"/></g></g><g id="text"><text class="cls-6" transform="translate(300.36 178.65)">O<tspan class="cls-7" x="52.3" y="0">UR</tspan><tspan x="0" y="66.52">R</tspan><tspan class="cls-8" x="53.13" y="66.52">ESOURCES.</tspan></text></g></svg>