<svg id="Layer_1" data-name="Layer 1" xmlns="http://www.w3.org/2000/svg" viewBox="0 0 2159 940"><defs><style>.cls-1{fill:#fff;}.cls-2{fill:#4f6d7a;}.cls-3{fill:#a3b9c9;}</style></defs><rect class="cls-1" width="2159" height="1080"/><path class="cls-2" d="M2789.63,763.49c-22.49-78.46-104.34-137.42-194.5-171.44-96.74-36.5-205.13-50.8-307.12-77.83-37.6-10-77.31-23.78-94.38-52.52-21-35.38.27-80,29-114.44s65.72-66.1,80.83-105.32c18.36-47.68-.07-99.26-36.91-136.09S2176.62,45.17,2121.5,28C1961.05-21.86,1747.36-9.32,1634,106c-61.3,62.32-99.49,155.08-193.79,170.78-92.84,15.45-159.73-57.29-235.83-97.43-113.92-60.08-281.23-37.22-386.73,39.89-56.71,41.45-85.53,100.65-139.1,144-27.23,22-60.56,39.71-98.39,43.85C481.42,417.86,415.59,338.44,333,298.88,195.75,233.17,5.29,283.52-125,371.76c-51.82,35.11-99.12,77.16-123.79,127.54S-272,609.47-232.95,649.78c48.15,49.7,147.78,69,158.93,133,8,46.07-36.94,89.55-82.61,121-77.35,53.26-166.23,94.26-243,148.07S-543,1177.7-549.74,1257.42c-9,106.72,95.93,197.16,219.63,226.49C-204.45,1513.7-66,1493,66.46,1472.18l2223.09-349.55c126.13-19.83,257.63-41.55,362.49-105.51,91.33-55.72,156.24-148.07,141.55-236.15A157.52,157.52,0,0,0,2789.63,763.49Z"/><path class="cls-3" d="M2857.29,763.27c-22.49-78.46-104.34-137.42-194.5-171.44-96.74-36.5-205.13-50.8-307.12-77.83-37.6-10-77.31-23.78-94.38-52.52-21-35.38.27-80,29-114.44s65.72-66.1,80.83-105.32c18.36-47.68-.07-99.26-36.91-136.09S2244.28,45,2189.16,27.81C2028.71-22.08,1815-9.54,1701.65,105.73c-61.3,62.32-99.5,155.08-193.79,170.78C1415,292,1348.13,219.22,1272,179.09,1158.11,119,990.8,141.86,885.29,219c-56.7,41.44-85.52,100.64-139.09,144-27.23,22-60.56,39.71-98.39,43.85-98.73,10.8-164.56-68.62-247.19-108.18C263.4,233,72.94,283.3-57.32,371.54c-51.82,35.11-99.12,77.16-123.79,127.54s-23.23,110.17,15.82,150.48c48.15,49.7,147.78,69,158.93,133,8,46.07-36.94,89.55-82.61,121-77.35,53.26-166.23,94.26-243,148.07s-143.36,125.81-150.09,205.53c-9,106.72,95.93,197.16,219.63,226.49,125.66,29.79,264.06,9.1,396.57-11.73l2223.09-349.55c126.13-19.83,257.63-41.55,362.48-105.51,91.34-55.71,156.25-148.07,141.56-236.15A157.52,157.52,0,0,0,2857.29,763.27Z"/></svg>