<svg id="Layer_1" data-name="Layer 1" xmlns="http://www.w3.org/2000/svg" xmlns:xlink="http://www.w3.org/1999/xlink" viewBox="0 0 2159 1080"><defs><style>.cls-1{fill:none;}.cls-2{clip-path:url(#clip-path);}.cls-3{fill:url(#linear-gradient);}</style><clipPath id="clip-path"><rect class="cls-1" width="2159" height="1080"/></clipPath><linearGradient id="linear-gradient" x1="672.37" y1="311.22" x2="2150.64" y2="1465.44" gradientTransform="matrix(1.65, -0.26, 0.21, 1.33, -1363.66, 24.78)" gradientUnits="userSpaceOnUse"><stop offset="0.26" stop-color="#4f6d7a"/><stop offset="0.72" stop-color="#4f6d7a"/></linearGradient></defs><g class="cls-2"><path class="cls-3" d="M2857.29,763.27c-22.49-78.46-104.34-137.42-194.5-171.44-96.74-36.5-205.13-50.8-307.12-77.83-37.6-10-77.31-23.78-94.38-52.52-21-35.38.27-80,29-114.44s65.72-66.1,80.83-105.32c18.36-47.68-.07-99.26-36.91-136.09S2244.28,45,2189.16,27.81C2028.71-22.08,1815-9.54,1701.65,105.73c-61.3,62.32-99.5,155.08-193.79,170.78C1415,292,1348.13,219.22,1272,179.09,1158.11,119,990.8,141.86,885.29,219c-56.7,41.44-85.52,100.64-139.09,144-27.23,22-60.56,39.71-98.39,43.85-98.73,10.8-164.56-68.62-247.19-108.18C263.4,233,72.94,283.3-57.32,371.54c-51.82,35.11-99.12,77.16-123.79,127.54s-23.23,110.17,15.82,150.48c48.15,49.7,147.78,69,158.93,133,8,46.07-36.94,89.55-82.61,121-77.35,53.26-166.23,94.26-243,148.07s-143.36,125.81-150.09,205.53c-9,106.72,95.93,197.16,219.63,226.49,125.66,29.79,264.06,9.1,396.57-11.73l2223.09-349.55c126.13-19.83,257.63-41.55,362.48-105.51,91.34-55.71,156.25-148.07,141.56-236.15A157.52,157.52,0,0,0,2857.29,763.27Z"/></g></svg>