<svg id="Layer_1" data-name="Layer 1" xmlns="http://www.w3.org/2000/svg" viewBox="0 0 20 9.55"><defs><style>.cls-1{fill:#a3b9c9;}.cls-2,.cls-3{fill:#4a7233;}.cls-3{isolation:isolate;font-size:1.89px;font-family:Viga-Regular, Viga;}</style></defs><path class="cls-1" d="M11.12,2.89V5.65a.3.3,0,0,1-.31.3h0a.31.31,0,0,1-.32-.3V2.89a.31.31,0,0,0-.32-.3H9.81a.31.31,0,0,0-.31.3V5.65a.31.31,0,0,1-.32.3h0a.31.31,0,0,1-.32-.3V2.89a.31.31,0,0,0-.32-.3H7.68A.3.3,0,0,0,7.37,3L8,6.31A.86.86,0,0,0,8.86,7H11.1A.88.88,0,0,0,12,6.32L12.62,3a.3.3,0,0,0-.31-.36h-.87A.31.31,0,0,0,11.12,2.89Z"/><circle class="cls-1" cx="16.53" cy="3.47" r="3.47"/><path class="cls-2" d="M18.13,5.42a2.38,2.38,0,0,1-.56.35l-.05-.32-.67.86.92.68,0-.24a3.31,3.31,0,0,0,1-.58,3.48,3.48,0,0,0,.74-4.5l-.75.63A2.5,2.5,0,0,1,18.13,5.42Z"/><path class="cls-2" d="M14.93,1.57a2.5,2.5,0,0,1,3.16,0l-.18.14L19,1.81,19.11.68l-.27.23A3.47,3.47,0,0,0,14.31.82a3.56,3.56,0,0,0-.81,1l.92.35A2.15,2.15,0,0,1,14.93,1.57Z"/><path class="cls-2" d="M14.6,5.09a2.47,2.47,0,0,1-.55-1.95l.23.1-.34-1-1.07.37.29.14h0A3.47,3.47,0,0,0,16.75,7l-.16-1A2.48,2.48,0,0,1,14.6,5.09Z"/><circle class="cls-1" cx="3.47" cy="3.47" r="3.47"/><path class="cls-2" d="M5.43.63l-.06,0Z"/><path class="cls-2" d="M5.68.82l0,0Z"/><path class="cls-2" d="M4,.06H4Z"/><path class="cls-2" d="M5.56.72l0,0Z"/><path class="cls-2" d="M5.3.54l-.06,0Z"/><path class="cls-2" d="M4.67.23h0Z"/><path class="cls-2" d="M4.86.31l-.05,0Z"/><path class="cls-2" d="M5,.39,5,.36Z"/><path class="cls-2" d="M5.16.46,5.1.43Z"/><path class="cls-2" d="M3.81,0h0Z"/><path class="cls-2" d="M4.51.18h0Z"/><path class="cls-2" d="M3,.05H3Z"/><path class="cls-2" d="M2.63.13l.15,0Z"/><path class="cls-2" d="M3.21,0h0Z"/><path class="cls-2" d="M2.82.08,3,.06Z"/><path class="cls-2" d="M3.64,0h0Z"/><path class="cls-2" d="M2.45.18l.16,0Z"/><path class="cls-2" d="M0,3.17a.81.81,0,0,1,0,.16.76.76,0,0,0,0-.15l.15.64.3.45L.37,4.6c0,1.48,2.08,2.21,2.16,2.23a3.64,3.64,0,0,1-.65-.25,4.77,4.77,0,0,0,.66.26l0-.28-.1-.34a1.57,1.57,0,0,1,.19-.48.51.51,0,0,0,0-.42A9.3,9.3,0,0,1,2,4.6a.7.7,0,0,0-.73-.33s-.65,0-.72-.54.58-.55.58-.55l.34.64a.42.42,0,0,0,.14-.41c0-.3,0-.46,0-.46A1.72,1.72,0,0,0,2,2.44,1.72,1.72,0,0,1,2.35,2l.32-.35s-.19-.27-.28-.29-.3.29-.3.29a.86.86,0,0,1-.53-.2A2.35,2.35,0,0,0,1,1H1A4.52,4.52,0,0,0,0,3.17Z"/><path class="cls-2" d="M1,1H1A3.46,3.46,0,0,1,2.45.18,3.38,3.38,0,0,0,.83,1.25,2.09,2.09,0,0,1,1,1Z"/><path class="cls-2" d="M6.89,2.89a1.1,1.1,0,0,1,0,.18A1.1,1.1,0,0,0,6.89,2.89Z"/><path class="cls-2" d="M6.94,3.49v0Z"/><path class="cls-2" d="M6.92,3.1s0,.1,0,.16S6.92,3.15,6.92,3.1Z"/><path class="cls-2" d="M6.93,3.74a.62.62,0,0,1,0,.13A.62.62,0,0,0,6.93,3.74Z"/><path class="cls-2" d="M5.34.81a3.62,3.62,0,0,1-.58.39s-.48.23-.46.41c0,0,.28.37.52.28a.4.4,0,0,1-.13.42s-.53-.14-.39.25c0,0,.14.64.51.46,0,0,.34-.55.53-.46,0,0,.53-.09.67.14a.37.37,0,0,1-.33.23l-.54.12a2.87,2.87,0,0,0-.72.22.66.66,0,0,0-.28.37s-.23.12,0,.53c0,0,0,.49.62.43,0,0,.35-.12.35.23A5.89,5.89,0,0,0,4.79,6.2l.07.23a7.13,7.13,0,0,0,1.7-1.36c.05-.09.09-.18.13-.27L6.61,5a3.84,3.84,0,0,0,.24-2.27h0v0a6.25,6.25,0,0,0-.35-.87,3.42,3.42,0,0,0-.81-1Z"/><path class="cls-2" d="M6.49,1.78a3.68,3.68,0,0,1,.35.87v0A3.53,3.53,0,0,0,6.49,1.78Z"/><path class="cls-2" d="M6.85,2.69a1.29,1.29,0,0,0,0,.19A1.29,1.29,0,0,1,6.85,2.69Z"/><path class="cls-2" d="M6.94,3.3v0Z"/><path class="cls-2" d="M6.9,4.05s0-.08,0-.12S6.9,4,6.9,4.05Z"/><path class="cls-2" d="M6.86,4.24l0-.13Z"/><path class="cls-2" d="M4.3.12l.06,0Z"/><path class="cls-2" d="M4.19,6.89,4,6.93Z"/><path class="cls-2" d="M4.87,6.67a2.86,2.86,0,0,1-.41.15A2.86,2.86,0,0,0,4.87,6.67Z"/><path class="cls-2" d="M4.13.09h0Z"/><path class="cls-2" d="M4.41,6.83l-.17,0Z"/><path class="cls-2" d="M6.82,4.42l0-.13Z"/><path class="cls-2" d="M6.76,4.6a.57.57,0,0,0,0-.14A.57.57,0,0,1,6.76,4.6Z"/><path class="cls-2" d="M6.69,4.78l.06-.15Z"/><path class="cls-2" d="M3.2,7,3,6.93Z"/><path class="cls-2" d="M1.76,6.51l.12.07Z"/><path class="cls-2" d="M1,5.92,1.07,6Z"/><path class="cls-2" d="M0,3.66v0S0,3.68,0,3.66Z"/><path class="cls-2" d="M1.2,6.12a3.44,3.44,0,0,0,.55.39A3.44,3.44,0,0,1,1.2,6.12Z"/><path class="cls-2" d="M.64,1.49.56,1.6Z"/><path class="cls-2" d="M.83,1.25l-.09.11A.48.48,0,0,1,.83,1.25Z"/><path class="cls-2" d="M1.1,6a.6.6,0,0,0,.08.08A.6.6,0,0,1,1.1,6Z"/><path class="cls-2" d="M.56,1.61a4,4,0,0,0-.39.8A4,4,0,0,1,.56,1.61Z"/><path class="cls-2" d="M.73,1.37a.44.44,0,0,0-.08.11A.44.44,0,0,1,.73,1.37Z"/><path class="cls-2" d="M.17,2.42l0,.13Z"/><path class="cls-2" d="M5.86,6a3.17,3.17,0,0,1-.35.29A3.17,3.17,0,0,0,5.86,6Z"/><path class="cls-2" d="M5.49,6.32l-.17.11Z"/><path class="cls-2" d="M5.87,6a3.36,3.36,0,0,0,.69-.93A3.36,3.36,0,0,1,5.87,6Z"/><path class="cls-2" d="M5.3,6.44l-.2.12Z"/><path class="cls-2" d="M3.47,7h0Z"/><path class="cls-2" d="M3.47,7h0Z"/><path class="cls-2" d="M5.09,6.56l-.18.09Z"/><path class="cls-2" d="M3.76,7l.18,0Z"/><path class="cls-2" d="M0,3.82v0Z"/><path class="cls-2" d="M.2,4.66a.14.14,0,0,1,0,.06A.14.14,0,0,0,.2,4.66Z"/><path class="cls-2" d="M.4,5.1a.54.54,0,0,0,0,.11A.54.54,0,0,1,.4,5.1Z"/><path class="cls-2" d="M.49,5.27s0,.05,0,.08Z"/><path class="cls-2" d="M.26,4.81l0,.06Z"/><path class="cls-2" d="M.32,5,.35,5Z"/><path class="cls-2" d="M.74,5.64,1,5.91Z"/><path class="cls-2" d="M.66,5.52a.35.35,0,0,0,0,.08A.35.35,0,0,1,.66,5.52Z"/><path class="cls-2" d="M.57,5.4l.05.07Z"/><path class="cls-2" d="M3,6.93a3.12,3.12,0,0,1-.44-.09A3.12,3.12,0,0,0,3,6.93Z"/><path class="cls-2" d="M.12,2.57l0,.13Z"/><path class="cls-2" d="M.17,4.57l0-.06Z"/><path class="cls-2" d="M0,3s0,.09,0,.13S0,3.08,0,3Z"/><path class="cls-2" d="M.08,2.73a.5.5,0,0,1,0,.12Z"/><path class="cls-2" d="M.05,2.88A.51.51,0,0,1,0,3,.59.59,0,0,0,.05,2.88Z"/><path class="cls-2" d="M.11,4.36v0Z"/><path class="cls-2" d="M.06,4.15v0Z"/><path class="cls-2" d="M0,4V4Z"/><path class="cls-2" d="M10.8,1.82h0a.2.2,0,0,0-.2-.21H9.35a.2.2,0,0,0-.2.21h0A.21.21,0,0,1,9,2H7.31a.2.2,0,0,0-.2.21v0a.2.2,0,0,0,.2.21h5.34a.2.2,0,0,0,.2-.21v0a.2.2,0,0,0-.2-.21H11A.21.21,0,0,1,10.8,1.82ZM10.47,2H9.41a.12.12,0,0,1-.11-.12h0a.11.11,0,0,1,.11-.12h1.06a.11.11,0,0,1,.11.12h0A.12.12,0,0,1,10.47,2Z"/><text class="cls-3" transform="translate(0.57 8.92) scale(0.8 1)">Orlando Waste Organization</text></svg>