<?xml version="1.0" encoding="utf-8"?>
<!-- Generator: Adobe Illustrator 24.1.0, SVG Export Plug-In . SVG Version: 6.00 Build 0)  -->
<svg version="1.1" id="Layer_1" xmlns="http://www.w3.org/2000/svg" xmlns:xlink="http://www.w3.org/1999/xlink" x="0px" y="0px"
	 viewBox="0 0 1080 1080" style="enable-background:new 0 0 1080 1080;" xml:space="preserve">
<style type="text/css">
	.st0{fill:#32454C;}
	.st1{fill:#78AF54;}
	.st2{fill:#649345;}
	.st3{fill:#527A38;}
	.st4{fill:#4A7233;}
	.st5{fill:#FFFFFF;}
	.st6{font-family:'Montserrat-Black';}
	.st7{font-size:115.8597px;}
	.st8{letter-spacing:2;}
	.st9{font-family:'Montserrat-Light';}
	.st10{font-size:46.3439px;}
</style>
<rect class="st0" width="1080" height="1080"/>
<g>
	<g>
		<g>
			<circle class="st1" cx="540" cy="540" r="426.8"/>
		</g>
		<g>
			<circle class="st2" cx="540.4" cy="540.4" r="369"/>
		</g>
		<g>
			<circle class="st3" cx="539.8" cy="539.8" r="305.6"/>
		</g>
		<g>
			<circle class="st4" cx="541.2" cy="541.1" r="249.9"/>
		</g>
		<g>
			<path class="st3" d="M556,839c-42.2-31.2-66.5-85.1-62-137.5c3.8-43.6,25.9-87.1,14.7-129.4c41.8,29.9,70.6,77.4,77.9,128.2
				s-7,104.5-38.6,145"/>
		</g>
		<g>
			<path class="st1" d="M404.2,922c41.4-32.3,64.3-86.8,58.5-139c-4.9-43.5-28.1-86.4-18-129c-41,31-68.6,79.1-74.6,130.2
				s9.6,104.3,42.3,143.9"/>
		</g>
		<g>
			<path class="st2" d="M694.5,865c-43.2-29.8-69.4-82.9-66.6-135.3c2.3-43.7,23-87.9,10.4-129.8c42.7,28.5,73.1,75,82.1,125.5
				c9,50.6-3.5,104.7-33.7,146.2"/>
		</g>
		<g>
			<path class="st2" d="M840.7,357.1c-14,10.3-22.2,26.6-29.8,42.2c-16.9,34.7-20.6,52.5-54,78.3c-18,18-45.9-31.1-79.4-47.6
				c-14.1-6.9-29.1-12.4-41.6-21.9c-15.9-12-26.6-29.7-42.2-42.1c-15.6-12.4-40.3-17.9-54.3-3.7c-10,10.2-10.4,26-11.6,40.2
				c-1.2,14.2-5.4,30.5-18.4,36.2c-12.6,5.4-26.7-1.8-39-7.7c-12.3-6-28.6-10.3-38.6-0.8c-6.7,6.4-7.6,16.5-10.2,25.4
				c-5.6,18.8-21.4,34.2-40.3,39.4c-12.6-12.3-25.5-24.7-41.4-32.3c-15.9-7.6-35.5-9.5-50.7-0.6c-14.1,8.3-25.3,25.6-41.5,23.3
				c-15.1-2.1-21.8-20-24.6-35c-2.9-15-7.2-32.9-21.7-37.8C273.2,315.9,387,252,506.7,241s243.3,31,331.6,112.6
				c4.8,4.4,9.6,9.1,11.7,15.3c2.1,6.1,0.6,14-5,17.2"/>
		</g>
		<g>
			<path class="st1" d="M219.8,261.5c14.9,11,23.6,28.3,31.7,45c18,37,11.7,100.9,37.4,99.6c27.2,7.9,69-49.4,104.7-66.9
				c15-7.4,31-13.2,44.4-23.3c16.9-12.8,28.3-31.7,44.9-44.9c16.6-13.2,43-19.1,57.8-4c10.6,10.8,11.1,27.7,12.3,42.8
				c1.2,15.1,5.7,32.5,19.6,38.5c13.4,5.8,28.4-1.9,41.6-8.2c13.2-6.4,30.5-11,41.1-0.9c7.1,6.8,8,17.6,10.9,27.1
				c6,20,22.8,36.5,43,41.9c13.4-13.1,27.2-26.4,44.1-34.4c16.9-8.1,37.8-10.2,54-0.7c15,8.8,27,27.2,44.2,24.8
				c16.1-2.3,23.2-21.3,26.2-37.3c3.1-16,7.7-35,23.1-40.3c-76.5-102.7-197.8-170.7-325.3-182.4s-259.2,33-353.2,119.9
				c-5.1,4.7-10.2,9.7-12.4,16.3c-2.3,6.5-0.7,14.9,5.3,18.3"/>
			<g>
				<path class="st1" d="M219,262.8c15.2,11.4,24.6,29.7,32.2,46.7c6.3,14.1,9,29.7,11.7,44.8c2.3,13,3.8,26.8,8.9,39.1
					c1.7,4.1,3.9,8.2,7.3,11c3.4,2.8,7.1,2.9,11.2,3.6c11.1,1.9,22-4.6,30.8-10.7c12.6-8.7,24-19.3,35.6-29.3
					c11.5-10,23.3-20.3,36.9-27.2c17.7-9,36.6-15.5,51.6-29.1c14.6-13.2,25.5-30.8,41.9-42.1c13.2-9,32.8-14.7,47.5-5.7
					c16.6,10.2,15.4,32.2,17.3,49.1c1.6,14.4,6.5,31.6,21.5,37.2c18.9,7,36.5-8.6,53.8-13.5c8.4-2.4,18.5-3.3,25.8,2.4
					c7.4,5.9,8.8,16,11,24.6c4.2,16.2,14.5,30.2,28.8,39c3.5,2.2,7.3,4,11.2,5.4c1.4,0.5,3.7,1.7,5.2,1.6c1.7-0.2,3.4-2.7,4.5-3.8
					c7.5-7.3,15.2-14.5,23.6-20.7c16.1-11.8,36.5-20.3,56.7-15.7c9.3,2.1,16.8,7.3,24,13.4c6,5.1,12,10.7,19.3,14.1
					c6.3,2.9,13.4,3.6,20,0.9c6.6-2.7,11.4-8.5,14.7-14.7c7.5-14.2,7.2-30.7,13.7-45.2c3.2-7.2,8.1-13.5,15.7-16.3
					c0.8-0.3,1.5-1.4,0.9-2.2c-31.5-42.1-70.3-78.5-114.2-107.6c-44-29.2-92.9-51-144.1-63.9C591.8,135,537.5,131.4,484,137.5
					c-54.2,6.2-107.3,21.9-156.2,46.1c-24.6,12.2-48,26.5-70,42.9c-10.9,8.1-21.4,16.7-31.5,25.7c-8.6,7.7-20.2,17-18.7,30
					c0.5,4.8,2.8,8.9,6.9,11.5c1.6,1,3.1-1.6,1.5-2.6c-5.5-3.5-6.6-10.8-4.6-16.6c2.3-6.7,7.8-11.7,12.9-16.4
					c9.8-9,20-17.6,30.6-25.7c21-16.1,43.5-30.3,67-42.5c47.2-24.5,98.7-40.9,151.4-48.2c52.3-7.2,105.7-5.2,157.3,6.2
					c49.9,11.1,97.8,30.6,141.4,57.3c43.7,26.7,83.1,60.7,115.6,100.4c4.1,5,8.1,10.2,12.1,15.4c0.3-0.7,0.6-1.5,0.9-2.2
					c-14.7,5.4-19.9,21.5-22.9,35.5c-3.1,14.1-5.9,33.6-20.6,40.4c-16.8,7.8-31.3-10.3-43.2-19.2c-15-11.2-33.8-12.6-51.3-7
					c-21.6,6.9-38.4,23.1-54.3,38.6c0.5-0.1,1-0.3,1.5-0.4c-13.1-3.7-24.8-11.8-32.9-22.8c-3.9-5.3-7-11.3-8.9-17.6
					c-2-6.4-2.9-13.1-5.5-19.3c-4.8-11.5-15.5-16.4-27.5-15c-14.1,1.6-25.6,9.9-38.7,14.3c-7.6,2.5-16,3.8-23.4,0.2
					c-5.5-2.6-9.5-7.4-12.2-12.8c-5.9-11.9-5.6-25.3-7.1-38.2c-1.4-12-4.6-24.6-14.6-32.4c-9-7-21-7.8-31.8-5.4
					c-28,6.2-42.5,31.9-62.1,50.3c-11.5,10.8-25.3,17.5-39.5,24c-11.1,5.1-21.5,10.4-31.2,17.8c-18.8,14.2-35.1,31.5-54.5,44.9
					c-7.1,4.9-15.4,10.1-24.2,10.6c-1.7,0.1-3.4,0-5.1-0.4c-1.6-0.3-3.3-0.2-4.9-0.6c-3.1-0.7-5.6-2.9-7.5-5.5
					c-4.9-6.9-6.7-16-8.4-24.2c-2.3-11-3.9-22.2-6-33.2c-4.8-24.2-14-48-29.2-67.6c-4-5.2-8.6-9.7-13.8-13.7
					C219,259,217.5,261.7,219,262.8L219,262.8z"/>
			</g>
		</g>
	</g>
	<text transform="matrix(1 0 0 1 379.7031 519.3013)"><tspan x="0" y="0" class="st5 st6 st7 st8">WTO</tspan><tspan x="-133.3" y="55.6" class="st5 st9 st10">World Tree Organization</tspan></text>
</g>
</svg>
