<?xml version="1.0" encoding="utf-8"?>
<!-- Generator: Adobe Illustrator 24.1.0, SVG Export Plug-In . SVG Version: 6.00 Build 0)  -->
<svg version="1.1" id="Layer_1" xmlns="http://www.w3.org/2000/svg" xmlns:xlink="http://www.w3.org/1999/xlink" x="0px" y="0px"
	 viewBox="0 0 500 500" style="enable-background:new 0 0 500 500;" xml:space="preserve">
<style type="text/css">
	.st0{fill:#4F6D7A;}
	.st1{opacity:0.25;fill:#B6EFEA;enable-background:new    ;}
	.st2{opacity:0.45;fill:#B6EFEA;enable-background:new    ;}
	.st3{opacity:0.4;fill:#B6EFEA;enable-background:new    ;}
	.st4{fill:#A4C131;}
	.st5{fill:#BFE53D;}
	.st6{opacity:0.64;clip-path:url(#SVGID_2_);}
	.st7{fill:#754715;}
	.st8{fill:#845425;}
	.st9{fill:#7A9A21;}
	.st10{fill:#93AF2E;}
	.st11{fill:#A6C933;}
	.st12{fill:#7D9823;}
	.st13{fill:#628D7D;}
	.st14{fill:#9DC1B4;}
	.st15{fill:#EDEDED;}
	.st16{fill:#FFFFFF;}
	.st17{fill:#87AD9E;}
	.st18{fill:#CECECE;}
	.st19{fill:#3E7B7A;}
	.st20{fill:#569692;}
	.st21{fill:#B6EFEA;}
	.st22{fill:#658519;}
	.st23{fill:#8EAD28;}
	.st24{fill:#B0CE34;}
	.st25{fill:#9E5726;}
	.st26{fill:#BF692E;}
	.st27{fill:#514428;}
	.st28{fill:#877041;}
	.st29{fill:#E7BF00;}
	.st30{fill:#F0D628;}
	.st31{fill:#42361C;}
	.st32{fill:#81C1BE;}
	.st33{fill:#9BD8D7;}
	.st34{fill:#C5D855;}
	.st35{fill:#D3D3D3;}
	.st36{fill:#E6EBE0;}
	.st37{fill:#D6D6D6;}
	.st38{fill:#7AB010;}
	.st39{fill:#93BE19;}
	.st40{fill:#649604;}
	.st41{fill:#A3E5DD;}
	.st42{fill:#D5F7F3;}
	.st43{fill:#8BAA0C;}
	.st44{fill:#9BC30F;}
	.st45{fill:#FFE98A;}
	.st46{fill:#FFF5CA;}
	.st47{fill:#326468;}
	.st48{fill:#427880;}
	.st49{fill:#C9F3F3;}
	.st50{fill:#DDDDDD;}
	.st51{fill:#BCBCBC;}
	.st52{font-family:'Arial-BoldMT';}
	.st53{font-size:48px;}
	.st54{letter-spacing:-2;}
	.st55{font-family:'ArialMT';}
	.st56{fill:none;}
	.st57{font-size:18px;}
</style>
<g id="BACKGROUND">
	<rect class="st0" width="500" height="500"/>
</g>
<g id="OBJECT">
	<g>
		<path class="st1" d="M298.5,243.4h53.7c3.8,0,6.9-3.2,6.9-7c0-1.9-0.8-3.7-2-4.9c-1.3-1.3-3-2.1-5-2.1h-29c-3.9,0-7-3.1-7-7
			s3.1-7,7-7h118.3c3.9,0,7,3.1,7,7s-3.1,7-7,7h-38.5c-3.9,0-7,3.1-7,7c0,1.9,0.8,3.7,2,4.9c1.3,1.2,3,2,4.9,2h14c3.9,0,7,3.1,7,7
			l0,0c0,3.9-3.1,7-7,7H298.5c-3.9,0-7-3.1-7-7l0,0C291.5,246.5,294.6,243.4,298.5,243.4z"/>
		<path class="st2" d="M32.4,183.6H86c3.8,0,6.9-3.2,6.9-7c0-1.9-0.8-3.7-2.1-4.9c-1.3-1.3-3-2.1-4.9-2.1H57c-3.9,0-7-3.1-7-7
			s3.1-7,7-7h99c3.9,0,7,3.1,7,7s-3.1,7-7,7h-38.5c-3.9,0-7,3.1-7,7c0,1.9,0.8,3.7,2.1,4.9c1.3,1.2,3,2,4.9,2h14c3.9,0,7,3.1,7,7
			l0,0c0,3.9-3.1,7-7,7h-99c-3.9,0-7-3.1-7-7l0,0C25.4,186.7,28.5,183.6,32.4,183.6z"/>
		<path class="st1" d="M235.2,147.1H306c3.8,0,6.9-3.2,6.9-7c0-1.9-0.8-3.7-2-5c-1.3-1.3-3-2-5-2h-29c-3.9,0-7-3.1-7-7
			c0-3.9,3.1-7,7-7h120.3c3.9,0,7,3.1,7,7c0,3.9-3.1,7-7,7h-59.8c-3.9,0-7,3.1-7,7c0,1.9,0.8,3.7,2,4.9c1.3,1.2,3,2,4.9,2h14
			c3.9,0,7,3.1,7,7l0,0c0,3.9-3.1,7-7,7H235.2c-3.9,0-7-3.1-7-7l0,0C228.2,150.3,231.4,147.1,235.2,147.1z"/>
		<path class="st3" d="M143.3,351.9H89.7c-3.8,0-6.9-3.2-6.9-7c0-1.9,0.8-3.7,2-5c1.3-1.3,3-2,5-2h29c3.9,0,7-3.1,7-7s-3.1-7-7-7
			H28.3c-3.9,0-7,3.1-7,7s3.1,7,7,7h23c3.9,0,7,3.1,7,7c0,1.9-0.8,3.7-2,4.9c-1.3,1.2-3,2-4.9,2h-7.1c-3.9,0-7,3.1-7,7l0,0
			c0,3.9,3.1,7,7,7h99c3.9,0,7-3.1,7-7l0,0C150.3,355,147.2,351.9,143.3,351.9z"/>
	</g>
	<g>
		<g>
			<g>
				<path class="st4" d="M417.1,275.6v0.5c0,0.7,0,1.4,0,2.1c-0.5,35.7-12.3,68.6-31.8,95.5c-30.4,41.8-79.6,68.9-135.2,68.9
					c-39.6,0-76-13.8-104.6-36.8c-2.1-1.7-4.1-3.4-6.1-5.1C104.8,370.1,83,325.4,83,275.6H417.1z"/>
				<path class="st5" d="M250,275.6v167.1c-92.3,0-167.1-74.8-167.1-167.1H250z"/>
				<g>
					<g>
						<defs>
							<path id="SVGID_1_" d="M417.1,275.6v0.5c0,0.7,0,1.4,0,2.1c-0.5,35.7-12.3,68.6-31.8,95.5c-30.4,41.8-79.6,68.9-135.2,68.9
								c-39.6,0-76-13.8-104.6-36.8c-2.1-1.7-4.1-3.4-6.1-5.1C104.8,370.1,83,325.4,83,275.6H417.1z"/>
						</defs>
						<clipPath id="SVGID_2_">
							<use xlink:href="#SVGID_1_"  style="overflow:visible;"/>
						</clipPath>
						<g class="st6">
							<path class="st4" d="M349.5,374.6c-2.1-1-3.9-2.4-5.9-3.5c-1.4-0.8-3.3-0.9-4.9-1c-3.7-0.3-7-1-10.5-2.2
								c-2.9-1-5.5-2.2-8.3-3c0.3-1.1,0.3-2.4,0-4c-0.9-4.6-5-9-9.8-7.9c-7.7-1.9-15.8-4-19.8-11.5c-3.3-6.2-10.9-1.7-15.9-1.1
								c-4.5,0.6-6.8-4-11-4.1c-3.8,0-7.9-0.2-11.7,0.5c-5.5,1-8.8,6.9-14.6,7c-1.5,0-3.2-0.5-4.7-0.6c-0.5-0.9-1.5-1.4-2.6-0.6
								c-0.2,0.1-0.3,0.2-0.5,0.3c-1.2-0.1-2.4-0.1-3.7-0.1c-3.9,0.1-6.8,0.1-8.7-4.5c-0.5-1.3,1.4-4.5,1.8-5.9
								c0.7-2.2-0.8-5.2-3-5.9c-4-1.2-7.8-0.3-11.7-2.3c-3.1-1.5,1.1-8.6,1.5-11.2c0.2-1-0.3-2.3-1.4-2.5c-5.3-0.9-8.1,0.1-12.6,3.2
								c-2.8,1.8-5.7,4.3-9.1,4.7c-5.7,0.6-9.5-3.3-11-8.3c-1.4-4.8-1.3-10.6,0.9-15c1.4-2.6,3.5-4.8,6.6-6c6-2.4,13.4-1.6,19.7-1.3
								c0.7,0,1.3-0.3,1.6-0.9c0.2-0.3,0.3-0.7,0.4-1.1c0-0.4,0.1-0.8,0.3-1.1c2.2-4.6,14.7,1,18.1,1.7c1.5,4.7,4.5,11.6,8.8,11.6
								c0,0,0,0,0.1,0c2.6,0,3.4-3,3.8-5.1c1-5.1-4.4-9.1-2.7-13.2c0.8-0.8,1.5-1.6,2.3-2.5c4.4-1.4,8.4-3.3,12-6.3
								c3.4-0.8,6.2-3.1,6-6.9c1.3-1.9,2.6-3.8,4-5.6c4.5-5.5,11-8.8,17.6-11.1c0.9-0.3,1.8-1.4,1.4-2.5c-2-4.9,8.1-7.6,13.1-8.1
								c0.1,0.3,0.1,0.6,0.2,1c0.2,0.8,1.1,1.6,1.9,1.5c5.7-0.7,10.6-3.5,16.1-4.8c2.5-0.7,1.4-4.5-1.1-3.9
								c-5.6,1.7-8.4-3.1-12.5-5.7c-1.9-1.3-4-2.1-6.1-2.7c1.3-0.9,2.4-1.9,3.7-2.7c1.8-0.5,3.7-0.9,5.6-1.3c0.4,0,0.9,0.1,1.4,0.2
								c0.1,0,0.1,0,0.2,0c-1,0.1-1.7,1.1-1.7,2c0,1.2,0.9,1.9,2,2c0.7,0.1,1.7,0.6,2.5,1c2.2,1.3,4.2-2.1,2-3.5
								c-0.5-0.3-1.1-0.6-1.6-0.8c0.1,0,0.1,0,0.2,0c1.5,0.3,2.4-0.8,2.5-1.9c1.2,0,2.5-0.1,3.7-0.1c2.1,0,4.1,0.2,6.1,0.7
								c0.8,0.2,1.2,0.6,1.3,1.1c-0.1,0.3-0.1,0.6-0.1,0.9c-0.5,1.7-2.9,3.9-3.6,4.6c-1.3,1.3-0.3,3.3,1.4,3.4
								c4.9,0.3,9.1,2.9,13.8,4.1c1.7,0.4,3.1-1.4,2.3-2.9c-1.2-2.1-3.7-3.5-5.9-5.1c0-0.8-0.4-1.5-1.4-1.9c-1-0.2-1.8-0.8-2.2-1.7
								c1.3-4.1,2.2-8.8-0.8-12.2c-3.8-4.3-9-6.1-12.4-10.8c-1.1-4.3-2.6-8.5-4.9-12.4c-0.7-1.3-2.7-1.3-3.5,0
								c-2.7,4.8-6.7,1.9-9.9-1.4c0-0.8,0-1.6,0.2-2.5c0.2-1.1-0.3-2.1-1.4-2.5c-0.8-0.3-1.6-0.5-2.5-0.7c-0.9-0.6-1.9-1.2-2.9-1.8
								c-0.1-0.4-0.4-0.7-0.8-0.9c-1.4-0.7-3-1.6-4.7-2.1c-0.7-0.3-1.4-0.5-2.1-0.7c-0.8-0.2-1.5,0.2-2,0.7
								c-0.2,0.1-0.4,0.2-0.6,0.3c-1.3-0.8-3.2-0.3-3.2,1.5c0,0.5,0,0.9,0,1.4c-2.1,2.4-3.8,5.4-3.7,8.3c0,1.2,0.8,2.2,1.4,3.2
								c2.7,3.9-3.3,8.3-5.9,10.4c-1.9,1.6-3.7,3.3-4.8,5.5c-0.5,1-1,2.1-1.4,3.2c-0.2,0.4-0.3,0.7-0.5,1.1c-0.8,2.2-2.5,2-5-0.8
								c0.1-4.5,1.1-7.7-3.8-9.8c-2.2-0.9-4.5-1.8-6.9-2.7c-0.5-0.3-1.1-0.6-1.7-0.8c-0.2-0.1-0.3-0.1-0.5-0.1
								c-1.8-0.7-3.5-1.5-5.1-2.5c-0.1,0-0.1-0.1-0.2-0.1c-0.4-0.3-0.9-0.5-1.3-0.8c-0.1-0.1-0.2-0.1-0.3-0.2
								c-1-0.7-1.9-1.4-2.8-2.2c-0.1-0.1-0.1-0.1-0.2-0.2c-0.4-0.3-0.7-0.7-1-1.1c-0.1-0.1-0.1-0.2-0.2-0.2
								c-0.4-0.5-0.7-0.9-1.1-1.4c-0.4-0.5-0.6-1.1-0.8-1.6c0-0.1-0.1-0.2-0.1-0.4c-0.1-0.2-0.1-0.4-0.1-0.6c0-0.1-0.1-0.3-0.1-0.4
								c0-0.2,0-0.4,0-0.5c0-0.2,0-0.3,0-0.5s0-0.3,0.1-0.5c0-0.2,0-0.3,0.1-0.5c0-0.2,0.1-0.3,0.1-0.5c0.1-0.2,0.1-0.4,0.2-0.5
								c0.1-0.1,0.1-0.3,0.2-0.4c0.1-0.2,0.2-0.4,0.3-0.6c0.1-0.1,0.1-0.3,0.2-0.4c0.1-0.2,0.2-0.4,0.4-0.6c0.1-0.1,0.2-0.2,0.2-0.4
								c0.1-0.2,0.3-0.4,0.5-0.6c0.1-0.1,0.2-0.2,0.2-0.3c0.2-0.2,0.4-0.4,0.6-0.7c0.1-0.1,0.2-0.2,0.2-0.3c0.2-0.2,0.4-0.5,0.7-0.7
								c0.1-0.1,0.1-0.1,0.2-0.2c0.3-0.3,0.5-0.5,0.8-0.7c0.1-0.1,0.1-0.1,0.2-0.2c0.3-0.3,0.6-0.5,1-0.8l0.1-0.1
								c1.1-0.9,2.4-1.8,3.7-2.6l0,0c6.3-4,14.1-7,18-8c-0.2,0.6-0.4,1.2-0.7,1.6c-0.7,1.3,0.1,3.1,1.7,3c2.9-0.1,5.6,0.3,8.4,1.2
								c2.1,0.7,3.6-2.7,1.5-3.7c-1.4-0.7-2.5-1.4-3.4-2.4c0-0.2,0-0.4-0.1-0.6c-0.2-0.6-0.5-1.2-0.7-1.7c-0.1-0.6,0-1.1,0.2-1.5
								c2.2,1.6,5.5-1.2,7-2.4c2.8-2.2,2.3-9.6,6.5-9.6c0.4,0,0.8-0.1,1-0.3c0.2,0,0.3,0.1,0.5,0.1c0.4,0.6,1.3,0.8,2,0.7
								c2.7,1.1,4.8,3,3.3,6c-1,1.9,0.9,3.5,2.7,2.7c3.2-1.4,4.4-0.6,2.9,2.3c-1.4,2.9-4.7,4.2-7.7,4.4c-2.2,0.1-2.8,3.3-0.5,3.9
								c7.7,2,13.7,7.8,20.9,10.8c1.3,0.5,2.3-0.5,2.4-1.6c0.1,0.1,0.2,0.1,0.3,0.2c1.8,1.3,3.4-1.1,2.7-2.7
								c-1.5-3.6-4.2-6.9-5.5-10.6c1.9,1.5,3.6,3.1,4.9,5.3c0.8,1.3,2.7,1.3,3.5,0c2.8-4.7,0.4-7.6-3.7-10.3
								c-4.4-2.9-1.1-3.3-2.6-6.8c-1.2-2.9-3-4.3-5.7-5.8c-6.1-3.3-12.2-10.6-19.4-11.4c-3-0.3-5.8,0-8.2,1.2c0.7-1.1,0.5-2.9-1-3.2
								c-17.7-2.7,1.3,16.8-9.3,19.3c-0.1-0.9-0.3-1.8-0.4-2.7c-0.1-0.9-1.1-1.5-1.9-1.5c-1.2,0-3-0.9-4.6-1.7
								c2.3-5,3.4-11.1,8.9-13.4c2.3-1,1.5-4.4-1.1-3.9c-2.5,0.5-5,1.1-7.5,1.4c-1.3,0.2-1.7-0.8-2.6-2.1c-0.7-1-2.2-1.4-3.1-0.4
								c-1.8,1.9-3.6,3.9-5.1,6.1c-0.6,0.8-0.2,2.3,0.7,2.7c2.1,0.9,3.9,1.3,5.6,1.2c-1.8,3.4-4.8,5.8-9,6.6
								c-1.1,0.2-1.6,1.5-1.4,2.5c0.1,0.7-0.1,1.2-0.7,1.6c-0.1,0.1-0.2,0.1-0.3,0.2c0,0,0,0-0.1,0c-0.4,0.2-0.8,0.4-1.3,0.5h-0.1
								c-0.1,0-0.3,0.1-0.4,0.1c-0.1,0-0.2,0-0.3,0s-0.3,0-0.4,0.1c-0.2,0-0.3,0-0.5,0.1c-0.1,0-0.2,0-0.2,0c-0.3,0-0.6,0-0.8,0.1
								h-0.1c-1.8,0.1-3.8,0.1-5.5,0.1c-0.4-1.4-0.8-2.7-1.2-4.1c0.4,0.2,0.9,0.3,1.5,0.2c2.3-0.4,4.7-0.8,7-1.3
								c0.6-0.1,1-0.5,1.2-0.9c0.4-0.7,0.2-1.8-0.3-2.4c-0.6-1.4-0.8-2.6-0.7-3.7c0.1-0.3,0.3-0.6,0.4-0.9c0.5-0.8,1-1.6,1.8-2.4
								c0.1-0.1,0.1-0.2,0.2-0.3c0.1-0.1,0.2-0.3,0.2-0.4v-0.1l0,0c0.1-0.4,0.2-0.8,0-1.1c0.1-0.1,0.3-0.2,0.4-0.3
								c1.1-0.9,0.6-2.6-0.5-3.2l0,0c0,0-0.1-0.1-0.4-0.1c-0.3-0.1-0.7-0.1-1.1,0c-0.3,0.1-0.6,0.3-0.9,0.4c-1,0.5-1.9,1.1-2.7,1.8
								c-0.1,0.1-0.1,0.1-0.2,0.2l-0.1,0.1c-0.3,0.3-0.6,0.6-0.8,0.9c-0.9,0.4-1.9,0.5-2.9,0.1c-2.3-1-1.8-3.1-2.3-5
								s-2.1-2.9-3.9-3.4c-4.6-1.3-10,2.6-14.3,4.3c-0.1,0-0.3,0.1-0.4,0.1c-0.2,0.1-0.3,0.1-0.5,0.2l0,0l0,0l0,0
								c-0.2,0.1-0.3,0.1-0.5,0.2c-0.4,0.2-0.7,0.4-0.8,0.7c-0.7,1.3,0.6,3.5,2.4,2.9c0.2-0.1,0.5-0.2,0.7-0.3
								c1.3-0.4,2.6-0.5,3.9-0.4c-0.6,2.1-0.4,4,0.4,5.7c-0.5-0.1-1-0.2-1.5-0.3c-0.9-0.2-1.9,0.2-2.4,1c-0.1,0.3-0.2,0.6-0.2,0.9
								c0.7,6.3,5.9,5.8,10.9,5.6c-0.3,0.6-0.5,1.1-0.8,1.7c-0.4,0.5-0.8,0.9-1.2,1.5c-0.3,0-0.6,0.1-0.9,0.2
								c-3.7-0.7-7.2-1.1-11-0.6l0,0l0,0l0,0l0,0c-0.2,0-0.4,0-0.5,0.1c-0.2,0-0.4,0.1-0.6,0.2c0,0,0,0-0.1,0c0,0,0-0.1-0.1-0.1
								c0.4-0.6,0.9-1.2,1.4-1.8c0.1-0.2,0.3-0.3,0.4-0.5c0.3-0.6,0.3-1.3-0.1-1.9c-2.3-3.6-5.4-5.1-9.3-5c-0.2-0.3-0.4-0.7-0.6-1
								c-0.5-0.9-1.2-1.1-1.9-1c0-0.1-0.1-0.3-0.1-0.4c-0.3-1.1-1.4-1.7-2.5-1.4c-4.2,1.1-7.7,1.3-11.2,0.7
								c-0.4-0.3-0.8-0.5-1.3-0.5s-0.9-0.1-1.4-0.1c-1.9-0.5-3.8-1.2-5.8-2.2c-0.1-0.5-0.1-1-0.2-1.5c0.2-0.2,0.4-0.3,0.5-0.5
								c0.8-1.4-0.4-3.5-2.2-3c-0.5,0.1-0.9,0.3-1.4,0.4s-0.9,0.2-1.4,0.4c-8.2,2.3-16.8,5-22.8,11.2c-0.1,0.1-0.2,0.2-0.2,0.3
								c-0.2,0.3-0.3,0.7-0.3,1.1c-0.8,0.8-1.7,1.5-2.6,2.2c-0.6-0.7-1.6-1-2.5-0.5c-2.3,1.5-4.6,3-6.9,4.5c-0.3-0.1-0.6,0-0.9,0
								c-0.9,0.3-1.5,0.8-2.2,1.5c-0.1,0.1-0.2,0.2-0.3,0.4c-0.6,0.8-0.3,1.8,0.4,2.4c-7.9,4.4-15.3,10.1-19.8,17.9
								c-0.7,1.1-1.2,2.2-1.8,3.4l-0.1,0.1l0,0l0,0l0,0c-0.1,0.2-0.2,0.3-0.2,0.5c-0.5,1.1,0.2,1.9,1.1,2.3
								c-0.8,1.1-1.7,2.2-2.5,3.3c-0.1,0.1-0.2,0.3-0.2,0.4c-0.9,1.9,2.3,3.6,3.7,1.6c1.8-2.4,3.6-4.8,5.3-7.2
								c0.7,0.5,1.6,0.5,2.4-0.3c0.3-0.3,0.6-0.6,0.8-0.9c0.6,0.5,1.5,0.7,2.4,0.1c0.6,0.3,1.4,0.5,2.1,0.1s1.5-0.7,2.2-1.1
								c0.3,0.3,0.7,0.4,1.2,0.4c0.1,0,0.3,0,0.4,0c-1.1,2,1.6,3.7,3.2,2.3c0.3-0.3,0.6-0.5,0.8-0.8c0.1,0.5,0.3,0.9,0.4,1.4
								c-0.1,2.2-0.2,4.3-0.2,6.5l0,0c-0.4,0.1-0.8,0.4-1,1l0,0l0,0c-0.1,0.2-0.1,0.3-0.2,0.5l0,0l0,0l0,0l0,0c-0.9,2-1.6,3.9-2.2,6
								c-0.2,0.6,0,1.3,0.4,1.8c-0.5,0.2-0.8,0.5-1.1,1c-0.3,0.4-0.4,1-0.3,1.5c0.1,0.9,0.2,1.8,0.2,2.6c0,0.7,0.5,1.4,1.1,1.7
								c0,0.1,0,0.2-0.1,0.3c0,0,0,0-0.1,0c-0.3,0.1-0.5,0.4-0.7,0.7c-0.3,0.5-0.4,1.1-0.2,1.6c0.1,0.4,0.3,0.9,0.5,1.4
								c-0.1,0.5-0.2,1-0.2,1.6c-0.1,0.6,0.2,1.1,0.6,1.5c-0.1,1.6-0.1,3.1,0,4.7c-0.1,0.3-0.3,0.5-0.4,0.7
								c-0.5,0.7-1.2,1.1-2.3,1.3c-0.7,0.1-1.4,0.5-1.7,1c-0.4,0.6-0.5,1.3,0,2c4.8,7,2.3,13.5-1.3,20.1c-0.5,0.9-1,1.9-1.5,2.8l0,0
								l0,0c-0.1,0.2-0.2,0.3-0.3,0.5c-0.4,0.7-0.8,1.5-1.2,2.2c-1.4,2.7-2.5,5.3-3.4,8.1c-0.5,0.1-0.9,0.4-1.1,0.9
								c-0.1,0.3-0.2,0.6-0.2,1c0.1,0.7,0.2,1.4,0.2,2.2c-0.2,0.9-0.3,1.8-0.5,2.7c-0.7,5.1-0.4,10.4,2.5,14.8
								c1.6,2.5,4.5,3.8,7,5.5c1.4,2.4,2.3,4.9,3.2,7.4c-1,8.8,8.6,18.4,11.9,25.6c0.7,1.6,2.7,1.1,3.4-0.1c0.2-0.4,0.4-0.9,0.2-1.4
								c-1.3-5.5-4.7-9.6-7.5-14.3c-1.6-2.5-2.5-5.3-3.4-8.2c0.3,0.1,0.7,0.2,1.1,0.1c1.2,0.5,2.3,1.3,3.3,2.2
								c1.3,3.7,3.5,6.6,6,9.3c2,4.5,6.1,9.2,10,11.3c1.2,1.9,2.2,3.6,3,5.5c0,0.3,0,0.7,0,1c0.2,4.5,0.3,8.6,4.4,8
								c2.6,1.9,6.2,3.1,8.6,3.9c6.7,2.4,12.2,3.5,19.3,3.6c8.5,0.1,13.5,5.2,21,8c7.4,2.8,12.5,7.3,18.9,11.5
								c0.1,0.1,0.2,0.1,0.2,0.1c0.3,0.2,0.6,0.3,0.8,0.5c0.1,0.1,0.3,0.1,0.4,0.2c0.3,0.2,0.7,0.3,1,0.5c0.1,0.1,0.2,0.1,0.3,0.1
								c0.4,0.1,0.7,0.3,1.1,0.4c0.1,0,0.1,0,0.2,0.1c0.4,0.1,0.7,0.2,1.1,0.3h0.1c0.4,0.1,0.8,0.1,1.2,0.1h0.1c0.4,0,0.8,0,1.3,0
								l0,0c1.5-0.1,2.9-0.5,4.3-1.2c0.2,0.1,0.5,0.1,0.8,0.1c1,0.1,2,0.2,2.9,0.3c-0.2,0.5-0.1,1,0.3,1.5c1.8,2.4,2.1,5.4,1.9,8.4
								c-2.1,2.7-5.5,5.2-7.1,7.4c-1.3,1.7-1.9,3.1-2.5,5.1l0,0c-1,3.3,1.2,4.9-0.9,8.5c-0.6,1-0.2,2.1,0.7,2.7
								c0.1,0.1,0.2,0.2,0.3,0.2c0.3,0.7,0.9,1.3,1.8,1.2c0,0,0.1,0,0.1,0.1l0,0c1.4,0.9,2.8,1.8,4.1,2.8c3,3.6,6.5,9.4,7.5,10.8
								c2.7,3.4,6,4.9,9.9,6.7c4.5,2.1,6.3,5.1,7.1,9.6c-0.8,2.3-1,4.9-1.3,6.9c-0.6,4.2-0.8,8.4-1.2,12.5c-0.8,2.8-1.7,5.5-2.3,8.3
								c-0.2,0.8-0.3,1.9-0.4,3.2c-1.6,3.5-3.2,6.6-3.2,10.4c-0.6,0.4-0.9,1-0.9,1.7c-0.2,0.3-0.3,0.6-0.4,1c-0.1,1.6,0,3.1,0,4.7
								c0,0.9,0.6,1.6,1.5,1.9c1.7,0.6,3.2,0.8,5,0.7c1.4,0,2.2-1.2,1.9-2.5c0.7-1.1,1.3-2.2,2-3.3c0.5-0.5,1-1,1.5-1.5
								c0.8-0.8,0.7-1.9,0.1-2.6c0.5-0.2,1-0.6,1.2-1.3c2.2-1.4,4-3.3,5.8-5.2c0.6,0.3,1.4,0.3,2.1-0.5c2-2.2,4.4-3.7,7.1-4.9
								c0.7,0.7,1.8,0.9,2.6-0.1c2.1-2.3,2.7-4.2,5.7-5.1c0.4,0,0.9-0.1,1.3-0.4c1.3-0.4,2.7-1.1,3.9-1.9c0.3,0,0.6-0.1,0.9-0.3
								c5.7-3.5,10.2-8.6,15.1-13.2c0.6,0.2,1.3,0.1,1.9-0.5c1.5-1.4,2.8-2.9,4.1-4.4c0.6-0.4,1.2-0.8,1.8-1.1
								c0.4,0.2,0.9,0.3,1.4,0.2c2.6-0.4,4.8-1.3,6.9-2.6c0.4,0.1,0.9,0,1.3-0.3c9-6.4,12.4-17.2,21.4-23.6c2.7-1.9,6-4.3,7.4-7.5
								C351.4,380,352,375.8,349.5,374.6z"/>
							<path class="st4" d="M256.1,113.8c0.9,0.4,1.2,1.6,1.9,2.3c0.7,0.7,1.6,1.3,2.6,1.6c0.7,0.2,1.5,0.4,2.2,0.5
								c0,0.1,0,0.1,0,0.2s0.1,0.2,0.1,0.2c-0.5,0.1-0.9,0.4-1.1,0.9c-0.1,0.1-0.1,0.2-0.2,0.4c-0.5,0.1-1.1,0.3-1.7,0.6
								c-1.3,0.6-2.4,0.4-3.4,0c-0.7-0.6-1.7-0.8-2.9-0.7c-2.6,0.2-2.6,3.9,0,4l0,0c0,0.5,0.1,1.1,0.4,1.5c0.6,1.2,1.5,1.6,2.7,2.1
								c3.3,1.4,7.7,1.6,11.2,1.9c2.6,0.2,2.6-3.8,0-4c-0.6,0-4.4-0.4-7.2-0.9c1.2-0.4,2.3-0.7,3.3-0.4c0.6,0.1,1.1,0,1.5-0.2
								c0.2,0.1,0.4,0.2,0.7,0.2c0.2,0,0.4,0.1,0.7,0.1c0.3,0.1,0.6,0.1,0.9,0.1c1.2,0.2,2.6,0.4,2.9,0.8c1.5,2.1,4.9,0.1,3.5-2
								c-0.1-0.2-0.1-0.3-0.2-0.5c0.1-0.1,0.2-0.1,0.3-0.2c1.5-1.3,3-2.9,2.9-4.7c0.2,0.1,0.4,0.1,0.7,0.1c0.3,0,0.5,0,0.8,0
								c1.1,0,1.7-0.7,1.9-1.5c1.3,0,2.7-1.4,1.9-3c-0.8-1.5-3-1.8-4.4-2.2c-2.4-0.7-4.7-1.4-7.1-1.9c-2.2-0.4-5.8-1.3-7.9,0
								c-0.5-0.1-1-0.1-1.6,0c-1,0.1-1.8,1-2,1.9c-0.7-0.6-1.4-0.8-2.4-0.9C255.2,109.8,254.4,113,256.1,113.8z"/>
							<path class="st4" d="M238.2,121.6C238.2,121.6,238.3,121.6,238.2,121.6c0.6,0.6,1.4,0.8,2.1,0.5c0.1,0.5,0.4,1,0.7,1.4
								c0.7,1,2.2,1.4,3.1,0.4l0.1-0.1c0.4,0.1,0.8,0,1.2-0.1c-0.2,0.8,0.2,1.7,0.9,2.2c1,0.6,2.1,0.7,3.2,0.4
								c1.1-0.2,1.7-1.5,1.4-2.5c-0.3-1.1-1.4-1.6-2.5-1.4c0.4-0.1-0.4,0,0.1,0h-0.1c0,0-0.1,0-0.1-0.1c-0.4-0.3-0.9-0.3-1.4-0.2
								c0.4-0.8,0.5-1.8-0.1-2.6c-0.7-1-1.8-1.5-3.1-1.4c-0.8,0.1-1.5,0.5-1.8,1.2c-0.1,0-0.3,0.1-0.4,0.1c-0.1-0.2-0.2-0.4-0.4-0.6
								l-0.1-0.1c-0.8-0.8-2.1-0.8-2.8,0C237.4,119.5,237.4,120.8,238.2,121.6z"/>
							<path class="st4" d="M246.6,116.2c1,0.5,2.2,0.3,2.7-0.7c0.1-0.1,0.1-0.3,0.2-0.4c0,0.1,0,0.2,0,0.2c0,0.9,0.5,1.5,1.2,1.8
								c0,0.9,0.6,1.7,1.5,2h0.1c0.8,0.5,1.8,0.5,2.5-0.2c0.4-0.4,0.6-1,0.6-1.6c0.1-0.1,0.2-0.1,0.2-0.2c0.5-0.9,0.2-2.2-0.7-2.7
								c-1.1-0.6-2.1-0.9-3.4-1c-0.9-0.1-1.7,0.6-1.9,1.5c0.1-0.8-0.2-1.6-1-2c-0.4-0.2-0.7-0.4-1.1-0.6c-0.2-0.1-0.3-0.2-0.5-0.3
								c0.3,0.2-0.2-0.2-0.2-0.3c-0.7-0.9-2.1-0.7-2.8,0c-0.8,0.8-0.7,2,0,2.8C244.6,115.2,245.7,115.7,246.6,116.2z"/>
							<path class="st4" d="M232.8,115.8c0.3,0.1,0.6,0.1,0.9,0.2c1,0.3,2-0.2,2.4-1.1c0.2,0,0.4,0,0.6-0.1c0.2-0.1,0.3-0.1,0.5-0.2
								c1-0.4,1.7-1.3,1.4-2.5c-0.3-1-1.4-1.8-2.5-1.4c-0.2,0.1-0.3,0.1-0.5,0.2c-0.6,0.2-1,0.6-1.3,1.1c-0.1,0-0.1,0-0.2,0
								c-0.2-0.1-0.5-0.1-0.7-0.1l0,0c-0.9,0.1-1.7,0.5-1.9,1.5C231.2,114.3,231.8,115.5,232.8,115.8z"/>
							<path class="st4" d="M347.9,149.1c-4.3-6.4-8.5-11.6-14.9-15.9c-3.2-2.2-8.1-5.8-12.5-6.1c-9.4-7.7-22.5-14-34.8-12.3
								c-1.6,0.2-1.7,2.3-0.9,3.3c-0.1,0.5-0.3,0.9-0.4,1.4c-2.2-0.8-3.5,2.6-1.5,3.7c0.1,0.2,0.1,0.3,0.2,0.5
								c-0.2,0.6-0.1,1.2,0.2,1.6c0.1,0.3,0.2,0.6,0.5,0.9c5.4,6.1,15.4,1.8,20.8,9.2c2.1,2.9,2.3,6.9,5,9.4c0.6,0.5,1.3,1,1.9,1.5
								c0.8,0.6,1.7,1.2,2.5,1.9c0.2,0.3,0.3,0.5,0.5,0.6c-0.5,0.6-0.7,1.5-0.2,2.2c0.9,1.3,2.5,2.2,3.7,3.4c0,0.1,0.1,0.2,0.1,0.3
								c0.2,0.3,0.3,0.6,0.5,0.9c0.2,0.3,0.4,0.5,0.7,0.7c0.1,0.2,0.1,0.4,0.2,0.6c-0.5,0.3-0.9,0.8-1,1.3l0,0
								c-0.9,1.9-0.8,3.3,0.1,5.2c1.3,3,2.2,6.2,3.5,9.2c1.7,3.8,4.3,5.6,7.1,8.5c2.3,2.4,7.2,9.1,11.3,7.7c5.2-1.8,3.4-8.7,4-13.1
								c0.2-1.6,4.6-3.7,5.7-5.4c1.9-2.8,5.5-4,6.9-7.1C359.2,158.4,350.1,152.3,347.9,149.1z"/>
							<path class="st4" d="M368.4,175.8c-0.1-0.3-0.2-0.5-0.4-0.7c-0.8-0.8-1.7-1.3-2.8-1.4c-1.1-0.1-2,1-2,2s0.8,1.8,1.7,2
								c0.1,0.1,0.2,0.2,0.3,0.3c0.4,0.4,0.9,0.6,1.4,0.6c0.2,0.8,0.8,1.6,1.5,1.7c0.1,0.1,0.2,0.3,0.3,0.4c2,1.6,4.1,3.7,6.8,4.2
								c1.5,0.2,3.4-1.4,2.3-2.9C375.4,179.2,372,174.3,368.4,175.8z"/>
							<path class="st4" d="M252.2,169.1c-2.6,0-2.6,4,0,4S254.8,169.1,252.2,169.1z"/>
							<path class="st4" d="M259.4,174.8c2.6,0,2.6-4,0-4S256.8,174.8,259.4,174.8z"/>
							<path class="st4" d="M265.9,167.4c-2.6,0-2.6,4,0,4S268.5,167.4,265.9,167.4z"/>
							<path class="st4" d="M252,196.8c0.7,0.5,1.7,0.5,2.5,0.3c1.1-0.3,1.7-1.4,1.4-2.5c-0.3-1-1.2-1.5-2.1-1.4
								c-0.9-0.5-2.1,0-2.5,0.8C250.7,195.1,251.2,196.2,252,196.8z"/>
							<path class="st4" d="M400.2,222.9c-0.1,0.7,0,1.4,0.5,1.8c1.6,1.3,2,3.4,2.3,5.4c0.2,1.1,1.5,1.7,2.5,1.4
								c0.2-0.1,0.4-0.2,0.6-0.3c0.7-0.5,0.9-1.3,0.8-2.2c-0.4-2.6-1.2-5.4-3.4-7.1c-0.2-0.2-0.5-0.3-0.8-0.4
								c-0.7-0.2-1.4-0.1-2,0.4l0,0c0-0.1,0-0.3,0-0.4c-0.2-5.2-2.3-9.8-4.2-14.6c-0.9-2.4-4.8-1.3-3.9,1.1
								c1.8,4.4,3.9,8.7,4.1,13.6C396.8,223.4,399.1,223.9,400.2,222.9z"/>
							<path class="st4" d="M406.5,249.9c-0.5,0.2-0.9,0.6-1,1.3c-1.1,6.2,0.3,14,3.8,19.2c1.1,1.6,3.8,1.1,3.7-1
								c-0.1-3.2-0.1-6.3-0.4-9.4c-0.3-3.3-2-6.1-2.2-9.4c-0.2-2.1-2.5-2.6-3.7-1C406.6,249.7,406.6,249.8,406.5,249.9z"/>
							<path class="st4" d="M414.4,295.2c-0.3-2.2-0.6-4.4-0.7-6.7c-0.1-1-0.1-2,0-3c0.1-1.6,0.1-3.2,0.2-4.7s0.1-3,0-4.5
								c0-0.1,0-0.2,0-0.3c0-0.2,0.1-0.4,0.1-0.7c0.4-2.5-3.5-3.6-3.9-1.1c-1.3,8.9-4.9,16.8-8.3,25c-1.5,3.8-2.7,7.7-3.6,11.7
								c-0.6,3-0.5,6.3-1,9.4c-0.2,0.2-0.4,0.4-0.5,0.8c-1.6,4.2-3.3,7.9-3.1,12.4c0.1,2,1.1,4.1,1.9,5.9c1.2,3,1.2,6.7,1.3,9.8
								c0,1.6,2.3,2.8,3.4,1.4c2.3-2.8,4.3-5,5.8-7.8c0.5-1,1-2.1,1.5-3.3c2.2-6.7,3.4-13.7,4.7-20.6c1.2-6.4,2.7-12.8,2.6-19.3
								C414.7,298.1,414.6,296.6,414.4,295.2z"/>
							<path class="st4" d="M247.2,312c-3.2-1-6.3-1.5-9.1-3.5c-1-0.7-1.9-0.3-2.5,0.5c-1.3-1-2.7-2-4.3-2.5
								c-5.7-1.6-10.3-0.5-15.9-0.2c-0.8,0-1.4,0.5-1.7,1c-0.7,1.2-0.1,3.1,1.7,3c0.3,0,0.6,0,0.9-0.1c0.1,0,0.3,0,0.4,0
								c4-0.3,7.6-1.1,11.2-0.4l0,0c1.7,0.3,3.4,1,5.1,2.1c4.9,3.2,7.8,3.9,13.6,4C249,316,249.3,312.6,247.2,312z"/>
							<path class="st4" d="M251.9,321.6c0.7-0.1,1.4-0.4,2.1-0.7c0.1,0,0.2,0.1,0.3,0.1c4.4,0.5,8.6-0.8,13-1c2-0.1,2.7-2.6,1-3.7
								c-3.9-2.6-9.7-2.5-14.2-2c-1.6,0.2-2.4,1.8-1.7,3c-0.5,0.2-1.1,0.3-1.6,0.4C248.3,318.2,249.4,322.1,251.9,321.6z"/>
							<path class="st4" d="M276.5,317.9c-0.8,0.3-1.3,0.3-2.2,0c-1-0.3-2.2,0.4-2.5,1.4c-0.3,1.1,0.4,2.1,1.4,2.5
								c1.4,0.5,2.9,0.5,4.3,0c1-0.4,1.7-1.3,1.4-2.5C278.7,318.4,277.6,317.6,276.5,317.9z"/>
							<path class="st4" d="M290.7,323.3c-1.1,0-2,0.9-2,2c0,1.4,0.3,2.6,0.9,3.8c0.4,1,1.9,1.2,2.7,0.7c1-0.6,1.1-1.7,0.7-2.7
								c-0.2-0.5-0.3-1.2-0.3-1.8C292.7,324.2,291.8,323.3,290.7,323.3z"/>
							<path class="st4" d="M238.1,317.9c-0.2-0.1-0.5-0.2-0.8-0.2c0,0,0,0-0.1,0s-0.1,0-0.2,0c-1.1-0.2-2.1,0.3-2.5,1.4
								c-0.3,1,0.3,2.2,1.4,2.5c0.2,0.1,0.5,0.1,0.7,0.1c1.2,0.2,2.4,0.5,3.7,0.6c1.1,0.1,2-1,2-2c0-1.2-0.9-1.9-2-2
								C239.6,318.2,238.8,318,238.1,317.9z"/>
							<path class="st4" d="M240.4,293.3L240.4,293.3L240.4,293.3c-0.8-0.3-1.5-0.6-2.3-0.9c-1-0.4-2.2,0.4-2.5,1.4
								c-0.3,1.1,0.4,2.1,1.4,2.5c0.8,0.3,1.5,0.6,2.3,0.9l0,0l0,0c2.1,0.8,3.6-2.7,1.5-3.7C240.8,293.4,240.6,293.4,240.4,293.3
								L240.4,293.3L240.4,293.3z"/>
							<path class="st4" d="M236.3,303.9c1,0.6,2.1,0.2,2.7-0.7c0.1-0.1,0.1-0.2,0.1-0.2c0.1-0.2,0.2-0.3,0.3-0.5
								c0.1-0.4,0.1-0.8,0.1-1.3c-0.3-1.7-2.9-1.9-3.7-0.5c-0.1,0.2-0.1,0.4-0.3,0.5C235,302,235.4,303.4,236.3,303.9z"/>
							<path class="st4" d="M250.5,308.8c2.6,0,2.6-4,0-4S247.9,308.8,250.5,308.8z"/>
							<path class="st4" d="M217.2,116.9c0.3,1,1.4,1.8,2.5,1.4c0.2-0.1,0.4-0.1,0.6-0.2c0.1,0,0.5-0.1,0.5-0.1
								c0.2,0,0.4-0.1,0.6-0.2c0.1,0.1,0.1,0.2,0.2,0.3c-0.6,0.1-1.1,0.5-1.4,1l0,0l0,0c-0.7,1.2,0,2.8,1.3,3.2
								c0.5,0.1,0.9,0.1,1.3-0.1h0.1c0.1,0.1,0.3,0.1,0.4,0.2c0.3,0.4,0.8,0.6,1.4,0.7c0.6,0,1.1,0.1,1.7,0.1c0.5,0,1,0.1,1.4,0.1
								c0.1,0,0.1,0,0.2,0l0,0c0.5,0,1.1,0,1.6,0c0.9-0.1,1.6-0.4,2.4-0.9c0.1-0.1,0.3-0.2,0.4-0.4c0.2,0.1,0.4,0.1,0.6,0.1
								c0.5-0.1,0.9-0.1,1.4-0.2c2-0.4,1.8-2.8,0.4-3.6c-0.4-0.9-1.2-1.5-2.3-1.1c-1.3,0.5-2,1.4-3.1,2.1c-0.4,0.2-0.9,0.3-1.5,0.3
								c-0.5-0.9-0.9-1.8-1.4-2.6c-0.1-0.1-0.1-0.3-0.2-0.4c0.1,0,0.1,0,0.2,0c0.1,0,0.2,0,0.3,0s0.1,0,0.2-0.1
								c0.1,0,0.2-0.1,0.2-0.1l0.1-0.1c0.1-0.1,0.2-0.1,0.2-0.2c0,0,0.1,0,0.1-0.1c0.1-0.1,0.2-0.2,0.2-0.3l0,0l0,0
								c0.1-0.2,0.2-0.3,0.2-0.5l0,0c0.1-0.4,0.1-0.7,0-1.1l0,0c-0.1-0.3-0.2-0.6-0.5-0.9l0,0c-0.1-0.1-0.2-0.2-0.3-0.3
								c0,0,0,0-0.1,0c-0.1-0.1-0.2-0.1-0.4-0.2c0,0,0,0-0.1,0c-0.2,0-0.3-0.1-0.5-0.1H226c-0.1,0-0.2,0-0.2,0
								c-0.7,0-1.2,0.3-1.6,0.8c-0.3,0-0.6,0.1-0.8,0.2c-0.7-0.4-1.7-0.5-2.6-0.3c-1,0.2-2,0.8-2.9,1.4c-0.4,0.2-0.7,0.6-0.8,1
								C217.1,116,217,116.4,217.2,116.9z"/>
						</g>
					</g>
				</g>
			</g>
			<g>
				<ellipse class="st7" cx="250" cy="275.6" rx="167.1" ry="12.6"/>
				<path class="st8" d="M250,263v25.2c-92.3,0-167.1-5.6-167.1-12.6C82.9,268.7,157.7,263,250,263z"/>
			</g>
		</g>
		<g>
			<g>
				<path class="st9" d="M237.7,275.6l41.5-39.2c21.3-20.1,54.6-20.1,75.9,0l41.5,39.2H237.7z"/>
				<path class="st10" d="M317.2,221.3v54.3h-79.5l41.5-39.2C289.9,226.4,303.5,221.3,317.2,221.3z"/>
			</g>
			<g>
				<path class="st9" d="M161.5,275.6l28.6-27c14.7-13.9,37.7-13.9,52.4,0l28.6,27H161.5z"/>
				<path class="st11" d="M216.4,238.2v37.4h-54.8l28.6-27C197.5,241.6,206.9,238.2,216.4,238.2z"/>
			</g>
			<g>
				<path class="st12" d="M98.6,275.6l27-54.2c13.9-27.8,35.5-27.8,49.4,0l27,54.2H98.6z"/>
				<path class="st11" d="M151,200.5v75.1H98.6l27-54.2C132.7,207.1,141.9,200.2,151,200.5z"/>
			</g>
		</g>
	</g>
	<g>
		<g>
			<g>
				<path class="st13" d="M220,275.6h-86.3l18.2-31.5l9.7-16.7l2.9-5.1c5.5-9.5,19.2-9.5,24.7,0l2.9,5.1L220,275.6z"/>
				<path class="st14" d="M176.8,215.1v60.5h-43.2l30.8-53.4C167.2,217.5,172,215.1,176.8,215.1z"/>
				<path class="st15" d="M192.1,227.3c-1.6,1.1-3.5,1.7-5.6,1.7c-1.8,0-3.4-0.5-4.9-1.3c-1.4,0.8-3.1,1.3-4.9,1.3
					c-1.8,0-3.4-0.5-4.9-1.3c-1.4,0.8-3.1,1.3-4.9,1.3c-2.1,0-4-0.6-5.5-1.7l2.9-5.1c5.5-9.5,19.2-9.5,24.7,0L192.1,227.3z"/>
				<path class="st16" d="M176.8,215.1v14c-1.8,0-3.4-0.5-4.9-1.3c-1.4,0.8-3.1,1.3-4.9,1.3c-2.1,0-4-0.6-5.5-1.7l2.9-5.1
					C167.2,217.5,172,215.1,176.8,215.1z"/>
			</g>
			<polygon class="st17" points="170.1,275.6 133.7,275.6 151.9,244.1 			"/>
			<g>
				<path class="st13" d="M167.1,275.6h-63.3l20.4-35.4l2.2-3.7c4-7,14.1-7,18.1,0l2.2,3.7L167.1,275.6z"/>
				<path class="st14" d="M135.4,231.2v44.4h-31.7l22.6-39.1C128.4,233,131.9,231.2,135.4,231.2z"/>
				<path class="st15" d="M146.7,240.2c-1.1,0.8-2.6,1.3-4.1,1.3c-1.3,0-2.5-0.4-3.6-1c-1.1,0.6-2.3,1-3.6,1s-2.5-0.4-3.6-1
					c-1.1,0.6-2.3,1-3.6,1c-1.5,0-2.9-0.5-4.1-1.3l2.2-3.7c4-7,14.1-7,18.1,0L146.7,240.2z"/>
				<path class="st16" d="M135.4,231.2v10.2c-1.3,0-2.5-0.4-3.6-1c-1.1,0.6-2.3,1-3.6,1c-1.5,0-2.9-0.5-4.1-1.3l2.2-3.7
					C128.4,233,131.9,231.2,135.4,231.2z"/>
			</g>
		</g>
		<g>
			<g>
				<path class="st13" d="M411.4,275.6h-53.9l11.3-19.6l6.1-10.6l1.8-3.2c3.4-5.9,12-5.9,15.4,0l1.8,3.2L411.4,275.6z"/>
				<path class="st14" d="M384.5,237.8v37.8h-27l19.2-33.3C378.5,239.3,381.5,237.8,384.5,237.8z"/>
				<path class="st15" d="M394,245.5c-1,0.7-2.2,1.1-3.5,1.1c-1.1,0-2.1-0.3-3-0.8c-0.9,0.5-1.9,0.8-3,0.8s-2.1-0.3-3-0.8
					c-0.9,0.5-1.9,0.8-3,0.8c-1.3,0-2.5-0.4-3.5-1.1l1.8-3.2c3.4-5.9,12-5.9,15.4,0L394,245.5z"/>
				<path class="st16" d="M384.5,237.8v8.7c-1.1,0-2.1-0.3-3-0.8c-0.9,0.5-1.9,0.8-3,0.8c-1.3,0-2.5-0.4-3.5-1.1l1.8-3.2
					C378.5,239.3,381.5,237.8,384.5,237.8z"/>
			</g>
			<polygon class="st17" points="380.1,275.6 357.5,275.6 368.8,256 			"/>
			<g>
				<path class="st13" d="M378.4,275.6h-39.5l12.8-22.1l1.4-2.3c2.5-4.4,8.8-4.4,11.3,0l1.4,2.3L378.4,275.6z"/>
				<path class="st14" d="M358.6,247.9v27.7h-19.8l14.1-24.4C354.2,249,356.4,247.9,358.6,247.9z"/>
				<path class="st15" d="M365.6,253.5c-0.7,0.5-1.6,0.8-2.5,0.8c-0.8,0-1.6-0.2-2.2-0.6c-0.7,0.4-1.4,0.6-2.2,0.6
					c-0.8,0-1.6-0.2-2.2-0.6c-0.7,0.4-1.4,0.6-2.2,0.6c-0.9,0-1.8-0.3-2.5-0.8l1.4-2.3c2.5-4.4,8.8-4.4,11.3,0L365.6,253.5z"/>
				<path class="st16" d="M358.6,247.9v6.4c-0.8,0-1.6-0.2-2.2-0.6c-0.7,0.4-1.4,0.6-2.2,0.6c-0.9,0-1.8-0.3-2.5-0.8l1.4-2.3
					C354.2,249,356.4,247.9,358.6,247.9z"/>
			</g>
		</g>
	</g>
	<g>
		<g>
			<rect x="349.9" y="197.2" class="st16" width="1.9" height="5.3"/>
			<rect x="350.9" y="197.2" class="st18" width="0.9" height="5.3"/>
			<g>
				<rect x="349.7" y="187" class="st16" width="2.4" height="6.3"/>
				<rect x="350.9" y="187" class="st18" width="1.2" height="6.3"/>
				<path class="st15" d="M352.6,161.2c0-1-0.8-1.7-1.8-1.7c-0.9,0-1.7,0.8-1.8,1.7l-1,24.8c-0.1,1.8,1,3.3,2.3,3.3h1.2
					c1.3,0,2.4-1.5,2.3-3.3L352.6,161.2z"/>
				<path class="st16" d="M350.9,159.5v29.8h-0.6c-1.3,0-2.4-1.5-2.3-3.3l1.1-24.8C349.1,160.2,349.9,159.5,350.9,159.5L350.9,159.5
					z"/>
			</g>
			<g>
				
					<rect x="354.2" y="194" transform="matrix(0.3748 -0.9271 0.9271 0.3748 39.4241 452.7632)" class="st16" width="2.4" height="6.3"/>
				
					<rect x="354.6" y="194.6" transform="matrix(0.3748 -0.9271 0.9271 0.3748 38.7471 452.9799)" class="st18" width="1.2" height="6.3"/>
				<path class="st15" d="M381.6,209.6c0.9,0.3,1.9-0.1,2.3-1s-0.1-1.9-0.9-2.3L360.5,196c-1.6-0.7-3.4-0.3-3.9,0.9l-0.5,1.1
					c-0.5,1.2,0.5,2.8,2.2,3.3L381.6,209.6z"/>
				<path class="st16" d="M383.9,208.7l-27.6-11.2l0.2-0.6c0.5-1.2,2.3-1.6,3.9-0.9l22.5,10.3C383.8,206.7,384.2,207.8,383.9,208.7
					L383.9,208.7z"/>
			</g>
			<g>
				
					<rect x="343.1" y="196" transform="matrix(0.9271 -0.3749 0.3749 0.9271 -48.6926 144.1874)" class="st16" width="6.3" height="2.4"/>
				
					<rect x="343.3" y="197.2" transform="matrix(0.9271 -0.3749 0.3749 0.9271 -48.8655 144.3192)" class="st18" width="6.3" height="1.2"/>
				<path class="st15" d="M320.1,209.6c-0.9,0.3-1.9-0.1-2.3-1s0.1-1.9,0.9-2.3l22.5-10.3c1.6-0.7,3.4-0.3,3.9,0.9l0.5,1.1
					c0.5,1.2-0.5,2.8-2.2,3.3L320.1,209.6z"/>
				<path class="st16" d="M317.9,208.7l27.6-11.2l-0.2-0.6c-0.5-1.2-2.3-1.6-3.9-0.9l-22.5,10.3
					C317.9,206.7,317.5,207.8,317.9,208.7L317.9,208.7z"/>
			</g>
			<path class="st16" d="M354.5,275.6h-7.4l1.8-73c0-1,0.9-1.8,1.9-1.8s1.9,0.8,1.9,1.8L354.5,275.6z"/>
			<path class="st15" d="M354.5,275.6h-3.7v-74.8c1,0,1.9,0.8,1.9,1.8L354.5,275.6z"/>
			<circle class="st19" cx="350.9" cy="195" r="3.3"/>
			<path class="st20" d="M352.8,195c0,1.1-0.9,2-2,2s-2-0.9-2-2s0.9-2,2-2S352.8,193.9,352.8,195z"/>
		</g>
		<g>
			<rect x="309.1" y="214.7" class="st16" width="1.5" height="4.1"/>
			<rect x="309.8" y="214.7" class="st18" width="0.7" height="4.1"/>
			<g>
				<rect x="308.9" y="206.7" class="st16" width="1.9" height="4.9"/>
				<rect x="309.8" y="206.7" class="st18" width="0.9" height="4.9"/>
				<path class="st15" d="M311.2,186.7c0-0.8-0.6-1.3-1.4-1.3c-0.7,0-1.3,0.6-1.4,1.3l-0.8,19.2c-0.1,1.4,0.7,2.5,1.8,2.5h0.9
					c1,0,1.8-1.2,1.8-2.5L311.2,186.7z"/>
				<path class="st16" d="M309.8,185.4v23.1h-0.5c-1,0-1.8-1.2-1.8-2.5l0.8-19.2C308.4,186,309.1,185.4,309.8,185.4L309.8,185.4z"/>
			</g>
			<g>
				
					<rect x="312.5" y="212.2" transform="matrix(0.3749 -0.9271 0.9271 0.3749 -3.0763 424.7293)" class="st16" width="1.9" height="4.9"/>
				
					<rect x="312.7" y="212.6" transform="matrix(0.3749 -0.9271 0.9271 0.3749 -3.5889 424.7872)" class="st18" width="0.9" height="4.9"/>
				<path class="st15" d="M333.7,224.3c0.7,0.2,1.5-0.1,1.8-0.8s0-1.5-0.7-1.8l-17.5-8c-1.2-0.6-2.6-0.3-3,0.7l-0.4,0.9
					c-0.4,1,0.4,2.1,1.7,2.6L333.7,224.3z"/>
				<path class="st16" d="M335.5,223.6l-21.4-8.7l0.2-0.4c0.4-1,1.8-1.3,3-0.7l17.5,8C335.4,222.1,335.8,222.9,335.5,223.6
					L335.5,223.6z"/>
			</g>
			<g>
				
					<rect x="303.8" y="213.7" transform="matrix(0.9271 -0.3749 0.3749 0.9271 -58.1338 130.4805)" class="st16" width="4.9" height="1.9"/>
				
					<rect x="303.9" y="214.7" transform="matrix(0.9271 -0.3749 0.3749 0.9271 -58.3051 130.5542)" class="st18" width="4.9" height="0.9"/>
				<path class="st15" d="M285.9,224.3c-0.7,0.2-1.5-0.1-1.8-0.8s0-1.5,0.7-1.8l17.5-8c1.2-0.6,2.6-0.3,3,0.7l0.4,0.9
					c0.4,1-0.4,2.1-1.7,2.6L285.9,224.3z"/>
				<path class="st16" d="M284.2,223.6l21.4-8.7l-0.2-0.4c-0.4-1-1.8-1.3-3-0.7l-17.5,8C284.2,222.1,283.9,222.9,284.2,223.6
					L284.2,223.6z"/>
			</g>
			<path class="st16" d="M312.7,275.6H307l1.4-56.7c0-0.8,0.7-1.4,1.5-1.4s1.4,0.6,1.5,1.4L312.7,275.6z"/>
			<path class="st15" d="M312.7,275.6h-2.9v-58.2c0.8,0,1.4,0.6,1.5,1.4L312.7,275.6z"/>
			<path class="st19" d="M312.4,213c0,1.4-1.1,2.6-2.6,2.6s-2.6-1.1-2.6-2.6c0-1.4,1.1-2.6,2.6-2.6S312.4,211.6,312.4,213z"/>
			<path class="st20" d="M311.4,213c0,0.8-0.7,1.5-1.5,1.5s-1.5-0.7-1.5-1.5s0.7-1.5,1.5-1.5C310.7,211.4,311.4,212.1,311.4,213z"/>
		</g>
	</g>
	<g>
		<path class="st21" d="M338,351.9h53.7c3.8,0,6.9-3.2,6.9-7c0-1.9-0.8-3.7-2-5c-1.3-1.3-3-2-5-2h-29c-3.9,0-7-3.1-7-7s3.1-7,7-7
			H475c3.9,0,7,3.1,7,7s-3.1,7-7,7h-51.9c-3.9,0-7,3.1-7,7c0,1.9,0.8,3.7,2,4.9c1.3,1.2,3,2,4.9,2h14c3.9,0,7,3.1,7,7l0,0
			c0,3.9-3.1,7-7,7h-99c-3.9,0-7-3.1-7-7l0,0C331,355,334.1,351.9,338,351.9z"/>
		<path class="st21" d="M138.3,390.3H81.7c-3.9,0-7-3.1-7-7l0,0c0-3.9,3.1-7,7-7h56.6c3.9,0,7,3.1,7,7l0,0
			C145.3,387.2,142.2,390.3,138.3,390.3z"/>
		<path class="st21" d="M378.2,419.3h-61.5c-3.9,0-7-3.1-7-7l0,0c0-3.9,3.1-7,7-7h61.5c3.9,0,7,3.1,7,7l0,0
			C385.2,416.2,382.1,419.3,378.2,419.3z"/>
		<path class="st21" d="M338.3,390.3h-61.5c-3.9,0-7-3.1-7-7l0,0c0-3.9,3.1-7,7-7h61.5c3.9,0,7,3.1,7,7l0,0
			C345.3,387.2,342.2,390.3,338.3,390.3z"/>
		<circle class="st21" cx="341.8" cy="330.9" r="7"/>
		<circle class="st21" cx="158" cy="383.8" r="7"/>
		<circle class="st3" cx="441.4" cy="251.1" r="7"/>
		<circle class="st3" cx="135.4" cy="417.1" r="7"/>
		<circle class="st3" cx="163.9" cy="178.8" r="7"/>
		<g>
			<path class="st5" d="M117.7,274.4c0,0.4-0.1,0.8-0.2,1.2H92.1c-0.1-0.4-0.2-0.8-0.2-1.2c0-0.9,0.2-1.8,0.7-2.5
				c0.9-1.5,2.5-2.5,4.3-2.5c0.8,0,1.5,0.2,2.1,0.5c0.7-2.8,3.3-4.9,6.3-4.9c1.8,0,3.4,0.7,4.6,1.9c0.7,0.7,1.3,1.6,1.6,2.7
				c0.3-0.1,0.7-0.1,1.1-0.1C115.4,269.4,117.7,271.6,117.7,274.4z"/>
			<path class="st22" d="M100.8,274.8c0,0.3,0,0.6-0.1,0.9H83c-0.1-0.3-0.1-0.6-0.1-0.9c0-0.6,0.2-1.2,0.5-1.7c0.6-1,1.7-1.7,3-1.7
				c0.5,0,1,0.1,1.5,0.3c0.5-2,2.3-3.4,4.4-3.4c1.3,0,2.4,0.5,3.2,1.3c0.5,0.5,0.9,1.1,1.1,1.9c0.2-0.1,0.5-0.1,0.7-0.1
				C99.3,271.3,100.8,272.8,100.8,274.8z"/>
		</g>
	</g>
	<g>
		<g>
			<circle class="st23" cx="327.3" cy="252.8" r="13.7"/>
			<path class="st24" d="M327.3,239.1v27.4c-7.6,0-13.7-6.1-13.7-13.7C313.6,245.2,319.7,239.1,327.3,239.1z"/>
			<path class="st25" d="M332.3,260.2c-0.3-0.3-0.8-0.4-1.2-0.1l-3,2.7v-3.7c0-0.4-0.4-0.8-0.8-0.8s-0.8,0.4-0.8,0.8v1.2l-1-0.9
				c-0.3-0.3-0.8-0.3-1.2,0.1c-0.1,0.2-0.2,0.3-0.2,0.5s0.1,0.5,0.3,0.6l2.1,1.8v13.1h1.6V265l4.1-3.6c0.2-0.2,0.3-0.4,0.3-0.6
				C332.5,260.6,332.4,260.4,332.3,260.2z"/>
			<path class="st26" d="M327.3,258.3v17.3h-0.8v-13.1l-2.1-1.8c-0.2-0.2-0.3-0.4-0.3-0.6s0.1-0.4,0.2-0.5c0.3-0.3,0.8-0.4,1.2-0.1
				l1,0.9v-1.2C326.5,258.7,326.8,258.3,327.3,258.3z"/>
		</g>
		<g>
			
				<ellipse transform="matrix(0.7451 -0.6669 0.6669 0.7451 -137.0139 140.9337)" class="st23" cx="115.9" cy="249.7" rx="15.5" ry="15.5"/>
			<path class="st24" d="M115.9,234.2v31.1c-8.6,0-15.5-7-15.5-15.5C100.4,241.1,107.3,234.2,115.9,234.2z"/>
			<path class="st25" d="M121.6,258.2c-0.3-0.4-0.9-0.4-1.3-0.1l-3.4,3V257c0-0.5-0.4-0.9-0.9-0.9s-0.9,0.4-0.9,0.9v1.4l-1.2-1
				c-0.4-0.3-1-0.3-1.3,0.1c-0.1,0.2-0.2,0.4-0.2,0.6c0,0.3,0.1,0.5,0.3,0.7l2.4,2.1v14.8h1.8v-12l4.7-4.1c0.2-0.2,0.3-0.4,0.3-0.7
				C121.8,258.6,121.7,258.4,121.6,258.2z"/>
			<path class="st26" d="M115.9,256v19.6H115v-14.8l-2.4-2.1c-0.2-0.2-0.3-0.4-0.3-0.7c0-0.2,0.1-0.4,0.2-0.6
				c0.3-0.4,0.9-0.4,1.3-0.1l1.2,1V257C115,256.4,115.4,256,115.9,256z"/>
		</g>
		<g>
			<ellipse class="st23" cx="93.2" cy="252.8" rx="13.7" ry="13.7"/>
			<path class="st24" d="M93.2,239.1v27.4c-7.6,0-13.7-6.1-13.7-13.7C79.4,245.2,85.6,239.1,93.2,239.1z"/>
			<path class="st25" d="M98.2,260.3c-0.3-0.3-0.8-0.4-1.2-0.1l-3,2.7v-3.7c0-0.4-0.4-0.8-0.8-0.8s-0.8,0.4-0.8,0.8v1.2l-1-0.9
				c-0.3-0.3-0.8-0.3-1.2,0.1c-0.1,0.2-0.2,0.3-0.2,0.5s0.1,0.5,0.3,0.6l2.1,1.8v13.1H94V265l4.1-3.6c0.2-0.2,0.3-0.4,0.3-0.6
				C98.4,260.6,98.3,260.4,98.2,260.3z"/>
			<path class="st26" d="M93.2,258.3v17.3h-0.8v-13.1l-2.1-1.8c-0.2-0.2-0.3-0.4-0.3-0.6s0.1-0.4,0.2-0.5c0.3-0.3,0.8-0.4,1.2-0.1
				l1,0.9v-1.2C92.3,258.7,92.7,258.3,93.2,258.3z"/>
			<path class="st24" d="M82.6,239.6c0,0-0.6,1.6,0.4,3.1c-0.8-0.4-1.9-0.5-3.1,0c0,0,1.5,2.9,5,1.5l0,0l0,0
				C84.9,244.3,85.7,241,82.6,239.6z"/>
		</g>
		<g>
			<path class="st23" d="M414.6,268.9L414.6,268.9c-4,0-7.3-3.3-7.3-7.3v-12.8c0-4,3.3-7.3,7.3-7.3l0,0c4,0,7.3,3.3,7.3,7.3v12.8
				C421.9,265.6,418.6,268.9,414.6,268.9z"/>
			<path class="st24" d="M414.6,241.5v27.3c-4,0-7.3-3.3-7.3-7.3v-12.8C407.4,244.8,410.6,241.5,414.6,241.5z"/>
			<path class="st25" d="M418.7,264c0,0.2-0.1,0.4-0.2,0.5l-3.2,2.8v8.3H414v-12.8c0-0.4,0.3-0.6,0.6-0.6s0.6,0.3,0.6,0.6v2.9
				l2.4-2.1c0.3-0.2,0.7-0.2,0.9,0.1C418.6,263.7,418.7,263.9,418.7,264z"/>
			<path class="st25" d="M410.6,254.5c0,0.2,0.1,0.4,0.2,0.5l3.2,2.8v2.3c0,0.4,0.3,0.6,0.6,0.6l0,0c0.4,0,0.6-0.3,0.6-0.6v-6.8
				c0-0.4-0.3-0.6-0.6-0.6c-0.4,0-0.6,0.3-0.6,0.6v2.9l-2.4-2.1c-0.3-0.2-0.7-0.2-0.9,0.1C410.7,254.2,410.6,254.3,410.6,254.5z"/>
			<path class="st26" d="M414.6,262.1v13.5H414v-12.8C414,262.4,414.3,262.1,414.6,262.1z"/>
			<path class="st26" d="M414.6,252.6v8.1c-0.3,0-0.6-0.3-0.6-0.6v-2.3l-3.2-2.8c-0.1-0.1-0.2-0.3-0.2-0.5c0-0.1,0.1-0.3,0.2-0.4
				c0.2-0.3,0.6-0.3,0.9-0.1l2.4,2.1v-2.9C414,252.9,414.3,252.6,414.6,252.6z"/>
		</g>
		<g>
			<path class="st23" d="M374.9,268.9L374.9,268.9c-4,0-7.3-3.3-7.3-7.3v-12.8c0-4,3.3-7.3,7.3-7.3l0,0c4,0,7.3,3.3,7.3,7.3v12.8
				C382.2,265.6,378.9,268.9,374.9,268.9z"/>
			<path class="st24" d="M374.9,241.5v27.3c-4,0-7.3-3.3-7.3-7.3v-12.8C367.7,244.8,370.9,241.5,374.9,241.5z"/>
			<path class="st25" d="M379,264c0,0.2-0.1,0.4-0.2,0.5l-3.2,2.8v8.3h-1.3v-12.8c0-0.4,0.3-0.6,0.6-0.6s0.6,0.3,0.6,0.6v2.9
				l2.4-2.1c0.3-0.2,0.7-0.2,0.9,0.1C378.9,263.7,379,263.9,379,264z"/>
			<path class="st25" d="M370.9,254.5c0,0.2,0.1,0.4,0.2,0.5l3.2,2.8v2.3c0,0.4,0.3,0.6,0.6,0.6l0,0c0.4,0,0.6-0.3,0.6-0.6v-6.8
				c0-0.4-0.3-0.6-0.6-0.6c-0.4,0-0.6,0.3-0.6,0.6v2.9l-2.4-2.1c-0.3-0.2-0.7-0.2-0.9,0.1C370.9,254.2,370.9,254.3,370.9,254.5z"/>
			<path class="st26" d="M374.9,262.1v13.5h-0.6v-12.8C374.3,262.4,374.6,262.1,374.9,262.1z"/>
			<path class="st26" d="M374.9,252.6v8.1c-0.3,0-0.6-0.3-0.6-0.6v-2.3l-3.2-2.8c-0.1-0.1-0.2-0.3-0.2-0.5c0-0.1,0.1-0.3,0.2-0.4
				c0.2-0.3,0.6-0.3,0.9-0.1l2.4,2.1v-2.9C374.3,252.9,374.6,252.6,374.9,252.6z"/>
		</g>
	</g>
	<g>
		<g>
			<polygon class="st27" points="249.3,275.6 225.8,275.6 230,213.8 230.2,209.9 230.5,205.7 230.7,202.8 230.8,201.8 230.8,201.1 
				231,197.7 231.1,197.1 231.2,195.4 231.3,193.8 231.5,191.4 231.6,189.8 231.8,186.9 243.3,186.9 243.5,189.8 243.6,191.4 
				243.8,193.8 243.9,195.4 244,197.1 244.1,197.7 244.3,201.1 244.3,201.8 244.4,202.8 244.6,205.7 244.9,209.9 245.1,213.8 			"/>
			<polygon class="st28" points="237.6,186.9 237.6,275.6 225.8,275.6 231.8,186.9 			"/>
			<polygon class="st29" points="243.6,191.4 231.5,191.4 231.6,189.8 243.5,189.8 			"/>
			<polygon class="st29" points="244,197.1 231.1,197.1 231.2,195.4 243.9,195.4 			"/>
			<polygon class="st29" points="244.4,202.8 230.7,202.8 230.8,201.8 230.8,201.1 244.3,201.1 244.3,201.8 			"/>
			<polygon class="st30" points="237.6,189.8 237.6,191.4 231.5,191.4 231.6,189.8 			"/>
			<polygon class="st30" points="237.6,195.4 237.6,197.1 231.1,197.1 231.2,195.4 			"/>
			<polygon class="st30" points="237.6,201.1 237.6,202.8 230.7,202.8 230.8,201.8 230.8,201.1 			"/>
			<rect x="230.7" y="184.8" class="st27" width="13.7" height="2.2"/>
			<rect x="237.6" y="184.8" class="st31" width="6.9" height="2.2"/>
		</g>
		<path class="st21" d="M242.6,180.6c0,1.4-1.1,2.5-2.5,2.5s-2.5-1.1-2.5-2.5s1.1-2.5,2.5-2.5S242.6,179.2,242.6,180.6z"/>
		<path class="st21" d="M296.1,169.7L296.1,169.7c0,3.8-3.1,6.9-6.9,6.9h-51.5l-0.1-0.1c-0.1-5.1,3.9-9.3,9-9.3
			c1.1,0,2.1,0.2,3.1,0.5h0.1c1.9-4.5,6.4-7.7,11.6-7.7c2,0,3.8,0.5,5.5,1.3h0.1c2.8-4.4,7.7-7.4,13.3-7.4
			C289,153.9,296.1,161,296.1,169.7z"/>
		<path class="st21" d="M272,184.9C272,184.9,272,185,272,184.9c0,1.5-1.3,2.7-2.8,2.7h-20.4l0,0c-0.1-2,1.6-3.7,3.6-3.7
			c0.4,0,0.9,0.1,1.2,0.2c0.8-1.8,2.5-3.1,4.6-3.1c0.8,0,1.5,0.2,2.2,0.5c1.1-1.8,3.1-3,5.3-3C269.2,178.7,272,181.5,272,184.9z"/>
		<rect x="222.9" y="260.3" class="st32" width="29.4" height="15.3"/>
		<rect x="222.9" y="260.3" class="st33" width="14.8" height="15.3"/>
		<g>
			<path class="st12" d="M248.2,269.9c0,1.2-1,2.2-2.2,2.2s-2.2-1-2.2-2.2s1-2.2,2.2-2.2S248.2,268.7,248.2,269.9z"/>
			<path class="st11" d="M248,276.6h-4V270c0-1.1,0.9-2,2-2l0,0c1.1,0,2,0.9,2,2V276.6z"/>
			<path class="st34" d="M246,268v8.7h-2.1V270C243.9,268.9,244.8,268,246,268L246,268z"/>
			<path class="st35" d="M248.1,276.9h-4.2c-0.1,0-0.2-0.1-0.2-0.2l0,0c0-0.1,0.1-0.2,0.2-0.2h4.2c0.1,0,0.2,0.1,0.2,0.2l0,0
				C248.3,276.8,248.2,276.9,248.1,276.9z"/>
			<path class="st16" d="M246,276.5v0.4h-2.1c-0.1,0-0.2-0.1-0.2-0.2s0.1-0.2,0.2-0.2L246,276.5L246,276.5z"/>
		</g>
		<rect x="225.7" y="262" class="st16" width="23.9" height="2"/>
		<rect x="237.7" y="262" class="st15" width="12" height="2"/>
		<rect x="237.7" y="265.4" class="st15" width="12" height="2"/>
		<rect x="225.7" y="265.4" class="st16" width="23.9" height="2"/>
		<path class="st15" d="M240.5,275.6h-5.6v-4.3c0-1.5,1.2-2.8,2.8-2.8l0,0c1.5,0,2.8,1.2,2.8,2.8V275.6z"/>
		<path class="st16" d="M237.7,268.6v7h-2.8v-4.3C234.9,269.8,236.2,268.6,237.7,268.6z"/>
	</g>
	<g>
		<path class="st22" d="M126.2,274.6c0,0.3,0,0.7-0.1,1h-20.2c-0.1-0.3-0.1-0.6-0.1-1c0-0.7,0.2-1.4,0.5-2c0.7-1.2,2-2,3.4-2
			c0.6,0,1.2,0.1,1.7,0.4c0.6-2.3,2.6-3.9,5-3.9c1.4,0,2.7,0.6,3.7,1.5c0.6,0.6,1,1.3,1.3,2.1c0.3-0.1,0.5-0.1,0.8-0.1
			C124.4,270.7,126.2,272.4,126.2,274.6z"/>
		<path class="st5" d="M403.7,274.3c0,0.5-0.1,0.9-0.2,1.3H376c-0.1-0.4-0.2-0.9-0.2-1.3c0-1,0.3-1.9,0.7-2.7
			c0.9-1.6,2.7-2.7,4.7-2.7c0.8,0,1.6,0.2,2.3,0.5c0.8-3.1,3.6-5.4,6.9-5.4c2,0,3.7,0.8,5,2.1c0.8,0.8,1.4,1.8,1.8,2.9
			c0.4-0.1,0.7-0.1,1.1-0.1C401.3,268.9,403.7,271.3,403.7,274.3z"/>
		<path class="st22" d="M385,274.8c0,0.3,0,0.6-0.1,0.9h-17.7c-0.1-0.3-0.1-0.6-0.1-0.9c0-0.6,0.2-1.2,0.5-1.7c0.6-1,1.7-1.7,3-1.7
			c0.5,0,1,0.1,1.5,0.3c0.5-2,2.3-3.4,4.4-3.4c1.3,0,2.4,0.5,3.2,1.3c0.5,0.5,0.9,1.1,1.1,1.9c0.2-0.1,0.5-0.1,0.7-0.1
			C383.5,271.3,385,272.8,385,274.8z"/>
	</g>
	<g>
		<g>
			<polygon class="st36" points="229.5,275.6 190,275.6 197,233.4 197.4,230.8 197.9,227.9 198.3,225.3 198.8,222.4 199.2,219.8 
				200,215.1 219.5,215.1 220.3,219.8 220.7,222.4 221.2,225.3 221.6,227.9 222.1,230.8 222.5,233.4 			"/>
			<polygon class="st16" points="209.8,215.1 209.8,275.6 190,275.6 200,215.1 			"/>
			<polygon class="st10" points="220.7,222.4 198.8,222.4 199.2,219.8 220.3,219.8 			"/>
			<polygon class="st10" points="221.6,227.9 197.9,227.9 198.3,225.3 221.2,225.3 			"/>
			<polygon class="st10" points="222.5,233.4 197,233.4 197.4,230.8 222.1,230.8 			"/>
			<polygon class="st11" points="209.8,219.8 209.8,222.4 198.8,222.4 199.2,219.8 			"/>
			<polygon class="st11" points="209.8,225.3 209.8,227.9 197.9,227.9 198.3,225.3 			"/>
			<polygon class="st11" points="209.8,230.8 209.8,233.4 197,233.4 197.4,230.8 			"/>
			<rect x="198.4" y="212.8" class="st15" width="22.7" height="2.3"/>
			<rect x="209.8" y="212.8" class="st37" width="11.3" height="2.3"/>
		</g>
		<g>
			<circle class="st21" cx="209.7" cy="194.2" r="16.1"/>
			<g>
				<path class="st38" d="M215.4,206.6c-0.2,0.1-0.4,0.2-0.6,0.3c-2.7,1.2-5.5,0.5-7.3-1.2l-0.9,1.2l-0.8-0.8l1.2-0.9
					c-0.1-0.1-0.2-0.2-0.2-0.3s-0.1-0.2-0.2-0.3c-0.1-0.2-0.3-0.4-0.4-0.6c-0.2-0.4-0.4-0.8-0.6-1.3c-0.1-0.1-0.1-0.3-0.1-0.5
					c0-0.1,0-0.2-0.1-0.3c-0.1-0.3-0.1-0.6-0.1-0.9c-0.1-1.1,0.1-2.2,0.6-3.3c0.8-1.9,2.5-3.8,5.6-5.2c0.6-0.3,1.2-0.5,1.9-0.8
					c2.3-0.8,5.3-1.4,9.1-1.6c-0.4,6-1.6,10-3.2,12.6C218,204.7,216.8,205.8,215.4,206.6z"/>
				<path class="st11" d="M222.3,190.3l-16.2,16.2l-0.4-0.4l1.2-0.9l0,0c-0.2-0.2-0.3-0.4-0.4-0.5c-0.1-0.2-0.3-0.4-0.4-0.6
					c-0.2-0.4-0.4-0.8-0.6-1.3c-0.1-0.1-0.1-0.3-0.1-0.5c-0.1-0.4-0.2-0.8-0.2-1.2c-0.1-1.1,0.1-2.2,0.6-3.3
					c0.8-1.9,2.5-3.8,5.6-5.2c0.6-0.3,1.2-0.5,1.9-0.8C215.6,191.1,218.6,190.5,222.3,190.3z"/>
				<path class="st39" d="M215.4,197.2l-1.6,1.6l-2.5-6.2c0.6-0.3,1.2-0.5,1.9-0.8L215.4,197.2z"/>
				<path class="st40" d="M215.4,206.6l-6.7-2.7l3.7-3.7l6.7,2.7C218,204.7,216.8,205.8,215.4,206.6z"/>
			</g>
			<g>
				<path class="st38" d="M201.8,194c0.1,0.1,0.2,0.1,0.4,0.2c1.5,0.7,3,0.3,4-0.7l0.5,0.6l0.4-0.4l-0.6-0.5l0.1-0.1
					c0,0,0.1-0.1,0.1-0.2c0.1-0.1,0.1-0.2,0.2-0.3c0.1-0.2,0.2-0.5,0.3-0.7c0-0.1,0.1-0.2,0.1-0.3s0-0.1,0-0.2
					c0-0.2,0.1-0.3,0.1-0.5c0-0.6-0.1-1.2-0.3-1.8c-0.5-1-1.4-2.1-3.1-2.8c-0.3-0.2-0.7-0.3-1.1-0.4c-1.3-0.4-2.9-0.8-5-0.9
					c0.2,3.3,0.9,5.5,1.8,6.9C200.4,193,201.1,193.6,201.8,194z"/>
				<path class="st11" d="M198,185l8.9,8.9l0.2-0.2l-0.6-0.5l0,0c0.1-0.1,0.2-0.2,0.2-0.3c0.1-0.1,0.1-0.2,0.2-0.3
					c0.1-0.2,0.2-0.5,0.3-0.7c0-0.1,0.1-0.2,0.1-0.3c0.1-0.2,0.1-0.4,0.1-0.7c0-0.6-0.1-1.2-0.3-1.8c-0.5-1-1.4-2.1-3.1-2.8
					c-0.3-0.2-0.7-0.3-1.1-0.4C201.7,185.5,200.1,185.2,198,185z"/>
				<path class="st39" d="M201.9,188.9l0.9,0.9l1.4-3.4c-0.3-0.2-0.7-0.3-1.1-0.4L201.9,188.9z"/>
				<path class="st40" d="M201.8,194l3.7-1.5l-2-2l-3.7,1.5C200.4,193,201.1,193.6,201.8,194z"/>
			</g>
		</g>
	</g>
	<g>
		<rect x="392" y="227.6" class="st16" width="1.1" height="3.2"/>
		<rect x="392.5" y="227.6" class="st18" width="0.6" height="3.2"/>
		<g>
			<rect x="391.8" y="221.3" class="st16" width="1.5" height="3.9"/>
			<rect x="392.5" y="221.3" class="st18" width="0.7" height="3.9"/>
			<path class="st15" d="M393.6,205.6c0-0.6-0.5-1.1-1.1-1.1s-1.1,0.5-1.1,1.1l-0.7,15.2c0,1.1,0.6,2,1.4,2h0.7c0.8,0,1.5-0.9,1.4-2
				L393.6,205.6z"/>
			<path class="st16" d="M392.5,204.5v18.2h-0.4c-0.8,0-1.5-0.9-1.4-2l0.7-15.2C391.5,205,391.9,204.5,392.5,204.5L392.5,204.5z"/>
		</g>
		<g>
			
				<rect x="394.5" y="225.6" transform="matrix(0.3749 -0.9271 0.9271 0.3749 36.1251 508.7059)" class="st16" width="1.5" height="3.9"/>
			
				<rect x="394.9" y="225.9" transform="matrix(0.3748 -0.9271 0.9271 0.3748 35.8329 508.8913)" class="st18" width="0.7" height="3.9"/>
			<path class="st15" d="M411.4,235.2c0.6,0.2,1.2-0.1,1.4-0.6c0.2-0.5,0-1.2-0.6-1.4l-13.8-6.3c-1-0.4-2.1-0.2-2.4,0.6l-0.3,0.7
				c-0.3,0.8,0.3,1.7,1.3,2.1L411.4,235.2z"/>
			<path class="st16" d="M412.8,234.6l-16.9-6.8l0.1-0.3c0.3-0.8,1.4-1,2.4-0.6l13.8,6.3C412.7,233.4,413,234.1,412.8,234.6
				L412.8,234.6z"/>
		</g>
		<g>
			
				<rect x="387.7" y="226.9" transform="matrix(0.9271 -0.3749 0.3749 0.9271 -56.9153 162.6904)" class="st16" width="3.9" height="1.5"/>
			
				<rect x="387.9" y="227.6" transform="matrix(0.9271 -0.3749 0.3749 0.9271 -57.0122 162.7771)" class="st18" width="3.9" height="0.7"/>
			<path class="st15" d="M373.7,235.2c-0.6,0.2-1.2-0.1-1.4-0.6c-0.2-0.5,0-1.2,0.6-1.4l13.8-6.3c1-0.4,2.1-0.2,2.4,0.6l0.3,0.7
				c0.3,0.8-0.3,1.7-1.3,2.1L373.7,235.2z"/>
			<path class="st16" d="M372.3,234.6l16.9-6.8l-0.1-0.3c-0.3-0.8-1.4-1-2.4-0.6l-13.8,6.3C372.4,233.4,372.1,234.1,372.3,234.6
				L372.3,234.6z"/>
		</g>
		<path class="st16" d="M394.8,275.6h-4.5l1.1-44.7c0-0.6,0.5-1.1,1.2-1.1c0.6,0,1.1,0.5,1.2,1.1L394.8,275.6z"/>
		<path class="st15" d="M394.8,275.6h-2.3v-45.8c0.6,0,1.1,0.5,1.2,1.1L394.8,275.6z"/>
		<circle class="st19" cx="392.5" cy="226.2" r="2"/>
		<path class="st20" d="M393.7,226.2c0,0.7-0.5,1.2-1.2,1.2s-1.2-0.5-1.2-1.2s0.5-1.2,1.2-1.2S393.7,225.6,393.7,226.2z"/>
	</g>
	<g>
		<path class="st22" d="M417.2,274.4c0,0.4-0.1,0.8-0.2,1.2h-25c-0.1-0.4-0.2-0.8-0.2-1.2c0-0.9,0.2-1.7,0.7-2.5
			c0.8-1.5,2.4-2.5,4.3-2.5c0.8,0,1.5,0.2,2.1,0.5c0.7-2.8,3.2-4.9,6.2-4.9c1.8,0,3.4,0.7,4.5,1.9c0.7,0.7,1.3,1.6,1.6,2.6
			c0.3-0.1,0.7-0.1,1-0.1C415,269.5,417.2,271.7,417.2,274.4z"/>
	</g>
	<g>
		<g>
			<polygon class="st15" points="172.9,275.6 161.2,275.6 163.2,239.1 170.9,239.1 			"/>
			<polygon class="st16" points="167.1,239.1 167.1,275.6 161.2,275.6 163.2,239.1 			"/>
			<rect x="162.7" y="237.7" class="st15" width="8.9" height="1.3"/>
			<rect x="167.1" y="237.7" class="st35" width="4.5" height="1.3"/>
		</g>
		<path class="st41" d="M203.4,275.6H157v-3.9c0-12.8,10.4-23.2,23.2-23.2l0,0c12.8,0,23.2,10.4,23.2,23.2V275.6z"/>
		<path class="st42" d="M180.1,248.5v27.1h-23.2v-3.9C156.9,258.9,167.3,248.5,180.1,248.5z"/>
		<g>
			<path class="st12" d="M169.3,269.9c0,1.2-1,2.2-2.2,2.2s-2.2-1-2.2-2.2s1-2.2,2.2-2.2C168.3,267.7,169.3,268.7,169.3,269.9z"/>
			<path class="st11" d="M169.1,276.6h-4V270c0-1.1,0.9-2,2-2l0,0c1.1,0,2,0.9,2,2V276.6z"/>
			<path class="st34" d="M167.1,268v8.7H165V270C165,268.9,165.9,268,167.1,268L167.1,268z"/>
			<path class="st35" d="M169.2,276.9H165c-0.1,0-0.2-0.1-0.2-0.2l0,0c0-0.1,0.1-0.2,0.2-0.2h4.2c0.1,0,0.2,0.1,0.2,0.2l0,0
				C169.4,276.8,169.3,276.9,169.2,276.9z"/>
			<path class="st16" d="M167.1,276.5v0.4H165c-0.1,0-0.2-0.1-0.2-0.2s0.1-0.2,0.2-0.2L167.1,276.5L167.1,276.5z"/>
		</g>
		<g>
			<path class="st12" d="M182.3,269.9c0,1.2-1,2.2-2.2,2.2s-2.2-1-2.2-2.2s1-2.2,2.2-2.2C181.3,267.7,182.3,268.7,182.3,269.9z"/>
			<path class="st11" d="M182.1,276.6h-4V270c0-1.1,0.9-2,2-2l0,0c1.1,0,2,0.9,2,2V276.6z"/>
			<path class="st34" d="M180.2,268v8.7h-2.1V270C178.1,268.9,179,268,180.2,268L180.2,268z"/>
			<path class="st35" d="M182.3,276.9H178c-0.1,0-0.2-0.1-0.2-0.2l0,0c0-0.1,0.1-0.2,0.2-0.2h4.2c0.1,0,0.2,0.1,0.2,0.2l0,0
				C182.5,276.8,182.4,276.9,182.3,276.9z"/>
			<path class="st16" d="M180.2,276.5v0.4H178c-0.1,0-0.2-0.1-0.2-0.2s0.1-0.2,0.2-0.2L180.2,276.5L180.2,276.5z"/>
		</g>
		<g>
			<path class="st12" d="M195.4,269.9c0,1.2-1,2.2-2.2,2.2s-2.2-1-2.2-2.2s1-2.2,2.2-2.2S195.4,268.7,195.4,269.9z"/>
			<path class="st11" d="M195.2,276.6h-4V270c0-1.1,0.9-2,2-2l0,0c1.1,0,2,0.9,2,2V276.6z"/>
			<path class="st34" d="M193.2,268v8.7h-2.1V270C191.2,268.9,192.1,268,193.2,268L193.2,268z"/>
			<path class="st35" d="M195.3,276.9h-4.2c-0.1,0-0.2-0.1-0.2-0.2l0,0c0-0.1,0.1-0.2,0.2-0.2h4.2c0.1,0,0.2,0.1,0.2,0.2l0,0
				C195.5,276.8,195.4,276.9,195.3,276.9z"/>
			<path class="st16" d="M193.2,276.5v0.4h-2.1c-0.1,0-0.2-0.1-0.2-0.2s0.1-0.2,0.2-0.2L193.2,276.5L193.2,276.5z"/>
		</g>
		
			<ellipse transform="matrix(0.1644 -0.9864 0.9864 0.1644 -104.1271 393.5977)" class="st15" cx="180.2" cy="258.3" rx="8.3" ry="8.3"/>
		<path class="st16" d="M180.2,249.9v16.7c-4.6,0-8.3-3.7-8.3-8.3S175.6,249.9,180.2,249.9z"/>
		<g>
			<path class="st43" d="M180.2,262c-2.1,0-3.8-1.7-3.8-3.8h0.4l-1.1-1l-1.1,1h0.4c0,2.8,2.3,5.1,5.1,5.1c2.2,0,4-1.3,4.8-3.3h-1.4
				C182.9,261.2,181.7,262,180.2,262z"/>
			<path class="st43" d="M180.2,254.4c2.1,0,3.8,1.7,3.8,3.8h-0.4l1.1,1l1.1-1h-0.4c0-2.8-2.3-5.1-5.1-5.1c-2.2,0-4,1.3-4.8,3.3h1.4
				C177.5,255.2,178.8,254.4,180.2,254.4z"/>
		</g>
		<g>
			<path class="st44" d="M180.2,262v1.3l0,0c-2.8,0-5.1-2.3-5.1-5.1h-0.4l1.1-1l1.1,1h-0.4C176.4,260.3,178.1,262,180.2,262
				L180.2,262z"/>
			<path class="st44" d="M180.2,253.1v1.3l0,0c-1.4,0-2.7,0.8-3.4,2h-1.4C176.2,254.4,178.1,253.1,180.2,253.1L180.2,253.1z"/>
		</g>
	</g>
	<g>
		<ellipse class="st45" cx="178.1" cy="124.1" rx="16" ry="16"/>
		<path class="st46" d="M178.1,108.1v32.1c-8.9,0-16-7.2-16-16S169.2,108.1,178.1,108.1z"/>
		<polygon class="st46" points="175.5,106.2 178.1,101.6 180.7,106.2 		"/>
		<polygon class="st46" points="188.9,109.5 194,108.2 192.7,113.3 		"/>
		<polygon class="st46" points="196,121.4 200.6,124.1 196,126.7 		"/>
		<polygon class="st46" points="192.7,134.9 194,140 188.9,138.7 		"/>
		<polygon class="st46" points="180.7,142 178.1,146.6 175.5,142 		"/>
		<polygon class="st46" points="167.3,138.7 162.2,140 163.5,134.9 		"/>
		<polygon class="st46" points="160.2,126.7 155.6,124.1 160.2,121.4 		"/>
		<polygon class="st46" points="163.5,113.3 162.2,108.2 167.3,109.5 		"/>
	</g>
	<g>
		<rect id="a" x="284" y="240.5" class="st15" width="6.1" height="9.4"/>
		<rect id="a_1_" x="283.7" y="240.5" class="st47" width="6.8" height="1.3"/>
		<polygon class="st15" points="295.8,275.6 259,275.6 259,251.2 277.4,242.2 295.8,251.2 		"/>
		<polygon class="st16" points="277.4,242.2 277.4,275.6 259,275.6 259,251.2 		"/>
		<g>
			<polygon class="st47" points="296.7,252.6 277.4,243.3 258.3,252.6 257.5,250.8 277.4,241.1 297.5,250.8 			"/>
		</g>
		<g>
			<rect x="264.1" y="254.6" class="st47" width="8.2" height="10.8"/>
			<rect x="264.7" y="255.2" class="st48" width="7" height="9.7"/>
			<rect x="267.8" y="254.9" class="st47" width="0.7" height="10.1"/>
			<rect x="264.3" y="259.6" class="st47" width="7.8" height="0.7"/>
			<polygon class="st49" points="269.2,265.4 264.1,265.4 264.1,254.6 267,254.6 			"/>
		</g>
		<g>
			<rect x="282.6" y="254.6" class="st47" width="8.2" height="10.8"/>
			<rect x="283.2" y="255.2" class="st48" width="7" height="9.7"/>
			<rect x="286.4" y="254.9" class="st47" width="0.7" height="10.1"/>
			<rect x="282.8" y="259.7" class="st47" width="7.8" height="0.7"/>
			<polygon class="st49" points="287.8,265.4 282.6,265.4 282.6,254.6 285.6,254.6 			"/>
		</g>
		<g>
			<polygon class="st48" points="277.5,241.1 277.5,243.3 277.4,243.3 258.3,252.6 257.5,250.8 277.4,241.1 			"/>
		</g>
	</g>
	<g>
		<g>
			<rect x="305.4" y="276.2" class="st16" width="3" height="5.8"/>
			<rect x="306.9" y="276.2" class="st50" width="1.5" height="5.8"/>
			<rect x="292.4" y="259.2" class="st49" width="29.2" height="19.9"/>
			<rect x="293.4" y="260.1" class="st48" width="8.3" height="8.3"/>
			<rect x="302.7" y="260.1" class="st48" width="8.3" height="8.3"/>
			<rect x="312.1" y="260.1" class="st48" width="8.3" height="8.3"/>
			<rect x="293.4" y="269.6" class="st48" width="8.3" height="8.3"/>
			<rect x="302.7" y="269.6" class="st48" width="8.3" height="8.3"/>
			<rect x="312.1" y="269.6" class="st48" width="8.3" height="8.3"/>
			<polygon class="st49" points="308.6,279 292.4,279 292.4,259.2 304.9,259.2 			"/>
			<rect x="304.8" y="282" class="st50" width="4.2" height="0.5"/>
			<rect x="306.9" y="282" class="st51" width="2.1" height="0.5"/>
		</g>
		<g>
			<rect x="337.3" y="276.2" class="st16" width="3" height="5.8"/>
			<rect x="338.8" y="276.2" class="st50" width="1.5" height="5.8"/>
			<rect x="324.3" y="259.2" class="st49" width="29.2" height="19.9"/>
			<rect x="325.3" y="260.1" class="st48" width="8.3" height="8.3"/>
			<rect x="334.7" y="260.1" class="st48" width="8.3" height="8.3"/>
			<rect x="344" y="260.1" class="st48" width="8.3" height="8.3"/>
			<rect x="325.3" y="269.6" class="st48" width="8.3" height="8.3"/>
			<rect x="334.7" y="269.6" class="st48" width="8.3" height="8.3"/>
			<rect x="344" y="269.6" class="st48" width="8.3" height="8.3"/>
			<polygon class="st49" points="340.5,279 324.3,279 324.3,259.2 336.8,259.2 			"/>
			<rect x="336.7" y="282" class="st50" width="4.2" height="0.5"/>
			<rect x="338.8" y="282" class="st51" width="2.1" height="0.5"/>
		</g>
		<g>
			<rect x="369.3" y="276.2" class="st16" width="3" height="5.8"/>
			<rect x="370.7" y="276.2" class="st50" width="1.5" height="5.8"/>
			<rect x="356.2" y="259.2" class="st49" width="29.2" height="19.9"/>
			<rect x="357.2" y="260.1" class="st48" width="8.3" height="8.3"/>
			<rect x="366.6" y="260.1" class="st48" width="8.3" height="8.3"/>
			<rect x="375.9" y="260.1" class="st48" width="8.3" height="8.3"/>
			<rect x="357.2" y="269.6" class="st48" width="8.3" height="8.3"/>
			<rect x="366.6" y="269.6" class="st48" width="8.3" height="8.3"/>
			<rect x="375.9" y="269.6" class="st48" width="8.3" height="8.3"/>
			<polygon class="st49" points="372.4,279 356.2,279 356.2,259.2 368.7,259.2 			"/>
			<rect x="368.6" y="282" class="st50" width="4.2" height="0.5"/>
			<rect x="370.7" y="282" class="st51" width="2.1" height="0.5"/>
		</g>
	</g>
	<g>
		<g>
			<path class="st16" d="M403.6,160.1c0,5-3,9.3-7.3,11.2c-0.1,0.1-0.2,0.1-0.3,0.2c-0.3,0.2-0.5,0.4-0.7,0.7
				c-0.3,0.3-0.4,0.8-0.5,1.2l-0.2,1.4c-0.6,0.2-1.2,0.3-1.8,0.4c-0.3,0-0.6,0.1-0.8,0.1c-0.2,0-0.4,0-0.6,0l0,0c-0.2,0-0.4,0-0.6,0
				c-0.1,0-0.3,0-0.4,0c-0.2,0-0.5-0.1-0.7-0.1l0,0c-0.5-0.1-1-0.2-1.5-0.4l-0.2-1.4c0,0,0,0,0-0.1c-0.1-0.4-0.2-0.8-0.5-1.1
				c-0.1-0.1-0.2-0.2-0.3-0.3l0,0l0,0l0,0c-0.1-0.1-0.3-0.3-0.5-0.4c-0.1-0.1-0.2-0.1-0.3-0.2c-0.1,0-0.2-0.1-0.2-0.1
				c-0.1,0-0.2-0.1-0.2-0.1c-0.6-0.3-1.2-0.6-1.7-1c-0.7-0.5-1.3-1-1.8-1.6l0,0c-2-2.2-3.3-5-3.3-8.2c0-1.2,0.1-2.3,0.4-3.3
				c0.5-1.8,1.4-3.5,2.6-4.9c0.3-0.3,0.5-0.6,0.8-0.9c0.4-0.4,0.9-0.8,1.3-1.1l0,0c0.7-0.5,1.4-0.9,2.1-1.2c0.4-0.2,0.8-0.3,1.2-0.4
				c0.1,0,0.3-0.1,0.4-0.1l0,0c0.6-0.2,1.2-0.3,1.9-0.4c0.1,0,0.2,0,0.3,0l0,0c0.3,0,0.6-0.1,0.9-0.1h0.1c0.1,0,0.2,0,0.2,0h0.1
				c0.4,0,0.8,0,1.1,0.1c0.1,0,0.2,0,0.3,0c0.6,0.1,1.3,0.2,1.9,0.4l0,0c1.9,0.5,3.6,1.5,5,2.9c1.6,1.5,2.9,3.5,3.4,5.8l0,0
				C403.5,158,403.6,159,403.6,160.1z"/>
			<path class="st30" d="M390.7,175.3c-0.1,0-0.1,0-0.2,0s-0.1,0-0.2,0c-0.2,0-0.5-0.1-0.7-0.1l0,0c-0.5-0.1-1-0.2-1.5-0.4l-0.2-1.4
				c0,0,0,0,0-0.1c-0.1-0.4-0.2-0.8-0.5-1.1c-0.1-0.1-0.2-0.2-0.3-0.3l0,0l0,0l0,0c-0.1-0.1-0.3-0.3-0.5-0.4
				c-0.1-0.1-0.2-0.1-0.3-0.2h-0.1c-0.1-0.1-0.1-0.1-0.2-0.2c-2.1-6-4.6-16.6,1.4-22.7l0,0c0.1,0,0.3-0.1,0.4-0.1l0,0
				c0.6-0.2,1.2-0.3,1.9-0.4c0.1,0,0.2,0,0.3,0l0,0l0,0C390,148.1,385.2,157.1,390.7,175.3z"/>
			<path class="st30" d="M384.2,170.1L384.2,170.1c-3.1-2.2-5.1-5.8-5.2-9.8c0-1.2,0.1-2.3,0.4-3.3c0.6-2.2,1.8-4.2,3.4-5.7
				c0.4-0.4,0.9-0.8,1.3-1.1l0,0C384,150.5,377.6,158.1,384.2,170.1z"/>
			<path class="st30" d="M391.9,175.3L391.9,175.3c0.1,0,0.3,0,0.4,0c0.2,0,0.5-0.1,0.7-0.1l0,0c0.5-0.1,1-0.2,1.5-0.4l0.2-1.4
				c0,0,0,0,0-0.1c0.1-0.4,0.2-0.8,0.5-1.1c0.1-0.1,0.2-0.2,0.3-0.3l0,0l0,0l0,0c0.1-0.1,0.3-0.3,0.5-0.4c0.1-0.1,0.3-0.2,0.4-0.2
				c0.1-0.1,0.1-0.1,0.2-0.2c2.1-6,4.6-16.6-1.4-22.7c-0.1,0-0.3-0.1-0.4-0.1l0,0c-0.6-0.2-1.2-0.3-1.9-0.4c-0.1,0-0.2,0-0.3,0l0,0
				C392.6,147.9,397.5,156.9,391.9,175.3z"/>
			<path class="st30" d="M398.5,170.1c3.1-2.2,5.1-5.8,5.2-9.8c0-1.2-0.1-2.3-0.4-3.3c-0.6-2.2-1.8-4.2-3.4-5.7
				c-0.4-0.4-0.9-0.8-1.3-1.1C398.6,150.3,405.2,157.9,398.5,170.1z"/>
			<path class="st16" d="M394.4,175.5h-6.1c-0.2,0-0.4-0.2-0.4-0.4l0,0c0-0.2,0.2-0.4,0.4-0.4h6.1c0.2,0,0.4,0.2,0.4,0.4l0,0
				C394.7,175.3,394.6,175.5,394.4,175.5z"/>
			<path class="st19" d="M403,164.7c-0.2-0.1-4.3-1.7-11.6-1.7c-7.2,0-11.6,1.7-11.6,1.7c-0.1,0.1-0.2,0.2-0.1,0.3
				c0,0.1,0.1,0.2,0.2,0.2h0.1h0.1l9.2,16.6H389c-0.1,0-0.1,0-0.1,0.1l0,0c0,0.1,0,0.1,0.1,0.1h0.1v1.5c0,1,0.8,1.8,1.8,1.8h0.9
				c0.3,0,0.6-0.1,0.8-0.2c0.6-0.3,1-0.9,1-1.6V182h0.1c0.1,0,0.1,0,0.1-0.1l0,0c0-0.1,0-0.1-0.1-0.1h-0.3l9.2-16.6
				c0.1,0,0.1,0.1,0.1,0.1c0.1,0.1,0.3,0,0.3-0.1C403.2,164.9,403.1,164.7,403,164.7z M391.2,181.7h-0.7l-5-17.9
				c1.6-0.2,3.5-0.4,5.7-0.4V181.7z M391.4,181.7v-18.2c2.2,0,4.1,0.2,5.7,0.4l-5,17.9L391.4,181.7z M380.2,165.1
				c0.7-0.2,2.4-0.8,5.1-1.1l5,17.8h-0.8L380.2,165.1z M393.2,181.7h-0.8l5-17.8c2.6,0.4,4.4,0.9,5.1,1.1L393.2,181.7z"/>
		</g>
		<g>
			<path class="st11" d="M128.9,186.6c0,5-3,9.3-7.3,11.2c-0.1,0.1-0.2,0.1-0.3,0.2c-0.3,0.2-0.5,0.4-0.7,0.7
				c-0.3,0.3-0.4,0.8-0.5,1.2l-0.2,1.4c-0.6,0.2-1.2,0.3-1.8,0.4c-0.3,0-0.6,0.1-0.8,0.1c-0.2,0-0.4,0-0.6,0l0,0c-0.2,0-0.4,0-0.6,0
				c-0.1,0-0.3,0-0.4,0c-0.2,0-0.5-0.1-0.7-0.1l0,0c-0.5-0.1-1-0.2-1.5-0.4l-0.2-1.4c0,0,0,0,0-0.1c-0.1-0.4-0.2-0.8-0.5-1.1
				c-0.1-0.1-0.2-0.2-0.3-0.3l0,0l0,0l0,0c-0.1-0.1-0.3-0.3-0.5-0.4c-0.1-0.1-0.2-0.1-0.3-0.2c-0.1,0-0.2-0.1-0.2-0.1
				c-0.1,0-0.2-0.1-0.2-0.1c-0.6-0.3-1.2-0.6-1.7-1c-0.7-0.5-1.3-1-1.8-1.6l0,0c-2-2.2-3.3-5-3.3-8.2c0-1.2,0.1-2.3,0.4-3.3
				c0.5-1.8,1.4-3.5,2.6-4.9c0.3-0.3,0.5-0.6,0.8-0.9c0.4-0.4,0.9-0.8,1.3-1.1l0,0c0.7-0.5,1.4-0.9,2.1-1.2c0.4-0.2,0.8-0.3,1.2-0.4
				c0.1,0,0.3-0.1,0.4-0.1l0,0c0.6-0.2,1.2-0.3,1.9-0.4c0.1,0,0.2,0,0.3,0l0,0c0.3,0,0.6-0.1,0.9-0.1h0.1c0.1,0,0.2,0,0.2,0h0.1
				c0.4,0,0.8,0,1.1,0.1c0.1,0,0.2,0,0.3,0c0.6,0.1,1.3,0.2,1.9,0.4l0,0c1.9,0.5,3.6,1.5,5,2.9c1.6,1.5,2.9,3.5,3.4,5.8l0,0
				C128.8,184.4,128.9,185.5,128.9,186.6z"/>
			<path class="st16" d="M116.1,201.8c-0.1,0-0.1,0-0.2,0s-0.1,0-0.2,0c-0.2,0-0.5-0.1-0.7-0.1l0,0c-0.5-0.1-1-0.2-1.5-0.4l-0.2-1.4
				c0,0,0,0,0-0.1c-0.1-0.4-0.2-0.8-0.5-1.1c-0.1-0.1-0.2-0.2-0.3-0.3l0,0l0,0l0,0c-0.1-0.1-0.3-0.3-0.5-0.4
				c-0.1-0.1-0.2-0.1-0.3-0.2h-0.1c-0.1-0.1-0.1-0.1-0.2-0.2c-2.1-6-4.6-16.6,1.4-22.7l0,0c0.1,0,0.3-0.1,0.4-0.1l0,0
				c0.6-0.2,1.2-0.3,1.9-0.4c0.1,0,0.2,0,0.3,0l0,0l0,0C115.3,174.6,110.5,183.5,116.1,201.8z"/>
			<path class="st16" d="M109.6,196.6L109.6,196.6c-3.1-2.2-5.1-5.8-5.2-9.8c0-1.2,0.1-2.3,0.4-3.3c0.6-2.2,1.8-4.2,3.4-5.7
				c0.4-0.4,0.9-0.8,1.3-1.1l0,0C109.3,176.9,102.9,184.5,109.6,196.6z"/>
			<path class="st16" d="M117.3,201.8L117.3,201.8c0.1,0,0.3,0,0.4,0c0.2,0,0.5-0.1,0.7-0.1l0,0c0.5-0.1,1-0.2,1.5-0.4l0.2-1.4
				c0,0,0,0,0-0.1c0.1-0.4,0.2-0.8,0.5-1.1c0.1-0.1,0.2-0.2,0.3-0.3l0,0l0,0l0,0c0.1-0.1,0.3-0.3,0.5-0.4c0.1-0.1,0.3-0.2,0.4-0.2
				c0.1-0.1,0.1-0.1,0.2-0.2c2.1-6,4.6-16.6-1.4-22.7c-0.1,0-0.3-0.1-0.4-0.1l0,0c-0.6-0.2-1.2-0.3-1.9-0.4c-0.1,0-0.2,0-0.3,0l0,0
				C117.9,174.4,122.9,183.3,117.3,201.8z"/>
			<path class="st16" d="M123.8,196.6c3.1-2.2,5.1-5.8,5.2-9.8c0-1.2-0.1-2.3-0.4-3.3c-0.6-2.2-1.8-4.2-3.4-5.7
				c-0.4-0.4-0.9-0.8-1.3-1.1C123.9,176.8,130.5,184.4,123.8,196.6z"/>
			<path class="st16" d="M119.7,201.9h-6.1c-0.2,0-0.4-0.2-0.4-0.4l0,0c0-0.2,0.2-0.4,0.4-0.4h6.1c0.2,0,0.4,0.2,0.4,0.4l0,0
				C120.1,201.8,119.9,201.9,119.7,201.9z"/>
			<path class="st19" d="M128.3,191.1c-0.2-0.1-4.3-1.7-11.6-1.7c-7.2,0-11.6,1.7-11.6,1.7c-0.1,0.1-0.2,0.2-0.2,0.3
				s0.1,0.2,0.2,0.2h0.1h0.1l9.2,16.6h-0.3c-0.1,0-0.1,0-0.1,0.1l0,0c0,0.1,0,0.1,0.1,0.1h0.1v1.5c0,1,0.8,1.8,1.8,1.8h0.9
				c0.3,0,0.6-0.1,0.8-0.2c0.6-0.3,1-0.9,1-1.6v-1.5h0.1c0.1,0,0.1,0,0.1-0.1l0,0c0-0.1,0-0.1-0.1-0.1h-0.3l9.2-16.6
				c0.1,0,0.1,0.1,0.1,0.1c0.1,0.1,0.3,0,0.3-0.1C128.5,191.3,128.4,191.2,128.3,191.1z M116.6,208.2h-0.7l-5-17.9
				c1.6-0.2,3.5-0.4,5.7-0.4V208.2z M116.8,208.2V190c2.2,0,4.1,0.2,5.7,0.4l-5,17.9L116.8,208.2z M105.6,191.5
				c0.7-0.2,2.4-0.8,5.1-1.1l5,17.8h-0.8L105.6,191.5z M118.5,208.2h-0.8l5-17.8c2.6,0.4,4.4,0.9,5.1,1.1L118.5,208.2z"/>
		</g>
	</g>
	<g>
		<path class="st5" d="M152.9,276.4c0,0.4-0.1,0.7-0.1,1h-21.1c-0.1-0.3-0.1-0.7-0.1-1c0-0.8,0.2-1.5,0.6-2.1
			c0.7-1.2,2.1-2.1,3.6-2.1c0.6,0,1.2,0.1,1.8,0.4c0.6-2.4,2.7-4.1,5.3-4.1c1.5,0,2.9,0.6,3.8,1.6c0.6,0.6,1.1,1.4,1.4,2.2
			c0.3-0.1,0.6-0.1,0.9-0.1C151,272.3,152.9,274.1,152.9,276.4z"/>
		<path class="st22" d="M160,276.6c0,0.3,0,0.6-0.1,0.8H143c-0.1-0.3-0.1-0.5-0.1-0.8c0-0.6,0.2-1.2,0.4-1.6c0.6-1,1.6-1.6,2.9-1.6
			c0.5,0,1,0.1,1.4,0.3c0.5-1.9,2.2-3.3,4.2-3.3c1.2,0,2.3,0.5,3,1.3c0.5,0.5,0.9,1.1,1.1,1.8c0.2,0,0.5-0.1,0.7-0.1
			C158.5,273.3,160,274.8,160,276.6z"/>
	</g>
	<g>
		<g>
			<path class="st11" d="M216.8,276.4l-0.8-1.3c-1.4-2.4-3.9-3.8-6.7-3.8H206c-3,0-5.8,1.6-7.3,4.2l-0.6,0.9
				c-0.2,0.4-0.7,0.6-1.1,0.6h-1.6c-1.3,0-2.3,1-2.3,2.3l0,0c0,1.3,1,2.3,2.3,2.3h24.1c1.3,0,2.3-1,2.3-2.3l0,0c0-1.3-1-2.3-2.3-2.3
				H218C217.5,277,217.1,276.8,216.8,276.4z"/>
			<path class="st5" d="M207.6,271.2v10.4h-12.2c-0.6,0-1.2-0.3-1.6-0.7c-0.4-0.4-0.7-1-0.7-1.6c0-1.3,1-2.3,2.3-2.3h1.6
				c0.5,0,0.9-0.2,1.1-0.6l0.6-0.9c1.5-2.6,4.3-4.2,7.3-4.2L207.6,271.2L207.6,271.2z"/>
			<path class="st48" d="M206.9,276.5c0,0.3-0.2,0.5-0.5,0.5h-6.6c-0.3,0-0.5-0.3-0.3-0.6l0.5-0.9c1.2-2.2,3.6-3.6,6.1-3.6h0.5
				c0.2,0,0.4,0.2,0.4,0.4L206.9,276.5L206.9,276.5z"/>
			<path class="st47" d="M206.4,276c0,0.3-0.2,0.5-0.5,0.5h-5.1c-0.3,0-0.5-0.3-0.3-0.6l0.2-0.3c1.1-2,3.1-3.2,5.4-3.2l0,0
				c0.2,0,0.4,0.2,0.4,0.4L206.4,276L206.4,276z"/>
			<path class="st48" d="M208.3,276.5c0,0.3,0.2,0.5,0.5,0.5h6.6c0.3,0,0.5-0.3,0.3-0.6l-0.5-0.9c-1.2-2.2-3.6-3.6-6.1-3.6h-0.5
				c-0.2,0-0.4,0.2-0.4,0.4L208.3,276.5L208.3,276.5z"/>
			<path class="st47" d="M208.9,276c0,0.3,0.2,0.5,0.5,0.5h5.1c0.3,0,0.5-0.3,0.3-0.6l-0.2-0.3c-1.1-2-3.1-3.2-5.4-3.2l0,0
				c-0.2,0-0.4,0.2-0.4,0.4L208.9,276L208.9,276z"/>
			<path class="st48" d="M202.1,281.6c0,1.6-1.3,2.9-2.9,2.9c-1.6,0-2.9-1.3-2.9-2.9s1.3-2.9,2.9-2.9
				C200.7,278.7,202.1,280,202.1,281.6z"/>
			<path class="st47" d="M201.1,281.6c0,1.1-0.9,2-2,2s-2-0.9-2-2s0.9-2,2-2C200.2,279.7,201.1,280.5,201.1,281.6z"/>
			<path class="st48" d="M218.8,281.6c0,1.6-1.3,2.9-2.9,2.9c-1.6,0-2.9-1.3-2.9-2.9s1.3-2.9,2.9-2.9S218.8,280,218.8,281.6z"/>
			<path class="st47" d="M217.8,281.6c0,1.1-0.9,2-2,2s-2-0.9-2-2s0.9-2,2-2C216.9,279.7,217.8,280.5,217.8,281.6z"/>
		</g>
		<g>
			<path class="st11" d="M272,276.4l-0.8-1.3c-1.4-2.4-3.9-3.8-6.7-3.8h-3.4c-3,0-5.8,1.6-7.3,4.2l-0.6,0.9
				c-0.2,0.4-0.7,0.6-1.1,0.6h-1.6c-1.3,0-2.3,1-2.3,2.3l0,0c0,1.3,1,2.3,2.3,2.3h24.1c1.3,0,2.3-1,2.3-2.3l0,0c0-1.3-1-2.3-2.3-2.3
				H273C272.7,277,272.2,276.8,272,276.4z"/>
			<path class="st5" d="M262.8,271.2v10.4h-12.2c-0.6,0-1.2-0.3-1.6-0.7c-0.4-0.4-0.7-1-0.7-1.6c0-1.3,1-2.3,2.3-2.3h1.6
				c0.5,0,0.9-0.2,1.1-0.6l0.6-0.9c1.5-2.6,4.3-4.2,7.3-4.2L262.8,271.2L262.8,271.2z"/>
			<path class="st48" d="M262.1,276.5c0,0.3-0.2,0.5-0.5,0.5H255c-0.3,0-0.5-0.3-0.3-0.6l0.5-0.9c1.2-2.2,3.6-3.6,6.1-3.6h0.5
				c0.2,0,0.4,0.2,0.4,0.4L262.1,276.5L262.1,276.5z"/>
			<path class="st47" d="M261.5,276c0,0.3-0.2,0.5-0.5,0.5h-5.1c-0.3,0-0.5-0.3-0.3-0.6l0.2-0.3c1.1-2,3.1-3.2,5.4-3.2l0,0
				c0.2,0,0.4,0.2,0.4,0.4L261.5,276L261.5,276z"/>
			<path class="st48" d="M263.5,276.5c0,0.3,0.2,0.5,0.5,0.5h6.6c0.3,0,0.5-0.3,0.3-0.6l-0.5-0.9c-1.2-2.2-3.6-3.6-6.1-3.6h-0.5
				c-0.2,0-0.4,0.2-0.4,0.4v4.2H263.5z"/>
			<path class="st47" d="M264,276c0,0.3,0.2,0.5,0.5,0.5h5.1c0.3,0,0.5-0.3,0.3-0.6l-0.2-0.3c-1.1-2-3.1-3.2-5.4-3.2l0,0
				c-0.2,0-0.4,0.2-0.4,0.4v3.2H264z"/>
			<path class="st48" d="M257.2,281.6c0,1.6-1.3,2.9-2.9,2.9c-1.6,0-2.9-1.3-2.9-2.9s1.3-2.9,2.9-2.9
				C255.9,278.7,257.2,280,257.2,281.6z"/>
			
				<ellipse transform="matrix(0.1602 -0.9871 0.9871 0.1602 -64.3982 487.5089)" class="st47" cx="254.3" cy="281.6" rx="2" ry="2"/>
			<path class="st48" d="M274,281.6c0,1.6-1.3,2.9-2.9,2.9s-2.9-1.3-2.9-2.9s1.3-2.9,2.9-2.9S274,280,274,281.6z"/>
			<circle class="st47" cx="271" cy="281.6" r="2"/>
		</g>
	</g>
	<g>
		<circle class="st23" cx="402.5" cy="263.5" r="9"/>
		<path class="st24" d="M402.5,254.6v17.9c-4.9,0-9-4-9-9C393.5,258.6,397.5,254.6,402.5,254.6z"/>
		<path class="st25" d="M405.8,268.4c-0.2-0.2-0.5-0.2-0.8,0l-2,1.7v-2.4c0-0.3-0.2-0.5-0.5-0.5s-0.5,0.2-0.5,0.5v0.8l-0.7-0.6
			c-0.2-0.2-0.6-0.2-0.8,0.1c-0.1,0.1-0.1,0.2-0.1,0.3c0,0.1,0.1,0.3,0.2,0.4l1.4,1.2v5.7h1.1v-4.1l2.7-2.4c0.1-0.1,0.2-0.3,0.2-0.4
			C405.9,268.6,405.8,268.5,405.8,268.4z"/>
		<path class="st26" d="M402.5,267.1v8.5H402v-5.7l-1.4-1.2c-0.1-0.1-0.2-0.3-0.2-0.4s0-0.2,0.1-0.3c0.2-0.2,0.5-0.2,0.8-0.1
			l0.7,0.6v-0.8C402,267.4,402.2,267.1,402.5,267.1z"/>
	</g>
	<g>
		<g>
			<text transform="matrix(1 0 0 1 129.753 55.8413)" class="st16 st52 st53 st54">Eco</text>
			<text transform="matrix(1 0 0 1 207.8658 55.8411)" class="st16 st55 st53">Change</text>
		</g>
		<rect x="59.6" y="72" class="st56" width="380.8" height="16.5"/>
		<text transform="matrix(1 0 0 1 104.5935 84.8449)" class="st16 st55 st57">For a Green and Beautiful Tomorrow</text>
	</g>
</g>
<g id="DESIGNED_BY_FREEPIK">
</g>
</svg>
