<?xml version="1.0" encoding="utf-8"?>
<!-- Generator: Adobe Illustrator 24.1.0, SVG Export Plug-In . SVG Version: 6.00 Build 0)  -->
<svg version="1.1" id="Слой_1" xmlns="http://www.w3.org/2000/svg" xmlns:xlink="http://www.w3.org/1999/xlink" x="0px" y="0px"
	 viewBox="0 0 2000 2000" style="enable-background:new 0 0 2000 2000;" xml:space="preserve">
<style type="text/css">
	.st0{fill:#322F3E;}
	.st1{fill:#A3B9C9;}
	.st2{fill:#4F6D7A;}
	.st3{fill:#E6EBE0;}
	.st4{fill:#1B2746;}
	.st5{fill:#93827F;}
	.st6{fill:#FFFFFF;}
	.st7{fill:#0E2549;}
	.st8{fill:#F9E5EF;}
	.st9{fill:#EAB7C2;}
	.st10{fill:#A1C5E2;}
	.st11{fill:#E2474B;}
	.st12{font-family:'Montserrat-Black';}
	.st13{font-size:160px;}
	.st14{letter-spacing:-10;}
	.st15{enable-background:new    ;}
	.st16{font-family:'Montserrat-Medium';}
	.st17{font-size:60px;}
</style>
<rect class="st0" width="2000" height="2000"/>
<path class="st1" d="M1908.5,1388.7c16.4-54.5,24.2-114.9,16.2-179.3c-3.8-30.4-8.9-58.6-15.4-84.7
	c-49.6-199.8-210.8-259.4-366.2-308.9c-175.8-56.1-207.3-78.8-513.5-294.2S513.9,297.3,366.4,385.8s-298,239-218.3,522.2
	c25,88.8,47.7,156.3,64.9,213.2c28,92.8,41.2,157.5,24.8,240.4c-5.6,28.4-14.7,59-27.8,93.5c-8.9,23.4-12.1,43.9-18.8,62.4
	c-50,137.4-38.7,147.4-38.7,147.4h1653.6c0,0-1.8-62.6,56.8-169.2C1880.8,1463.6,1896.8,1427.6,1908.5,1388.7L1908.5,1388.7z"/>
<path class="st2" d="M184.8,1512l1676.3-22.1c42.6-77.3,75.3-176,61.7-286.4c-3.8-30.4-8.9-58.6-15.4-84.7l-1696.3-3.4
	c37.6,124.6,48.5,198.5-3,333.9C199.3,1472.7,191.6,1493.5,184.8,1512z"/>
<path class="st3" d="M1902.8,1664.7H249.2c0,0,1.8-62.6-56.8-169.2c-17.7-32.2-33.8-68.2-45.5-107.1c62.9,13.8,56.5,19,102.3,0.4
	c94.4-38.5,271.4-41.5,357-26.7s250.1-22.1,419.6-32c169.5-9.8,432.5,50,553.7,58.7c66.4,4.8,157.6-13.8,238.1-27.4
	c5.6,28.4,14.7,59,27.8,93.5c8.9,23.4,5.2,57,11.9,75.5C1907.2,1667.8,1902.8,1664.7,1902.8,1664.7z"/>
<path class="st4" d="M1902.9,1666.5l-0.5-0.4H247.7v-1.5c0-0.6,1.1-63.5-56.6-168.4c-19.5-35.4-34.8-71.5-45.6-107.4l-0.7-2.4
	l2.5,0.5c11.6,2.6,21,4.8,28.5,6.7c34,8.3,36,8.8,72.9-6.2c94.7-38.6,272.3-41.6,357.8-26.8c51.3,8.9,131.4-1,224.2-12.4
	c59.9-7.4,127.7-15.7,195.1-19.6c111.1-6.5,264.3,17.3,387.4,36.4c66.9,10.4,124.7,19.3,166.5,22.3c56.8,4.1,130.9-8.8,202.6-21.3
	c11.6-2,23.6-4.1,35.1-6l1.4-0.2l0.3,1.4c5.6,28.3,14.6,58.9,27.7,93.3c4.8,12.8,6,28.1,7.1,43c0.9,12.4,1.8,24.2,4.8,32.6
	c19.6,53.8,33.2,92.5,40.4,115.1c6.3,19.7,5.7,20.1,4.7,20.9L1902.9,1666.5z M250.7,1663.2h1650.6c-1-5-7.4-27.8-45.4-132.3
	c-3.2-8.8-4.1-20.7-5-33.4c-1.1-14.6-2.2-29.8-6.9-42.1c-12.9-34-21.9-64.2-27.6-92.3c-11.1,1.9-22.5,3.9-33.6,5.8
	c-71.9,12.5-146.2,25.5-203.4,21.4c-41.9-3-99.8-12-166.8-22.4c-123-19.1-276-42.8-386.8-36.3c-67.3,3.9-135.1,12.3-194.9,19.6
	c-93,11.4-173.2,21.3-225,12.4c-85.2-14.8-261.9-11.8-356.2,26.6c-37.8,15.4-40.6,14.7-74.7,6.4c-7-1.7-15.5-3.8-25.9-6.1
	c10.7,34.9,25.7,70,44.6,104.4C246.9,1591.4,250.5,1652.8,250.7,1663.2z"/>
<g>
	<path class="st4" d="M753.3,1181.6c-11.5,0-25.3-1.3-40.8-4.5c-33.2-7-52.4,3.3-52.6,3.4c-0.7,0.4-1.6,0.1-2-0.6s-0.1-1.6,0.6-2
		c0.8-0.5,20.3-10.9,54.6-3.7c33.3,7,58.5,4.7,69.9,0.5c1.1-0.4,2.2-0.8,3.3-1.2c10.2-3.8,20.7-7.8,43.6-2.7c0.8,0.2,1.3,1,1.1,1.8
		s-0.9,1.3-1.7,1.1c-22.1-5-31.8-1.3-42,2.5c-1.1,0.4-2.2,0.8-3.3,1.2C777.5,1179.8,767,1181.6,753.3,1181.6z"/>
	<path class="st4" d="M696.9,1209.3c-7.1,0-14.4-1.4-25.2-3.5c-2.3-0.5-4.8-1-7.6-1.5c-23.1-4.4-42.7,2.7-42.9,2.8
		c-0.8,0.3-1.6-0.1-1.8-0.9c-0.3-0.8,0.1-1.6,0.9-1.9c0.8-0.3,20.6-7.5,44.4-2.9c2.7,0.5,5.2,1,7.6,1.5c18.2,3.6,25.7,5,39.2,1.4
		c0.8-0.2,1.6,0.3,1.8,1.1c0.2,0.8-0.3,1.6-1,1.8C706.4,1208.7,701.7,1209.3,696.9,1209.3z"/>
	<path class="st4" d="M302.6,1170.9c-7.1,0-14.4-1.4-25.2-3.5c-2.3-0.5-4.8-1-7.6-1.5c-23-4.4-42.7,2.7-42.9,2.8
		c-0.8,0.3-1.6-0.1-1.8-0.9c-0.3-0.8,0.1-1.6,0.9-1.9c0.8-0.3,20.6-7.5,44.4-2.9c2.7,0.5,5.2,1,7.6,1.5c18.2,3.6,25.7,5,39.2,1.4
		c0.8-0.2,1.6,0.3,1.8,1.1c0.2,0.8-0.3,1.6-1,1.8C312.1,1170.3,307.4,1170.9,302.6,1170.9z"/>
	<path class="st4" d="M347.4,1197.6c-7.1,0-14.4-1.4-25.2-3.6c-2.3-0.5-4.8-1-7.6-1.5c-23.1-4.4-42.7,2.7-42.9,2.8
		c-0.8,0.3-1.6-0.1-1.8-0.9c-0.3-0.8,0.1-1.6,0.9-1.9s20.6-7.5,44.4-2.9c2.7,0.5,5.2,1,7.6,1.5c18.2,3.6,25.7,5,39.2,1.4
		c1-0.3,25.3-6.2,45.4-4.4c0.8,0.1,1.4,0.8,1.3,1.6c-0.1,0.8-0.8,1.4-1.6,1.4c-19.6-1.8-44.2,4.2-44.4,4.3
		C357,1196.9,352.2,1197.6,347.4,1197.6z"/>
	<path class="st4" d="M1065.7,1199.6c-4.4,0-6.8-1.1-10.2-2.6c-3.9-1.7-9.2-4.1-20.5-6.3c-29.5-5.7-50.5,6.5-50.7,6.6
		c-0.7,0.4-1.6,0.2-2-0.6c-0.4-0.7-0.2-1.6,0.5-2c0.9-0.5,22.1-12.9,52.6-7c11.7,2.3,17.2,4.7,21.2,6.5c6.1,2.7,8.4,3.8,26.6-0.4
		c39.9-9.2,64.8-5.7,65-5.7c0.8,0.1,1.3,0.9,1.2,1.7c-0.1,0.8-0.8,1.4-1.6,1.3c-0.2,0-24.7-3.4-64,5.6
		C1074.9,1198.8,1069.5,1199.6,1065.7,1199.6z"/>
	<path class="st4" d="M1175.4,1223.3c-5.3,0-7.7-1.1-11.6-2.8c-3.3-1.4-7.8-3.4-16.4-5.7c-21.7-5.7-49.8,4.8-50,5
		c-0.7,0.3-1.6-0.1-1.9-0.9s0.1-1.6,0.9-1.9c1.2-0.5,29.1-11,51.8-5c8.8,2.3,13.4,4.3,16.8,5.8c5.2,2.3,7.4,3.2,18.1,2
		c8.3-0.9,14.1-3.5,19.1-5.9c5.7-2.6,10.6-4.9,17.1-3.5c0.8,0.2,1.3,1,1.1,1.8s-0.9,1.3-1.7,1.2c-5.5-1.2-9.8,0.8-15.3,3.3
		c-5.3,2.4-11.2,5.1-20,6.1C1180,1223.2,1177.5,1223.3,1175.4,1223.3z"/>
	<path class="st4" d="M1426.9,1171.3c-0.4,0-0.8-0.2-1.1-0.6c-0.5-0.6-0.4-1.6,0.2-2.1s15.1-12.3,38.3-5.4c23.4,7,48,6.2,64.2-2
		c0.7-0.4,1.6-0.1,1.9,0.7c0.4,0.7,0.1,1.6-0.7,2c-16.8,8.5-42.2,9.4-66.2,2.2c-21.7-6.5-35.5,4.7-35.7,4.9
		C1427.5,1171.2,1427.2,1171.3,1426.9,1171.3z"/>
	<path class="st4" d="M1679,1309.9c-0.4,0-0.8-0.2-1.1-0.6c-0.5-0.6-0.4-1.6,0.2-2.1s15.1-12.3,38.3-5.4c23.4,7,48,6.2,64.2-2
		c0.7-0.4,1.6-0.1,1.9,0.7c0.4,0.7,0.1,1.6-0.7,2c-16.8,8.5-42.2,9.4-66.2,2.2c-21.7-6.5-35.5,4.7-35.7,4.9
		C1679.7,1309.8,1679.4,1309.9,1679,1309.9z"/>
	<path class="st4" d="M726,1317c-11.6,0-28.4-1.2-51.4-5.6c-40.9-8-75.3-0.1-75.7,0c-0.8,0.2-1.6-0.3-1.7-1.1
		c-0.2-0.8,0.3-1.6,1.1-1.8c0.3-0.1,35.3-8.1,76.9,0c40.4,7.9,61.5,5.4,68.5,4.5l0.5-0.1c0.8-0.1,1.5,0.5,1.6,1.3s-0.5,1.6-1.3,1.7
		l-0.5,0.1C740.9,1316.3,735.1,1317,726,1317z"/>
</g>
<g>
	<path class="st5" d="M1506.2,1576.4c-6.9,2.7-62.9,11.6-33.4,16.5s7.1,0,81.3,0c74.1,0,120.6,4.2,160.3,7.5
		c39.7,3.3,44.2-23.1,10.2-19.5s-115.9,9.9-126.9,5.2c-10.9-4.6-85.6-9.7-85.6-9.7H1506.2z"/>
	<path class="st5" d="M1066.7,1603.1c41.3,2.6,114.3-12.9,144.2,0c29.9,12.9,64.3-2.2,42.7-22.7s-84.7-8.1-107.7-2.5
		s-105.9,25.1-92.5,25.1C1066.7,1603.1,1066.7,1603.1,1066.7,1603.1z"/>
	<path class="st5" d="M886.2,1583.5c-6.8,3-53.8,17-6.7,19.6s95.7-17.8,104.6-9.8c8.9,8,68.4,15.4,40.8-2.3
		c-27.5-17.7-63.5-30.5-86.8-22.9C914.8,1575.6,886.2,1583.5,886.2,1583.5z"/>
	<path class="st5" d="M612.3,1598.2c-4.9,0-83.3-9-82,4.8c1.3,13.9-3.6,25.2,34.8,25.9c38.4,0.7,82.6-1.7,102.3,0s54.5,8.6,48.9-6.2
		c-5.6-14.8-39-20.8-69.5-19.8C616.3,1604.2,612.3,1598.2,612.3,1598.2z"/>
	<path class="st5" d="M637.6,1408c-23.6,5.7-48.4,11.7-30.2,21.8c18.3,10,49.2,1.6,83.9,0s26.5-8.2,73.9,0s74.9,15.4,86.1,9.5
		c11.1-5.9,24.3,2,45.2-0.7s-6-29.4-37.8-26.2c-31.7,3.2-50.9,7-83.6,5.4c-32.7-1.6-92.2-9.9-98.3-8.4
		C670.8,1410.9,637.6,1408,637.6,1408z"/>
	<path class="st5" d="M1160.5,1419.9c-14.1,8.3-23.8,12.2,5.7,16.1c29.4,4,43.6-2,78.2,7.4s36.4,8.4,70,0s39.5-13.3,63.1-7.4
		s47.7,4,44.8-1c-2.9-5-91.6-10.6-137.5-8.7C1238.9,1428.2,1160.5,1419.9,1160.5,1419.9z"/>
	<path class="st5" d="M954.1,1430.9c1.5,0.2,2.9,0.4,4.4,0.6c37.8,5.9,68.8,24.5,94.9,16.6c27.1-8.2,37.9-11.8,41.8-18.4
		s2.9-17.2-18.7-17.3c-21.6-0.1-62.8-0.3-92.4,1.3c-29.5,1.6-56.3,6-56.1,10.5C928.1,1428.8,954.1,1430.9,954.1,1430.9z"/>
	<path class="st5" d="M368.5,1541.9c-4.9,12.1-3.9,36.7,38.4,32.7s43.5-27.4,92.6-15.7c49,11.7,74.6,13.1,77.6,7
		s25.7-23.4-33.9-24.1s-61.1-8.1-94-5.1C416.2,1539.8,368.5,1541.9,368.5,1541.9z"/>
	<path class="st5" d="M657.4,1524c-3.4,11-35.8,16,21,12.9c56.8-3.2,48.1-1.5,74.1,0.9c26,2.5,55.4-4.7,50.2-12.6
		s-13.7-25.7-50.2-14.9c-36.5,10.8-69.1,17.5-76.9,14.9C667.7,1522.5,657.4,1524,657.4,1524z"/>
	<path class="st5" d="M1260.4,1524c-4.6,1.8-30.8,27,0,35.1s47.9,5.4,78.7,17.9c30.8,12.5,52.5,18.4,73.4,12.2
		c21-6.3,77.3-10.9,46.5-17.8c-30.8-6.8-71.1-0.6-89.9-13.5C1350.2,1544.8,1260.4,1524,1260.4,1524z"/>
</g>
<g>
	<path class="st6" d="M1076.6,1505c0,0,111.2,35.9,122.7,40.2c11.5,4.3-16.4,68.4-26.4,67.8c-10.1-0.6-119.3-35.1-119.6-48
		c-0.3-12.9,4-10.3,4-10.3s35.6,18.4,41.1,18.7c5.5,0.3,24.1-27.9,21.3-35.1s-46-17.2-46.6-22.7
		C1072.6,1510.2,1076.6,1505,1076.6,1505z"/>
	<path class="st7" d="M1173,1614.6c-0.1,0-0.1,0-0.2,0c-5.3-0.3-35.8-9.3-63.9-19.5c-56.9-20.5-57.1-27.7-57.1-30
		c-0.1-6.6,0.8-10.4,3-11.6c1.2-0.7,2.5-0.5,3.3,0c14.1,7.3,36.6,18.3,40.4,18.5l0,0c0.8,0,4.2-2.3,9.5-9.7
		c7-9.7,11.6-20.2,10.3-23.3c-1.2-3.1-14.7-8-24.6-11.6c-15.4-5.6-21.8-8.2-22.1-11.5c-0.6-6,3.6-11.5,3.8-11.7l0.6-0.8l1,0.3
		c1.1,0.4,111.4,36,122.8,40.3c3.8,1.4,4.7,6.9,2.7,16.3c-2.1,9.8-7.1,23.1-13.1,34.7C1184.8,1603.9,1178.2,1614.6,1173,1614.6z
		 M1056.5,1556c-0.1,0-0.1,0-0.2,0c-0.2,0.1-1.7,1.3-1.5,9c0,1.2,2.8,8.4,55.1,27.3c29.5,10.6,58.6,19,63,19.3h0.1
		c5.5,0,22-30.4,26.5-52.1c1.5-7.3,1.2-12.1-0.8-12.9c-10.7-4-110.2-36.2-121.6-39.9c-1,1.6-2.9,5.1-2.6,8.7
		c0.8,1.9,12.4,6.2,20.1,9c15.3,5.6,24.7,9.3,26.3,13.3c2.3,5.7-6,19.6-10.7,26.2c-3.6,5.1-8.6,11.1-12.1,10.9
		C1092.5,1574.5,1060.1,1557.8,1056.5,1556C1056.6,1556,1056.6,1556,1056.5,1556z"/>
</g>
<g>
	<polygon class="st6" points="948.4,1542.9 910.6,1565.6 920.4,1591.1 963.2,1585.7 	"/>
	<path class="st7" d="M919.4,1592.8l-10.7-27.8l40.5-24.2l16,46.3L919.4,1592.8z M912.4,1566.2l9,23.3l39.8-5l-13.5-39.3
		L912.4,1566.2z"/>
	<path class="st8" d="M957.6,1586.6l-14.9-42.2c-0.8-2.2,0.4-4.6,2.5-5.3l0,0c2.2-0.8,4.6,0.4,5.3,2.5l14.9,42.2
		c0.8,2.2-0.4,4.6-2.5,5.3l0,0C960.7,1589.9,958.4,1588.7,957.6,1586.6z"/>
	<path class="st4" d="M961.5,1590.9c-2.3,0-4.5-1.5-5.4-3.8l-14.9-42.2c-0.5-1.4-0.4-3,0.2-4.3c0.7-1.4,1.8-2.4,3.2-2.9
		s3-0.4,4.3,0.2c1.4,0.7,2.4,1.8,2.9,3.2l14.9,42.2c1,3-0.5,6.2-3.5,7.2C962.8,1590.8,962.2,1590.9,961.5,1590.9z M959,1586.1
		c0.5,1.4,2,2.1,3.4,1.6s2.1-2,1.6-3.4l-14.9-42.2c-0.2-0.7-0.7-1.2-1.4-1.5s-1.4-0.3-2-0.1c-0.7,0.2-1.2,0.7-1.5,1.4
		s-0.3,1.4-0.1,2L959,1586.1z"/>
</g>
<g>
	<path class="st6" d="M756.9,1520.3c9.4-2.6,15.4-10.8,13.3-18.3c-2.1-7.5-11.4-11.5-20.8-8.9c-8.1,2.3-14.3,6.4-14.3,13l-51.4,16.8
		l1.5,5.4l52.4-12.2C740.6,1522,748.5,1522.7,756.9,1520.3z"/>
	<path class="st7" d="M684,1530.1l-2.3-8.2l51.8-16.9c0.6-6.1,5.9-10.7,15.4-13.3c4.9-1.4,9.9-1.1,14.2,0.7c4.4,1.9,7.4,5.1,8.5,9.2
		s0.2,8.4-2.6,12.3c-2.7,3.7-6.9,6.5-11.8,7.9c-9.6,2.7-17,1.2-20.6-4L684,1530.1z M685.4,1523.9l0.7,2.7l52.1-12.1l0.5,1
		c3.6,6.6,13.6,4.6,17.7,3.5l0,0c4.2-1.2,7.8-3.6,10.1-6.8c2.2-3.1,3-6.5,2.1-9.7s-3.3-5.8-6.8-7.3c-3.6-1.5-7.9-1.7-12.2-0.6
		c-6,1.7-13.2,5-13.2,11.5v1.1L685.4,1523.9z"/>
</g>
<g>
	<path class="st6" d="M654.7,1625.2c0,0-55.3-21.9-53.6-40.5s18-41.3,18-41.3s51.7,34.4,58.4,32.8
		C684.1,1574.6,654.7,1625.2,654.7,1625.2z"/>
	<path class="st7" d="M655.3,1627.1l-1.2-0.5c-2.3-0.9-56.3-22.6-54.5-42c1.7-18.8,17.6-41.1,18.2-42l0.8-1.2l1.2,0.8
		c25.2,16.7,53.4,33.5,57.2,32.6c0.9-0.2,1.8,0.1,2.3,0.8c0.8,1.1,2.3,3-10.6,27.4c-6.2,11.6-12.7,23-12.8,23.1L655.3,1627.1z
		 M619.4,1545.4c-3.3,4.9-15.4,23.8-16.9,39.4c-1.3,14,35.6,32,51.5,38.5c11.2-19.5,22.3-40.8,22.9-45.6
		C668.2,1577.3,630,1552.4,619.4,1545.4z"/>
</g>
<g>
	<path class="st6" d="M1349.4,1497.1c-3.9-2.2-8.5-1.8-11,0.8c-0.3,0.4-1.1,0.1-1.2-0.5c-0.5-2.5-1.7-7.1-5.1-9l-20.7-11.6
		c-9.6-5.3-20.8-3.3-25.2,4.5l0,0c-0.1,0.1-0.3,0.2-0.5,0.1l-7.4-4.2l-7.5,13.3l7.4,4.2c0.2,0.1,0.3,0.3,0.2,0.4l0,0
		c-2.6,4.7-2.1,10.4,0.7,15.4c1.6,2.7,4.1,5.1,7,6.7l22,12.3c3.7,2.1,8.2,2,10.9-0.3l0.4-0.4c0.5-0.2,1.1,0.3,1.1,0.8l0,0
		c-1.1,3.4,0.9,7.4,4.6,9.5l53.6,30c4.5,2.5,9.8,1.6,11.9-2.1l15.7-28c2.4-4.3,0.1-10.1-5.1-13L1349.4,1497.1z"/>
	<path class="st7" d="M1384,1572c-2,0-4.1-0.5-6-1.6l-53.6-30c-3.6-2-5.8-5.6-5.7-9.1c-3.2,1.8-7.6,1.7-11.4-0.4l-22-12.3
		c-3.3-1.8-5.9-4.3-7.6-7.3c-3-5.2-3.5-11.1-1.3-15.9l-7.8-4.4l8.9-16l7.8,4.4c5.1-7.7,16.8-9.5,26.6-4l20.7,11.6
		c3.4,1.9,4.9,5.9,5.6,8.8c3.1-2.2,7.8-2.3,11.7-0.1l51.8,29c2.8,1.6,5,4,6.1,6.8c1.1,2.9,1,5.8-0.4,8.3l-15.7,28
		c-1.2,2.2-3.4,3.6-6.1,4.1C1385.3,1572,1384.7,1572,1384,1572z M1319.8,1527.4c0.5,0,1,0.2,1.5,0.5c0.6,0.5,0.9,1.2,0.9,1.9
		l-0.1,0.3c-0.9,2.6,0.8,5.9,3.9,7.7l53.6,30c1.9,1,4,1.4,5.9,1.1c1.8-0.3,3.2-1.2,4-2.6l15.7-28c0.9-1.7,1-3.7,0.2-5.7
		c-0.8-2.1-2.5-4-4.8-5.2l-51.8-29c-3.3-1.8-7.1-1.6-9.2,0.6c-0.5,0.6-1.4,0.8-2.1,0.5c-0.8-0.2-1.5-0.9-1.6-1.8
		c-0.3-1.9-1.4-6.3-4.4-8l-20.7-11.6c-8.8-4.9-19.2-3.2-23.2,3.9c-0.3,0.5-0.7,0.8-1.3,0.9c-0.4,0.1-0.9,0-1.3-0.2l-6.1-3.4l-6,10.7
		l6.1,3.4c0.9,0.5,1.2,1.6,0.8,2.5c-2.3,4.1-2,9.3,0.7,14c1.4,2.4,3.7,4.6,6.5,6.1l22,12.3c3.2,1.8,7,1.7,9.2-0.2l0.6-0.5l0.2-0.1
		C1319.3,1527.5,1319.5,1527.4,1319.8,1527.4z M1284.9,1480.6L1284.9,1480.6L1284.9,1480.6z"/>
	<path class="st9" d="M1280,1474.2l-10.7,19.1c-0.5,0.9-1.6,1.2-2.4,0.7l-9.5-5.3c-0.9-0.5-1.2-1.6-0.7-2.4l10.7-19.1
		c0.5-0.9,1.6-1.2,2.4-0.7l9.5,5.3C1280.1,1472.2,1280.4,1473.3,1280,1474.2z"/>
	<path class="st4" d="M1267.7,1495.7c-0.5,0-1.1-0.1-1.6-0.4l-9.5-5.3c-0.8-0.4-1.3-1.1-1.6-2c-0.2-0.8-0.1-1.7,0.3-2.5l10.7-19.1
		c0.9-1.6,2.9-2.2,4.5-1.3l9.5,5.3c1.6,0.9,2.2,2.9,1.3,4.5l-10.7,19.1C1270,1495.1,1268.9,1495.7,1267.7,1495.7z M1268.9,1467.7
		c-0.1,0-0.2,0.1-0.3,0.1L1258,1487c-0.1,0.1,0,0.2,0,0.2c0,0.1,0.1,0.1,0.1,0.2l9.5,5.3c0.1,0,0.2,0,0.2,0c0.1,0,0.1-0.1,0.2-0.1
		l10.7-19.1c0-0.1,0-0.2,0-0.2c0-0.1-0.1-0.1-0.1-0.2l-9.5-5.3C1269,1467.7,1269,1467.7,1268.9,1467.7z"/>
	<path class="st9" d="M1331.2,1487.9l-23.3,41.6c-22-12.3-25.6-15.1-25.6-15.1l22.4-40C1309.4,1473.9,1331.2,1487.9,1331.2,1487.9z"
		/>
	<path class="st4" d="M1308.5,1531.5l-1.3-0.7c-21.9-12.2-25.7-15.1-25.8-15.3l-1-0.8l23.4-41.8l0.8-0.1c5-0.5,23.7,11.4,27.4,13.8
		l1.2,0.8L1308.5,1531.5z M1284.3,1513.9c2.1,1.4,8,5.1,23.1,13.5l21.8-39c-8.2-5.2-19.8-11.8-23.6-12.5L1284.3,1513.9z"/>
</g>
<g>
	<polygon class="st6" points="541.2,1379.5 493.9,1536.8 471.3,1536.2 493.4,1372.9 	"/>
	<path class="st7" d="M495,1538.4l-25.5-0.7l22.6-166.6l51.1,7.1L495,1538.4z M473.1,1534.7l19.7,0.5l46.5-154.4l-44.4-6.2
		L473.1,1534.7z"/>
	<polygon class="st6" points="352.8,1488.5 325.6,1521.5 310,1507.5 328.9,1476.9 	"/>
	<path class="st7" d="M325.8,1523.8l-17.9-16l20.3-32.9l27,13L325.8,1523.8z M312,1507.2l13.5,12.1l24.8-30.2l-20.9-10.1L312,1507.2
		z"/>
	<path class="st7" d="M436.7,1275.5c0,0-9,87.5-15.2,102.1c-11.5,27.2-81.3,132.2-81.3,132.2l-26.7-17.1l55.6-125.3
		c0,0-0.4-69-10.5-98.3s12-70.2,12-70.2l85.4,32.4c0,0,80.9,107.2,87,150.8c1.1,8.2-41.9,143.1-41.9,143.1h-32.7l22-134.2
		l-68.8-92.9L436.7,1275.5z"/>
	<path class="st6" d="M461.2,1038.4c0,0-4.5,27.8-2.5,31.3s16.3,17.2,16.3,17.2l-34.8,57.9l-47.6-10l2.4-49.6c0,0,24-15.4,25.7-19
		c2.4-4.9,5.5-32.1,5.5-32.1L461.2,1038.4z"/>
	<path class="st7" d="M441,1146.5l-50-10.5l2.5-51.7l0.7-0.4c11.6-7.5,24.2-16.4,25.2-18.4c1.9-3.8,4.5-24.1,5.3-31.6
		c0.1-0.8,0.9-1.4,1.7-1.3c0.8,0.1,1.4,0.8,1.3,1.7c-0.3,2.8-3.2,27.6-5.6,32.6c-1.7,3.5-20.4,15.8-25.6,19.2l-2.3,47.6l45.3,9.6
		l33.6-55.9c-3.4-3.2-13.9-13.5-15.7-16.7c-2.1-3.7,1.2-25.7,2.3-32.3c0.1-0.8,0.9-1.4,1.7-1.3c0.8,0.1,1.4,0.9,1.3,1.7
		c-2.1,13-3.7,28.3-2.7,30.3c1.5,2.7,12.1,13,16.1,16.8l0.9,0.8L441,1146.5z"/>
	<path class="st7" d="M452.6,977.8c6.1,0.6,20.8,1.8,21,12.6c0.1,12.4-1.8,28.3-2.9,36.7c-0.5,3.3-3.3,5.8-6.6,5.8l-37.4,0.4
		c-3.4,0-6.3-2.5-6.8-5.9c-1.4-11.5-4.3-35.7-3-39.4C421.5,975.6,443,976.9,452.6,977.8z"/>
	<path class="st6" d="M429.7,1041.5c-2-2.1-2.9-10.4-3.3-19.8c0-0.3-0.2-0.5-0.4-0.7c-2.5-1.4-6.1-4.5-6-9.2c0-4.1,3-3.2,5.3-2
		c0.4,0.2,0.9-0.1,0.9-0.6c0.1-11.4,0.6-21.4,0.6-21.4l44.4-0.5c0,0,0,10.2-0.3,21.6c0,0.5-1.6,27.8-2.6,30.2
		c-0.6,1.3-1.7,2.5-3.2,3.4c0,0-2.8,2.4-19,2.5L429.7,1041.5z"/>
	<path class="st7" d="M446.2,1046.6c-0.8,0-1.5-0.7-1.5-1.5s0.7-1.5,1.5-1.5c14.8-0.2,17.9-2.2,18.1-2.2l0.1-0.1
		c1.3-0.8,2.1-1.7,2.5-2.7c0.9-2.3,2.4-27.7,2.5-29.7c0.2-8.7,0.3-16.7,0.3-20l-41.4,0.5c-0.1,3.2-0.5,11.2-0.5,19.9
		c0,0.8-0.4,1.5-1.1,1.9s-1.4,0.4-2.1,0c-1.7-1-2.5-0.9-2.7-0.8c-0.1,0.1-0.3,0.4-0.3,1.4c0,4.3,3.7,7,5.2,7.9
		c0.7,0.4,1.1,1.1,1.2,1.9c0.5,14.9,2.2,18.1,2.8,18.8c0.6,0.6,0.6,1.6,0,2.2s-1.6,0.6-2.2,0c-1.3-1.3-3.1-4.9-3.7-20.4
		c-2.2-1.4-6.5-4.7-6.4-10.3c0-2,0.6-3.4,1.9-4.1c1.1-0.7,2.6-0.6,4.4,0.1c0.1-10.7,0.6-20,0.6-20.1l0.1-1.4l47.4-0.5v1.5
		c0,0.1,0,10.3-0.3,21.6c0,0.3-1.5,27.9-2.7,30.8c-0.7,1.6-1.9,2.9-3.7,4.1C465.2,1044.4,461.2,1046.5,446.2,1046.6L446.2,1046.6z"
		/>
	<path class="st7" d="M442.4,1015.1L442.4,1015.1c-1.2,0-2-1-2-2.1v-0.9c0-1.1,1-2,2.1-1.9c1.1,0,2,1,1.9,2.1v0.9
		C444.4,1014.2,443.5,1015.1,442.4,1015.1z"/>
	<path class="st7" d="M462.2,1014.3c-1.1,0-2-0.9-2-2v-1.1c0-1.1,0.9-2,2-2l0,0c1.1,0,2,0.9,2,2v1.1
		C464.2,1013.4,463.3,1014.3,462.2,1014.3L462.2,1014.3z"/>
	<path class="st7" d="M435.8,1008.9c-0.6,0-1.3-0.3-1.7-0.8c-0.7-0.9-0.5-2.2,0.4-2.9c6-4.4,12-3.2,12.3-3.1
		c1.1,0.2,1.8,1.4,1.6,2.5c-0.2,1.1-1.3,1.8-2.5,1.6c-0.2,0-4.5-0.9-8.9,2.4C436.7,1008.8,436.2,1008.9,435.8,1008.9z"/>
	<path class="st10" d="M431.7,1307.5L431.7,1307.5c-0.9,0-1.5-0.8-1.5-1.6l1.5-29l7.2-6.7l-1.1-19.6c0-0.8,0.6-1.5,1.4-1.6
		c0.8,0,1.5,0.6,1.6,1.4l1.2,21l-7.3,6.8l-1.4,27.8C433.2,1306.9,432.5,1307.5,431.7,1307.5z"/>
	<path class="st7" d="M454.5,1025.6c-0.7,0-1.4-0.5-1.7-1.2c-0.3-0.9,0.2-1.9,1.1-2.2c1.3-0.4,2.8-1.2,3.3-1.6
		c-0.2-1-1.1-3.8-1.8-5.9c-1.8-5.7-2.6-8.3-2.4-9.7c0.1-0.5,0.4-1.3,1.5-1.9c2.8-1.4,10.2,0,12.8,1.3c0.9,0.4,1.2,1.5,0.8,2.4
		c-0.4,0.9-1.5,1.2-2.4,0.8c-2.2-1.1-7.5-1.8-9.3-1.4c0.3,1.5,1.5,5.2,2.2,7.5c1.7,5.3,2.1,6.7,1.9,7.7c-0.4,2.1-3.3,3.4-5.6,4.2
		C454.9,1025.6,454.7,1025.6,454.5,1025.6z"/>
	<path class="st11" d="M494.5,1534.6c0,0,32.9,10.3,34,18.8h-59v-18.8H494.5z"/>
	<polygon class="st7" points="468.4,1548.8 468.4,1554 530.4,1554 530.4,1548.4 	"/>
	<path class="st11" d="M328.8,1519c0,0,19.8,26.5,15.9,34.1l-46.9-32.9l10.8-15.4L328.8,1519z"/>
	<polygon class="st7" points="298.3,1516.3 295.3,1520.6 344.4,1554.5 347.6,1549.9 	"/>
	<path class="st6" d="M549.8,1214.2c0,0,7.3,1.1,11,5.9s4.2,5.6,3.4,9.9c-0.8,4.2-2.7,9.6,0.3,8.5s10.1-6.3,7.6-12.1
		c-2.5-5.7-6.8-15.3-6.8-15.3l-17.2-6.5l-4.2,5.6L549.8,1214.2z"/>
	<path class="st7" d="M563.8,1240.3c-0.7,0-1.2-0.3-1.6-0.6c-1.5-1.3-0.9-4.1-0.1-7.6c0.2-0.8,0.4-1.6,0.5-2.3
		c0.7-3.6,0.4-4-3.1-8.6c-3.3-4.3-9.9-5.3-10-5.3l-0.3-0.1l-7.6-5.1l5.9-7.9l18.9,7.1l0.3,0.6c0,0,4.2,9.6,6.8,15.3
		c0.9,2,0.9,4.2,0,6.3c-1.6,3.8-5.9,6.9-8.4,7.8C564.6,1240.2,564.2,1240.3,563.8,1240.3z M550.4,1212.8c1.6,0.3,8.1,1.8,11.7,6.5
		c3.9,5.1,4.6,6.3,3.7,11.1c-0.2,0.8-0.3,1.6-0.5,2.4c-0.3,1.2-0.7,3.1-0.8,4.1c1.8-0.8,5-3.1,6.2-5.9c0.6-1.4,0.6-2.6,0-3.9
		c-2.2-4.9-5.6-12.5-6.5-14.7l-15.5-5.9l-2.5,3.4L550.4,1212.8z"/>
	<path class="st11" d="M422.2,1059.4c6,2.4,16.4,14.9,28.4,19.1c3.6,1.3,10.7-3.4,14.1-6c15.3-11.4,22,93.4,29.3,101.5l50.8,32.8
		l-9.1,12.2l-52.3-40.1c-14.8,6.6-10.6,51.3-21,61.2c-1.3,1.3-103.8-7.2-104-9C345.9,1122.4,394.8,1048.7,422.2,1059.4z"/>
	<path class="st6" d="M565.7,1238.7c-1.4-9.2,11.1-137.7,1.4-149.4c-7-8.3-21.9-16.4-33.8-20.6c5.5-6.1,11.4-15,9.1-17.3
		c-3.6-3.6-7.9-0.3-16.6-4.1c-8.8-3.8-10.1-2.4-15.2,1c-3.4,2.4-1.1,12.4,0.7,18.6c-14.8,3.2-37.1,11.5-37.1,11.5
		s-20.5,75.5-15.4,111.7c5.1,36.3-4.2,36.9-5.5,44s-37.8,33.7,26.8,40.4c64.6,6.7,84.3,7.1,87.5,1.3
		C570.6,1270.1,567.1,1247.9,565.7,1238.7z"/>
	<path class="st7" d="M549.3,1281.4c-13.2,0-34.8-1.8-69.5-5.4c-22.5-2.3-35.2-7.3-38.6-15.2c-3.3-7.6,2.7-15.7,7.1-21.6
		c1.6-2.1,3.3-4.4,3.5-5.4c0.4-2,1.3-3.6,2.3-5.3c2.8-4.6,6.9-11.5,3.2-38.2c-5.1-36.2,14.6-109.2,15.4-112.3l0.2-0.7l0.7-0.3
		c0.2-0.1,21-7.7,35.7-11.2c-2.8-10.3-2.7-16.5,0.4-18.7l0.6-0.4c5.1-3.5,7.3-4.6,16.1-0.8c4.1,1.8,7.2,1.9,9.7,2
		c2.8,0.1,5.1,0.2,7.4,2.4c3.6,3.5-4.1,13.5-7.6,17.7c11.6,4.4,25.6,12.1,32.4,20.3c6.6,7.9,4,59.2,0.5,115.6
		c-1.1,17.1-2,31.9-1.6,34.5v0.1c2.5,15.7,4.6,32.4,1.5,37.9C566.9,1279.8,561.9,1281.4,549.3,1281.4z M475.3,1079.6
		c-2.1,7.9-19.9,76.7-15.1,110.4c3.9,27.8-0.6,35.3-3.6,40.2c-0.9,1.5-1.7,2.8-1.9,4.3c-0.3,1.7-1.9,3.9-4,6.7
		c-3.9,5.3-9.4,12.5-6.7,18.6c2.9,6.7,15.1,11.2,36.2,13.4c54.7,5.7,83,7.6,86,2.1c2.9-5.3-0.6-27.6-1.9-36v-0.1
		c-0.4-2.8,0.3-14.6,1.5-35.2c2.5-39.6,6.6-105.9,0.2-113.5c-6.9-8.2-22-16.2-33.2-20.2l-2.1-0.7l1.5-1.7c6.9-7.7,9.9-14.2,9.2-15.2
		c-1.3-1.3-2.7-1.4-5.4-1.5s-6.2-0.2-10.8-2.2c-7.7-3.3-8.7-2.6-13.2,0.5l-0.6,0.4c-1.4,1-1.9,6,1.2,16.9l0.5,1.5l-1.6,0.3
		C498.4,1071.3,479.2,1078.1,475.3,1079.6z"/>
	<path class="st6" d="M517.5,1228.4c0,0,5.5,20.6,6.8,23.1c2.7,5.2,19,10.9,21.8,9s-0.2-20.2-0.2-20.2s7.2,0.7,9,0.4
		c0.4-0.1-0.6-5-1.5-6.3c-1.2-1.7-6.1-4-6.1-4l-18.4-10.7l-63.1-42.5l-11.2-32.4h-42.8c0,0,10,44.5,20,54.1
		C447.9,1214.5,517.5,1228.4,517.5,1228.4z"/>
	<path class="st7" d="M544.4,1262.4c-1.1,0-2.6-0.2-4.6-0.7c-5.2-1.3-14.4-5-16.7-9.5c-1.2-2.4-5.5-18.1-6.7-22.5
		c-8.8-1.8-70.2-14.8-85.6-29.8c-10.2-9.8-20-53-20.4-54.9l-0.4-1.9h45.9l11.4,33l62.6,42.2L548,1229c1,0.5,5.3,2.6,6.6,4.5
		c0.9,1.3,2.3,6.4,1.8,7.8l-0.3,0.8l-0.9,0.2c-1.3,0.2-4.9,0-7.3-0.2c1.1,7.3,2.1,17.8-0.7,19.8
		C546.8,1262,546.1,1262.4,544.4,1262.4z M413.7,1146.3c2,8.6,10.7,43.3,19.1,51.4c15.7,15.1,84.4,29,85,29.1l0.9,0.2l0.3,0.9
		c2.2,8.2,5.8,21,6.7,22.8c1.2,2.3,6.6,5.4,12.5,7.3c4.1,1.3,6.4,1.3,7,1.1c1-1.4,0.6-9.9-0.9-18.7l-0.3-2l2,0.2
		c2.1,0.2,5.3,0.4,7.2,0.5c-0.3-1.4-0.8-3.4-1.2-3.9c-0.7-1-3.7-2.7-5.5-3.6l-0.1-0.1L528,1221l-63.5-42.8l-11-31.8L413.7,1146.3
		L413.7,1146.3z"/>
	<polygon class="st11" points="398,1107 405.9,1162.5 461.5,1154.9 446.4,1104.4 	"/>
	<path class="st7" d="M404.7,1164.2l-11.1-57c-0.2-0.8,0.4-1.6,1.2-1.8c0.8-0.2,1.6,0.4,1.8,1.2l10.5,54.2l52.6-7.2l-10.6-46.4
		c-0.2-0.8,0.3-1.6,1.1-1.8c0.8-0.2,1.6,0.3,1.8,1.1l11.3,49.6L404.7,1164.2z"/>
	<path class="st7" d="M426.8,993c0,0,38.3,2.4,51.3-8c7.4-5.9-1.5-13.8-8.2-14.6c-5.1-0.6-9.5,5.1-14.9,5.7
		c-4.1,0.5-13.8-0.7-19.1,0.4C425,978.8,421.2,988.2,426.8,993z"/>
	<path class="st7" d="M449.4,1028.7c-0.3,1.3,3.6,5.3,6.9,4.7c5.4-1,5.9-6.8,4.6-6.2c-0.5,0.2-2.1,2.1-5.4,2.6
		C452,1030.3,449.6,1027.8,449.4,1028.7z"/>
	<path class="st7" d="M530.2,1070.2c-14.5,0-19.9-1.6-20.1-1.7c-0.8-0.2-1.2-1.1-1-1.9s1.1-1.2,1.9-1l0,0c0.1,0,6.1,1.8,22.2,1.5
		c0.8,0,1.5,0.7,1.5,1.5s-0.6,1.5-1.5,1.5C532.2,1070.2,531.2,1070.2,530.2,1070.2z"/>
</g>
<g>
	<polygon class="st6" points="1464.2,1415.7 1508.2,1571.9 1527.9,1571.4 1508.6,1408 	"/>
	<path class="st7" d="M1507,1573.5l-0.3-1.2l-44.4-157.9l47.7-8.3l0.2,1.6l19.5,165.1L1507,1573.5z M1466.2,1417l43.2,153.4
		l16.8-0.5l-18.9-160.1L1466.2,1417z"/>
	<polygon class="st6" points="1585.2,1418.4 1613.6,1572.3 1634.5,1569.4 1626.1,1412.5 	"/>
	<path class="st7" d="M1612.4,1574l-0.3-1.5l-28.8-155.5l44.3-6.4l8.5,160.1L1612.4,1574z M1587,1419.7l27.9,150.9l18-2.5
		l-8.2-153.8L1587,1419.7z"/>
	<path class="st7" d="M1565.4,1310.6c0,0,10.7,95.7,14.8,111c2,7.5,53.5-1.6,53.5-1.6s-0.4-86.5,9.7-115.8s-12-70.2-12-70.2
		l-85.4,32.4c0,0-80.9,107.2-87,150.8c-1.1,8.2,52.7,8.9,52.7,8.9l68.8-92.9L1565.4,1310.6z"/>
	<path class="st6" d="M1540.8,1073.5c0,0,4.5,27.8,2.5,31.3S1527,1122,1527,1122l34.8,57.9l47.6-10l-2.4-49.6c0,0-24-15.4-25.7-19
		c-2.4-4.9-5.5-32.1-5.5-32.1L1540.8,1073.5z"/>
	<path class="st7" d="M1561.1,1181.6l-36-59.9l0.9-0.8c5.7-5.4,14.7-14.4,16.1-16.8c1-2-0.6-17.3-2.7-30.3c-0.1-0.8,0.4-1.6,1.3-1.7
		c0.8-0.1,1.6,0.4,1.7,1.3c1.1,6.7,4.4,28.6,2.3,32.3c-1.8,3.2-12.4,13.4-15.7,16.7l33.6,55.9l45.3-9.6l-2.3-47.6
		c-5.2-3.4-23.9-15.6-25.6-19.2c-2.5-5-5.3-29.8-5.6-32.6c-0.1-0.8,0.5-1.6,1.3-1.7s1.6,0.5,1.7,1.3c0.8,7.5,3.4,27.8,5.3,31.6
		c1,2,13.6,10.9,25.2,18.4l0.7,0.4v0.8l2.5,50.9L1561.1,1181.6z"/>
	<path class="st7" d="M1536.3,1019.8c-6,2.1-20.8,7.2-18.2,17.7c2.9,12,8.9,27,12.1,34.8c1.3,3.1,4.8,4.8,8.2,3.9l38.1-9.4
		c3.5-0.9,5.8-4.1,5.4-7.5c-1.4-11.5-4.6-35.7-6.8-38.9C1567.4,1009.5,1545.8,1016.4,1536.3,1019.8z"/>
	<path class="st6" d="M1575.5,1075.4c1.6-2.5,0.4-10.8-1.6-20.1c-0.1-0.3,0-0.5,0.2-0.7c2.2-2,5-6,3.8-10.5
		c-1.1-3.9-3.9-2.4-5.9-0.5c-0.4,0.3-0.9,0.2-1.1-0.3c-2.9-11-5.9-20.6-5.9-20.6l-45.3,11.1c0,0,2.5,9.9,5.7,20.8
		c0.1,0.5,8.5,26.5,10.2,28.6c0.9,1.2,2.3,2,4.1,2.5c0,0,3.5,1.5,19.9-2.5L1575.5,1075.4z"/>
	<path class="st7" d="M1542.4,1087.5c-1.9,0-2.8-0.2-3.2-0.4c-2.1-0.6-3.7-1.6-4.8-3c-2-2.5-10.4-28.9-10.5-29.1
		c-3.1-10.9-5.6-20.8-5.7-20.9l-0.4-1.5l48.2-11.8l0.4,1.4c0,0.1,2.8,9,5.6,19.3c1.7-1.2,3.2-1.7,4.5-1.3c1.4,0.4,2.3,1.6,2.8,3.4
		c1.5,5.5-2,9.8-3.9,11.7c3.3,15.2,2.3,19.1,1.3,20.8c-0.4,0.7-1.4,0.9-2.1,0.5s-0.9-1.4-0.5-2.1c0.5-0.8,1.4-4.4-1.8-18.9
		c-0.2-0.8,0.1-1.6,0.7-2.2c1.4-1.3,4.5-4.8,3.4-9c-0.2-0.9-0.6-1.3-0.7-1.3c-0.3-0.1-1.2,0.1-2.7,1.5c-0.6,0.5-1.4,0.7-2.1,0.5
		s-1.3-0.8-1.5-1.5c-2.2-8.5-4.5-16.1-5.5-19.2l-42.4,10.4c0.8,3.2,2.9,10.9,5.3,19.3c0.6,1.9,8.5,26.1,9.9,28.1
		c0.7,0.8,1.8,1.5,3.3,1.9l0.2,0.1c0.1,0,3.8,1.1,18.9-2.6c0.8-0.2,1.7,0.3,1.9,1.1c0.2,0.8-0.3,1.7-1.1,1.9
		C1550.6,1087,1545.3,1087.5,1542.4,1087.5z M1575.4,1055L1575.4,1055L1575.4,1055z"/>
	<path class="st7" d="M1555.4,1053.2c-0.9,0-1.7-0.6-1.9-1.4l-0.3-0.9c-0.3-1.1,0.3-2.2,1.3-2.5s2.2,0.3,2.5,1.3l0.3,0.9
		c0.3,1.1-0.3,2.2-1.3,2.5C1555.8,1053.2,1555.6,1053.2,1555.4,1053.2z"/>
	<path class="st7" d="M1535.1,1057.6c-0.9,0-1.7-0.6-1.9-1.5l-0.3-1c-0.3-1.1,0.4-2.2,1.4-2.4c1.1-0.3,2.2,0.4,2.4,1.4l0.3,1
		c0.3,1.1-0.4,2.2-1.4,2.4C1535.4,1057.6,1535.2,1057.6,1535.1,1057.6z"/>
	<path class="st7" d="M1549.1,1045.6c-0.8,0-1.5-0.4-1.9-1.2c-0.5-1-0.1-2.3,0.9-2.8c0.2-0.1,6-2.9,13.1-0.2
		c1.1,0.4,1.6,1.6,1.2,2.7s-1.6,1.6-2.7,1.2c-5.4-2.1-9.7,0-9.8,0C1549.8,1045.5,1549.4,1045.6,1549.1,1045.6z"/>
	<path class="st10" d="M1570.3,1342.6c-0.8,0-1.5-0.6-1.5-1.4l-1.4-27.8l-7.3-6.8l1.2-21c0-0.8,0.7-1.4,1.6-1.4
		c0.8,0,1.5,0.8,1.4,1.6l-1.1,19.6l7.2,6.7l1.5,29C1571.9,1341.9,1571.2,1342.6,1570.3,1342.6
		C1570.4,1342.6,1570.3,1342.6,1570.3,1342.6z"/>
	<path class="st7" d="M1541.9,1065.5c-1.5,0-2.5-0.5-2.9-1.5c-0.4-0.9-0.4-2.4,0-8c0.2-2.5,0.5-6.6,0.3-8c-1.7-0.6-8,0.1-9.8,1.6
		c-0.7,0.6-1.8,0.5-2.5-0.2c-0.6-0.7-0.5-1.8,0.2-2.5c2.7-2.2,9.5-3,12.6-2.4c1.3,0.3,2.2,0.9,2.6,1.7c0.6,1.2,0.5,4,0,10
		c-0.1,1.9-0.3,4.4-0.3,5.7c0.8-0.1,2.1-0.4,3.3-0.8c0.9-0.3,1.9,0.1,2.2,1c0.3,0.9-0.1,1.9-1,2.2
		C1544.7,1065.1,1543.1,1065.5,1541.9,1065.5z"/>
	<path class="st11" d="M1507.1,1569.7c0,0-32.5,10.3-33.7,18.8h58.3v-18.8H1507.1z"/>
	<polygon class="st7" points="1533.6,1583.9 1533.6,1589.1 1471.7,1589.1 1471.7,1583.5 	"/>
	<path class="st7" d="M1506.6,1576.1c-0.1,0-0.3,0-0.4-0.1l-11.2-3.4c-0.7-0.2-1.1-1-0.9-1.7s1-1.1,1.7-0.9l11.2,3.4
		c0.7,0.2,1.1,1,0.9,1.7C1507.7,1575.7,1507.1,1576.1,1506.6,1576.1z"/>
	<path class="st7" d="M1500.9,1579.4c-0.1,0-0.3,0-0.4-0.1l-11.2-3.4c-0.7-0.2-1.1-1-0.9-1.7s1-1.1,1.7-0.9l11.2,3.4
		c0.7,0.2,1.1,1,0.9,1.7C1502.1,1579,1501.5,1579.4,1500.9,1579.4z"/>
	<path class="st7" d="M1493.1,1582.8c-0.1,0-0.3,0-0.4-0.1l-11.2-3.4c-0.7-0.2-1.1-1-0.9-1.7s1-1.1,1.7-0.9l11.2,3.4
		c0.7,0.2,1.1,1,0.9,1.7C1494.3,1582.4,1493.7,1582.8,1493.1,1582.8z"/>
	<path class="st11" d="M1612.4,1568.5c0,0-31.3,10.9-32.3,19.4l57.3-1l-0.3-18.8L1612.4,1568.5z"/>
	<polygon class="st7" points="1639.2,1583.3 1639.3,1588.5 1579.6,1589 1579.5,1583.5 	"/>
	<path class="st7" d="M1611.9,1574.8c-0.1,0-0.2,0-0.4-0.1l-11.3-3.2c-0.7-0.2-1.2-1-1-1.7s1-1.2,1.7-1l11.3,3.2
		c0.7,0.2,1.2,1,1,1.7C1613.1,1574.4,1612.5,1574.8,1611.9,1574.8z"/>
	<path class="st7" d="M1606.4,1578.3c-0.1,0-0.2,0-0.4-0.1l-11.3-3.2c-0.7-0.2-1.2-1-1-1.7s1-1.2,1.7-1l11.3,3.2
		c0.7,0.2,1.2,1,1,1.7S1607,1578.3,1606.4,1578.3z"/>
	<path class="st7" d="M1598.6,1581.8c-0.1,0-0.2,0-0.4-0.1l-11.3-3.2c-0.7-0.2-1.2-1-1-1.7s1-1.2,1.7-1l11.3,3.2
		c0.7,0.2,1.2,1,1,1.7C1599.8,1581.4,1599.2,1581.8,1598.6,1581.8z"/>
	<path class="st6" d="M1494.6,1140.8l19.1,4.2l1.4,1.8h42.8c0,0-26.6,99-39.7,103.4C1480,1263,1494.6,1140.8,1494.6,1140.8z"/>
	<path class="st7" d="M1512.9,1252.7c-3.3,0-6.2-1.1-8.8-3.2c-21.6-17.6-11.4-105.2-11-108.9l0.2-1.7l21.3,4.7l1.2,1.6h44.1l-0.5,2
		c-0.1,0.2-6.7,25.1-14.9,50.2c-16.8,51.4-23.5,53.6-25.7,54.4C1516.7,1252.4,1514.7,1252.7,1512.9,1252.7z M1496,1142.7
		c-1.3,12.5-8.7,89.1,10,104.4c3.2,2.6,7.1,3.2,11.7,1.6c8.9-3,27.5-60.9,38.1-100.4h-41.6l-1.5-2L1496,1142.7z"/>
	<path class="st11" d="M1579.8,1094.6c-6,2.4-16.4,14.9-28.4,19.1c-3.6,1.3-10.7-3.4-14.1-6c-15.3-11.4-33.8,48.7-36.7,67.4
		c0,0,20.1,6.6,20.6,9.3c5.6,32.1,11.4,84,18.5,90.8c1.3,1.3,103.8-7.2,104-9C1656.1,1157.5,1607.3,1083.8,1579.8,1094.6z"/>
	
		<rect x="1261.8" y="1297.9" transform="matrix(0.4178 -0.9085 0.9085 0.4178 -343.9989 2072.7866)" class="st8" width="367" height="13.8"/>
	<path class="st7" d="M1529.4,1141.6l0.6-1.4l-15.2-7l-153.5,333.9c-8.6,1.9-83.8,19.1-86.2,51c-0.3,3.7,0.7,6.5,2.9,8.3
		c2.1,1.7,4.9,2.2,7.4,2.2c3.3,0,6.1-0.8,6.3-0.9c0.8-0.2,1.3-1.1,1.1-1.9c-0.2-0.8-1.1-1.3-1.9-1.1c-2,0.6-8,1.6-10.9-0.7
		c-1.4-1.1-2-3-1.8-5.6c2.3-29.4,75.9-46.5,83.8-48.2l1.5,0.7c-13.9,7.4-73.4,41.1-67.8,70.6c0.7,3.6,2.4,6.1,5,7.3
		c1.2,0.5,2.5,0.7,3.7,0.7c4.8,0,9.6-2.9,9.9-3c0.7-0.4,1-1.4,0.5-2.1s-1.4-1-2.1-0.5c-1.8,1.1-7.3,3.6-10.7,2.1
		c-1.7-0.7-2.7-2.4-3.2-5c-5.5-29,61.3-64.7,68.3-68.4l0.5,0.2c-8.9,8.3-61.6,59-47.9,87.1c1.6,3.3,3.9,5.2,6.7,5.7
		c0.4,0.1,0.8,0.1,1.2,0.1c5.6,0,11.1-5.6,11.3-5.9c0.6-0.6,0.6-1.6-0.1-2.2c-0.6-0.6-1.6-0.6-2.2,0.1c-1.5,1.5-6.1,5.4-9.8,4.9
		c-1.8-0.3-3.2-1.6-4.4-4c-13.2-27.1,44.4-80.8,48.2-84.3l0.7,0.3c-5.8,9.3-44,73.4-23.1,97c2.2,2.5,4.6,3.7,7.1,3.7
		c0.3,0,0.6,0,0.9-0.1c6.1-0.7,10.3-8.6,10.5-8.9c0.4-0.8,0.1-1.7-0.6-2.1c-0.8-0.4-1.7-0.1-2.1,0.6c-1,1.9-4.4,6.9-8.1,7.3
		c-1.8,0.2-3.5-0.7-5.3-2.6c-17.4-19.7,11.7-73.3,21.2-89.6c-3.5,19.7-12.2,80.7,12.9,94.1c1.9,1,3.6,1.5,5.3,1.5
		c1.2,0,2.4-0.3,3.5-0.8c5.5-2.8,6.7-11.7,6.7-12c0.1-0.9-0.5-1.6-1.3-1.8c-0.8-0.1-1.6,0.5-1.8,1.3c-0.3,2.1-1.7,8-5.1,9.7
		c-1.6,0.8-3.5,0.6-5.9-0.6c-25-13.4-12.8-82.9-10.5-95L1529.4,1141.6z M1516.3,1137.2l9.8,4.5L1374,1472.4l-6.1-2.8
		c-0.2-0.2-0.5-0.3-0.8-0.4l-2.9-1.3L1516.3,1137.2z"/>
	<path class="st6" d="M1484.5,1263.5c0,0-5.5,20.6-6.8,23.1c-2.7,5.2-19,10.9-21.8,9s0.2-20.2,0.2-20.2s-7.2,0.7-9,0.4
		c-0.4-0.1,0.6-5,1.5-6.3c1.2-1.7,6.1-4,6.1-4l18.4-10.7l63.1-42.5l11.2-32.4h42.8c0,0-10,44.5-20,54.1
		C1554.1,1249.6,1484.5,1263.5,1484.5,1263.5z"/>
	<path class="st7" d="M1457.7,1297.5c-1.8,0-2.4-0.5-2.7-0.7c-2.9-2-1.8-12.5-0.7-19.8c-2.4,0.2-6,0.4-7.3,0.2l-0.9-0.1l-0.4-0.9
		c-0.6-1.4,0.9-6.5,1.8-7.8c1.4-1.9,5.6-4,6.6-4.5l18.3-10.6l62.6-42.2l11.4-33h45.9l-0.4,1.9c-0.4,1.8-10.3,45.1-20.4,54.9
		c-15.5,14.9-76.9,28-85.6,29.8c-1.2,4.4-5.5,20.1-6.7,22.5c-2.3,4.5-11.5,8.2-16.7,9.5C1460.2,1297.4,1458.7,1297.5,1457.7,1297.5z
		 M1456.8,1294.3c0.5,0.2,2.8,0.2,7-1.1c6-1.9,11.4-5,12.5-7.3c0.9-1.7,4.5-14.6,6.7-22.8l0.2-0.9l0.9-0.2c0.7-0.1,69.4-14,85-29.1
		c8.4-8.1,17.1-42.9,19.1-51.4h-39.7l-11,31.8l-63.6,42.8l-18.5,10.7c-1.9,0.9-4.8,2.6-5.5,3.6c-0.4,0.5-0.9,2.5-1.2,3.9
		c1.9,0,5.1-0.3,7.2-0.5l2-0.2l-0.3,2C1456.2,1284.4,1455.8,1292.9,1456.8,1294.3z"/>
	<path class="st7" d="M1527,1220c-0.8,0-1.4-0.6-1.5-1.3l-5.9-38.5c-0.1-0.9,0.5-1.6,1.3-1.8c0.9-0.1,1.6,0.5,1.8,1.3l5.9,38.5
		c0.1,0.9-0.5,1.6-1.3,1.8C1527.2,1220,1527.1,1220,1527,1220z"/>
	<polygon class="st11" points="1604,1142.1 1596.2,1197.6 1540.5,1190 1555.6,1139.5 	"/>
	<path class="st7" d="M1597.4,1199.3l-58.7-8l11.3-49.6c0.2-0.8,1-1.3,1.8-1.1c0.8,0.2,1.3,1,1.1,1.8l-10.6,46.4l52.6,7.2l10.5-54.2
		c0.2-0.8,1-1.3,1.8-1.2c0.8,0.2,1.3,0.9,1.2,1.8L1597.4,1199.3z"/>
	<path class="st7" d="M1554.6,1066.4c1,1.3-1.4,7.4-5.5,8.4c-6.6,1.6-9.9-4.3-8.2-4.3c0.7,0,3.4,1.2,7.3,0.1
		C1552.4,1069.4,1553.9,1065.6,1554.6,1066.4z"/>
	<path class="st7" d="M1529.7,1035.1c-5.9,0-17-1.5-16.3-12.7c0.8-11.2,3.2-7.3,3.2-7.3s2.5,2.3,3.4,2.4c0.9,0.1-1,0.8,1.8-8.6
		c0,0,8.7-2,12.6,3s6.5,2,7.9-0.7c1.1-2.3,4.9,0.4,5.7,2.7c1.4,2.5,14.8,0.5,18.8,2.2c6.4,2.7,8.6,3.9,8.7,11.8c0,1.5-2,16.5-2,16.5
		l-5.6-15.3C1567.8,1029,1539.3,1035.1,1529.7,1035.1z"/>
	<path class="st6" d="M1502.1,1128.9c-8.7,7.2-11,14-5.4,19c10.2,8.9,24.6,1,23.1-4.1c-0.4-1.5-3.5-7.1-3.5-7.1
		c-0.2-0.5,0.3-1,0.8-0.8l7,3.2c0,0,2.2-5.1-6-10C1509.8,1124.3,1505.1,1126.4,1502.1,1128.9z"/>
	<path class="st7" d="M1507.3,1153.5c-3.9,0-8.1-1.3-11.7-4.4c-2.4-2.1-3.6-4.6-3.6-7.4c0.1-4.3,3.1-9,9-13.9l0,0
		c3.2-2.6,8.4-5.5,17.8,0.1c9.3,5.6,6.8,11.7,6.7,12l-0.6,1.5l-5.8-2.7c0.9,1.7,2,3.8,2.2,4.8c0.7,2.5-0.9,5.3-4.3,7.4
		C1514.4,1152.4,1511,1153.5,1507.3,1153.5z M1503.1,1130.1c-5.1,4.3-7.9,8.3-7.9,11.6c0,1.9,0.8,3.5,2.5,5c5.7,5,13.2,4.3,17.7,1.4
		c2.4-1.5,3.2-3.1,2.9-3.9c-0.3-1-2.2-4.7-3.4-6.8c-0.4-0.9-0.3-1.8,0.4-2.5c0.6-0.7,1.6-0.8,2.4-0.4l5,2.3
		c-0.2-1.5-1.4-3.9-5.5-6.3C1509.7,1126,1505.7,1127.9,1503.1,1130.1L1503.1,1130.1z"/>
</g>
<g>
	<path class="st6" d="M1163.3,1285.4c-7.4,33.6,5.4,137.6,5.4,137.6l18.8,2.2c0,0,2.8-94.9,11.8-125c2.7-9,17.6-33.1,17.6-33.1
		l-37.7-12.7C1179.2,1254.5,1165.2,1276.9,1163.3,1285.4z"/>
	<path class="st7" d="M1189,1426.9l-21.6-2.6l-0.1-1.2c-0.5-4.3-12.8-104.6-5.3-138.1l0,0c1.9-8.6,15.5-30.4,16-31.3l0.6-1
		l40.7,13.7l-1,1.6c-0.1,0.2-14.8,24-17.4,32.7c-8.9,29.5-11.7,123.7-11.7,124.6L1189,1426.9z M1170.1,1421.6l16,1.9
		c0.4-13.1,3.4-95.6,11.8-123.7c2.3-7.8,13.4-26.2,16.8-31.8l-34.8-11.7c-2.7,4.4-13.5,22.3-15,29.4l0,0
		C1157.9,1316.8,1168.7,1410.1,1170.1,1421.6z"/>
	<path class="st6" d="M1255.4,1298.8c10.6,28.9,78.7,105,78.7,105l13.8-13.3c0,0-40.9-65.3-51.2-88.8c-3-6.8-5.4-32.9-5.4-32.9
		h-36.9C1254.5,1268.8,1251.9,1289.2,1255.4,1298.8z"/>
	<path class="st7" d="M1334.1,1406l-1-1.2c-2.8-3.1-68.4-76.7-79-105.5l0,0c-3.6-9.9-1.2-29.9-1.1-30.7l0.2-1.3h39.6l0.1,1.4
		c0,0.3,2.5,26,5.3,32.5c10.1,23.1,50.7,88,51.1,88.6l0.6,1L1334.1,1406z M1255.8,1270.3c-0.5,4.6-1.8,20.2,1,28l0,0
		c9.7,26.4,68.8,93.7,77.4,103.4l11.8-11.4c-5.3-8.5-41.2-66.3-50.7-88c-2.7-6.1-4.8-26.5-5.4-32H1255.8z"/>
	<path class="st7" d="M1228.8,962.8c0,0-9.2,7.9-10,25.2c-0.4,7.5,0.2,21.3,8,27.8s12,12.2,8.3,19.9s5.9,12.2,6.8,15.8
		c0.9,3.7,4.9,4.6,5.9,9.1c3.6,16.2,26.2,26.7,26.2,26.7s63.1,63.6,78.2,6c1.6-6.2-8.5-15.3-10.5-21.4c-1.5-4.4,3.6-18.6,1.3-22.7
		c-1.9-3.4-11.1-11.8-13.5-14.9c-3.7-4.8-0.3-19.2-6.6-23.8c-4.2-3.1-10.3-4.4-14.4-8.8c-2.8-3.1-5.8-16.2-10.8-18.7
		c-9.1-4.5-11.3-8-15.4-16.9C1279.8,961.4,1254.3,943.3,1228.8,962.8z"/>
	<path class="st6" d="M1266.3,1006.3c0,0-1.5,29.7-0.4,31.3c3.8,5.4,15.8,30.7,18.4,31.5c2.6,0.7-43.6-2.9-43.6-2.9
		s-5.6-17.7-2.5-20.9s4.4-37.6,4.4-37.6L1266.3,1006.3z"/>
	<path class="st7" d="M1283.7,1070.6c-0.4,0-0.8,0-1.2,0c-1.2,0-2.9-0.1-5-0.3c-3.6-0.2-8.7-0.6-15-1c-10.9-0.8-21.8-1.6-21.8-1.6
		l-1-0.1l-0.3-1c-1.4-4.4-5.6-18.9-2.1-22.4c1.7-1.9,3.4-20.1,4-36.6l0.1-1.4l26.6-1.5l-0.1,1.7c-0.6,11.4-1.1,28.2-0.6,30.5
		c1.6,2.3,4.4,7.6,7.3,13.1c3.5,6.6,8.8,16.5,10.3,17.7c0.9,0.3,1.2,1.1,1,1.7C1285.7,1070.4,1285,1070.6,1283.7,1070.6z
		 M1284.7,1067.5L1284.7,1067.5L1284.7,1067.5z M1241.8,1064.7c13.3,1,31.8,2.4,39.2,2.8c-1.9-2.8-4.6-7.8-9.1-16.2
		c-3-5.6-5.8-10.9-7.2-12.9c-0.3-0.5-1.4-1.9,0-30.5l-20.6,1.2c-0.4,9.5-1.7,34.1-4.8,37.2
		C1237.9,1047.7,1239.4,1056.8,1241.8,1064.7z"/>
	<path class="st6" d="M1264.3,1012.2c3.5-2.3,11.3-8,11.5-12.5c0.2-4.6-5-4.1-6.6-3.4c-1.1,0.5,0.2-22.4,0.2-22.4l-35.4-2.2
		c0,0-5.4,19.6-4.3,32.2c1.1,12.7,6.9,16,16.1,16.5c4.6,0.2,8.2-0.7,11-2.1L1264.3,1012.2z"/>
	<path class="st7" d="M1247.3,1021.9c-0.5,0-1,0-1.5,0c-11.4-0.6-16.5-5.8-17.6-17.9c-1.2-12.8,4.1-32,4.3-32.8l0.3-1.2l38.1,2.4
		l-0.1,1.5c-0.5,8.1-0.8,17.1-0.6,20.5c1.5-0.2,3.5-0.2,5,0.9c1,0.7,2.1,2,2,4.4c-0.2,5.4-8.6,11.4-12.1,13.7
		c-0.7,0.5-1.6,0.3-2.1-0.4s-0.3-1.6,0.4-2.1c5.3-3.4,10.6-8.3,10.8-11.4c0.1-1.2-0.4-1.6-0.7-1.8c-1-0.7-3.1-0.5-3.8-0.1l-0.8,0.3
		l-0.8-0.5c-0.8-0.5-1.6-1.1-0.4-22.2l-32.6-2.1c-1.1,4.4-4.9,20.1-3.9,30.5c1.1,12,6.4,14.7,14.7,15.2c3.8,0.2,7.2-0.5,10.3-2
		c0.7-0.4,1.6-0.1,2,0.7c0.4,0.7,0.1,1.6-0.7,2C1254.5,1021.2,1251,1021.9,1247.3,1021.9z"/>
	<path class="st7" d="M1229.9,970.8c-1.2,11.6,34.2,7.7,40.3,23.3c0,0,4.2-0.6,4.3-0.1l-1.6-23.7
		C1272.8,970.4,1231,960.1,1229.9,970.8z"/>
	<path class="st7" d="M1236.4,996.8c-0.1,0-0.2,0-0.3,0c-1.1-0.2-1.9-1.2-1.7-2.3l0.2-1.1c0.2-1.1,1.2-1.9,2.3-1.7
		c1.1,0.2,1.9,1.2,1.7,2.3l-0.2,1.1C1238.3,996,1237.4,996.8,1236.4,996.8z"/>
	<path class="st7" d="M1252.1,999c-0.1,0-0.2,0-0.3,0c-1.1-0.2-1.9-1.2-1.7-2.3l0.2-1.1c0.2-1.1,1.2-1.9,2.3-1.7
		c1.1,0.2,1.9,1.2,1.7,2.3l-0.2,1.1C1253.9,998.3,1253,999,1252.1,999z"/>
	<path class="st7" d="M1259.4,993.5c-0.4,0-0.8-0.2-1.1-0.5c-1.2-1.5-5.6-2.9-8.1-3.5c-0.7-0.2-1.2-0.9-1-1.6c0.2-0.7,0.8-1.2,1.6-1
		c0.8,0.2,7.5,1.7,9.6,4.5c0.4,0.6,0.3,1.4-0.2,1.8C1260,993.4,1259.7,993.5,1259.4,993.5z"/>
	<path class="st7" d="M1243.9,1003.7c-0.1,0-0.2,0-0.3,0c-5.4-0.9-5.7-2.2-5.8-2.9c-0.2-1,0.4-1.8,1-2.6c0.8-0.9,1.9-2.4,3-5.3
		c0.3-0.8,1.2-1.2,1.9-0.9c0.8,0.3,1.2,1.2,0.9,1.9c-1.3,3.3-2.6,5.1-3.5,6.1c0.7,0.2,1.8,0.5,2.9,0.7c0.8,0.1,1.4,0.9,1.2,1.7
		C1245.2,1003.2,1244.6,1003.7,1243.9,1003.7z"/>
	<path class="st7" d="M1243.3,989c-0.1,0-0.3,0-0.4-0.1c-3.6-1.2-7.4-0.2-7.4-0.1c-0.7,0.2-1.4-0.2-1.6-0.9s0.2-1.4,0.9-1.6
		c0.2-0.1,4.6-1.3,9,0.2c0.7,0.2,1.1,1,0.8,1.7C1244.4,988.6,1243.9,989,1243.3,989z"/>
	<path class="st7" d="M1224,1155.5c0,0-42.2,72.3-55,100.3c-3,6.5,61.4,29,61.4,29l15.3-73.8c0,0-6.4,62-3.8,75.2
		c0.8,4.3,70.3-1.4,70.3-1.4s-12.2-69.8-8.5-82c6.3-20.8-14.4-47.9-14.4-47.9L1224,1155.5z"/>
	<path class="st6" d="M1139.2,1164.1c2.1,2.3,10.1-2.4,14.6-9.2c4.4-6.8,46.6-19.3,59.8-29.5c13.5-10.4,41-38.2,38.4-55.1
		c-0.9-5.9-6.3-19.7-12.1-18.4c-14,3.2-31.3,42.7-41.6,52.7c-11.1,10.8-47.8,35.9-50.9,35.6s-20.5-0.7-15.9,2
		c3.2,1.9,7.1,3.4,9.2,4.2c0.5,0.2,0.5,0.9,0,1.1c-4.9,2.3-21,10-18.4,11.9L1139.2,1164.1z"/>
	<path class="st7" d="M1140.8,1166.2c-1.1,0-1.8-0.3-2.3-0.7l-16.8-4.5l-0.2-0.2c-0.7-0.5-1-1.2-0.9-1.9c0.1-1,0.3-3.4,17.6-11.6
		c-2.1-0.9-5-2.1-7.4-3.5c-1.7-1-1.6-2.1-1.4-2.7c0.4-1.4,2-2.1,8.9-2.3c3.7-0.1,7.7,0,9.2,0.2c4-0.8,38.9-24.6,49.8-35.2
		c3.7-3.6,8.4-11.3,13.5-19.5c9.1-14.7,19.3-31.4,28.8-33.6c1.5-0.3,3,0,4.5,1c5.1,3.5,8.7,14,9.4,18.6
		c2.8,17.8-25.6,46.2-38.9,56.5c-6.7,5.1-20.1,10.7-33.1,16c-12,4.9-24.4,10.1-26.4,13.1c-3.5,5.4-9.7,10.1-13.8,10.4
		C1141.1,1166.2,1141,1166.2,1140.8,1166.2z M1124.2,1158.5l15.8,4.3l0.3,0.3c0,0,0.2,0.1,0.7,0.1c2.8-0.2,8.2-4,11.5-9
		c2.4-3.6,12.1-7.8,27.8-14.2c12.2-5,26-10.7,32.4-15.6c14.4-11,40.2-38.1,37.8-53.7c-0.8-4.9-4.4-14-8.1-16.5
		c-0.8-0.5-1.5-0.7-2.2-0.6c-8.2,1.9-18.6,18.7-26.9,32.2c-5.1,8.4-10,16.3-13.9,20.1c-9.7,9.5-47.3,36-52,36h-0.1
		c-2.5-0.3-9.7-0.3-13.4,0.1c2.7,1.4,5.6,2.6,7.3,3.2c0.8,0.3,1.3,1,1.4,1.9c0,0.9-0.4,1.6-1.2,2
		C1131.7,1153.5,1126.1,1156.8,1124.2,1158.5z M1147.4,1138.9L1147.4,1138.9L1147.4,1138.9z"/>
	<path class="st6" d="M1163.5,1135.9c-2.3-1.3-5-1-6.4,0.5c-0.2,0.2-0.6,0-0.7-0.3c-0.3-1.5-1-4.2-3-5.3l-12.1-6.8
		c-5.6-3.1-12.2-2-14.7,2.6l0,0c0,0.1-0.2,0.1-0.3,0l-4.4-2.4l-4.4,7.8l4.4,2.4c0.1,0.1,0.2,0.2,0.1,0.3l0,0c-1.5,2.7-1.3,6.1,0.4,9
		c0.9,1.6,2.4,3,4.1,3.9l12.9,7.2c2.2,1.2,4.8,1.1,6.4-0.2l0.3-0.2c0.3-0.1,0.6,0.2,0.6,0.4l0,0c-0.6,2,0.5,4.3,2.7,5.5l31.3,17.5
		c2.6,1.5,5.7,0.9,6.9-1.2l9.2-16.4c1.4-2.5,0-5.9-3-7.6L1163.5,1135.9z"/>
	<path class="st7" d="M1183.8,1180.4c-1.3,0-2.6-0.3-3.8-1l-31.3-17.5c-2-1.1-3.3-3-3.6-4.9c-1.9,0.7-4.3,0.5-6.4-0.6l-12.9-7.2
		c-2-1.1-3.6-2.7-4.7-4.5c-1.8-3-2.1-6.4-1-9.3l-4.6-2.6l5.8-10.4l4.6,2.6c3.3-4.3,10.2-5.3,16.1-2.1l12.1,6.8c1.9,1,2.8,3,3.3,4.7
		c2-1,4.5-0.9,6.8,0.3l30.3,16.9c1.8,1,3.1,2.5,3.8,4.3c0.7,1.9,0.6,3.8-0.2,5.4l-9.2,16.4c-0.8,1.4-2.2,2.4-4,2.7
		C1184.6,1180.3,1184.2,1180.4,1183.8,1180.4z M1146.2,1153c0.4,0,0.9,0.1,1.2,0.4c0.5,0.4,0.8,1,0.7,1.7l-0.1,0.3
		c-0.4,1.3,0.4,2.9,2,3.8l31.3,17.5c1,0.5,2,0.8,3,0.6c0.9-0.2,1.5-0.6,1.9-1.2l9.2-16.4c0.4-0.8,0.5-1.8,0.1-2.8
		c-0.4-1.1-1.3-2.1-2.5-2.7l-30.3-16.9c-1.6-0.9-3.6-0.8-4.6,0.2c-0.5,0.5-1.2,0.7-1.9,0.5c-0.7-0.2-1.2-0.8-1.4-1.5
		c-0.2-1-0.8-3.4-2.2-4.2l-12.1-6.8c-4.9-2.7-10.6-1.8-12.7,2c-0.5,0.8-1.5,1.1-2.3,0.6l-3-1.7l-2.9,5.2l3,1.7
		c0.4,0.2,0.6,0.5,0.8,0.9c0.2,0.5,0.2,1-0.1,1.4c-1.2,2.2-1.1,5,0.4,7.5c0.8,1.3,2,2.5,3.5,3.4l12.9,7.2c1.6,0.9,3.6,0.9,4.7,0
		l0.5-0.4l0.2-0.1C1145.8,1153.1,1146,1153,1146.2,1153z M1121.2,1135.9L1121.2,1135.9L1121.2,1135.9z M1127,1125.4L1127,1125.4
		C1127,1125.5,1127,1125.4,1127,1125.4z"/>
	<path class="st9" d="M1122.6,1123.2l-5.5,9.9c-0.5,0.9-1.6,1.2-2.4,0.7l-4.2-2.4c-0.9-0.5-1.2-1.6-0.7-2.4l5.5-9.9
		c0.5-0.9,1.6-1.2,2.4-0.7l4.2,2.4C1122.7,1121.2,1123,1122.3,1122.6,1123.2z"/>
	<path class="st4" d="M1115.5,1135.5c-0.5,0-1.1-0.1-1.6-0.4l-4.2-2.4c-1.6-0.9-2.2-2.9-1.3-4.5l5.5-9.9c0.9-1.6,2.9-2.2,4.5-1.3
		l4.2,2.4c0.8,0.4,1.3,1.1,1.6,2s0.1,1.7-0.3,2.5l0,0l-5.5,9.9C1117.7,1134.9,1116.6,1135.5,1115.5,1135.5z M1116.8,1119.7
		c-0.1,0-0.2,0.1-0.3,0.1l-5.5,9.9c0,0.1,0,0.2,0,0.2c0,0.1,0.1,0.1,0.1,0.2l4.2,2.4c0.1,0.1,0.3,0,0.4-0.1l5.5-9.9
		c0-0.1,0-0.2,0-0.2c0-0.1-0.1-0.1-0.1-0.2L1116.8,1119.7L1116.8,1119.7z"/>
	<path class="st9" d="M1152.9,1130.6l-13.6,24.3c-12.9-7.2-15-8.8-15-8.8l13.1-23.4C1140.1,1122.4,1152.9,1130.6,1152.9,1130.6z"/>
	<path class="st4" d="M1139.8,1156.9l-1.3-0.7c-12.8-7.2-15.1-8.9-15.2-9l-1-0.8l14.1-25.2l0.8-0.1c2.9-0.3,12.5,5.6,16.4,8.2
		l1.2,0.8L1139.8,1156.9z M1126.3,1145.6c1.5,1,5,3.1,12.4,7.3l12.2-21.8c-4.9-3.1-10.5-6.2-12.7-6.8L1126.3,1145.6z"/>
	<path class="st11" d="M1273.7,1039.1c-6-0.3-27.7,15.8-34,4.4c-6.6-11.9-33.7,73.9-22.5,104.7c0.4,1.2,4,1.7,6.2,2.2l0.6,5.1
		l65.3-0.7l-1-5.6c1.8-0.4,4-1,4.8-2.1C1305.2,1128.8,1294.8,1040.2,1273.7,1039.1z"/>
	<path class="st6" d="M1163,1170.1c2.1,2.3,10.1-2.4,14.6-9.2c4.4-6.8,46.6-19.3,59.8-29.5c13.5-10.4,41-38.2,38.4-55.1
		c-0.9-5.9-6.3-19.7-12.1-18.4c-14,3.2-31.3,42.7-41.6,52.7c-11.1,10.8-47.8,35.9-50.9,35.6s-20.5-0.7-15.9,2
		c3.2,1.9,7.1,3.4,9.2,4.2c0.5,0.2,0.5,0.9,0,1.1c-4.9,2.3-21,10-18.4,11.9L1163,1170.1z"/>
	<path class="st7" d="M1164.6,1172.2c-1.1,0-1.8-0.3-2.3-0.7l-16.8-4.5l-0.2-0.2c-0.6-0.5-1-1.2-0.9-1.9c0.1-1,0.3-3.4,17.6-11.6
		c-2.1-0.9-5-2.1-7.4-3.5c-1.7-1-1.6-2.1-1.4-2.7c0.4-1.4,2-2.1,8.9-2.3c3.7-0.1,7.7,0,9.2,0.2c4-0.8,38.9-24.6,49.8-35.2
		c3.7-3.6,8.4-11.3,13.5-19.5c9.1-14.7,19.3-31.4,28.8-33.6c1.5-0.3,3,0,4.5,1c5.1,3.5,8.7,14,9.4,18.6
		c2.8,17.8-25.6,46.2-38.9,56.5c-6.7,5.1-20.1,10.7-33.1,16c-12,4.9-24.4,10.1-26.4,13.1c-3.5,5.4-9.7,10.1-13.8,10.4
		C1164.9,1172.2,1164.8,1172.2,1164.6,1172.2z M1148,1164.5l15.8,4.3l0.3,0.3c0,0,0.2,0.1,0.7,0.1c2.8-0.2,8.2-4,11.5-9
		c2.4-3.6,12.1-7.8,27.8-14.2c12.2-5,26-10.7,32.4-15.6c14.4-11,40.2-38.1,37.8-53.7c-0.8-4.9-4.4-14-8.1-16.5
		c-0.8-0.5-1.5-0.7-2.2-0.6c-8.2,1.9-18.6,18.7-26.9,32.2c-5.1,8.4-10,16.3-13.9,20.1c-9.7,9.5-47.3,36-52,36h-0.1
		c-2.5-0.3-9.7-0.3-13.4,0.1c2.7,1.4,5.6,2.6,7.3,3.2c0.8,0.3,1.3,1,1.4,1.9c0,0.9-0.4,1.6-1.2,2
		C1155.5,1159.5,1149.9,1162.8,1148,1164.5z M1171.2,1144.9L1171.2,1144.9L1171.2,1144.9z"/>
	<path class="st11" d="M1168.2,1414.8c0,0-28.7-5-29.5,7.5c-0.7,12.5,0.1,11.7,0.1,11.7l50.1-0.3l0.9-15.1
		C1189.8,1418.5,1171,1422.9,1168.2,1414.8z"/>
	<path class="st11" d="M1328.5,1396.8c0,0-25.4,14.7-18.2,25c7.2,10.3,7.3,9.1,7.3,9.1l39-31.4l-8.6-11.9
		C1348,1387.5,1335.7,1401.5,1328.5,1396.8z"/>
	
		<rect x="1310.9" y="1413.5" transform="matrix(0.779 -0.627 0.627 0.779 -591.775 1150.916)" class="st7" width="52" height="2.9"/>
	
		<rect x="1137.7" y="1431" transform="matrix(1 -6.775734e-03 6.775734e-03 1 -9.6794 7.918)" class="st7" width="52" height="2.9"/>
	<path class="st10" d="M1282,1191.7l4.2,4.5c0.3,0.3,0.7,0.5,1.1,0.5s0.7-0.1,1-0.4c0.6-0.6,0.6-1.5,0.1-2.1l-17-18.5
		c-0.6-0.6-1.5-0.6-2.1-0.1c-0.6,0.6-0.6,1.5-0.1,2.1l9.5,10.3c0,0.1,0,0.1,0,0.2l9.3,94.1c0.1,0.8,0.7,1.4,1.5,1.4h0.1
		c0.8-0.1,1.4-0.8,1.3-1.6L1282,1191.7z"/>
	<path class="st10" d="M1245.9,1187.7c-0.8,0-1.5,0.7-1.5,1.5v6.3c-2.9,5.3-33.6,60.9-39.9,76.5c-0.3,0.8,0.1,1.6,0.8,2
		c0.2,0.1,0.4,0.1,0.6,0.1c0.6,0,1.2-0.4,1.4-0.9c5.3-13.1,28.9-56.5,37.1-71.4v10.2c0,0.8,0.7,1.5,1.5,1.5s1.5-0.7,1.5-1.5v-22.8
		C1247.4,1188.3,1246.7,1187.7,1245.9,1187.7z"/>
	<path class="st10" d="M1212.8,1180.6c-0.6,0-1.1-0.3-1.4-0.9c-0.3-0.8,0-1.6,0.8-2l14.3-6c0.8-0.3,1.6,0,2,0.8c0.3,0.8,0,1.6-0.8,2
		l-14.3,6C1213.2,1180.6,1213,1180.6,1212.8,1180.6z"/>
	<path class="st7" d="M1236.6,1003.7c-0.6,0.6,1.3,4.3,3.4,4.9c5.2,1.5,7.8-3,6.5-2.6c-0.5,0.2-3.4,1-6,0
		C1237.2,1004.8,1237.3,1003.1,1236.6,1003.7z"/>
</g>
<g>
	<polygon class="st6" points="752.6,1417.9 657.4,1416.4 679,1399.4 775.2,1388.8 	"/>
	<path class="st7" d="M753.4,1419.5l-100.5-1.6l25.4-20.1l100.4-11.1L753.4,1419.5z M661.9,1414.9l90,1.4l19.7-25.6l-92,10.2
		L661.9,1414.9z"/>
	<polygon class="st6" points="874.1,1313.7 853.8,1412.1 835.3,1412.1 847.6,1309.9 	"/>
	<path class="st7" d="M855.1,1413.6h-21.6l12.7-105.5l29.8,4.2L855.1,1413.6z M837.1,1410.5h15.4l19.7-95.5l-23.2-3.3L837.1,1410.5z
		"/>
	<path class="st11" d="M670.6,1416c0,0-19.7,23.3-28.6,13.7c-9-9.5-7.8-9.4-7.8-9.4l40.3-33.3l10.8,11.5
		C685.3,1398.5,667.3,1407.6,670.6,1416z"/>
	<path class="st11" d="M855,1403.9c0,0,30.4-4.2,31,8.9s-0.2,12.2-0.2,12.2l-52.3-0.9l-0.5-15.4C832.9,1408.8,852,1412.4,855,1403.9
		z"/>
	<path class="st6" d="M765.2,1240.8c0,0-4.3,17-9.3,29.2c-4.2,10.2,47.5,6.3,47.5,6.3l4.2-28.1L765.2,1240.8z"/>
	<path class="st7" d="M783.3,1278.4c-12,0-25.3-1-28.3-5.1c-0.8-1.2-1-2.5-0.4-3.9c4.9-11.9,9.2-28.8,9.2-29l0.3-1.3l45,7.9
		l-4.5,30.5l-1.1,0.1C801.6,1277.8,792.9,1278.4,783.3,1278.4z M766.2,1242.4c-1.1,4.2-4.8,17.9-9,28.1c-0.3,0.6-0.1,1,0.1,1.2
		c3.3,4.5,28.8,4.4,44.9,3.2l3.8-25.6L766.2,1242.4z"/>
	<path class="st7" d="M768.9,1297.3c0,0,101.9-10,107.3,4.3c8.5,22.9-6.2,63.6-6.2,63.6l-32.4-2c0,0,5.7-25.8,4.9-30
		s-98.7,36.5-109-8.3c-5.2-22.5,21.3-57,21.3-57l52.2,5c0,0-3.7,45-2.9,50.5c0.4,3-11.4-4.5-16,12.8c-3.7,14.4,10.4,68.3-3.4,79.2
		c-12.8,10.2-54.8,6.2-54.8,6.2l-3.4-32.5l24.4-4.9l-14.7-56.9L768.9,1297.3z"/>
	<path class="st6" d="M927.4,1283c-2.1,2.3-10.1-2.4-14.6-9.2c-4.4-6.8-46.6-19.3-59.8-29.5c-13.5-10.4-41-38.2-38.4-55.1
		c0.9-5.9,2.8-14.9,8.7-13.6c14,3.2,34.8,37.9,45.1,47.9c11.1,10.8,47.8,35.9,50.9,35.6c3-0.3,20.5-0.7,15.9,2
		c-3.2,1.9-7.1,3.4-9.2,4.2c-0.5,0.2-0.5,0.9,0,1.1c4.9,2.3,21,10,18.4,11.9L927.4,1283z"/>
	<path class="st7" d="M925.8,1285.1c-0.2,0-0.3,0-0.5,0c-4.1-0.3-10.2-5-13.8-10.4c-2-3-14.4-8.2-26.4-13.1
		c-13-5.3-26.4-10.9-33.1-16c-13.3-10.2-41.7-38.7-38.9-56.5c0.8-5.2,2.2-11.5,5.8-14c1.4-0.9,3-1.2,4.7-0.8
		c10,2.3,22.3,18.5,33.2,32.8c4.8,6.3,9.3,12.3,12.6,15.5c10.9,10.6,45.7,34.4,49.8,35.2c1.5-0.1,5.5-0.3,9.2-0.2
		c6.9,0.2,8.5,1,8.9,2.3c0.2,0.6,0.2,1.7-1.4,2.7c-2.5,1.4-5.3,2.7-7.4,3.5c17.3,8.2,17.5,10.6,17.6,11.6c0.1,0.8-0.3,1.5-0.9,1.9
		l-0.2,0.2l-16.8,4.5C927.6,1284.7,926.9,1285.1,925.8,1285.1z M822.1,1177.1c-0.6,0-1.1,0.2-1.6,0.5c-3,2-4.1,9.5-4.5,11.9
		c-2.4,15.6,23.4,42.6,37.8,53.6c6.4,4.9,20.2,10.6,32.4,15.6c15.7,6.5,25.4,10.6,27.8,14.2c3.3,5,8.7,8.8,11.5,9
		c0.5,0,0.7-0.1,0.7-0.1l0.3-0.3l15.8-4.3c-1.9-1.7-7.5-5-17.2-9.5c-0.8-0.4-1.3-1.1-1.2-2c0-0.9,0.6-1.6,1.4-1.9
		c1.7-0.6,4.6-1.8,7.3-3.2c-3.7-0.4-10.9-0.4-13.4-0.1h-0.1c-4.7,0-42.2-26.6-52-36c-3.4-3.3-7.8-9.1-12.9-15.8
		c-10-13.2-22.5-29.7-31.5-31.7C822.7,1177.1,822.4,1177.1,822.1,1177.1z M926.4,1266.9L926.4,1266.9L926.4,1266.9z M919.2,1257.8
		L919.2,1257.8L919.2,1257.8z"/>
	<path class="st11" d="M807,1159.6c-4.4-0.7-14.6,2.9-18.2,4.7c-24.9,12.8-40.3,82.8-40.3,82.8l70.1,15.2c0,0,17.4-35.1,20.1-44.5
		c3-10.4,0.7-28.3,0.7-28.3s-2.1-12.8-4.8-16.2C828,1165,817.6,1161.3,807,1159.6z"/>
	
		<rect x="858.3" y="1396.2" transform="matrix(1.637550e-02 -0.9999 0.9999 1.637550e-02 -577.4894 2259.7732)" class="st7" width="3" height="54.3"/>
	
		<rect x="627.9" y="1403.4" transform="matrix(0.7712 -0.6366 0.6366 0.7712 -744.5087 738.4587)" class="st7" width="54.3" height="3"/>
	<path class="st11" d="M833,1171.5l26.8,34.2l-22.2,26.4c0,0-7.8-26.3-8.2-26.4C829,1205.6,833,1171.5,833,1171.5z"/>
	<path class="st7" d="M830,1237c-0.3,0-0.6-0.1-0.8-0.3c-0.7-0.5-0.9-1.4-0.4-2.1c15.6-23,8.5-48.7,8.4-48.9c-0.2-0.8,0.2-1.6,1-1.9
		c0.8-0.2,1.6,0.2,1.9,1c0.3,1.1,7.6,27.2-8.8,51.4C830.9,1236.8,830.4,1237,830,1237z"/>
	<path class="st7" d="M782.3,1126.1c5.9-7,10.4-8.4,10.3-17.3c-0.1-4.2,5.8-22.5,29.1-21.3c-9-18.6,22-18.9,25.8-9.3
		c3.5,8.8-3.8,13.2-6.3,14.5c4.5,2.4,9.1,2.6,14.8,10.9c9.1,13.3,6.1,17.8,2.2,26c-3.9,8.2-4,8.8,1.4,13.1c6.4,5.1,5.5,8,6.2,12.3
		c0.5,3.4-3.2,13-3.2,13l-82.1-27.3C780.4,1140.8,779,1129.9,782.3,1126.1z"/>
	<path class="st6" d="M804.3,1161.4c-1.1-1.5,6.9-26.4,6.9-26.4l21.8,8.3c0,0-3.6,22.9-3.8,28.3c0,0.3-0.2,0.6-0.6,0.6
		C825.8,1172.4,812.7,1173,804.3,1161.4z"/>
	<path class="st7" d="M826.3,1173.7c-5.1,0-15.9-1.3-23.1-11.4l0,0c-0.4-0.6-1.5-2.1,6.7-27.7l0.5-1.4l24.2,9.2l-0.2,1.1
		c0,0.2-3.6,22.9-3.8,28.1c0,1-0.8,1.9-1.8,1.9C828.3,1173.6,827.4,1173.7,826.3,1173.7z M805.7,1160.8c7.4,10,18.6,10.2,22.1,10
		c0.4-5.6,2.9-22.1,3.6-26.6l-19.3-7.3C808.8,1147.4,805.6,1158.7,805.7,1160.8z M805.7,1161L805.7,1161L805.7,1161z M805.5,1160.6
		L805.5,1160.6L805.5,1160.6L805.5,1160.6z"/>
	<path class="st6" d="M811.5,1138c-2.7-3.1-7.2-9-6.2-13.4c1-4.3,5.8-2.5,7.1-1.4c0.9,0.7,5.8-21,5.8-21l33.6,7.4
		c0,0-0.2,19.8-4.6,31.2c-4.5,11.5-10.7,13.1-19.5,11.1c-4.3-1-7.4-2.8-9.7-4.9L811.5,1138z"/>
	<path class="st7" d="M833.4,1154.2c-1.8,0-3.8-0.3-6-0.8c-4.1-0.9-7.6-2.7-10.4-5.3c-0.6-0.6-0.7-1.5-0.1-2.1
		c0.6-0.6,1.5-0.7,2.1-0.1c2.4,2.2,5.5,3.8,9,4.6c7.8,1.8,13.5,0.7,17.8-10.2c3.7-9.5,4.4-25.1,4.5-29.5l-30.9-6.8
		c-4.6,20-5.5,20.3-6.3,20.6l-0.8,0.3l-0.7-0.6c-0.6-0.5-2.4-1.3-3.6-0.9c-0.3,0.1-0.8,0.4-1.1,1.5c-0.6,2.7,1.5,7,5.8,12
		c0.5,0.6,0.5,1.6-0.1,2.1s-1.6,0.5-2.1-0.1c-3.6-4.1-7.6-10-6.5-14.7c0.6-2.3,2-3.3,3.1-3.6c1.7-0.6,3.5-0.1,4.9,0.5
		c1-3.1,3.1-11.5,4.9-19.2l0.3-1.5l36.2,7.9v1.2c0,0.8-0.2,20.2-4.7,31.8C845.2,1150.2,840.6,1154.2,833.4,1154.2z"/>
	<path class="st7" d="M842.4,1133.8c-0.1,0-0.2,0-0.3,0c-1.1-0.2-1.9-1.2-1.7-2.3l0.2-1.1c0.2-1.1,1.2-1.9,2.3-1.7
		c1.1,0.2,1.9,1.2,1.7,2.3l-0.2,1.1C844.2,1133,843.4,1133.8,842.4,1133.8z"/>
	<path class="st7" d="M826.5,1129.5c-0.1,0-0.2,0-0.3,0c-1.1-0.2-1.9-1.2-1.7-2.3l0.2-1.1c0.2-1.1,1.2-1.9,2.3-1.7
		c1.1,0.2,1.9,1.2,1.7,2.3l-0.2,1.1C828.4,1128.8,827.5,1129.5,826.5,1129.5z"/>
	<path class="st7" d="M832.2,1124.2c-0.2,0-0.4,0-0.6-0.1c-1.5-0.7-5.9-2.2-8.2-1.5c-0.8,0.2-1.6-0.2-1.9-1c-0.2-0.8,0.2-1.6,1-1.9
		c3.8-1.1,9.6,1.3,10.3,1.6c0.8,0.3,1.1,1.2,0.8,2C833.3,1123.9,832.8,1124.2,832.2,1124.2z"/>
	<path class="st7" d="M834.5,1138c-0.7,0-1.6,0-2.6-0.2c-0.8-0.1-1.4-0.8-1.3-1.7c0.1-0.8,0.8-1.4,1.7-1.3c1,0.1,2,0.1,2.8,0.1
		c-0.4-1-0.9-2.6-1.2-5.5c-0.1-0.8,0.5-1.6,1.4-1.6c0.8-0.1,1.6,0.5,1.6,1.4c0.3,3.1,0.8,4.3,1.2,5.1c0.3,0.6,0.6,1.4,0.1,2.4
		C837.9,1137.2,837.5,1138,834.5,1138z M835.4,1135.9L835.4,1135.9L835.4,1135.9z"/>
	<path class="st7" d="M846.8,1128.3c-0.2,0-0.5-0.1-0.7-0.2c-2.1-1.2-5.1-2.4-6.1-2.3c-0.8,0.1-1.6-0.5-1.6-1.4
		c-0.1-0.8,0.5-1.6,1.4-1.6c2.4-0.2,6.9,2.2,7.8,2.6c0.7,0.4,1,1.3,0.6,2C847.8,1128,847.3,1128.3,846.8,1128.3z"/>
	<path class="st7" d="M853.9,1111.9c0,0-34.4-2.7-42.4,11.5c0,0-1.8-1.1-3.2-1.2c-1.8-0.1-2.5,0.4-2.5,0.4l5.3-25L853.9,1111.9z"/>
	<path class="st11" d="M843.3,1090.8l-1,3.8c0,0-18-4.1-22.1-7l0.9-3.9C821.1,1083.8,839.5,1091,843.3,1090.8z"/>
	<path class="st10" d="M772.9,1297.2c-0.8,0-1.5-0.6-1.5-1.4s0.6-1.5,1.4-1.6l30.2-1.3c0.8,0,1.5,0.6,1.6,1.4c0,0.8-0.6,1.5-1.4,1.6
		L772.9,1297.2L772.9,1297.2z"/>
	<path class="st10" d="M768,1348.1c-8.9,0-16.5-1.7-22.6-5.2c-8.8-5-11-11.9-11.1-12.2c-0.2-0.8,0.2-1.6,1-1.9s1.6,0.2,1.9,1
		c0,0.1,2.1,6.2,10,10.6c7.4,4.1,21.6,7.6,47.3,0.7c0.8-0.2,1.6,0.3,1.8,1.1c0.2,0.8-0.3,1.6-1.1,1.8
		C785,1346.8,775.9,1348.1,768,1348.1z"/>
	<path class="st6" d="M906.8,1269.5c-2.2,0-3.7,2.2-3,4.2c2.8,7.9,7.5,26.6,2.2,55.1c-7.2,38.7-21,84-9.2,96.7s72.1-8.8,116.7,1.3
		c44.6,10.1,58.3-8.2,56.4-24.6s-14.4-49.2-5.2-78c6.9-21.8,10.1-41.9,11.3-50.4c0.3-2.3-1.5-4.3-3.8-4.3L906.8,1269.5L906.8,1269.5
		z"/>
	<path class="st7" d="M1036.6,1431.3c-6.5,0-14.2-0.9-23.4-2.9c-22.5-5.1-49.6-2-71.4,0.5c-22.2,2.5-39.8,4.5-46.1-2.3
		c-9.8-10.6-3.3-40.6,3.5-72.4c1.8-8.5,3.7-17.3,5.3-25.6c5.2-27.7,0.9-45.9-2.1-54.3c-0.5-1.4-0.3-3,0.6-4.2c0.9-1.2,2.3-2,3.8-2
		h165.3c1.5,0,3,0.7,4,1.8c1,1.2,1.5,2.7,1.3,4.2c-1.1,7.8-4.3,28.5-11.3,50.7c-6.8,21.3-1.5,45,2.4,62.4c1.3,5.8,2.4,10.9,2.9,15
		c1,8.2-1.7,15.5-7.5,20.8C1059.1,1427.1,1050.9,1431.3,1036.6,1431.3z M985,1422.6c9.9,0,19.7,0.8,28.8,2.8
		c28.2,6.4,41.7,0.9,48-4.8c5.1-4.6,7.4-11.1,6.6-18.2c-0.5-4-1.6-9-2.9-14.7c-3.9-17.7-9.3-41.8-2.3-63.9c7-22,10.2-42.4,11.2-50.2
		c0.1-0.7-0.1-1.3-0.5-1.8s-1.1-0.8-1.7-0.8H906.8c-0.5,0-1,0.3-1.4,0.7c-0.3,0.4-0.4,1-0.2,1.5c3.1,8.7,7.5,27.5,2.2,55.9
		c-1.6,8.4-3.5,17.2-5.3,25.7c-6.4,29.6-13,60.3-4.3,69.7c5.3,5.7,23,3.7,43.5,1.3C954.7,1424.3,970,1422.6,985,1422.6z"/>
	<path class="st6" d="M1076.4,1269.5c0,1.8-0.6,3.6-1.8,5.3c-4.9,7.4-19.9,13.6-40.3,17.4c-1,0.2-1.9,0.4-2.9,0.5
		c-8.5,1.4-17.8,2.4-27.7,2.9c-2,0.1-4,0.2-6,0.2c-2.8,0.1-5.6,0.1-8.5,0.1c-8.1,0-16-0.3-23.4-1c-0.5,0-0.9-0.1-1.4-0.1
		c-14.4-1.3-27.3-3.7-37.5-6.9c-15.4-4.8-24.8-11.3-24.8-18.6c0-5.2,4.9-10,13.4-14.1c11-5.3,27.9-9.3,47.9-11.2
		c8.2-0.8,16.9-1.2,25.9-1.2c10,0,19.5,0.5,28.5,1.5c12.2,1.3,23.2,3.4,32.3,6c6.8,2,12.5,4.3,16.9,6.9c4.6,2.7,7.7,5.7,8.9,8.9
		C1076.2,1267.3,1076.4,1268.4,1076.4,1269.5z"/>
	<path class="st7" d="M989.3,1297.5c-8,0-15.9-0.3-23.5-1c-0.5,0-1-0.1-1.4-0.1c-14.2-1.3-27.3-3.7-37.8-7
		c-16.7-5.2-25.9-12.3-25.9-20c0-5.6,4.9-11,14.2-15.5c11.2-5.4,28.4-9.5,48.4-11.4c8.4-0.8,17.1-1.2,26-1.2
		c9.8,0,19.4,0.5,28.6,1.5c12.1,1.3,23.3,3.4,32.5,6.1c7,2.1,12.8,4.4,17.2,7.1c5,3,8.2,6.2,9.6,9.7c0.5,1.2,0.7,2.4,0.7,3.7
		c0,2.1-0.7,4.2-2,6.2c-5.1,7.7-19.8,14.1-41.2,18c-1,0.2-2,0.4-3,0.5c-8.7,1.5-18.1,2.5-27.9,3c-2,0.1-4,0.2-6.1,0.2
		C995.1,1297.5,992.3,1297.5,989.3,1297.5z M989.3,1244.4c-8.8,0-17.5,0.4-25.8,1.2c-19.6,1.9-36.5,5.8-47.4,11.1
		c-8.2,4-12.5,8.4-12.5,12.8c0,6.2,8.7,12.4,23.8,17.1c10.3,3.2,23.2,5.6,37.2,6.8c0.5,0,0.9,0.1,1.4,0.1c7.5,0.6,15.4,1,23.3,1
		c3,0,5.7,0,8.4-0.1c2-0.1,4-0.1,6-0.2c9.7-0.5,18.9-1.5,27.5-2.9c1-0.2,2-0.3,2.9-0.5c20.4-3.8,34.7-9.9,39.3-16.7
		c1-1.5,1.5-3,1.5-4.5c0-0.9-0.2-1.8-0.5-2.6c-1.1-2.8-4-5.6-8.3-8.2c-4.2-2.5-9.8-4.8-16.6-6.8c-9-2.7-20.1-4.8-32-6
		C1008.5,1244.9,999,1244.4,989.3,1244.4z"/>
	<path class="st8" d="M965.8,1295.1c-15-1.3-28.4-3.7-39-7c-3.4-8.6-7.7-20.8-11.5-32.7c-5.6-18-9.8-35.1-6.6-37.6
		c6.6-5.4,7-2.1,7-2.1s4.8,26,6.8,29c2.1,3,24.3,1.4,26.9-3c2.6-4.4-9.6-31-6.9-33.5c2.6-2.5,6.9-2.5,6.9-2.5s6.8,18.9,13.8,38.4
		c6.7,18.8,13.6,38.1,14.7,41.9C979,1288.9,973.4,1292.3,965.8,1295.1z"/>
	<path class="st4" d="M966.1,1296.6h-0.3c-14.8-1.3-28.4-3.7-39.3-7.1l-0.7-0.2l-0.3-0.7c-3.9-9.9-8.2-22.1-11.5-32.8
		c-11.1-35.2-7.5-38.1-6.1-39.2c3.6-2.9,6.1-3.9,7.8-3.2c1.1,0.4,1.6,1.4,1.6,2.1c2.3,12.4,5.4,26.6,6.6,28.3
		c0.9,0.8,7.3,1.4,14.9,0.3c5.7-0.8,9-2.2,9.5-3.2c1-1.7-2.1-11.3-3.9-17.1c-3.4-10.8-4.6-15-2.8-16.7c3-2.9,7.8-2.9,8-2.9h1.1
		l0.4,1c0,0,6.8,18.9,13.8,38.5c5.7,16.1,13.5,37.9,14.8,42c1.1,3.6-3.3,7.2-13.2,10.9L966.1,1296.6z M928,1286.8
		c10.4,3.2,23.4,5.5,37.6,6.7c9.7-3.6,11.2-6.3,11-7.1c-1.2-4-9-25.8-14.7-41.9c-6-16.8-11.9-33.1-13.4-37.4
		c-1.2,0.2-3.3,0.6-4.8,1.9c-0.4,1.6,1.8,8.6,3.5,13.7c3.3,10.4,5.2,16.9,3.6,19.5c-2.2,3.7-12.6,5-18.4,5.3
		c-6.2,0.2-9.9-0.5-11-2.1c-2.1-3-6.1-24.5-7-29.4c-0.4,0-1.8,0.4-4.7,2.7c-0.1,0.1-3.2,3.1,7.1,36
		C920.1,1265.2,924.3,1277.1,928,1286.8z M914.3,1216L914.3,1216L914.3,1216z M943.7,1209.3L943.7,1209.3L943.7,1209.3z"/>
	<path class="st6" d="M1053.3,1241.8l-3.3,8.6l-2.5,6.4c-0.9,2.4-3.9,3.7-5.6,4.3c-0.3,0.1-0.5,0.6-0.2,0.8c2,1.4,2.7,4.5,1.6,7.3
		l-8.9,23c-9.2,1.7-19.6,2.9-30.6,3.5c-2,0.1-4,0.2-6,0.2c0-0.1,0-0.1,0.1-0.2l15-38.8c0.9-2.4,3-4,5.2-4c0.2,0,0.5,0,0.7,0.1
		c0.3,0,0.6-0.5,0.4-0.8l-0.3-0.3c-1.8-1.6-2.3-4.6-1.2-7.3l0.1-0.3l6.1-15.7c0.8-2.1,2.1-4,3.8-5.3c3.1-2.4,6.9-3.3,10.3-1.9l0,0
		c0.1,0,0.2,0,0.3-0.2l2.1-5.4l9.7,3.7l-2.1,5.4v0.1c0,0.1,0,0.2,0.1,0.2C1053.6,1227.5,1056,1234.9,1053.3,1241.8z"/>
	<path class="st7" d="M995.6,1297.5l0.8-2.3l15-38.8c1-2.5,3-4.3,5.2-4.8c-1.2-2.1-1.4-4.9-0.4-7.5l0.1-0.3l6.1-15.7
		c1-2.4,2.4-4.5,4.3-6c3.2-2.5,7.1-3.4,10.5-2.5l2.2-5.7l12.5,4.8l-2.2,5.7c5.6,3,7.8,10.7,5,17.9l0,0l-5.8,15
		c-0.9,2.3-3.2,3.8-5,4.6c1.5,2,1.9,5,0.8,7.8l-9.2,23.7l-0.8,0.2c-9.5,1.8-19.9,2.9-30.8,3.5c-2,0.1-4,0.2-6.1,0.2L995.6,1297.5z
		 M1018,1254.4c-1.5,0-3.1,1.3-3.8,3.1l-14.3,36.8c1.3,0,2.5-0.1,3.8-0.2c10.5-0.5,20.5-1.7,29.6-3.3l8.6-22.2
		c0.8-2.1,0.4-4.5-1.1-5.5c-0.6-0.4-0.9-1.1-0.8-1.8c0.1-0.8,0.6-1.4,1.3-1.6c1.2-0.4,3.9-1.5,4.7-3.4l5.8-15
		c2.4-6.1,0.3-12.7-4.5-14.5c-0.7-0.3-1.1-0.9-1.1-1.6v-0.2l0.1-0.5l1.6-4l-6.9-2.7l-1.5,4c-0.3,0.8-1.1,1.2-1.8,1.1h-0.2l-0.3-0.1
		c-2.8-1.1-6-0.5-8.8,1.7c-1.4,1.1-2.6,2.8-3.3,4.7l-6.2,15.9c-0.8,2.1-0.5,4.4,0.8,5.7l0.5,0.4l0.1,0.2c0.3,0.6,0.3,1.4-0.1,2
		c-0.4,0.6-1,1-1.6,1h-0.1h-0.1C1018.3,1254.5,1018.2,1254.4,1018,1254.4z M1042.6,1260.7L1042.6,1260.7L1042.6,1260.7z
		 M1053.3,1241.8L1053.3,1241.8L1053.3,1241.8z M1048.5,1224L1048.5,1224L1048.5,1224z M1036.8,1220.8L1036.8,1220.8L1036.8,1220.8z
		 M1038.4,1220L1038.4,1220L1038.4,1220z"/>
	<path class="st9" d="M1051.6,1220.3l-12.7-4.9c-0.9-0.4-1.4-1.4-1-2.3l2.2-5.8c0.4-0.9,1.4-1.4,2.3-1l12.7,4.9
		c0.9,0.4,1.4,1.4,1,2.3l-2.2,5.8C1053.6,1220.2,1052.5,1220.7,1051.6,1220.3z"/>
	<path class="st4" d="M1052.2,1221.9c-0.4,0-0.8-0.1-1.2-0.2l-12.7-4.9c-0.8-0.3-1.5-0.9-1.8-1.7c-0.4-0.8-0.4-1.7-0.1-2.5l2.2-5.8
		c0.3-0.8,0.9-1.5,1.7-1.8c0.8-0.4,1.7-0.4,2.5-0.1l12.7,4.9c0.8,0.3,1.5,0.9,1.8,1.7c0.4,0.8,0.4,1.7,0.1,2.5l-2.2,5.8
		c-0.3,0.8-0.9,1.5-1.7,1.8C1053.1,1221.8,1052.7,1221.9,1052.2,1221.9z M1041.8,1207.6L1041.8,1207.6c-0.2,0-0.2,0.1-0.3,0.2
		l-2.2,5.8c0,0.1,0,0.2,0,0.2c0,0.1,0.1,0.1,0.2,0.2l12.7,4.9c0.1,0,0.2,0,0.2,0s0.1-0.1,0.2-0.2l2.2-5.8c0-0.1,0-0.2,0-0.2
		c0-0.1-0.1-0.1-0.2-0.2L1041.8,1207.6C1041.8,1207.6,1041.8,1207.6,1041.8,1207.6z"/>
	<path class="st9" d="M1047.8,1256.1l-30.1-11.7c6.2-15.9,7.7-18.6,7.7-18.6l28.9,11.2C1055.1,1240.2,1047.8,1256.1,1047.8,1256.1z"
		/>
	<path class="st4" d="M1048.5,1258.1l-32.8-12.7l0.5-1.4c6.2-15.8,7.8-18.7,7.8-18.8l0.6-1.1l30.9,12l0.2,0.8
		c0.8,3.4-4.9,16.2-6.7,20L1048.5,1258.1z M1019.6,1243.6l27.4,10.6c2.9-6.4,5.6-13.5,5.9-16.1l-26.8-10.4
		C1025.3,1229.6,1023.4,1233.9,1019.6,1243.6z"/>
	<path class="st8" d="M1003.8,1295.7c-4.7,0.2-9.6,0.4-14.5,0.4c-8.1,0-16-0.3-23.4-1c-0.5,0-0.9-0.1-1.4-0.1
		c-0.5-12.8,0.3-30.4,8.2-34.2c12.6-6,32.9-4.8,32.9-4.8S1003.3,1282,1003.8,1295.7z"/>
	<path class="st4" d="M989.3,1297.5c-8,0-15.9-0.3-23.5-1c-0.5,0-1-0.1-1.4-0.1l-1.3-0.1v-1.3c-0.8-20.4,2.3-32.3,9-35.6
		c12.8-6.1,32.8-5,33.7-5l1.5,0.1l-0.1,1.5c0,0.3-2.2,26.1-1.8,39.5l0.1,1.5l-1.5,0.1C999,1297.4,994.1,1297.5,989.3,1297.5z
		 M965.9,1293.6L965.9,1293.6c11.7,1,24,1.2,36.4,0.7c-0.2-11.9,1.2-31.2,1.7-36.8c-4.9-0.1-20.6-0.1-30.7,4.7
		C968,1264.7,965.4,1275.8,965.9,1293.6z"/>
	<path class="st8" d="M1076.5,1259c0,0-0.2,3-0.6,7.3c-0.3,2.5-0.6,5.4-1.1,8.5c-4.9,7.4-19.9,13.6-40.3,17.4
		c-1,0.2-1.9,0.4-2.9,0.5c3.2-12.6,6.4-28.8,4.6-31.6c-1.8-2.7,18.8-5.6,30.8-3.7C1072.4,1258.2,1076.5,1259,1076.5,1259z"/>
	<path class="st4" d="M1029.5,1294.6l0.6-2.2c4.3-17,5.8-28.8,4.8-30.4c-0.5-0.7-0.5-1.6,0-2.3c2.3-3.5,22-5.3,32.3-3.7
		c5.5,0.9,9.6,1.6,9.6,1.6l1.3,0.2l-0.1,1.3c0,0.1-0.2,3-0.6,7.4c-0.3,3.1-0.7,5.9-1.2,8.6l-0.1,0.3l-0.2,0.3
		c-5.1,7.7-19.8,14.1-41.2,18c-1,0.2-2,0.4-3,0.5L1029.5,1294.6z M1037.6,1261c1.6,4.8-2,20.9-4.2,29.8c0.2,0,0.4-0.1,0.6-0.1
		c20.1-3.7,34.3-9.7,39.1-16.5c0.4-2.6,0.8-5.2,1.1-8.1c0.3-2.6,0.5-4.7,0.5-5.9c-1.6-0.3-4.6-0.8-8.2-1.4
		C1056.2,1257.2,1040.6,1259.3,1037.6,1261z"/>
	<path class="st6" d="M902.6,1291.3c-2.1,2.3-10.1-2.4-14.6-9.2c-4.4-6.8-46.6-19.3-59.8-29.5c-13.5-10.4-41-38.2-38.4-55.1
		c0.9-5.9,6.3-19.7,12.1-18.4c14,3.2,31.3,42.7,41.6,52.7c11.1,10.8,47.8,35.9,50.9,35.6c3-0.3,20.5-0.7,15.9,2
		c-3.2,1.9-7.1,3.4-9.2,4.2c-0.5,0.2-0.5,0.9,0,1.1c4.9,2.3,21,10,18.4,11.9L902.6,1291.3z"/>
	<path class="st7" d="M901,1293.4c-0.2,0-0.3,0-0.5,0c-4.1-0.3-10.2-5-13.8-10.4c-2-3-14.4-8.2-26.4-13.1c-13-5.3-26.4-10.9-33.1-16
		c-13.3-10.2-41.7-38.7-38.9-56.5c0.7-4.6,4.3-15.1,9.4-18.6c1.5-1,3-1.4,4.5-1c9.5,2.1,19.8,18.8,28.8,33.6c5,8.2,9.8,16,13.5,19.5
		c10.9,10.6,45.7,34.4,49.8,35.2c1.5-0.1,5.5-0.3,9.2-0.2c6.9,0.2,8.5,1,8.9,2.3c0.2,0.6,0.3,1.7-1.4,2.7c-2.5,1.4-5.3,2.7-7.4,3.5
		c17.3,8.2,17.5,10.6,17.6,11.6c0.1,0.8-0.3,1.5-0.9,1.9l-0.2,0.2l-16.8,4.5C902.8,1293,902.1,1293.4,901,1293.4z M801.2,1180.7
		c-0.5,0-1.1,0.2-1.7,0.6c-3.7,2.5-7.4,11.6-8.1,16.5c-2.4,15.6,23.4,42.6,37.8,53.6c6.4,4.9,20.2,10.6,32.4,15.6
		c15.7,6.5,25.4,10.6,27.8,14.2c3.3,5,8.7,8.8,11.5,9c0.5,0,0.7-0.1,0.7-0.1l0.3-0.3l15.8-4.3c-1.9-1.7-7.5-5-17.2-9.5
		c-0.8-0.4-1.3-1.1-1.2-2c0-0.9,0.6-1.6,1.4-1.9c1.7-0.6,4.6-1.8,7.3-3.2c-3.7-0.4-10.9-0.4-13.4-0.1h-0.1c-4.7,0-42.2-26.6-52-36
		c-3.9-3.8-8.8-11.7-13.9-20.1c-8.3-13.5-18.7-30.4-26.9-32.2C801.5,1180.7,801.3,1180.7,801.2,1180.7z M894.4,1266.1L894.4,1266.1
		L894.4,1266.1z"/>
	<path class="st11" d="M788,1176.1c0,0-8.5,32.1-4,45.2c4.4,13.1,11.3,14.2,11.3,14.2l31.5-39.6l-21.4-25.2L788,1176.1z"/>
	<path class="st7" d="M799.7,1232.4l-21.9-28.7c-0.5-0.7-0.4-1.6,0.3-2.1s1.6-0.4,2.1,0.3l19.5,25.6l25.1-31.5l-11.5-13.5
		c-0.5-0.6-0.5-1.6,0.2-2.1c0.6-0.5,1.6-0.5,2.1,0.2l13.1,15.4L799.7,1232.4z"/>
	<path class="st7" d="M827.3,1137.9c-0.6,1.1,1.5,5.6,4.6,6.1c5,0.8,7.1-4.1,5.9-4c-0.5,0-2.5,1.2-5.4,0.7
		C829.1,1140.1,827.7,1137.2,827.3,1137.9z"/>
</g>
<path class="st7" d="M1036.8,655.7c0,0,33.8,9.5,53.1,40.6c0,0,38-26.6,60.6-30.5c18.3-3.2-48.2-3.3-58.7,5.2
	C1091.9,671.1,1075.9,649.8,1036.8,655.7z"/>
<path class="st7" d="M1528.5,901c0,0,17.5,4.9,27.5,21c0,0,19.7-13.7,31.4-15.8c9.5-1.6-24.9-1.7-30.4,2.7
	C1557,909,1548.7,898,1528.5,901z"/>
<path class="st7" d="M1256.9,834.4c0,0,35,1.6,60.9,27.6c0,0,31-34.4,52.2-43.4c17.1-7.2-47.7,7.7-56,18.4
	C1314,837,1293.5,819.9,1256.9,834.4z"/>
<path class="st7" d="M923.2,557.9c0,0,18,0.8,31.3,14.2c0,0,15.9-17.7,26.8-22.3c8.8-3.7-24.5,3.9-28.8,9.4
	C952.5,559.2,942,550.4,923.2,557.9z"/>
<path class="st5" d="M164.8,1665.2c0,0-153.4-72.7-139.6-123.3s112.2,13.7,128,15.5c15.7,1.8-76.8-140.7-49.3-243
	s86.4-114,141.2-107.3c87,10.6,27.5,343.9,52.3,354.2c24.8,10.3,69.4-83.8,113-62.8c43.6,21.1-3.6,119.1-78.3,166.6H164.8V1665.2z"
	/>
<path class="st4" d="M332.4,1666.7h-168l-0.3-0.1c-0.4-0.2-38.9-18.5-75.2-42.8c-49.2-32.9-71.2-60.6-65.3-82.2
	c2.3-8.4,7-14.3,14-17.5c22.8-10.5,65,9.3,92.9,22.4c10.3,4.8,19.2,9,22.7,9.4h0.1c1.1-2.5-5.5-18.3-11.9-33.5
	c-20.3-48.2-58.1-137.8-39.1-208.4c12.7-47.4,32.7-78.6,61.1-95.4c21.8-13,47.8-17.1,81.7-13c58,7.1,52.6,149.9,48.7,254.2
	c-1,27.8-1.9,51.9-1.5,69.9c0.5,23.2,3.3,29.2,5.6,30.2c9.6,4,23.9-10.7,39-26.2c22.5-23,48-49.2,74.1-36.6
	c10.6,5.1,16.7,15,17.5,28.6c1.1,19.2-8.2,45.3-25.7,71.5c-18.3,27.5-43.1,52-69.9,69L332.4,1666.7z M165.1,1663.7h166.4
	c26.3-16.8,50.7-41,68.7-67.9c17.1-25.7,26.3-51.1,25.2-69.7c-0.7-12.6-6-21.4-15.8-26.1c-24.1-11.6-48.8,13.6-70.6,36
	c-16.5,17-30.8,31.6-42.3,26.9c-9.2-3.8-8.4-37.9-5.9-102.9c1.9-50.1,4.2-112.5-1-161.9c-6-57.1-20.8-86.3-45-89.3
	c-50-6.1-111.1,0.4-139.5,106.2c-18.7,69.5,18.8,158.6,39,206.4c9.9,23.6,13.9,33.3,11.5,36.5c-0.4,0.5-1.2,1.3-2.8,1.1
	c-4-0.5-12.2-4.3-23.6-9.7c-27.4-12.9-68.8-32.4-90.4-22.4c-6.2,2.9-10.3,8-12.3,15.5C13.6,1590.1,157.5,1660.1,165.1,1663.7z"/>
<path class="st5" d="M1717.5,1664.7c0,0-89.8-72.3-68.1-121.8c24.8-56.5,65.9,15.2,88.2,17.3c22.3,2.1,43.6-260.8,115.4-231.2
	c71.8,29.6,8.6,217.1,32.5,241.8c23.9,24.6,56.7-26.9,84.4-4.9c27.7,22-63.6,98.8-63.6,98.8L1717.5,1664.7L1717.5,1664.7z"/>
<path class="st4" d="M1906.8,1666.2H1717l-0.4-0.3c-0.2-0.2-22.8-18.5-42.4-42.6c-26.6-32.7-35.3-59.9-26.1-81
	c5.7-12.9,12.5-20.1,20.9-22.1c14.3-3.3,29.9,10.1,43.7,22c9.5,8.1,18.5,15.8,25.1,16.5c1.5,0.2,4.9-2.2,10.3-19.2
	c4.1-12.8,8.4-30.4,13.3-50.8c14.7-60.6,34.8-143.5,67.8-160.3c7.7-3.9,15.9-4.2,24.4-0.7c46.1,19,38,99.7,31.5,164.5
	c-3.7,37-6.9,69,1.5,77.6c11.3,11.6,24.9,5.1,39.3-1.9c15-7.2,30.4-14.6,44.9-3.1c3.8,3,5.7,7.1,5.8,12.1
	c0.4,29.9-66.5,86.6-69.4,89L1906.8,1666.2z M1718,1663.2h187.7c5.7-4.9,68.3-59,67.9-86.3c-0.1-4.2-1.6-7.4-4.7-9.8
	c-13-10.3-27.6-3.3-41.8,3.5c-14.7,7.1-30,14.4-42.8,1.3c-9.4-9.7-6.3-40.7-2.4-80c6.4-63.8,14.4-143.3-29.6-161.4
	c-7.7-3.2-14.8-3-21.8,0.6c-31.8,16.2-51.7,98.4-66.3,158.4c-11.5,47.3-17.9,72.3-26.4,72.3c-0.1,0-0.3,0-0.4,0
	c-7.6-0.7-16.9-8.7-26.8-17.2c-13.2-11.4-28.3-24.2-41.1-21.3c-7.4,1.7-13.5,8.3-18.8,20.3C1630.5,1589.7,1711.5,1657.8,1718,1663.2
	z"/>
<path class="st4" d="M245.5,1666.7c-0.7,0-1.3-0.5-1.5-1.1c-28.5-111.9-39.5-222-43.7-294.7c-4.5-78.8-2.3-131.8-2.3-132.3
	c0-0.8,0.7-1.5,1.6-1.4c0.8,0,1.5,0.7,1.4,1.6c0,0.5-2.2,53.4,2.3,132c4.2,72.5,15.1,182.4,43.6,294.1c0.2,0.8-0.3,1.6-1.1,1.8
	C245.8,1666.7,245.7,1666.7,245.5,1666.7z"/>
<path class="st4" d="M1793.9,1664.7L1793.9,1664.7c-0.9-0.1-1.6-0.8-1.5-1.6c8.8-131.3,43.9-302.5,44.3-304.2c0.2-0.8,1-1.3,1.8-1.2
	c0.8,0.2,1.3,1,1.2,1.8c-0.4,1.7-35.5,172.7-44.2,303.8C1795.3,1664.1,1794.7,1664.7,1793.9,1664.7z"/>
<path class="st11" d="M980.2,1323.7l9.9,16.8c0.4,0.6,0.2,1.4-0.5,1.8l-2.9,1.7c-0.5,0.3-0.4,1,0.2,1.2l18.6,4.8
	c0.6,0.2,1.2-0.2,1.4-0.8l4.6-18.3c0.1-0.5-0.4-1-0.9-0.7l-2.9,1.5c-0.6,0.3-1.3,0.1-1.7-0.5l-7.1-11.1c-1.2-1.8-3.2-2.9-5.3-2.9
	h-18.8c-2.3,0-4.4,1.2-5.7,3.1l-10.6,17c-0.3,0.5-0.2,1.2,0.4,1.5l13.8,8.5c0.5,0.3,1.2,0.2,1.5-0.4l9.9-16.7L980.2,1323.7z"/>
<path class="st7" d="M1005.8,1351.5c-0.2,0-0.4,0-0.7-0.1l-18.6-4.8c-0.8-0.2-1.5-0.9-1.6-1.8s0.3-1.7,1-2.2l2.7-1.6l-4.7-8
	l-8.6,14.5c-0.4,0.6-0.9,1-1.6,1.2c-0.7,0.2-1.4,0.1-2-0.3l-13.8-8.5c-0.6-0.4-1-0.9-1.2-1.6s0-1.4,0.3-2l10.6-17
	c1.5-2.4,4.1-3.8,6.9-3.8h18.8c2.7,0,5.1,1.3,6.6,3.6l7,10.9l2.8-1.4c0.7-0.4,1.7-0.3,2.3,0.2s1,1.4,0.7,2.2l-4.6,18.3
	c-0.2,0.7-0.6,1.3-1.2,1.6C1006.7,1351.4,1006.3,1351.5,1005.8,1351.5z M989.3,1344.3l16.2,4.2l4.1-16.1l-1.2,0.6
	c-1.3,0.7-2.9,0.2-3.7-1l-7.1-11.1c-0.9-1.4-2.4-2.2-4.1-2.2h-18.8c-1.8,0-3.4,0.9-4.4,2.4l-10.4,16.6l13.1,8l9.2-15.6l-3.4-5.7
	l2.6-1.5l9.9,16.8c0.4,0.7,0.5,1.4,0.3,2.1s-0.7,1.3-1.3,1.7L989.3,1344.3z"/>
<path class="st11" d="M1021,1377.6h-19.7c-0.7,0-1.3-0.6-1.3-1.3v-3.3c0-0.6-0.7-0.9-1.1-0.5l-13.5,13.6c-0.4,0.4-0.4,1.2,0,1.6
	l13.7,13.3c0.4,0.4,1.1,0.1,1.1-0.4v-3.8c0-0.7,0.6-1.2,1.3-1.2h13.1c2.2-0.1,4.1-1.3,5.2-3.1l9.5-16.2c1.2-2,1.2-4.4,0.2-6.5
	l-9.3-17.8c-0.3-0.5-0.9-0.7-1.5-0.5l-14.3,7.6c-0.5,0.3-0.7,1-0.4,1.5l8.5,17L1021,1377.6z"/>
<path class="st7" d="M999.4,1402.7c-0.5,0-1.1-0.2-1.5-0.6l-13.7-13.3c-0.5-0.5-0.8-1.2-0.8-1.9c0-0.7,0.3-1.4,0.8-1.9l13.5-13.6
	c0.6-0.6,1.5-0.8,2.3-0.5s1.3,1.1,1.3,2v3.1h8.5l-7.4-14.8c-0.3-0.6-0.4-1.3-0.2-1.9c0.2-0.7,0.6-1.2,1.3-1.5l14.3-7.6
	c0.6-0.3,1.3-0.4,2-0.2c0.7,0.2,1.2,0.7,1.5,1.3l9.3,17.8c1.3,2.5,1.2,5.5-0.2,7.9l-9.5,16.2c-1.4,2.3-3.8,3.8-6.4,3.9h-13v3.6
	c0,0.9-0.5,1.6-1.3,2C999.9,1402.7,999.7,1402.7,999.4,1402.7z M986.6,1387l11.9,11.6v-1.8c0.1-1.5,1.2-2.7,2.7-2.7h13.2
	c1.6-0.1,3.1-1,3.9-2.4l9.5-16.2c0.9-1.5,1-3.4,0.1-5l-9.1-17.4l-13.5,7.2l7.9,15.8h7.8v3h-19.7c-0.8,0-1.5-0.3-2-0.8
	s-0.8-1.2-0.8-2v-1.2L986.6,1387z M1005.2,1359.9L1005.2,1359.9L1005.2,1359.9z"/>
<path class="st11" d="M952.1,1384.1l8.6-16.5c0.3-0.6,1.1-0.9,1.8-0.6l2.9,1.5c0.5,0.3,1.1-0.2,0.9-0.8l-5.8-18.3
	c-0.2-0.6-0.8-0.9-1.4-0.7l-18,5.8c-0.5,0.2-0.6,0.9-0.1,1.2l2.8,1.7c0.6,0.3,0.8,1.1,0.5,1.7l-5.6,11.9c-0.9,1.9-0.8,4.2,0.4,6.1
	l10,15.9c1.2,1.9,3.4,3.1,5.7,3.1h20c0.6,0,1.1-0.5,1.1-1.1v-15.8c0-0.6-0.5-1.3-1.1-1.3l-19.2-0.4L952.1,1384.1z"/>
<path class="st7" d="M954.7,1397.5c-2.8,0-5.4-1.4-6.9-3.8l-10-15.9c-1.4-2.3-1.6-5.1-0.5-7.5l5.5-11.8l-2.7-1.6
	c-0.7-0.4-1.1-1.3-1-2.1c0.1-0.8,0.7-1.5,1.5-1.8l18-5.8c0.7-0.2,1.4-0.2,2,0.2c0.6,0.3,1.1,0.9,1.3,1.5l5.8,18.3
	c0.3,0.8,0,1.7-0.7,2.3c-0.7,0.6-1.6,0.7-2.4,0.3l-2.8-1.4l-4,7.7l16.8,0.4c0.6,0,1.2,0.2,1.7,0.7s0.9,1.3,0.9,2v15.8
	c0,0.7-0.3,1.3-0.7,1.8c-0.5,0.5-1.1,0.8-1.8,0.8L954.7,1397.5L954.7,1397.5z M974.4,1395L974.4,1395L974.4,1395z M943.4,1355.4
	l1.2,0.7c1.3,0.7,1.7,2.3,1.1,3.6l-5.6,11.9c-0.7,1.5-0.6,3.2,0.3,4.6l10,15.9c1,1.5,2.6,2.4,4.4,2.4l0,0h19.6v-15.1l-17.9-0.4
	l-3,5.8l-2.7-1.4l8.6-16.5c0.3-0.7,0.9-1.2,1.7-1.4c0.7-0.2,1.5-0.2,2.2,0.2l1.1,0.6l-5.1-16L943.4,1355.4z M974.7,1379.4
	C974.8,1379.4,974.8,1379.4,974.7,1379.4L974.7,1379.4z"/>
<path class="st11" d="M511,1111.4l6.5,11c0.2,0.4,0.1,0.9-0.3,1.2l-1.9,1.1c-0.3,0.2-0.3,0.7,0.1,0.8l12.2,3.1
	c0.4,0.1,0.8-0.1,0.9-0.5l3-12c0.1-0.4-0.3-0.7-0.6-0.5l-1.9,1c-0.4,0.2-0.9,0.1-1.1-0.3l-4.7-7.3c-0.8-1.2-2.1-1.9-3.5-1.9h-12.3
	c-1.5,0-2.9,0.8-3.7,2.1l-7,11.1c-0.2,0.3-0.1,0.8,0.2,1l9,5.6c0.3,0.2,0.8,0.1,1-0.2l6.5-11L511,1111.4z"/>
<path class="st7" d="M527.8,1130.2c-0.2,0-0.4,0-0.6-0.1L515,1127c-0.8-0.2-1.3-0.8-1.4-1.6c-0.1-0.8,0.3-1.5,0.9-1.9l1.3-0.8
	l-2.4-4.1l-5.2,8.8c-0.3,0.5-0.8,0.9-1.4,1s-1.2,0-1.7-0.3l-9-5.6c-0.5-0.3-0.9-0.8-1-1.4s0-1.2,0.3-1.7l7-11.1
	c1.1-1.7,2.9-2.8,5-2.8h12.3c1.9,0,3.7,1,4.8,2.6l4.3,6.8l1.4-0.7c0.7-0.3,1.5-0.3,2.1,0.2s0.9,1.2,0.7,2l-3,12
	c-0.1,0.6-0.5,1.1-1,1.4C528.6,1130.1,528.2,1130.2,527.8,1130.2z M518.2,1124.7l9,2.3l2.3-9c-1,0.4-2.3,0-2.9-0.9l-4.7-7.3
	c-0.5-0.8-1.3-1.2-2.2-1.2h-12.3c-1,0-1.9,0.5-2.4,1.3l-6.6,10.5l7.7,4.7l5.6-9.5l-2-3.5l2.6-1.5l6.5,11c0.3,0.5,0.4,1.2,0.2,1.8
	C518.9,1123.9,518.6,1124.4,518.2,1124.7z"/>
<path class="st11" d="M537.7,1146.7h-13c-0.5,0-0.9-0.4-0.9-0.9v-2.2c0-0.4-0.5-0.6-0.7-0.3l-8.9,8.9c-0.3,0.3-0.3,0.8,0,1.1l9,8.7
	c0.3,0.3,0.7,0.1,0.7-0.3v-2.5c0-0.4,0.4-0.8,0.8-0.8h8.6c1.4-0.1,2.7-0.8,3.4-2l6.2-10.6c0.8-1.3,0.8-2.9,0.1-4.2l-6.1-11.6
	c-0.2-0.4-0.6-0.5-1-0.3l-9.4,5c-0.4,0.2-0.5,0.6-0.3,1l5.6,11.1L537.7,1146.7z"/>
<path class="st7" d="M523.5,1163.8c-0.5,0-1-0.2-1.3-0.5l-9-8.7c-0.4-0.4-0.7-1-0.7-1.6s0.2-1.2,0.7-1.6l8.9-8.9
	c0.6-0.6,1.4-0.7,2.1-0.4c0.7,0.3,1.2,1,1.2,1.8v1.5h4.2l-4.5-9c-0.3-0.5-0.3-1.1-0.2-1.6c0.2-0.6,0.6-1,1.1-1.3l9.4-5
	c0.5-0.3,1.1-0.3,1.7-0.2c0.6,0.2,1,0.6,1.3,1.1l6.1,11.6c0.9,1.8,0.9,3.9-0.1,5.7l-6.2,10.6c-1,1.7-2.7,2.7-4.6,2.8h-8v1.8
	c0,0.8-0.5,1.5-1.2,1.8C524,1163.7,523.8,1163.8,523.5,1163.8z M515.9,1152.9l6.6,6.4c0.1-1.3,1.1-2.2,2.3-2.3h8.7
	c0.8,0,1.7-0.5,2.1-1.3l6.2-10.6c0.5-0.9,0.5-1.9,0.1-2.8l-5.7-10.9l-8,4.3l4.8,9.7h4.8v3h-13c-0.6,0-1.2-0.2-1.7-0.7
	c-0.4-0.4-0.6-0.8-0.7-1.3L515.9,1152.9z M527.8,1134.9L527.8,1134.9L527.8,1134.9z"/>
<path class="st11" d="M492.5,1151l5.6-10.9c0.2-0.4,0.7-0.6,1.2-0.4l1.9,1c0.3,0.2,0.7-0.1,0.6-0.5l-3.8-12
	c-0.1-0.4-0.5-0.6-0.9-0.5l-11.8,3.8c-0.3,0.1-0.4,0.6-0.1,0.8l1.8,1.1c0.4,0.2,0.5,0.7,0.3,1.1l-3.7,7.8c-0.6,1.3-0.5,2.8,0.2,4
	l6.6,10.4c0.8,1.3,2.2,2.1,3.7,2.1h13.1c0.4,0,0.7-0.3,0.7-0.7v-10.3c0-0.4-0.3-0.8-0.7-0.8l-12.6-0.3L492.5,1151z"/>
<path class="st7" d="M494.3,1160.3c-2,0-3.9-1-5-2.8l-6.6-10.4c-1-1.6-1.2-3.7-0.3-5.4l3.4-7.3l-1.4-0.8c-0.6-0.4-1-1.1-0.9-1.9
	s0.6-1.4,1.3-1.6l11.8-3.8c0.6-0.2,1.2-0.1,1.7,0.1c0.5,0.3,0.9,0.7,1.1,1.3l3.8,12c0.2,0.7,0,1.6-0.6,2.1s-1.4,0.6-2.1,0.2
	l-1.4-0.7l-2,3.8l10.2,0.2c0.5,0,1,0.2,1.4,0.6c0.5,0.4,0.7,1.1,0.7,1.7v10.4c0,0.6-0.2,1.1-0.6,1.6c-0.4,0.4-1,0.7-1.6,0.7
	L494.3,1160.3z M506.6,1158.1L506.6,1158.1L506.6,1158.1z M488,1132.3c0.9,0.7,1.2,1.9,0.8,2.9l-3.7,7.8c-0.4,0.8-0.3,1.8,0.2,2.5
	l6.6,10.4c0.5,0.8,1.4,1.3,2.4,1.3h12.4v-8.9l-10.9-0.2l-1.8,3.5l-2.7-1.4l5.6-10.9c0.3-0.6,0.8-1,1.4-1.2c0.5-0.1,1-0.1,1.4,0
	l-2.8-8.8L488,1132.3z M507.3,1148.5C507.4,1148.5,507.4,1148.5,507.3,1148.5L507.3,1148.5z M486,1131.1L486,1131.1L486,1131.1z"/>
<path class="st7" d="M1975.2,1667.2H76.4c-1.1,0-2-0.9-2-2s0.9-2,2-2h1898.8c1.1,0,2,0.9,2,2S1976.3,1667.2,1975.2,1667.2z"/>
<text transform="matrix(1 0 0 1 288 576)"><tspan x="0" y="0" class="st0 st12 st13">S</tspan><tspan x="105.1" y="0" class="st6 st12 st13">AVE</tspan></text>
<text transform="matrix(1 0 0 1 288 701)" class="st0 st12 st13 st14">   </text>
<text transform="matrix(1 0 0 1 396 701)"><tspan x="0" y="0" class="st0 st12 st13">O</tspan><tspan x="135.7" y="0" class="st6 st12 st13">UR</tspan></text>
<text transform="matrix(1 0 0 1 288 826)" class="st0 st12 st13 st14">      </text>
<text transform="matrix(1 0 0 1 504 826)" class="st15"><tspan x="0" y="0" class="st0 st12 st13">O</tspan><tspan x="135.7" y="0" class="st6 st12 st13">CEANS</tspan></text>
<text transform="matrix(1 0 0 1 351 918)"><tspan x="0" y="0" class="st6 st16 st17">Join </tspan><tspan x="142.6" y="0" class="st0 st16 st17">SOO </tspan><tspan x="296.8" y="0" class="st6 st16 st17">To Make A Difference.</tspan></text>
</svg>
