<?xml version="1.0" encoding="utf-8"?>
<!-- Generator: Adobe Illustrator 24.1.0, SVG Export Plug-In . SVG Version: 6.00 Build 0)  -->
<svg version="1.1" id="Layer_1" xmlns="http://www.w3.org/2000/svg" xmlns:xlink="http://www.w3.org/1999/xlink" x="0px" y="0px"
	 viewBox="0 0 1080 1080" style="enable-background:new 0 0 1080 1080;" xml:space="preserve">
<style type="text/css">
	.st0{fill:#E6EBE0;}
	.st1{fill:#FFFFFF;stroke:#4F6D7A;stroke-width:60;stroke-miterlimit:10;}
	.st2{fill:#C3DDED;}
	.st3{fill:#4F6D7A;}
	.st4{fill:#A3B9C9;}
	.st5{fill:#3A5056;}
	.st6{fill:none;stroke:#4F6D7A;stroke-width:60;stroke-miterlimit:10;}
</style>
<rect y="0" class="st0" width="1079.4" height="1080"/>
<circle class="st1" cx="540" cy="540" r="378"/>
<g>
	<path class="st2" d="M177,588.7c5.6,23.6,39.8,34.3,66.7,28.4c26.8-5.9,48.3-22.8,70.6-37c22.4-14.2,49.6-26.6,76.6-21.5
		c38.7,7.4,61.2,47.7,100.3,53.2c27.7,3.9,53.6-11,77.6-23.7s53.9-24,79-13.2c22.7,9.8,36.1,35.7,61.4,36.8c25.2,1,40.3-23,59-37.9
		c33.6-26.8,93.4-21.9,120.8,9.8"/>
	<g>
		<path class="st2" d="M148.1,596.7c8.5,33.9,44,50,76.1,51.9c32.3,1.9,62.2-14.2,88.3-31.4c14-9.3,27.9-18.7,43.4-25.3
			c-2.4,1-4.8,2-7.2,3c8.5-3.6,17.3-6.3,26.5-7.7c-2.7,0.4-5.3,0.7-8,1.1c6.6-0.9,13.2-1,19.9-0.2c-2.7-0.4-5.3-0.7-8-1.1
			c6.1,0.9,12,2.5,17.7,4.8c-2.4-1-4.8-2-7.2-3c22.3,9.4,39,27.7,59.8,39.5c15.1,8.5,31.7,13.7,49.1,14.2c20,0.5,38.6-5.9,56.6-13.9
			c15.8-7,30.4-16.2,46.3-22.9c-2.4,1-4.8,2-7.2,3c9.4-3.9,19.2-7,29.3-8.5c-2.7,0.4-5.3,0.7-8,1.1c6.3-0.8,12.5-0.9,18.8-0.1
			c-2.7-0.4-5.3-0.7-8-1.1c4.7,0.7,9.1,1.9,13.5,3.7c-2.4-1-4.8-2-7.2-3c5.3,2.3,10.1,5.5,14.7,9c-2-1.6-4-3.1-6.1-4.7
			c16.8,13.1,32,30.1,53.8,34.7c6.5,1.4,13.4,2.3,20.1,1.6c9.9-1.1,17-3,26-7.1c9.9-4.5,18.5-11.7,26.4-19.1
			c7.5-7,14.5-14.5,22.5-20.9c-2,1.6-4,3.1-6.1,4.7c5.1-3.9,10.6-7,16.5-9.6c-2.4,1-4.8,2-7.2,3c7.5-3.1,15.3-5.2,23.3-6.3
			c-2.7,0.4-5.3,0.7-8,1.1c9.1-1.2,18.3-1.2,27.4,0c-2.7-0.4-5.3-0.7-8-1.1c8.7,1.2,17.2,3.4,25.3,6.8c-2.4-1-4.8-2-7.2-3
			c6.4,2.7,12.4,6.2,18,10.4c-2-1.6-4-3.1-6.1-4.7c3.5,2.7,6.7,5.8,9.6,9.1c4.9,5.6,14,8.8,21.2,8.8c7.4,0,16.1-3.3,21.2-8.8
			c5.2-5.7,9.1-13.2,8.8-21.2c-0.4-8.3-3.3-15-8.8-21.2c-19.8-22.6-49.7-33.1-78.8-35.6c-13.8-1.2-28.3,0.3-41.8,3.8
			c-15.6,4-29.4,11.5-42,21.4c-10.9,8.6-19.8,19.4-30.8,27.9c2-1.6,4-3.1,6.1-4.7c-3.8,2.9-7.8,5.4-12.1,7.3c2.4-1,4.8-2,7.2-3
			c-3.2,1.3-6.5,2.3-9.9,2.9c2.7-0.4,5.3-0.7,8-1.1c-3.6,0.5-7.1,0.5-10.7,0c2.7,0.4,5.3,0.7,8,1.1c-3.4-0.5-6.6-1.5-9.7-2.8
			c2.4,1,4.8,2,7.2,3c-4.8-2.1-9.2-4.9-13.3-8.1c2,1.6,4,3.1,6.1,4.7c-18.5-14.4-34.7-32.1-59-36.6c-16.1-3-31.8-2.2-47.7,1.9
			c-13.3,3.4-26.2,9.1-38.5,15.3c-11.9,6-23.5,12.7-35.8,18c2.4-1,4.8-2,7.2-3c-9.1,3.8-18.4,6.9-28.2,8.2c2.7-0.4,5.3-0.7,8-1.1
			c-6.1,0.7-12.2,0.8-18.3,0c2.7,0.4,5.3,0.7,8,1.1c-5.8-0.9-11.3-2.4-16.7-4.6c2.4,1,4.8,2,7.2,3C464,570.4,445.5,547.9,420,537
			c-5.4-2.3-10.7-4.6-16.3-6.2c-6.2-1.7-12.7-2.5-19-3.1c-10.8-1-22.2,0.5-32.7,2.9c-19.5,4.4-38,14.1-54.8,24.8
			c-16.4,10.6-32.2,22.1-50.3,29.8c2.4-1,4.8-2,7.2-3c-7.7,3.2-15.7,5.7-24,6.9c2.7-0.4,5.3-0.7,8-1.1c-6.7,0.8-13.5,0.8-20.2-0.1
			c2.7,0.4,5.3,0.7,8,1.1c-5.9-0.9-11.7-2.4-17.3-4.7c2.4,1,4.8,2,7.2,3c-4.1-1.8-7.9-3.9-11.5-6.6c2,1.6,4,3.1,6.1,4.7
			c-2.4-1.9-4.6-4-6.5-6.4c1.6,2,3.1,4,4.7,6.1c-1.7-2.2-3-4.4-4.1-6.9c1,2.4,2,4.8,3,7.2c-0.6-1.5-1.1-3.1-1.5-4.7
			c-3.8-15.2-21.7-25.9-36.9-21C153.3,564.9,144,580.4,148.1,596.7L148.1,596.7z"/>
	</g>
</g>
<g>
	<path class="st3" d="M177,635.4c5.5,23.6,39.2,34.3,65.6,28.4c26.4-5.9,47.5-22.8,69.5-37c22-14.2,48.8-26.6,75.4-21.5
		c38.1,7.4,60.2,47.7,98.8,53.2c27.3,3.9,52.8-11,76.4-23.7c23.6-12.7,53-24,77.8-13.2c22.3,9.8,35.6,35.7,60.5,36.8
		c24.8,1,39.7-23,58-37.9c33.1-26.8,92-21.9,119,9.8"/>
	<g>
		<path class="st3" d="M148.1,643.3c8.4,33.9,43.9,50.4,76,51.9c31.9,1.6,61.1-14.5,86.8-31.6c14.1-9.4,28-19,43.7-25.7
			c-2.4,1-4.8,2-7.2,3c8.4-3.5,17.1-6.1,26.1-7.3c-2.7,0.4-5.3,0.7-8,1.1c6.1-0.7,12.2-0.8,18.4,0c-2.7-0.4-5.3-0.7-8-1.1
			c6,0.9,11.7,2.5,17.3,4.8c-2.4-1-4.8-2-7.2-3c11.9,5.1,22.4,12.9,32.6,20.8c-2-1.6-4-3.1-6.1-4.7c18.2,14.1,36.3,28.8,59.2,34.6
			c15.8,4,31.9,3.6,47.6,0.1c13.8-3.1,27-9.1,39.6-15.5c12.1-6.1,23.7-13,36.1-18.4c-2.4,1-4.8,2-7.2,3c9.3-3.9,18.8-7,28.8-8.5
			c-2.7,0.4-5.3,0.7-8,1.1c6.2-0.8,12.3-0.9,18.5-0.1c-2.7-0.4-5.3-0.7-8-1.1c4.2,0.6,8.3,1.7,12.2,3.3c-2.4-1-4.8-2-7.2-3
			c5.3,2.3,10.2,5.3,14.8,8.8c-2-1.6-4-3.1-6.1-4.7c17,13.2,31.9,30.6,53.9,35.3c6.4,1.4,13.3,2.3,19.9,1.6c9.8-1.1,16.8-3,25.8-7.1
			c9.9-4.5,18.6-12,26.4-19.4c7.5-7.1,14.4-14.8,22.5-21.1c-2,1.6-4,3.1-6.1,4.7c5-3.8,10.4-6.9,16.2-9.3c-2.4,1-4.8,2-7.2,3
			c7.3-3,15-5,22.9-6.1c-2.7,0.4-5.3,0.7-8,1.1c8.9-1.1,17.9-1.1,26.8,0.1c-2.7-0.4-5.3-0.7-8-1.1c8.2,1.2,16.2,3.3,23.9,6.5
			c-2.4-1-4.8-2-7.2-3c6.3,2.7,12.2,6,17.7,10.2c-2-1.6-4-3.1-6.1-4.7c3.7,2.9,7,6,10.1,9.6c4.8,5.6,14.1,8.8,21.2,8.8
			c7.4,0,16.1-3.3,21.2-8.8c5.2-5.7,9.1-13.2,8.8-21.2c-0.4-8.3-3.4-14.9-8.8-21.2c-8.5-9.9-19.9-18.2-31.8-23.6
			c-7.2-3.3-14.5-6.3-22.2-8.3c-7.8-2-15.9-3.1-23.9-3.8c-13.7-1.2-28.2,0.3-41.5,3.8c-15.4,4.1-28.9,11.5-41.3,21.4
			c-10.8,8.6-19.5,19.4-30.3,27.9c2-1.6,4-3.1,6.1-4.7c-4,3.1-8.2,5.7-12.8,7.7c2.4-1,4.8-2,7.2-3c-3.2,1.3-6.4,2.2-9.8,2.6
			c2.7-0.4,5.3-0.7,8-1.1c-3.2,0.3-6.4,0.3-9.6-0.1c2.7,0.4,5.3,0.7,8,1.1c-3.3-0.5-6.5-1.5-9.6-2.8c2.4,1,4.8,2,7.2,3
			c-4.4-2-8.5-4.6-12.4-7.5c2,1.6,4,3.1,6.1,4.7c-18.7-14.4-34.6-32.6-59-37.2c-15.9-3-31.5-2.2-47.2,1.9
			c-13.4,3.5-26.3,9.2-38.6,15.5c-11.9,6.1-23.5,12.9-35.9,18.2c2.4-1,4.8-2,7.2-3c-8.6,3.6-17.4,6.4-26.6,7.7
			c2.7-0.4,5.3-0.7,8-1.1c-6,0.7-12,0.8-18,0c2.7,0.4,5.3,0.7,8,1.1c-5.6-0.8-11.1-2.4-16.3-4.6c2.4,1,4.8,2,7.2,3
			c-11.9-5.1-22.3-12.8-32.4-20.7c2,1.6,4,3.1,6.1,4.7c-10.7-8.3-21.3-17.1-33.2-23.8c-14.6-8.3-30.4-13.1-47.2-14
			c-34-1.7-65.2,15.7-92.5,34.1c-13,8.8-26.1,17.6-40.6,23.8c2.4-1,4.8-2,7.2-3c-7.5,3.1-15.2,5.6-23.3,6.8c2.7-0.4,5.3-0.7,8-1.1
			c-6.5,0.8-13.1,0.8-19.6-0.1c2.7,0.4,5.3,0.7,8,1.1c-5.8-0.8-11.4-2.3-16.8-4.5c2.4,1,4.8,2,7.2,3c-4-1.7-7.8-3.8-11.3-6.4
			c2,1.6,4,3.1,6.1,4.7c-2.6-2-4.9-4.3-7-6.9c1.6,2,3.1,4,4.7,6.1c-1.6-2.1-2.9-4.4-4-6.9c1,2.4,2,4.8,3,7.2c-0.6-1.5-1.1-3-1.5-4.6
			c-3.8-15.2-21.8-25.8-36.9-21C153.2,611.6,144,627,148.1,643.3L148.1,643.3z"/>
	</g>
</g>
<g>
	<path class="st4" d="M201,676.9c12.7,18.3,45.4,15.4,66.9,4.7s40.7-27.1,65.5-29.5c38.8-3.8,69.2,27.8,106.3,38.2
		c73.8,20.7,152.1-45.4,226.4-26.2c15.1,3.9,29.1,11.2,44.7,12.8c26.6,2.8,51-11.2,76-19.5c25-8.3,59.9-7.8,71.2,13"/>
	<g>
		<path class="st4" d="M175.1,692c5.2,7.3,9.6,11.8,16.9,17c4.7,3.4,10.3,5.6,15.7,7.5c5.7,2,12,2.6,17.9,3.3
			c3.9,0.4,7.8,0.5,11.7,0.2c10.2-0.7,20.6-2.4,30.3-5.9c10.5-3.8,20.3-8.9,29.9-14.5c9.3-5.5,18.5-11.1,28.5-15.5
			c-2.4,1-4.8,2-7.2,3c6.6-2.8,13.3-4.8,20.4-5.8c-2.7,0.4-5.3,0.7-8,1.1c6-0.7,11.9-0.7,17.9,0.1c-2.7-0.4-5.3-0.7-8-1.1
			c8.3,1.2,16.4,3.7,24.1,6.9c-2.4-1-4.8-2-7.2-3c15.6,6.6,30,15.6,45.3,22.8c9.6,4.5,19.4,8.8,29.7,11.5
			c10.1,2.7,20.8,4.1,31.2,4.6c18.6,0.9,37.5-2.1,55.6-6.2c16.6-3.8,32.8-8.9,49-13.8c18.2-5.5,36.5-10.7,55.3-13.3
			c-2.7,0.4-5.3,0.7-8,1.1c12.4-1.6,25-2,37.5-0.4c-2.7-0.4-5.3-0.7-8-1.1c10,1.4,19.5,4.4,29,7.8c12.7,4.5,25.3,8,38.9,8.8
			c24.3,1.4,47-8,69.2-16.5c9.8-3.7,19.6-7,30-8.4c-2.7,0.4-5.3,0.7-8,1.1c7.7-1,15.4-1.2,23.1-0.2c-2.7-0.4-5.3-0.7-8-1.1
			c4.9,0.7,9.7,1.8,14.3,3.8c-2.4-1-4.8-2-7.2-3c2.8,1.2,5.5,2.7,8,4.6c-2-1.6-4-3.1-6.1-4.7c2,1.5,3.7,3.3,5.3,5.2
			c-1.6-2-3.1-4-4.7-6.1c0.9,1.2,1.7,2.4,2.5,3.8c3.7,6.5,10.8,11.8,17.9,13.8c7.2,2,16.7,1.1,23.1-3c13.8-8.9,19-26.4,10.8-41
			c-12.9-22.8-38.9-32.1-63.8-32.8c-11.3-0.3-22.9,1.2-33.8,3.9c-10.2,2.5-19.9,6.6-29.7,10.4c-11.9,4.6-24,9-36.7,10.8
			c2.7-0.4,5.3-0.7,8-1.1c-6.5,0.8-12.9,0.9-19.4,0.1c2.7,0.4,5.3,0.7,8,1.1c-16.3-2.4-31.1-10.3-47.1-13.7
			c-15.9-3.3-32.1-4.3-48.2-2.6c-16.5,1.8-32.7,4.9-48.7,9.3c-14,3.8-27.9,8.3-41.8,12.4c-15.6,4.6-31.3,8.7-47.4,10.9
			c2.7-0.4,5.3-0.7,8-1.1c-12.1,1.6-24.2,2-36.3,0.5c2.7,0.4,5.3,0.7,8,1.1c-10.2-1.4-19.9-4.2-29.3-8.1c2.4,1,4.8,2,7.2,3
			c-23.4-9.9-44.5-24.7-68.9-32.5c-12.8-4.1-27-6.1-40.4-4.5c-8.6,1-16.8,2.4-24.9,5.5c-7.9,3-15.5,6.4-22.9,10.5
			c-11.7,6.4-22.9,14.2-35.3,19.5c2.4-1,4.8-2,7.2-3c-6.9,2.8-14.1,4.8-21.5,5.8c2.7-0.4,5.3-0.7,8-1.1c-5.8,0.7-11.6,0.8-17.4,0.1
			c2.7,0.4,5.3,0.7,8,1.1c-3.8-0.5-7.4-1.5-10.9-2.9c2.4,1,4.8,2,7.2,3c-2.4-1-4.6-2.3-6.6-3.8c2,1.6,4,3.1,6.1,4.7
			c-1.8-1.4-3.4-3-4.9-4.8c1.6,2,3.1,4,4.7,6.1c-0.3-0.4-0.6-0.8-0.9-1.2c-4.7-6.5-10-11.6-17.9-13.8c-7.2-2-16.7-1.1-23.1,3
			c-6.4,4.1-12,10.3-13.8,17.9C170.4,676.4,170.5,685.6,175.1,692L175.1,692z"/>
	</g>
</g>
<g>
	<g>
		<path class="st5" d="M447.2,327c-4.7,0-8.5-0.8-11.2-2.5c-2.8-1.7-4.7-4.1-5.9-7.2c-1.2-3.1-1.8-6.8-1.8-11.2v-23.5
			c0-4.4,0.6-8.1,1.8-11.2c1.2-3.1,3.2-5.4,5.9-7.1c2.8-1.6,6.5-2.5,11.2-2.5c4.8,0,8.6,0.8,11.3,2.5c2.8,1.6,4.8,4,6,7.1
			c1.2,3.1,1.8,6.8,1.8,11.2v23.5c0,4.3-0.6,8-1.8,11.2c-1.2,3.1-3.2,5.5-6,7.2C455.7,326.2,452,327,447.2,327z M447.2,317.1
			c1.5,0,2.5-0.4,3.2-1.1c0.7-0.7,1.1-1.7,1.3-2.8c0.2-1.1,0.3-2.3,0.3-3.5v-30.4c0-1.2-0.1-2.4-0.3-3.5c-0.2-1.1-0.7-2-1.3-2.8
			c-0.7-0.7-1.7-1.1-3.2-1.1c-1.4,0-2.4,0.4-3,1.1c-0.7,0.7-1.1,1.7-1.3,2.8c-0.2,1.1-0.3,2.3-0.3,3.5v30.4c0,1.2,0.1,2.4,0.3,3.5
			c0.2,1.1,0.6,2.1,1.2,2.8C444.7,316.8,445.7,317.1,447.2,317.1z"/>
		<path class="st5" d="M492.9,327c-4.8,0-8.6-0.9-11.3-2.6c-2.8-1.7-4.7-4.2-5.9-7.3c-1.1-3.1-1.7-6.9-1.7-11.1v-22.8
			c0-4.4,0.6-8.1,1.7-11.3c1.1-3.1,3.1-5.6,5.9-7.3c2.8-1.7,6.6-2.6,11.3-2.6c4.7,0,8.3,0.8,11,2.3c2.6,1.5,4.5,3.7,5.6,6.4
			c1.1,2.8,1.6,5.9,1.6,9.5v5.5h-13.7v-6.3c0-1.2-0.1-2.4-0.2-3.6c-0.1-1.1-0.5-2.1-1.1-2.8c-0.6-0.8-1.7-1.1-3.2-1.1
			c-1.5,0-2.5,0.4-3.2,1.2c-0.7,0.8-1.1,1.8-1.3,2.9c-0.2,1.2-0.3,2.4-0.3,3.7v29.7c0,1.4,0.1,2.7,0.4,3.9c0.2,1.2,0.7,2.1,1.4,2.8
			c0.7,0.7,1.7,1.1,3.1,1.1c1.5,0,2.5-0.4,3.1-1.1s1-1.7,1.2-2.9c0.2-1.2,0.2-2.4,0.2-3.7v-6.6h13.7v5.5c0,3.6-0.5,6.8-1.6,9.6
			c-1.1,2.8-2.9,5.1-5.5,6.7C501.3,326.2,497.6,327,492.9,327z"/>
		<path class="st5" d="M518.7,326.1v-63.2h28.4v9.5h-14.4v15.7h11v9.7h-11v18.9h14.6v9.4H518.7z"/>
		<path class="st5" d="M550.5,326.1l11.9-63.2h15.9l11.8,63.2h-12.9l-2.1-13.3h-9.3l-2.2,13.3H550.5z M567.1,304.4h6.7l-3.4-24.6
			L567.1,304.4z"/>
		<path class="st5" d="M596.5,326.1v-63.2h9.8l12.9,30.4v-30.4h11.5v63.2h-9.4l-12.9-32.8v32.8H596.5z"/>
		<path class="st5" d="M319.4,420.6c-4.8,0-8.6-0.9-11.3-2.6c-2.8-1.7-4.7-4.2-5.9-7.3c-1.1-3.1-1.7-6.9-1.7-11.1v-22.8
			c0-4.4,0.6-8.1,1.7-11.3c1.1-3.1,3.1-5.6,5.9-7.3c2.8-1.7,6.6-2.6,11.3-2.6c4.7,0,8.3,0.8,11,2.3c2.6,1.5,4.5,3.7,5.6,6.4
			c1.1,2.8,1.6,5.9,1.6,9.5v5.5h-13.7V373c0-1.2-0.1-2.4-0.2-3.6c-0.1-1.1-0.5-2.1-1.1-2.8c-0.6-0.8-1.7-1.1-3.2-1.1
			c-1.5,0-2.5,0.4-3.2,1.2s-1.1,1.8-1.3,2.9c-0.2,1.2-0.3,2.4-0.3,3.7V403c0,1.4,0.1,2.7,0.4,3.9c0.2,1.2,0.7,2.1,1.4,2.8
			c0.7,0.7,1.7,1.1,3.1,1.1c1.5,0,2.5-0.4,3.1-1.1s1-1.7,1.2-2.9c0.2-1.2,0.2-2.4,0.2-3.7v-6.6h13.7v5.5c0,3.6-0.5,6.8-1.6,9.6
			c-1.1,2.8-2.9,5.1-5.5,6.7C327.8,419.8,324.1,420.6,319.4,420.6z"/>
		<path class="st5" d="M363.3,420.6c-4.7,0-8.5-0.8-11.2-2.5c-2.8-1.7-4.7-4.1-5.9-7.2c-1.2-3.1-1.8-6.8-1.8-11.2v-23.5
			c0-4.4,0.6-8.1,1.8-11.2c1.2-3.1,3.2-5.4,5.9-7.1c2.8-1.6,6.5-2.5,11.2-2.5c4.8,0,8.6,0.8,11.3,2.5c2.8,1.6,4.8,4,6,7.1
			c1.2,3.1,1.8,6.8,1.8,11.2v23.5c0,4.3-0.6,8-1.8,11.2s-3.2,5.5-6,7.2C371.9,419.8,368.1,420.6,363.3,420.6z M363.3,410.7
			c1.5,0,2.5-0.4,3.2-1.1c0.7-0.7,1.1-1.7,1.3-2.8c0.2-1.1,0.3-2.3,0.3-3.5v-30.4c0-1.2-0.1-2.4-0.3-3.5s-0.7-2-1.3-2.8
			c-0.7-0.7-1.7-1.1-3.2-1.1c-1.4,0-2.4,0.4-3,1.1c-0.7,0.7-1.1,1.7-1.3,2.8c-0.2,1.1-0.3,2.3-0.3,3.5v30.4c0,1.2,0.1,2.4,0.3,3.5
			c0.2,1.1,0.6,2.1,1.2,2.8C360.8,410.4,361.8,410.7,363.3,410.7z"/>
		<path class="st5" d="M390.9,419.7v-63.2h9.8l12.9,30.4v-30.4h11.5v63.2h-9.4l-12.9-32.8v32.8H390.9z"/>
		<path class="st5" d="M451.4,420.6c-4,0-7.3-0.7-9.9-2.1c-2.7-1.4-4.7-3.6-6-6.5c-1.4-2.9-2.1-6.7-2.3-11.4l11.9-1.8
			c0.1,2.7,0.3,4.9,0.7,6.6c0.4,1.7,1.1,2.9,1.9,3.6c0.8,0.7,1.8,1.1,2.9,1.1c1.5,0,2.4-0.5,2.8-1.5c0.4-1,0.7-2,0.7-3.1
			c0-2.6-0.6-4.8-1.9-6.6c-1.2-1.8-2.9-3.6-5.1-5.4l-5.5-4.8c-2.4-2-4.4-4.3-6-6.9c-1.6-2.6-2.5-5.8-2.5-9.6c0-5.4,1.6-9.5,4.8-12.3
			c3.2-2.8,7.5-4.3,12.9-4.3c3.4,0,6.1,0.6,8.2,1.7c2.1,1.1,3.6,2.6,4.7,4.5c1.1,1.8,1.8,3.8,2.2,5.8c0.4,2.1,0.6,4,0.7,5.9l-12,1.5
			c-0.1-1.9-0.2-3.5-0.4-4.9c-0.2-1.4-0.6-2.4-1.1-3.2c-0.6-0.8-1.5-1.1-2.7-1.1c-1.3,0-2.2,0.5-2.8,1.6c-0.6,1.1-0.9,2.2-0.9,3.3
			c0,2.3,0.6,4.3,1.7,5.7c1.1,1.5,2.6,3,4.4,4.6l5.2,4.6c2.8,2.3,5.1,5,7,8c1.9,3,2.8,6.6,2.8,11c0,3-0.7,5.7-2,8.1
			c-1.4,2.4-3.3,4.3-5.7,5.7C457.7,419.9,454.8,420.6,451.4,420.6z"/>
		<path class="st5" d="M474.8,419.7v-63.2h28.4v9.5h-14.4v15.7h11v9.7h-11v18.9h14.6v9.4H474.8z"/>
		<path class="st5" d="M509.6,419.7v-63.2H527c4.3,0,8,0.5,11.1,1.4c3.1,0.9,5.5,2.6,7.3,5c1.7,2.4,2.6,5.8,2.6,10.3
			c0,2.6-0.2,4.9-0.6,6.9c-0.4,2-1.2,3.8-2.3,5.3c-1.1,1.5-2.7,2.7-4.8,3.7l8.7,30.6h-14.4l-6.9-28.3h-4v28.3H509.6z M523.6,383.3
			h3.9c2,0,3.5-0.4,4.6-1.1c1.1-0.7,1.9-1.7,2.3-3c0.4-1.3,0.7-2.9,0.7-4.8c0-2.7-0.5-4.8-1.5-6.3c-1-1.5-2.8-2.3-5.5-2.3h-4.5
			V383.3z"/>
		<path class="st5" d="M564.8,419.7l-11.4-63.2h11.9l6.8,42.9l6.3-42.9h12.6l-11.5,63.2H564.8z"/>
		<path class="st5" d="M594.4,419.7l11.9-63.2h15.9l11.8,63.2h-12.9l-2.1-13.3h-9.3l-2.2,13.3H594.4z M611,398h6.7l-3.4-24.6
			L611,398z"/>
		<path class="st5" d="M646.1,419.7v-52.8h-9.5v-10.4h33v10.4h-9.4v52.8H646.1z"/>
		<path class="st5" d="M675.2,419.7v-63.2h14v63.2H675.2z"/>
		<path class="st5" d="M716.7,420.6c-4.7,0-8.5-0.8-11.2-2.5c-2.8-1.7-4.7-4.1-5.9-7.2c-1.2-3.1-1.8-6.8-1.8-11.2v-23.5
			c0-4.4,0.6-8.1,1.8-11.2c1.2-3.1,3.2-5.4,5.9-7.1c2.8-1.6,6.5-2.5,11.2-2.5c4.8,0,8.6,0.8,11.3,2.5c2.8,1.6,4.8,4,6,7.1
			c1.2,3.1,1.8,6.8,1.8,11.2v23.5c0,4.3-0.6,8-1.8,11.2c-1.2,3.1-3.2,5.5-6,7.2C725.3,419.8,721.5,420.6,716.7,420.6z M716.7,410.7
			c1.5,0,2.5-0.4,3.2-1.1s1.1-1.7,1.3-2.8c0.2-1.1,0.3-2.3,0.3-3.5v-30.4c0-1.2-0.1-2.4-0.3-3.5c-0.2-1.1-0.7-2-1.3-2.8
			c-0.7-0.7-1.7-1.1-3.2-1.1c-1.4,0-2.4,0.4-3,1.1c-0.7,0.7-1.1,1.7-1.3,2.8c-0.2,1.1-0.3,2.3-0.3,3.5v30.4c0,1.2,0.1,2.4,0.3,3.5
			c0.2,1.1,0.6,2.1,1.2,2.8C714.2,410.4,715.2,410.7,716.7,410.7z"/>
		<path class="st5" d="M744.3,419.7v-63.2h9.8l12.9,30.4v-30.4h11.5v63.2h-9.4l-12.9-32.8v32.8H744.3z"/>
		<path class="st5" d="M447,514.2c-4.4,0-7.8-0.9-10.3-2.7c-2.5-1.8-4.3-4.4-5.4-7.7c-1.1-3.3-1.6-7.1-1.6-11.4v-21.2
			c0-4.5,0.6-8.3,1.7-11.6c1.1-3.3,3.1-5.8,5.9-7.6c2.8-1.8,6.6-2.7,11.3-2.7c4.7,0,8.4,0.8,11,2.3c2.7,1.6,4.6,3.7,5.7,6.5
			c1.1,2.8,1.7,6,1.7,9.7v4.1h-13.7v-5.1c0-1.4-0.1-2.6-0.3-3.7c-0.2-1.1-0.6-2.1-1.2-2.8c-0.7-0.7-1.7-1.1-3.2-1.1
			c-1.5,0-2.6,0.4-3.3,1.2c-0.7,0.8-1.1,1.8-1.3,3c-0.2,1.2-0.3,2.4-0.3,3.7v29.2c0,1.4,0.1,2.7,0.4,3.9c0.3,1.2,0.8,2.2,1.6,3
			c0.8,0.8,1.8,1.1,3.2,1.1c1.5,0,2.6-0.4,3.4-1.2c0.8-0.8,1.3-1.8,1.6-3c0.3-1.2,0.5-2.6,0.5-4v-7.4h-5.7v-8.2h18.3v32.8H458
			l-0.8-5.2c-0.8,1.8-2.1,3.2-3.7,4.4C451.9,513.6,449.7,514.2,447,514.2z"/>
		<path class="st5" d="M475.9,513.3v-63.2h17.4c4.3,0,8,0.5,11.1,1.4c3.1,0.9,5.5,2.6,7.3,5c1.7,2.4,2.6,5.8,2.6,10.3
			c0,2.6-0.2,4.9-0.6,6.9c-0.4,2-1.2,3.8-2.3,5.3c-1.1,1.5-2.7,2.7-4.8,3.7l8.7,30.6h-14.4l-6.9-28.3h-4v28.3H475.9z M489.9,476.9
			h3.9c2,0,3.5-0.4,4.6-1.1c1.1-0.7,1.9-1.7,2.3-3c0.4-1.3,0.7-2.9,0.7-4.8c0-2.7-0.5-4.8-1.5-6.3c-1-1.5-2.8-2.3-5.5-2.3h-4.5
			V476.9z"/>
		<path class="st5" d="M540.8,514.2c-4.7,0-8.5-0.8-11.2-2.5c-2.8-1.7-4.7-4.1-5.9-7.2c-1.2-3.1-1.8-6.8-1.8-11.2v-23.5
			c0-4.4,0.6-8.1,1.8-11.2c1.2-3.1,3.2-5.4,5.9-7.1c2.8-1.6,6.5-2.5,11.2-2.5c4.8,0,8.6,0.8,11.3,2.5c2.8,1.6,4.8,4,6,7.1
			c1.2,3.1,1.8,6.8,1.8,11.2v23.5c0,4.3-0.6,8-1.8,11.2c-1.2,3.1-3.2,5.5-6,7.2C549.4,513.4,545.6,514.2,540.8,514.2z M540.8,504.3
			c1.5,0,2.5-0.4,3.2-1.1c0.7-0.7,1.1-1.7,1.3-2.8c0.2-1.1,0.3-2.3,0.3-3.5v-30.4c0-1.2-0.1-2.4-0.3-3.5c-0.2-1.1-0.7-2-1.3-2.8
			c-0.7-0.7-1.7-1.1-3.2-1.1c-1.4,0-2.4,0.4-3,1.1c-0.7,0.7-1.1,1.7-1.3,2.8c-0.2,1.1-0.3,2.3-0.3,3.5v30.4c0,1.2,0.1,2.4,0.3,3.5
			c0.2,1.1,0.6,2.1,1.2,2.8C538.3,504,539.4,504.3,540.8,504.3z"/>
		<path class="st5" d="M586.7,514.2c-4.8,0-8.6-0.8-11.3-2.4c-2.7-1.6-4.6-3.9-5.7-6.9c-1.1-3-1.6-6.8-1.6-11.2v-43.6h13.8v45.7
			c0,1.3,0.1,2.6,0.3,3.9c0.2,1.3,0.7,2.4,1.4,3.2c0.7,0.8,1.8,1.2,3.2,1.2c1.5,0,2.6-0.4,3.3-1.2c0.7-0.8,1.1-1.9,1.3-3.2
			c0.2-1.3,0.3-2.6,0.3-3.9v-45.7h13.9v43.6c0,4.4-0.6,8.2-1.7,11.2s-3,5.4-5.7,6.9C595.3,513.4,591.5,514.2,586.7,514.2z"/>
		<path class="st5" d="M614.3,513.3v-63.2h21.2c3.8,0,6.9,0.7,9.4,2.1c2.4,1.4,4.3,3.5,5.5,6.2c1.2,2.7,1.8,6,1.8,9.9
			c0,4.9-0.8,8.6-2.4,11.2c-1.6,2.6-3.8,4.4-6.6,5.3c-2.8,1-5.8,1.5-9.3,1.5h-5.6v26.8H614.3z M628.3,476.7h4.7c1.7,0,3-0.3,3.9-0.9
			c0.9-0.6,1.5-1.6,1.8-2.8c0.3-1.2,0.4-2.8,0.4-4.8c0-1.6-0.1-3-0.4-4.3c-0.2-1.2-0.8-2.2-1.7-2.9c-0.9-0.7-2.3-1.1-4.1-1.1h-4.6
			V476.7z"/>
	</g>
</g>
<g>
	<path class="st2" d="M207,705.1c5.1,23.6,36.4,34.3,60.9,28.4c24.5-5.9,44.2-22.8,64.6-37s45.3-26.6,70-21.5
		c35.4,7.4,55.9,47.7,91.7,53.2c25.3,3.9,49-11,70.9-23.7c21.9-12.7,49.3-24,72.3-13.2c20.8,9.8,33,35.7,56.1,36.8
		c23.1,1,36.9-23,53.9-37.9c30.8-26.8,85.4-21.9,110.5,9.8"/>
	<g>
		<path class="st2" d="M178.1,713.1c7.6,33.1,41.6,50.5,73.1,52c31.2,1.5,59-15.5,83.3-33.1c13-9.4,26-18.8,40.9-25.2
			c-2.4,1-4.8,2-7.2,3c7.3-3,14.7-5.3,22.5-6.4c-2.7,0.4-5.3,0.7-8,1.1c5.2-0.6,10.3-0.7,15.4-0.1c-2.7-0.4-5.3-0.7-8-1.1
			c5.5,0.7,10.7,2.2,15.8,4.4c-2.4-1-4.8-2-7.2-3c7.9,3.4,15,8.2,21.8,13.5c-2-1.6-4-3.1-6.1-4.7c7.8,6.1,15.2,12.7,23.1,18.7
			c5.6,4.4,11.2,8.8,17.3,12.6c6.1,3.7,12.5,6.5,19.2,9.1c29.6,11.7,61.5,1.4,88.1-13c12.7-6.9,24.8-14.8,38.2-20.5
			c-2.4,1-4.8,2-7.2,3c7.8-3.3,15.9-5.8,24.4-7c-2.7,0.4-5.3,0.7-8,1.1c4.9-0.6,9.8-0.7,14.8,0c-2.7-0.4-5.3-0.7-8-1.1
			c3.9,0.6,7.6,1.5,11.2,3c-2.4-1-4.8-2-7.2-3c4.4,1.9,8.3,4.3,12.1,7.2c-2-1.6-4-3.1-6.1-4.7c6.9,5.3,12.8,11.6,19.3,17.4
			c9.7,8.6,20,16,32.6,19.6c15.4,4.5,31,1.9,45.3-4.8c9.9-4.6,18.4-12.4,26-20.1c7.1-7.3,13.7-15.3,21.8-21.7c-2,1.6-4,3.1-6.1,4.7
			c4.9-3.8,10.2-6.8,15.8-9.2c-2.4,1-4.8,2-7.2,3c6.3-2.6,12.8-4.3,19.5-5.3c-2.7,0.4-5.3,0.7-8,1.1c7.9-1.1,15.8-1,23.7,0
			c-2.7-0.4-5.3-0.7-8-1.1c7.3,1,14.4,2.9,21.2,5.8c-2.4-1-4.8-2-7.2-3c5.9,2.5,11.4,5.7,16.5,9.6c-2-1.6-4-3.1-6.1-4.7
			c4.1,3.2,7.9,6.9,11.2,11c4.5,5.6,14.4,8.8,21.2,8.8c7.4,0,16.1-3.3,21.2-8.8c5.2-5.7,9.1-13.2,8.8-21.2c-0.4-2.7-0.7-5.3-1.1-8
			c-1.4-5.1-4-9.5-7.7-13.2c-4.1-5.2-9-9.3-14.2-13.4c-5.2-4-10.5-7.7-16.5-10.6c-14.4-6.8-28.5-10.5-44.5-11.8
			c-28.7-2.3-57.8,7.8-79.1,27.1c-9.9,8.9-17.9,19.8-28.4,28c2-1.6,4-3.1,6.1-4.7c-3.2,2.4-6.5,4.5-10.1,6.1c2.4-1,4.8-2,7.2-3
			c-2.9,1.2-5.8,2-8.8,2.4c2.7-0.4,5.3-0.7,8-1.1c-2.6,0.3-5.2,0.3-7.8,0c2.7,0.4,5.3,0.7,8,1.1c-3-0.4-5.8-1.2-8.6-2.3
			c2.4,1,4.8,2,7.2,3c-4-1.7-7.6-4.1-11.1-6.8c2,1.6,4,3.1,6.1,4.7c-7-5.5-13.1-12.1-19.8-17.9c-10.7-9.2-22.4-17.2-36.4-20.4
			c-29.6-6.8-58.9,3.8-84.4,18.3c-11.5,6.5-22.8,13.5-35,18.7c2.4-1,4.8-2,7.2-3c-6.9,2.8-13.9,5.1-21.3,6.1c2.7-0.4,5.3-0.7,8-1.1
			c-5.1,0.7-10.2,0.7-15.4,0.1c2.7,0.4,5.3,0.7,8,1.1c-5.2-0.7-10.1-2.1-14.9-4.2c2.4,1,4.8,2,7.2,3c-7.8-3.4-14.9-8.2-21.7-13.4
			c2,1.6,4,3.1,6.1,4.7c-21.6-16.8-42-38.1-70-43.7c-19.3-3.8-39.1-1.9-57.3,5.6c-9.2,3.8-17.9,7.9-26.4,13.1
			c-6.4,4-12.6,8.4-18.7,12.8c-13.2,9.5-26.4,19.3-41.5,25.6c2.4-1,4.8-2,7.2-3c-6.2,2.5-12.5,4.5-19.1,5.5c2.7-0.4,5.3-0.7,8-1.1
			c-5.7,0.7-11.3,0.7-17-0.1c2.7,0.4,5.3,0.7,8,1.1c-5-0.7-9.9-2-14.6-3.9c2.4,1,4.8,2,7.2,3c-4-1.7-7.7-3.8-11.2-6.4
			c2,1.6,4,3.1,6.1,4.7c-2.4-1.9-4.6-4.1-6.6-6.5c1.6,2,3.1,4,4.7,6.1c-1.7-2.3-3.1-4.7-4.2-7.3c1,2.4,2,4.8,3,7.2
			c-0.7-1.7-1.2-3.4-1.6-5.2c-1.6-7.2-7.6-14.3-13.8-17.9c-6.4-3.8-15.9-5.4-23.1-3C183,681.4,174.3,696.7,178.1,713.1L178.1,713.1z
			"/>
	</g>
</g>
<g>
	<path class="st3" d="M230,742.1c4.9,23.6,35.1,34.3,58.8,28.4c23.7-5.9,42.6-22.8,62.3-37c19.7-14.2,43.7-26.6,67.6-21.5
		c34.2,7.4,54,47.7,88.5,53.2c24.4,3.9,47.3-11,68.4-23.7c21.1-12.7,47.5-24,69.7-13.2c20,9.8,31.9,35.7,54.2,36.8
		c22.2,1,35.6-23,52-37.9c29.7-26.8,82.4-21.9,106.6,9.8"/>
	<g>
		<path class="st3" d="M201.1,750.1c3.7,16.7,15.2,30.3,29.3,39.5c6.1,4,13.1,6.8,20.1,8.9c7.4,2.3,15.5,3.3,23.2,3.6
			c30.7,1,57.4-16.2,80.9-33.9c12.8-9.6,25.6-19.1,40.4-25.3c-2.4,1-4.8,2-7.2,3c6.4-2.6,12.9-4.6,19.7-5.5c-2.7,0.4-5.3,0.7-8,1.1
			c5-0.6,9.9-0.7,14.9-0.1c-2.7-0.4-5.3-0.7-8-1.1c5,0.7,9.7,2,14.3,4c-2.4-1-4.8-2-7.2-3c7,3.1,13.4,7.3,19.5,11.9
			c-2-1.6-4-3.1-6.1-4.7c17,13.2,32.2,30.1,52.2,38.9c6.5,2.9,12.9,5.6,19.9,6.8c5.3,0.9,10.9,1.7,16.4,1.7c5.4,0,10.9-0.9,16.3-1.8
			c14.5-2.3,28.3-9,41-16.1c12.7-7.1,24.7-15.3,38-21.1c-2.4,1-4.8,2-7.2,3c7.2-3.1,14.7-5.4,22.5-6.5c-2.7,0.4-5.3,0.7-8,1.1
			c4.8-0.6,9.5-0.7,14.3,0c-2.7-0.4-5.3-0.7-8-1.1c3.7,0.6,7.3,1.6,10.8,3c-2.4-1-4.8-2-7.2-3c3.9,1.7,7.5,4,10.9,6.6
			c-2-1.6-4-3.1-6.1-4.7c6.8,5.4,12.7,11.8,19.1,17.7c9.5,8.8,20.1,16.5,32.7,20c15.3,4.3,30.8,1.7,44.8-5.3
			c5.7-2.9,10.9-7.2,15.8-11.3c3.4-2.9,6.5-6.1,9.5-9.3c6.9-7.4,13.4-15.5,21.5-21.8c-2,1.6-4,3.1-6.1,4.7c4.5-3.4,9.3-6.2,14.5-8.4
			c-2.4,1-4.8,2-7.2,3c6.2-2.6,12.7-4.3,19.4-5.2c-2.7,0.4-5.3,0.7-8,1.1c7-0.9,14-0.8,21,0c-2.7-0.4-5.3-0.7-8-1.1
			c7,1,13.7,2.8,20.2,5.4c-2.4-1-4.8-2-7.2-3c5.7,2.4,11,5.5,15.9,9.2c-2-1.6-4-3.1-6.1-4.7c4.2,3.3,8,7,11.4,11.2
			c-1.6-2-3.1-4-4.7-6.1c0.2,0.2,0.3,0.4,0.5,0.6c1.9,3.5,4.5,6.3,7.7,8.4c2.9,2.7,6.3,4.4,10.2,5.4c7.2,2,16.7,1.1,23.1-3
			c6.4-4.1,12-10.3,13.8-17.9c1.7-7.3,1.8-16.9-3-23.1c-4.8-6.2-9.2-12.1-15.3-17c-6-4.8-12-9.4-18.9-12.9
			c-14.1-7-28.1-10.7-43.8-12c-28.3-2.3-57.2,8.1-77.6,27.6c-9.4,9-17.1,19.7-27.4,27.8c2-1.6,4-3.1,6.1-4.7c-3,2.3-6.1,4.3-9.6,5.8
			c2.4-1,4.8-2,7.2-3c-2.7,1.1-5.4,1.9-8.3,2.3c2.7-0.4,5.3-0.7,8-1.1c-2.5,0.3-4.9,0.3-7.3,0c2.7,0.4,5.3,0.7,8,1.1
			c-2.8-0.4-5.5-1.2-8.2-2.3c2.4,1,4.8,2,7.2,3c-3.3-1.5-6.4-3.4-9.3-5.6c2,1.6,4,3.1,6.1,4.7c-7-5.4-13-12.1-19.5-18.1
			c-10.4-9.5-21.9-17.5-35.7-21.1c-29.3-7.7-59.2,3.7-84.2,18.6c-11.2,6.7-22.3,13.7-34.4,18.8c2.4-1,4.8-2,7.2-3
			c-6.2,2.6-12.6,4.5-19.3,5.5c2.7-0.4,5.3-0.7,8-1.1c-4.9,0.6-9.7,0.7-14.6,0.1c2.7,0.4,5.3,0.7,8,1.1c-4.7-0.7-9.1-2-13.5-3.8
			c2.4,1,4.8,2,7.2,3c-7-3-13.4-7.2-19.4-11.8c2,1.6,4,3.1,6.1,4.7c-21.6-16.8-40.7-38.2-68.3-45.1c-9.3-2.3-19.2-3.2-28.7-2.1
			c-5.9,0.7-11.7,1.4-17.4,3c-6,1.7-11.7,4.1-17.5,6.6c-13.8,5.9-26,14.5-37.9,23.5c-13.1,9.8-26.1,19.8-41.3,26.2
			c2.4-1,4.8-2,7.2-3c-5.6,2.3-11.3,4.1-17.3,5c2.7-0.4,5.3-0.7,8-1.1c-5.1,0.7-10.3,0.7-15.4,0c2.7,0.4,5.3,0.7,8,1.1
			c-5.1-0.7-10-2-14.8-3.9c2.4,1,4.8,2,7.2,3c-3.6-1.5-7-3.4-10.1-5.8c2,1.6,4,3.1,6.1,4.7c-2.6-2-4.9-4.3-7-6.9
			c1.6,2,3.1,4,4.7,6.1c-1.7-2.2-3.1-4.5-4.2-7.1c1,2.4,2,4.8,3,7.2c-0.8-1.9-1.4-3.9-1.8-5.9c-1.6-7.1-7.6-14.3-13.8-17.9
			c-6.4-3.8-15.9-5.4-23.1-3c-7.3,2.3-14.3,6.8-17.9,13.8C200.2,734.4,199.3,741.9,201.1,750.1L201.1,750.1z"/>
	</g>
</g>
<g>
	<path class="st4" d="M255,775.7c11.2,18.3,40,15.4,58.9,4.7c18.9-10.7,35.8-27.1,57.6-29.5c34.1-3.8,60.9,27.8,93.5,38.2
		c64.9,20.7,133.8-45.4,199.2-26.2c13.3,3.9,25.6,11.2,39.3,12.8c23.4,2.8,44.9-11.2,66.8-19.5c22-8.3,52.7-7.8,62.6,13"/>
	<g>
		<path class="st4" d="M229.1,790.8c3.8,6.1,8.1,10.8,13.7,15.1c5.7,4.4,10.9,7,17.9,9.6c5.4,2,11.3,2.5,16.9,3.1
			c3.6,0.4,7.2,0.3,10.8,0c6.1-0.6,12.2-1.4,18.2-3c5.8-1.6,11.4-4,16.9-6.5c7.6-3.4,14.5-8.2,21.3-12.8
			c8.4-5.7,16.8-11.4,26.2-15.3c-2.4,1-4.8,2-7.2,3c4.8-2,9.7-3.4,14.8-4.1c-2.7,0.4-5.3,0.7-8,1.1c4.7-0.6,9.4-0.5,14.1,0.1
			c-2.7-0.4-5.3-0.7-8-1.1c5.9,0.9,11.7,2.6,17.2,4.9c-2.4-1-4.8-2-7.2-3c14.6,6.2,27.5,15.4,41.2,23.1c8.9,5,18.2,9.3,27.8,12.6
			c9.3,3.1,19.2,4.5,28.9,5.3c7.3,0.6,14.7,0.2,21.9-0.7c9.9-1.2,19.6-2.8,29.3-5.3c15.1-3.9,29.8-9.2,44.5-14.3
			c16.4-5.6,33-10.9,50.1-13.3c-2.7,0.4-5.3,0.7-8,1.1c9.6-1.3,19.2-1.5,28.8-0.3c-2.7-0.4-5.3-0.7-8-1.1c9.4,1.3,18.2,4.4,27,7.9
			c11.9,4.8,23.4,8.3,36.5,9c25.5,1.3,48.4-11.2,71.1-20.9c-2.4,1-4.8,2-7.2,3c8.1-3.4,16.2-6.1,24.9-7.3c-2.7,0.4-5.3,0.7-8,1.1
			c6-0.8,12-0.9,18-0.1c-2.7-0.4-5.3-0.7-8-1.1c4,0.6,7.9,1.5,11.6,3.1c-2.4-1-4.8-2-7.2-3c2.7,1.2,5.2,2.6,7.6,4.4
			c-2-1.6-4-3.1-6.1-4.7c1.9,1.5,3.6,3.3,5.2,5.2c-1.6-2-3.1-4-4.7-6.1c1.1,1.5,2,3.1,2.9,4.7c3.2,6.5,11.2,11.9,17.9,13.8
			c7.2,2,16.7,1.1,23.1-3c6.4-4.1,12-10.3,13.8-17.9c1.9-8.2,0.7-15.6-3-23.1c-4.6-9.3-12.6-16.9-21.2-22.4
			c-4.4-2.8-9.4-4.7-14.2-6.4c-2.9-1-5.9-1.7-9-2.2c-8.9-1.4-17.4-2.2-26.3-1.1c-8.8,1.1-17.5,2.4-25.8,5.5
			c-11.2,4.2-22.1,9.4-33.1,14.1c2.4-1,4.8-2,7.2-3c-8.8,3.7-17.8,6.9-27.3,8.3c2.7-0.4,5.3-0.7,8-1.1c-4.9,0.6-9.7,0.6-14.6,0
			c2.7,0.4,5.3,0.7,8,1.1c-15.1-2.2-28.3-10.5-43.1-14c-14.4-3.3-29.3-4.2-43.9-2.3c-15.2,1.9-29.7,5.1-44.3,9.7
			c-12.5,3.9-24.8,8.4-37.3,12.6c-13.7,4.5-27.6,8.6-41.9,10.5c2.7-0.4,5.3-0.7,8-1.1c-9.5,1.3-19.1,1.5-28.7,0.2
			c2.7,0.4,5.3,0.7,8,1.1c-7.7-1.1-15-3.2-22.2-6.2c2.4,1,4.8,2,7.2,3c-10.3-4.4-19.8-10.3-29.3-16.1c-11.3-6.9-22.6-12.9-34.9-17.8
			c-4.8-1.9-9.8-3.3-14.9-4.1c-4.8-0.8-9.9-1.6-14.9-1.7c-5.2-0.1-10.4,0.7-15.6,1.5c-13.6,2-26.5,8.5-38.1,15.8
			c-10.7,6.8-20.8,14.9-32.5,19.9c2.4-1,4.8-2,7.2-3c-5.5,2.3-11.1,3.9-17,4.7c2.7-0.4,5.3-0.7,8-1.1c-4.7,0.6-9.4,0.7-14.1,0.1
			c2.7,0.4,5.3,0.7,8,1.1c-3-0.5-5.9-1.2-8.8-2.4c2.4,1,4.8,2,7.2,3c-2.3-1-4.4-2.2-6.4-3.7c2,1.6,4,3.1,6.1,4.7
			c-1.6-1.3-3-2.7-4.3-4.4c1.6,2,3.1,4,4.7,6.1c-0.6-0.8-1.1-1.5-1.6-2.3c-4.1-6.5-10.4-11.7-17.9-13.8c-7.2-2-16.7-1.1-23.1,3
			c-6.4,4.1-12,10.3-13.8,17.9C224.3,775.4,224.8,783.9,229.1,790.8L229.1,790.8z"/>
	</g>
</g>
<g>
	<path class="st2" d="M286,803c4.1,18.3,29.1,26.5,48.8,22c19.6-4.5,35.3-17.6,51.7-28.6c16.4-11,36.3-20.6,56-16.6
		c28.3,5.7,44.8,36.9,73.4,41.1c20.3,3,39.2-8.5,56.8-18.3c17.5-9.8,39.4-18.6,57.8-10.2c16.6,7.5,26.4,27.6,44.9,28.4
		c18.5,0.8,29.5-17.8,43.1-29.3c24.6-20.7,68.4-17,88.4,7.6"/>
	<g>
		<path class="st2" d="M257.1,811c3.5,14.6,13.7,26.6,26.2,34.4c11.2,7,24.8,10.2,37.9,10.8c25.8,1.2,49.2-12.1,69.7-26.4
			c10.4-7.2,20.7-14.5,32.4-19.4c-2.4,1-4.8,2-7.2,3c5.9-2.4,12-4.3,18.3-5.1c-2.7,0.4-5.3,0.7-8,1.1c4.5-0.5,8.9-0.6,13.4,0
			c-2.7-0.4-5.3-0.7-8-1.1c4.1,0.6,8.1,1.8,12,3.4c-2.4-1-4.8-2-7.2-3c7.1,3,13.4,7.4,19.5,12c-2-1.6-4-3.1-6.1-4.7
			c7.9,6.1,15.5,12.6,23.6,18.4c8,5.8,16.7,10.3,26.1,13.5c12.9,4.4,26.6,4,39.9,1.6c4.7-0.8,9.2-2.3,13.6-4
			c6.8-2.7,13.5-5.6,19.9-8.9c9.7-5,18.9-10.8,28.9-15.2c-2.4,1-4.8,2-7.2,3c6.5-2.8,13.3-4.9,20.3-6c-2.7,0.4-5.3,0.7-8,1.1
			c4.2-0.6,8.4-0.7,12.7-0.1c-2.7-0.4-5.3-0.7-8-1.1c3.4,0.5,6.6,1.3,9.8,2.6c-2.4-1-4.8-2-7.2-3c3.5,1.5,6.6,3.5,9.6,5.8
			c-2-1.6-4-3.1-6.1-4.7c5.4,4.1,10.1,9,15.3,13.3c8.6,7.2,17.6,13.7,28.7,16.6c5.5,1.4,11.5,2.3,17.2,1.7c9.1-0.9,15-2.5,23.2-6.3
			c4.1-1.9,7.6-4.6,11.2-7.3c3.7-2.8,7.2-5.7,10.5-9c5.6-5.6,10.9-11.6,17.1-16.6c-2,1.6-4,3.1-6.1,4.7c3.7-2.8,7.8-5.2,12-7
			c-2.4,1-4.8,2-7.2,3c5.4-2.3,11.1-3.8,16.9-4.6c-2.7,0.4-5.3,0.7-8,1.1c6.4-0.8,12.8-0.8,19.1,0.1c-2.7-0.4-5.3-0.7-8-1.1
			c5.9,0.8,11.6,2.3,17,4.6c-2.4-1-4.8-2-7.2-3c4.7,2,9.2,4.5,13.2,7.6c-2-1.6-4-3.1-6.1-4.7c3.1,2.4,6,5.1,8.5,8.2
			c4.6,5.6,14.2,8.8,21.2,8.8c7.4,0,16.1-3.3,21.2-8.8c5.2-5.7,9.1-13.2,8.8-21.2c-0.4-2.7-0.7-5.3-1.1-8c-1.4-5.1-4-9.5-7.7-13.2
			c-4.2-5.1-9.3-8.9-14.6-12.9c-3.4-2.5-7-4.7-10.8-6.5c-6-2.8-12.2-5.5-18.6-7.1c-6.6-1.7-13.4-2.6-20.1-3.1
			c-10.9-0.9-22.5,0.5-33,3.5c-13,3.8-24.1,10.2-34.3,18.9c-7.9,6.8-14.3,15.1-22.5,21.5c2-1.6,4-3.1,6.1-4.7
			c-2.7,2.1-5.6,3.9-8.7,5.3c2.4-1,4.8-2,7.2-3c-2.3,0.9-4.7,1.6-7.1,1.9c2.7-0.4,5.3-0.7,8-1.1c-2.1,0.2-4.2,0.2-6.3,0
			c2.7,0.4,5.3,0.7,8,1.1c-2.4-0.3-4.8-1-7-1.9c2.4,1,4.8,2,7.2,3c-3.3-1.4-6.2-3.3-9.1-5.4c2,1.6,4,3.1,6.1,4.7
			c-5.5-4.3-10.4-9.3-15.7-13.7c-4.5-3.7-9.2-7.6-14.3-10.5c-5.4-3-11.5-5.6-17.6-6.9c-13.3-2.8-26.5-2.2-39.7,1.3
			c-10.9,2.9-21.4,7.8-31.3,13.1c-9,4.9-17.7,10.2-27.1,14.2c2.4-1,4.8-2,7.2-3c-6,2.5-12.2,4.5-18.7,5.4c2.7-0.4,5.3-0.7,8-1.1
			c-4.1,0.5-8.2,0.6-12.3,0.1c2.7,0.4,5.3,0.7,8,1.1c-4.2-0.6-8.3-1.7-12.2-3.3c2.4,1,4.8,2,7.2,3c-7-3-13.4-7.3-19.4-12
			c2,1.6,4,3.1,6.1,4.7c-17.9-13.8-35.3-30.5-58.6-34.1c-5-0.8-10.1-1.6-15.2-1.5c-5.4,0-10.7,0.9-16,1.8
			c-5.7,0.9-11.2,2.7-16.5,4.9c-7.7,3.2-15.2,6.5-22.3,10.8c-4.8,2.9-9.4,6.1-14,9.4c-10.4,7.3-20.8,14.6-32.5,19.6
			c2.4-1,4.8-2,7.2-3c-5,2.1-10.3,3.7-15.7,4.5c2.7-0.4,5.3-0.7,8-1.1c-4.8,0.6-9.6,0.6-14.4,0c2.7,0.4,5.3,0.7,8,1.1
			c-4.3-0.6-8.4-1.7-12.4-3.4c2.4,1,4.8,2,7.2,3c-3-1.3-5.8-2.9-8.3-4.8c2,1.6,4,3.1,6.1,4.7c-1.9-1.5-3.7-3.2-5.2-5.2
			c1.6,2,3.1,4,4.7,6.1c-1.2-1.6-2.2-3.3-3.1-5.2c1,2.4,2,4.8,3,7.2c-0.6-1.3-1-2.7-1.3-4.1c-1.7-7.2-7.5-14.3-13.8-17.9
			c-6.4-3.8-15.9-5.4-23.1-3c-7.3,2.3-14.3,6.8-17.9,13.8C256.2,795.2,255.2,802.9,257.1,811L257.1,811z"/>
	</g>
</g>
<g>
	<path class="st3" d="M348,844.9c3.2,18.3,22.7,26.5,38,22c15.3-4.5,27.5-17.6,40.3-28.6c12.7-11,28.3-20.6,43.7-16.6
		c22.1,5.7,34.9,36.9,57.2,41.1c15.8,3,30.6-8.5,44.2-18.3s30.7-18.6,45.1-10.2c12.9,7.5,20.6,27.6,35,28.4
		c14.4,0.8,23-17.8,33.6-29.3c19.2-20.7,53.3-17,68.9,7.6"/>
	<g>
		<path class="st3" d="M319.1,852.8c1,5.6,3.4,11.2,6.3,16.1c1.9,3.4,4.5,6.4,7,9.4c1,1.2,2.1,2.4,3.3,3.4c4,3.5,8.4,7.1,13.3,9.3
			c5,2.3,10.1,4.7,15.6,5.5c5.5,0.9,11.2,1.9,16.8,1.2c6-0.7,11.4-1.3,16.9-3.5c6.1-2.4,11.9-4.9,17.4-8.5
			c5.5-3.6,10.6-7.7,15.6-11.9c7.4-6.2,14.2-13,21.9-18.9c-2,1.6-4,3.1-6.1,4.7c5-3.9,10.4-7.3,16.2-9.8c-2.4,1-4.8,2-7.2,3
			c3.3-1.4,6.7-2.4,10.2-2.9c-2.7,0.4-5.3,0.7-8,1.1c2.8-0.4,5.6-0.4,8.4,0c-2.7-0.4-5.3-0.7-8-1.1c2.5,0.4,5,1.1,7.3,2
			c-2.4-1-4.8-2-7.2-3c3.5,1.5,6.6,3.5,9.6,5.8c-2-1.6-4-3.1-6.1-4.7c5.9,4.6,10.9,10,16.1,15.3c6.7,6.9,13.9,13.5,22,18.6
			c10.2,6.5,23.4,10.4,35.5,9c4.5-0.5,9.2-1,13.6-2.3c4.6-1.4,9-3.4,13.3-5.4c4.4-2,8.5-4.6,12.6-7.3c9.3-6.3,18-13.5,28.4-17.9
			c-2.4,1-4.8,2-7.2,3c3.5-1.4,7.1-2.5,10.8-3.1c-2.7,0.4-5.3,0.7-8,1.1c2.5-0.3,5-0.4,7.6-0.1c-2.7-0.4-5.3-0.7-8-1.1
			c2.1,0.3,4.2,0.8,6.1,1.6c-2.4-1-4.8-2-7.2-3c2.3,1,4.3,2.2,6.2,3.7c-2-1.6-4-3.1-6.1-4.7c4.4,3.5,8,7.9,11.6,12.1
			c5.1,6,10.5,11,17.1,15.5c4,2.7,8.7,4.7,13.4,5.9c8,2,14.3,1.7,22.3,0.3c4.8-0.9,9.6-3,13.7-5.5c3.1-1.9,6.1-4.4,8.9-6.7
			c1.1-0.9,2.1-1.8,3.1-2.8c6.5-6.5,11.6-14.2,17.1-21.5c-1.6,2-3.1,4-4.7,6.1c3.1-4,6.4-7.9,10.4-11.1c-2,1.6-4,3.1-6.1,4.7
			c2.9-2.2,5.9-4,9.2-5.4c-2.4,1-4.8,2-7.2,3c3.5-1.5,7.2-2.5,11-3c-2.7,0.4-5.3,0.7-8,1.1c3.8-0.5,7.6-0.5,11.4,0
			c-2.7-0.4-5.3-0.7-8-1.1c4,0.6,7.9,1.6,11.6,3.2c-2.4-1-4.8-2-7.2-3c3.6,1.6,7,3.6,10.1,6c-2-1.6-4-3.1-6.1-4.7
			c2.9,2.3,5.6,5,7.9,7.9c-1.6-2-3.1-4-4.7-6.1c0.9,1.2,1.7,2.4,2.5,3.6c4.2,6.5,10.3,11.7,17.9,13.8c4,1.3,8,1.4,12,0.5
			c4-0.2,7.7-1.4,11.2-3.6c6.4-4.1,12-10.3,13.8-17.9c1.7-7.7,1.4-16.3-3-23.1c-6.4-10-14.2-17.8-24.1-24.4
			c-4.7-3.1-10.1-5.2-15.3-7.3c-3-1.2-6-2-9.2-2.6c-5.5-0.9-11.3-1.9-16.9-1.6c-4,0.1-8,0.8-11.9,1.4c-1.6,0.2-3.3,0.5-4.9,0.9
			c-5.4,1.4-10.7,3.7-15.6,6.1c-5,2.5-9.5,6.2-13.8,9.7c-3,2.4-5.5,5.3-7.9,8.2c-4.1,5.1-8,10.4-12,15.7c1.6-2,3.1-4,4.7-6.1
			c-3.1,4-6.3,8-10.3,11.1c2-1.6,4-3.1,6.1-4.7c-1.5,1.2-3.2,2.2-5,3c2.4-1,4.8-2,7.2-3c-1.5,0.6-2.9,1-4.5,1.3
			c2.7-0.4,5.3-0.7,8-1.1c-1.4,0.2-2.9,0.2-4.3,0c2.7,0.4,5.3,0.7,8,1.1c-1.4-0.2-2.7-0.6-3.9-1.1c2.4,1,4.8,2,7.2,3
			c-1.9-0.8-3.6-1.8-5.2-3.1c2,1.6,4,3.1,6.1,4.7c-5-3.9-8.9-9.1-13.1-13.9c-2.1-2.4-4.2-4.7-6.6-6.8c-2.9-2.5-6-5-9.2-7.2
			c-2.6-1.8-5.4-2.8-8.2-4c-7-3-14.4-4.7-22.1-4.4c-4.3,0.1-8.6,0.8-12.8,1.6c-2.1,0.4-4.1,0.9-6.1,1.6c-10.4,3.6-19.8,8.6-28.7,15
			c-7.8,5.6-15.6,11.5-24.4,15.2c2.4-1,4.8-2,7.2-3c-3.2,1.3-6.5,2.3-10,2.8c2.7-0.4,5.3-0.7,8-1.1c-2.6,0.3-5.1,0.3-7.7,0
			c2.7,0.4,5.3,0.7,8,1.1c-2.5-0.4-4.9-1.1-7.2-2c2.4,1,4.8,2,7.2,3c-3.4-1.5-6.6-3.5-9.5-5.8c2,1.6,4,3.1,6.1,4.7
			c-6-4.7-11.2-10.4-16.6-15.9c-6.8-6.9-14.1-13.6-22.4-18.6c-5.1-3.1-10.8-5.6-16.6-7c-10-2.3-18.6-2.1-28.6-0.2
			c-7,1.3-13.9,4.4-20.1,7.7c-6.7,3.5-12.6,8.2-18.5,12.9c-8.8,6.9-16.6,15-25.5,21.8c2-1.6,4-3.1,6.1-4.7c-4.7,3.6-9.6,6.8-15,9.1
			c2.4-1,4.8-2,7.2-3c-2.9,1.2-5.9,2.2-9.1,2.7c2.7-0.4,5.3-0.7,8-1.1c-2.9,0.4-5.9,0.4-8.8,0c2.7,0.4,5.3,0.7,8,1.1
			c-2.8-0.4-5.5-1.1-8.1-2.2c2.4,1,4.8,2,7.2,3c-2.4-1-4.7-2.3-6.8-3.9c2,1.6,4,3.1,6.1,4.7c-1.8-1.4-3.5-3.1-4.9-4.9
			c1.6,2,3.1,4,4.7,6.1c-1.3-1.8-2.5-3.7-3.4-5.7c1,2.4,2,4.8,3,7.2c-0.8-2-1.4-4.1-1.8-6.2c-0.9-3.9-2.7-7.3-5.4-10.2
			c-2.1-3.3-4.9-5.8-8.4-7.7c-3.4-2.2-7.2-3.4-11.2-3.6c-4-0.9-8-0.7-12,0.5c-7.3,2.3-14.3,6.8-17.9,13.8c-1,2.4-2,4.8-3,7.2
			C317.6,842.2,317.6,847.5,319.1,852.8L319.1,852.8z"/>
	</g>
</g>
<g>
	<path class="st4" d="M401,874.9c2.4,18.3,17.4,26.5,29.1,22c11.7-4.5,21.1-17.6,30.9-28.6c9.8-11,21.7-20.6,33.5-16.6
		c16.9,5.7,26.7,36.9,43.8,41.1c12.1,3,23.4-8.5,33.9-18.3c10.5-9.8,23.5-18.6,34.5-10.2c9.9,7.5,15.8,27.6,26.8,28.4
		c11,0.8,17.6-17.8,25.8-29.3c14.7-20.7,40.8-17,52.8,7.6"/>
	<g>
		<path class="st4" d="M372.1,882.9c0.8,5.9,3.2,11.2,5.7,16.6c0.6,1.3,1.4,2.6,2.2,3.8c2.2,3.2,4.6,6.5,7.3,9.3
			c2.6,2.7,5.9,5,8.8,7.1c1.1,0.8,2.3,1.6,3.5,2.2c3.3,1.6,6.8,3.2,10.3,4.3c3.6,1.1,8,1.5,11.5,1.8c1.2,0.1,2.4,0.1,3.6,0.1
			c3.1-0.3,6.2-0.7,9.3-1.2c0.8-0.1,1.5-0.3,2.2-0.5c3.7-1.1,7.3-2.8,10.8-4.4c1.6-0.8,3.2-1.7,4.7-2.8c8.4-5.8,15.3-12.4,21.9-20.1
			c6.1-7.1,11.9-14.4,19.3-20.2c-2,1.6-4,3.1-6.1,4.7c2.7-2,5.5-3.8,8.6-5.1c-2.4,1-4.8,2-7.2,3c1.9-0.8,3.8-1.3,5.7-1.6
			c-2.7,0.4-5.3,0.7-8,1.1c1.6-0.2,3.3-0.2,4.9,0c-2.7-0.4-5.3-0.7-8-1.1c1.5,0.2,2.9,0.6,4.3,1.2c-2.4-1-4.8-2-7.2-3
			c2,0.8,3.8,2,5.5,3.3c-2-1.6-4-3.1-6.1-4.7c4.1,3.2,7.5,7.3,10.7,11.4c-1.6-2-3.1-4-4.7-6.1c4.7,6.1,9.3,12.4,14.1,18.5
			c4.7,5.9,9.9,10.4,16.1,14.8c3.7,2.7,8.3,4.4,12.4,5.9c1.2,0.4,2.3,0.7,3.5,0.9c3.9,0.6,8,1.5,12,1.1c3.7-0.3,8.1-0.7,11.9-1.9
			c3.9-1.2,7.8-2.9,11.5-4.8c5.1-2.6,9.6-6.5,14-10c6.5-5.2,12.1-11.4,18.6-16.5c-2,1.6-4,3.1-6.1,4.7c3-2.3,6.2-4.4,9.7-5.9
			c-2.4,1-4.8,2-7.2,3c2-0.9,4.1-1.5,6.3-1.8c-2.7,0.4-5.3,0.7-8,1.1c1.5-0.2,3-0.2,4.5,0c-2.7-0.4-5.3-0.7-8-1.1
			c1.2,0.2,2.4,0.5,3.5,1c-2.4-1-4.8-2-7.2-3c1.4,0.6,2.6,1.3,3.8,2.2c-2-1.6-4-3.1-6.1-4.7c2.1,1.6,3.9,3.6,5.5,5.7
			c-1.6-2-3.1-4-4.7-6.1c3.2,4.2,5.9,8.8,8.9,13.1c2.8,4,5.7,8.1,9.2,11.5c2.5,2.4,5.4,4.5,8.2,6.5c1.9,1.4,4,2.1,6.2,3
			c2.1,0.9,3.9,1.8,6.1,2.2c7.9,1.5,10.6,1.4,18.5,0c4.4-0.8,8.9-2.8,12.5-5.4c2.7-1.9,5.8-4.2,8.3-6.6c1.8-1.8,3.3-3.9,4.8-5.9
			c2.5-3.2,4.8-6.4,7-9.9c3.3-5.5,6.3-11.4,10.2-16.5c-1.6,2-3.1,4-4.7,6.1c1.8-2.3,3.9-4.5,6.3-6.3c-2,1.6-4,3.1-6.1,4.7
			c2-1.5,4.1-2.7,6.4-3.7c-2.4,1-4.8,2-7.2,3c2.2-0.9,4.4-1.5,6.7-1.8c-2.7,0.4-5.3,0.7-8,1.1c2.3-0.3,4.6-0.3,6.9,0
			c-2.7-0.4-5.3-0.7-8-1.1c2.4,0.4,4.8,1,7.1,2c-2.4-1-4.8-2-7.2-3c2.4,1,4.6,2.4,6.7,3.9c-2-1.6-4-3.1-6.1-4.7
			c2.6,2,4.8,4.3,6.8,6.9c-1.6-2-3.1-4-4.7-6.1c1.9,2.5,3.5,5.2,4.9,8c1.9,3.5,4.5,6.3,7.7,8.4c2.9,2.7,6.3,4.4,10.2,5.4
			c4,1.3,8,1.4,12,0.5c4-0.2,7.7-1.4,11.2-3.6c6.4-4.1,12-10.3,13.8-17.9c0.4-2.7,0.7-5.3,1.1-8c0-5.4-1.4-10.5-4.1-15.1
			c-2.7-5.4-6.4-10-10.2-14.7c-3.5-4.4-8-7.7-12.5-11c-4.4-3.2-9.3-5.1-14.4-7.1c-4.9-2-10.6-2.5-15.8-2.9
			c-5.1-0.4-10.5,0.5-15.5,1.6c-1.3,0.3-2.5,0.6-3.7,1.1c-3.7,1.4-7.6,2.9-11.1,4.9c-9.8,5.6-17.3,14.1-23.3,23.5
			c-4.1,6.4-7.3,13.3-12,19.3c1.6-2,3.1-4,4.7-6.1c-1.3,1.7-2.8,3.3-4.5,4.7c2-1.6,4-3.1,6.1-4.7c-0.9,0.7-1.9,1.3-3,1.8
			c2.4-1,4.8-2,7.2-3c-0.8,0.3-1.7,0.6-2.6,0.7c2.7-0.4,5.3-0.7,8-1.1c-0.8,0.1-1.6,0.1-2.4,0c2.7,0.4,5.3,0.7,8,1.1
			c-0.9-0.1-1.7-0.4-2.5-0.7c2.4,1,4.8,2,7.2,3c-1-0.5-2-1-2.9-1.7c2,1.6,4,3.1,6.1,4.7c-1.9-1.5-3.5-3.3-5-5.3c1.6,2,3.1,4,4.7,6.1
			c-2.9-3.8-5.4-8-8.1-11.9c-2.7-3.9-5.5-7.7-8.7-11.3c-3.1-3.5-7-6.5-10.8-9c-6.8-4.5-14.4-5.9-22.3-6.6c-2.5-0.2-5.1,0.3-7.6,0.6
			c-2.7,0.4-5.4,0.6-8.1,1.5c-3.6,1.2-7.1,2.8-10.6,4.4c-1.5,0.7-2.9,1.5-4.2,2.4c-4.7,3-9.2,6.5-13.4,10.2
			c-5.6,4.8-10.7,10.2-16.5,14.7c2-1.6,4-3.1,6.1-4.7c-2.9,2.2-5.9,4.2-9.3,5.7c2.4-1,4.8-2,7.2-3c-1.8,0.7-3.7,1.3-5.6,1.6
			c2.7-0.4,5.3-0.7,8-1.1c-1.5,0.2-2.9,0.2-4.4,0c2.7,0.4,5.3,0.7,8,1.1c-1.5-0.2-3-0.6-4.4-1.2c2.4,1,4.8,2,7.2,3
			c-1.9-0.8-3.6-1.9-5.2-3.1c2,1.6,4,3.1,6.1,4.7c-4.1-3.2-7.5-7.2-10.6-11.3c1.6,2,3.1,4,4.7,6.1c-5.3-6.9-10.4-14.2-16-20.9
			c-1.9-2.2-3.8-4.3-6-6.2c-3.8-3.2-8-6.9-12.6-8.9c-3.2-1.4-7.1-3.5-10.9-4.2c-4.2-0.8-8.9-1.7-13.3-1.3c-4.1,0.4-8.8,0.8-12.8,2.2
			c-4.1,1.4-8.2,3.1-12,5.2c-1.8,1-3.5,2.2-5.1,3.4c-3.8,2.8-7.5,5.7-11,8.9c-3.2,3-6.1,6.3-8.9,9.6c-6.1,7.1-12,14.6-19.4,20.4
			c2-1.6,4-3.1,6.1-4.7c-2.4,1.9-5,3.5-7.9,4.7c2.4-1,4.8-2,7.2-3c-1.6,0.7-3.2,1.1-4.9,1.4c2.7-0.4,5.3-0.7,8-1.1
			c-1.6,0.2-3.2,0.2-4.9,0c2.7,0.4,5.3,0.7,8,1.1c-1.8-0.2-3.5-0.7-5.1-1.4c2.4,1,4.8,2,7.2,3c-1.8-0.8-3.5-1.8-5.1-3
			c2,1.6,4,3.1,6.1,4.7c-1.5-1.2-2.9-2.6-4.1-4.2c1.6,2,3.1,4,4.7,6.1c-1.5-1.9-2.7-4-3.6-6.2c1,2.4,2,4.8,3,7.2
			c-1.1-2.7-1.8-5.4-2.2-8.3c-0.9-3.9-2.7-7.3-5.4-10.2c-2.1-3.3-4.9-5.8-8.4-7.7c-3.4-2.2-7.2-3.4-11.2-3.6c-4-0.9-8-0.7-12,0.5
			c-2.4,1-4.8,2-7.2,3c-4.5,2.7-8.1,6.3-10.8,10.8c-1,2.4-2,4.8-3,7.2C370.6,872.2,370.6,877.5,372.1,882.9L372.1,882.9z"/>
	</g>
</g>
<circle class="st6" cx="540" cy="540" r="378"/>
</svg>
